<?xml version="1.0" standalone="no"?>
<!DOCTYPE svg PUBLIC "-//W3C//DTD SVG 1.1//EN" "http://www.w3.org/Graphics/SVG/1.1/DTD/svg11.dtd" >
<svg xmlns="http://www.w3.org/2000/svg" xmlns:xlink="http://www.w3.org/1999/xlink" version="1.1">
<metadata>
Created by FontForge 20150526 at Sun Aug 11 14:06:11 2019
 By David Newman
(c) Copyright (c) 2010. All rights reserved. Fakt is a design by Thomas Thiemich, published by OurType. www.ourtype.com
</metadata>
<defs>
<font id="FaktPro-ThinItalic" horiz-adv-x="352" >
  <font-face 
    font-family="Fakt Pro Thin"
    font-weight="200"
    font-style="italic"
    font-stretch="normal"
    units-per-em="1000"
    panose-1="2 0 0 0 0 0 0 0 0 0"
    ascent="748"
    descent="-252"
    x-height="488"
    cap-height="688"
    bbox="-215 -312 1102 1012"
    underline-thickness="50"
    underline-position="-100"
    stemh="28"
    stemv="32"
    unicode-range="U+0020-FB04"
  />
<missing-glyph horiz-adv-x="712" 
d="M0 0v720h712v-720h-712zM232 184l126 129l126 -129l52 52l-127 130l127 130l-52 52l-126 -129l-126 129l-52 -52l126 -130l-126 -130z" />
    <glyph glyph-name="fi" unicode="fi" horiz-adv-x="490" 
d="M327 0l77 462h-231l-78 -462h-32l78 462h-104l3 26h105l17 97c17 102 75 147 163 147h36l-3 -28h-34c-71 0 -115 -34 -130 -120l-17 -96h264l-82 -488h-32zM434 643l15 89h33l-14 -89h-34z" />
    <glyph glyph-name="fl" unicode="fl" horiz-adv-x="490" 
d="M37 462l3 26h105l17 97c17 102 75 147 164 147h157l-124 -732h-32l119 704h-122c-70 0 -115 -34 -130 -120l-17 -96h114l-3 -26h-115l-78 -462h-32l78 462h-104z" />
    <glyph glyph-name="f_b" unicode="fb" horiz-adv-x="845" 
d="M327 0l120 704h-123c-70 0 -115 -34 -130 -120l-17 -96h114l-3 -26h-115l-78 -462h-32l78 462h-104l3 26h105l17 97c17 102 75 147 164 147h158l-28 -161c-1 -7 -31 -180 -34 -194h2c41 73 111 120 188 120c116 0 187 -85 187 -205c0 -167 -108 -301 -247 -301
c-93 0 -157 60 -171 146h-1l-23 -137h-30zM399 198c0 -105 56 -179 153 -179c125 0 215 130 215 271c0 105 -60 179 -157 179c-125 0 -211 -128 -211 -271z" />
    <glyph glyph-name="f_f_b" unicode="ffb" horiz-adv-x="1109" 
d="M591 0l120 704h-123c-70 0 -116 -34 -131 -120l-16 -96h114l-4 -26h-115l-77 -462h-32l77 462h-231l-78 -462h-32l78 462h-104l3 26h105l17 97c17 102 75 147 164 147h35l-3 -28h-34c-70 0 -115 -34 -130 -120l-17 -96h232l16 97c18 102 75 147 164 147h159l-28 -161
c-1 -7 -31 -180 -34 -194h2c41 73 111 120 188 120c116 0 187 -85 187 -205c0 -167 -108 -301 -247 -301c-93 0 -157 60 -171 146h-1l-23 -137h-30zM663 198c0 -105 56 -179 153 -179c125 0 215 130 215 271c0 105 -60 179 -157 179c-125 0 -211 -128 -211 -271z" />
    <glyph glyph-name="f_f_h" unicode="ffh" horiz-adv-x="1095" 
d="M37 462l3 26h105l17 97c17 102 75 147 164 147h35l-3 -28h-34c-70 0 -115 -34 -130 -120l-17 -96h232l16 97c18 102 75 147 164 147h157l-28 -169c-3 -14 -31 -178 -34 -190h1c44 84 111 124 190 124c102 0 168 -61 145 -194l-52 -303h-32l52 301
c20 117 -29 168 -120 168c-89 0 -179 -74 -204 -222l-42 -247h-32l119 704h-121c-70 0 -116 -34 -131 -120l-16 -96h114l-4 -26h-115l-77 -462h-32l77 462h-231l-78 -462h-32l78 462h-104z" />
    <glyph glyph-name="f_f_j" unicode="ffj" horiz-adv-x="753" 
d="M457 -192h25c49 0 80 21 91 86l95 568h-232l-77 -462h-32l77 462h-231l-78 -462h-32l78 462h-104l3 26h105l17 97c17 102 75 147 164 147h35l-3 -28h-34c-70 0 -115 -34 -130 -120l-17 -96h232l16 97c18 102 75 147 164 147h36l-4 -28h-33c-71 0 -116 -34 -131 -120
l-16 -96h264l-102 -599c-13 -76 -55 -109 -124 -109h-27zM698 643l15 89h33l-15 -89h-33z" />
    <glyph glyph-name="f_f_k" unicode="ffk" horiz-adv-x="1029" 
d="M37 462l3 26h105l17 97c17 102 75 147 164 147h35l-3 -28h-34c-70 0 -115 -34 -130 -120l-17 -96h232l16 97c18 102 75 147 164 147h157l-95 -559l340 315h39l-221 -204l157 -284h-34l-146 262l-142 -130l-22 -132h-32l119 704h-121c-70 0 -116 -34 -131 -120l-16 -96
h114l-4 -26h-115l-77 -462h-32l77 462h-231l-78 -462h-32l78 462h-104z" />
    <glyph glyph-name="f_f_t" unicode="fft" horiz-adv-x="823" 
d="M602 134l55 328h-221l-77 -462h-32l77 462h-231l-78 -462h-32l78 462h-104l3 26h105l17 97c17 102 75 147 164 147h35l-3 -28h-34c-70 0 -115 -34 -130 -120l-17 -96h232l16 97c18 102 75 147 164 147h40l-4 -28h-37c-70 0 -116 -34 -131 -120l-16 -96h221l25 148h32
l-25 -148h145l-3 -26h-146l-54 -326c-13 -74 5 -108 75 -108h56l-3 -28h-57c-90 0 -120 45 -105 134z" />
    <glyph glyph-name="f_h" unicode="fh" horiz-adv-x="832" 
d="M37 462l3 26h105l17 97c17 102 75 147 164 147h157l-28 -168c-3 -14 -31 -178 -34 -190h2c42 84 110 123 189 123c101 0 167 -61 145 -194l-52 -303h-32l51 301c20 117 -28 168 -119 168c-88 0 -177 -69 -203 -219l-43 -250h-32l119 704h-122c-70 0 -115 -34 -130 -120
l-17 -96h114l-3 -26h-115l-78 -462h-32l78 462h-104z" />
    <glyph glyph-name="f_j" unicode="fj" horiz-adv-x="490" 
d="M193 -192h26c49 0 79 21 90 86l95 568h-231l-78 -462h-32l78 462h-104l3 26h105l17 97c17 102 75 147 164 147h35l-3 -28h-34c-70 0 -115 -34 -130 -120l-17 -96h264l-101 -599c-13 -76 -55 -109 -124 -109h-27zM434 643l15 89h33l-14 -89h-34z" />
    <glyph glyph-name="f_k" unicode="fk" horiz-adv-x="765" 
d="M37 462l3 26h105l17 97c17 102 75 147 164 147h157l-95 -559l339 315h40l-222 -204l158 -284h-34l-147 262l-141 -129l-22 -133h-32l119 704h-122c-70 0 -115 -34 -130 -120l-17 -96h114l-3 -26h-115l-78 -462h-32l78 462h-104z" />
    <glyph glyph-name="f_t" unicode="ft" horiz-adv-x="559" 
d="M173 462l-78 -462h-32l78 462h-104l3 26h105l17 97c17 102 75 147 164 147h39l-4 -28h-37c-70 0 -115 -34 -130 -120l-17 -96h222l25 148h32l-25 -148h145l-3 -26h-147l-55 -326c-11 -74 7 -108 77 -108h56l-4 -28h-59c-87 0 -117 45 -102 134l55 328h-221z" />
    <glyph glyph-name="ff" unicode="ff" horiz-adv-x="537" 
d="M37 462l3 26h105l17 97c17 102 75 147 164 147h35l-3 -28h-34c-70 0 -115 -34 -130 -120l-17 -96h232l16 97c18 102 75 147 164 147h40l-4 -28h-37c-70 0 -116 -34 -131 -120l-16 -96h132l-4 -26h-133l-77 -462h-32l77 462h-231l-78 -462h-32l78 462h-104z" />
    <glyph glyph-name="ffi" unicode="ffi" horiz-adv-x="753" 
d="M590 0l78 462h-232l-77 -462h-32l77 462h-231l-78 -462h-32l78 462h-104l3 26h105l17 97c17 102 75 147 164 147h35l-3 -28h-34c-70 0 -115 -34 -130 -120l-17 -96h232l16 97c18 102 75 147 164 147h36l-4 -28h-33c-71 0 -116 -34 -131 -120l-16 -96h264l-83 -488h-32z
M698 643l15 89h33l-15 -89h-33z" />
    <glyph glyph-name="ffl" unicode="ffl" horiz-adv-x="753" 
d="M37 462l3 26h105l17 97c17 102 75 147 164 147h35l-3 -28h-34c-70 0 -115 -34 -130 -120l-17 -96h232l16 97c18 102 75 147 164 147h157l-124 -732h-32l119 704h-121c-70 0 -116 -34 -131 -120l-16 -96h114l-4 -26h-115l-77 -462h-32l77 462h-231l-78 -462h-32l78 462
h-104z" />
    <glyph glyph-name=".notdef" horiz-adv-x="712" 
d="M0 0v720h712v-720h-712zM232 184l126 129l126 -129l52 52l-127 130l127 130l-52 52l-126 -129l-126 129l-52 -52l126 -130l-126 -130z" />
    <glyph glyph-name="space" unicode=" " horiz-adv-x="208" 
 />
    <glyph glyph-name="exclam" unicode="!" horiz-adv-x="213" 
d="M81 183l51 336l29 169h35l-29 -169l-64 -336h-22zM44 0l15 91h35l-15 -91h-35z" />
    <glyph glyph-name="quotedbl" unicode="&#x22;" horiz-adv-x="369" 
d="M292 436l23 159l15 93h32l-16 -93l-33 -159h-21zM116 436l23 159l15 93h32l-16 -93l-33 -159h-21z" />
    <glyph glyph-name="numbersign" unicode="#" horiz-adv-x="588" 
d="M77 482v26h124l32 180h31l-32 -180h202l32 180h30l-32 -180h119v-26h-123l-47 -269h121v-26h-126l-32 -187h-30l32 187h-202l-32 -187h-31l32 187h-116v26h121l47 269h-120zM228 482l-47 -269h202l47 269h-202z" />
    <glyph glyph-name="dollar" unicode="$" horiz-adv-x="568" 
d="M37 181h31c-11 -106 64 -163 175 -163c118 0 213 64 213 179c0 66 -37 105 -117 130l-108 33c-68 21 -127 56 -127 147c0 108 91 185 222 190l18 107h32l-18 -108c108 -7 178 -74 173 -169h-31c3 86 -61 143 -165 143c-115 0 -198 -61 -198 -161c0 -74 48 -102 113 -122
l108 -34c90 -27 131 -76 131 -153c0 -129 -105 -205 -239 -209l-18 -111h-32l18 112c-115 7 -193 74 -181 189z" />
    <glyph glyph-name="percent" unicode="%" horiz-adv-x="742" 
d="M186 337c-76 0 -112 55 -112 131c0 18 2 36 5 53c17 97 78 174 167 174c76 0 112 -55 112 -131c0 -18 -2 -36 -5 -53c-17 -97 -78 -174 -167 -174zM189 361c69 0 119 61 135 150c3 17 5 35 5 52c0 64 -27 108 -86 108c-70 0 -119 -61 -135 -150c-3 -17 -5 -35 -5 -53
c0 -63 27 -107 86 -107zM137 -12c46 71 425 641 472 712h26l-472 -712h-26zM521 -7c-77 0 -113 55 -113 131c0 18 2 36 5 53c17 97 78 174 167 174c77 0 112 -55 112 -131c0 -18 -1 -36 -4 -53c-18 -97 -78 -174 -167 -174zM523 17c70 0 119 61 135 150c3 17 5 35 5 52
c0 64 -26 108 -86 108c-69 0 -118 -61 -134 -150c-3 -17 -5 -35 -5 -53c0 -63 27 -107 85 -107z" />
    <glyph glyph-name="ampersand" unicode="&#x26;" horiz-adv-x="670" 
d="M39 157c0 125 104 178 212 223c-44 55 -71 100 -71 153c0 96 76 164 187 164c91 0 149 -53 149 -125c0 -112 -110 -155 -220 -200l194 -236c49 66 72 148 83 208h29c-11 -60 -36 -153 -95 -229l95 -115h-37l-77 92c-53 -58 -130 -101 -240 -101c-133 0 -209 73 -209 166z
M248 18c102 0 173 40 223 95l-205 247c-101 -42 -195 -90 -195 -200c0 -81 66 -142 177 -142zM210 536c0 -47 27 -90 70 -144c105 42 205 82 205 179c0 57 -46 100 -121 100c-90 0 -154 -56 -154 -135z" />
    <glyph glyph-name="quoteright" unicode="&#x2019;" horiz-adv-x="200" 
d="M92 436l57 150h-12l16 102h37l-17 -100l-62 -152h-19z" />
    <glyph glyph-name="parenleft" unicode="(" horiz-adv-x="259" 
d="M32 139c0 261 145 477 258 605h30c-94 -106 -258 -340 -258 -604c0 -161 53 -297 91 -368h-28c-41 75 -93 205 -93 367z" />
    <glyph glyph-name="parenright" unicode=")" horiz-adv-x="259" 
d="M-31 -228h-30c94 106 258 340 258 604c0 161 -53 297 -92 368h29c41 -75 94 -205 94 -367c0 -260 -146 -477 -259 -605z" />
    <glyph glyph-name="asterisk" unicode="*" horiz-adv-x="439" 
d="M307 696l-31 -150l149 51l4 -24l-151 -41l71 -117l-23 -16l-62 122l-104 -122l-20 16l113 118l-136 40l12 25l132 -52l19 150h27z" />
    <glyph glyph-name="plus" unicode="+" horiz-adv-x="568" 
d="M57 239l4 28h208l36 213h30l-36 -213h208l-4 -28h-209l-35 -211h-30l35 211h-207z" />
    <glyph glyph-name="comma" unicode="," horiz-adv-x="208" 
d="M40 0l17 105h39l-17 -102l-64 -159h-20l59 156h-14z" />
    <glyph glyph-name="hyphen" unicode="-" horiz-adv-x="396" 
d="M57 239l4 28h276l-4 -28h-276z" />
    <glyph glyph-name="period" unicode="." horiz-adv-x="208" 
d="M40 0l17 105h39l-18 -105h-38z" />
    <glyph glyph-name="slash" unicode="/" horiz-adv-x="403" 
d="M-12 -12l426 712h30l-427 -712h-29z" />
    <glyph glyph-name="zero" unicode="0" horiz-adv-x="568" 
d="M240 -9c-127 0 -183 96 -183 236c0 39 3 79 9 117c31 200 136 353 290 353c128 0 183 -96 183 -236c0 -39 -3 -78 -9 -117c-31 -200 -136 -353 -290 -353zM243 20c132 0 224 135 254 324c7 39 10 78 10 116c0 127 -48 208 -154 208c-132 0 -224 -135 -254 -324
c-7 -39 -10 -78 -10 -116c0 -127 48 -208 154 -208z" />
    <glyph glyph-name="one" unicode="1" horiz-adv-x="568" 
d="M137 511l-13 24l245 153h23l-112 -660h195l-4 -28h-428l3 28h202l104 616z" />
    <glyph glyph-name="two" unicode="2" horiz-adv-x="568" 
d="M27 0c31 154 87 214 208 280l85 46c91 50 188 88 188 210c0 79 -63 133 -154 133c-96 0 -189 -48 -214 -182h-30c28 160 142 210 246 210c103 0 183 -59 183 -158c0 -139 -110 -184 -202 -235l-85 -46c-121 -66 -161 -119 -186 -230h399l-4 -28h-434z" />
    <glyph glyph-name="three" unicode="3" horiz-adv-x="568" 
d="M40 199h30c-17 -109 48 -180 173 -180c115 0 223 64 223 187c0 78 -67 140 -173 140h-50l5 27h52c114 0 198 77 198 167c0 84 -62 129 -149 129c-95 0 -181 -51 -201 -164h-30c22 127 118 192 234 192c103 0 177 -57 177 -154c0 -96 -85 -169 -167 -182v-2
c79 -16 137 -76 137 -152c0 -141 -123 -216 -258 -216c-140 0 -222 79 -201 208z" />
    <glyph glyph-name="four" unicode="4" horiz-adv-x="568" 
d="M28 200l3 23l426 468h26l-78 -463h113l-3 -28h-114l-34 -200h-32l33 200h-340zM69 228h304l68 406z" />
    <glyph glyph-name="five" unicode="5" horiz-adv-x="568" 
d="M248 -9c-132 0 -197 81 -199 182h31c3 -77 49 -154 170 -154c96 0 169 57 204 136c13 30 21 64 21 100c0 100 -73 157 -159 157c-72 0 -138 -31 -193 -103l-32 2l85 377h368l-4 -29h-339l-71 -308h1c51 61 117 89 190 89c104 0 186 -66 186 -183c0 -37 -7 -71 -19 -102
c-39 -98 -128 -164 -240 -164z" />
    <glyph glyph-name="six" unicode="6" horiz-adv-x="568" 
d="M64 215c0 25 0 53 4 82c25 207 126 400 311 400c116 0 178 -69 172 -181h-32c5 93 -45 153 -143 153c-166 0 -251 -184 -275 -372c-1 -5 -2 -14 -2 -24c31 91 116 167 234 167c115 0 186 -73 186 -180c0 -26 -4 -50 -10 -73c-29 -110 -124 -196 -250 -196
c-114 0 -195 66 -195 224zM102 174c0 -95 64 -155 160 -155c106 0 186 75 214 168c6 22 11 46 11 71c0 92 -59 154 -159 154c-130 0 -226 -111 -226 -238z" />
    <glyph glyph-name="seven" unicode="7" horiz-adv-x="568" 
d="M144 0l403 659h-418l4 29h455l-4 -23l-405 -665h-35z" />
    <glyph glyph-name="eight" unicode="8" horiz-adv-x="568" 
d="M37 157c0 110 97 186 196 203v2c-66 15 -109 65 -109 139c0 120 113 196 231 196c105 0 179 -57 179 -157c0 -89 -78 -162 -165 -179v-2c76 -15 134 -73 134 -154c0 -133 -127 -214 -263 -214c-120 0 -203 66 -203 166zM69 159c0 -83 72 -140 174 -140
c116 0 229 69 229 185c0 81 -68 142 -175 142c-122 0 -228 -76 -228 -187zM304 373c115 0 199 77 199 166c0 85 -62 131 -150 131c-99 0 -198 -63 -198 -169c0 -72 48 -128 149 -128z" />
    <glyph glyph-name="nine" unicode="9" horiz-adv-x="568" 
d="M217 -9c-116 0 -177 69 -171 181h32c-6 -93 44 -153 143 -153c165 0 250 184 274 372c1 5 2 13 2 23c-30 -91 -117 -166 -234 -166c-115 0 -186 73 -186 180c0 26 4 50 10 73c29 110 124 196 250 196c114 0 196 -66 196 -224c0 -25 -1 -53 -5 -82
c-25 -207 -126 -400 -311 -400zM494 514c0 93 -62 155 -159 155c-106 0 -186 -75 -214 -168c-7 -22 -11 -46 -11 -71c0 -92 59 -154 158 -154c130 0 226 111 226 238z" />
    <glyph glyph-name="colon" unicode=":" horiz-adv-x="208" 
d="M106 383l18 105h38l-17 -105h-39zM40 0l17 105h39l-18 -105h-38z" />
    <glyph glyph-name="semicolon" unicode=";" horiz-adv-x="208" 
d="M106 383l18 105h38l-17 -105h-39zM40 0l17 105h39l-17 -102l-64 -159h-20l59 156h-14z" />
    <glyph glyph-name="less" unicode="&#x3c;" horiz-adv-x="568" 
d="M73 243l3 25v2l448 182l-3 -31l-415 -166l358 -164l-4 -30z" />
    <glyph glyph-name="equal" unicode="=" horiz-adv-x="568" 
d="M76 346l4 27h446l-4 -27h-446zM41 135l4 28h446l-4 -28h-446z" />
    <glyph glyph-name="greater" unicode="&#x3e;" horiz-adv-x="568" 
d="M101 421l6 30l387 -182l-4 -26l-449 -182l4 30l415 165z" />
    <glyph glyph-name="question" unicode="?" horiz-adv-x="451" 
d="M195 196l5 28c28 174 229 170 229 326c0 69 -58 119 -135 119c-99 0 -171 -58 -189 -175h-30c16 130 102 203 221 203c92 0 165 -58 165 -144c0 -173 -203 -172 -229 -329l-5 -28h-32zM169 0l14 91h35l-14 -91h-35z" />
    <glyph glyph-name="at" unicode="@" horiz-adv-x="1032" 
d="M289 111c0 96 67 139 165 151l125 16c42 5 74 15 79 45c17 96 -28 147 -116 147c-82 0 -148 -44 -170 -134h-31c24 105 102 161 203 161c104 0 166 -58 145 -179l-33 -193c-2 -10 -2 -20 -2 -28c0 -60 42 -82 89 -82c146 0 209 198 209 320c0 217 -166 338 -373 338
c-265 0 -500 -213 -500 -522c0 -212 143 -354 350 -354c119 0 212 40 284 106h35c-86 -90 -203 -131 -323 -131c-222 0 -376 153 -376 377c0 322 248 549 535 549c221 0 398 -134 398 -361c0 -142 -75 -346 -245 -346c-60 0 -114 30 -114 101v14
c-42 -72 -113 -115 -198 -115c-86 0 -136 52 -136 120zM430 18c99 0 186 61 209 197l12 66c-13 -16 -37 -22 -68 -26l-125 -16c-84 -10 -138 -48 -138 -125c0 -55 40 -96 110 -96z" />
    <glyph glyph-name="A" unicode="A" horiz-adv-x="607" 
d="M-23 0l379 688h39l148 -688h-34l-49 229h-324l-125 -229h-34zM371 654h-1l-218 -396h302z" />
    <glyph glyph-name="B" unicode="B" horiz-adv-x="640" 
d="M53 0l117 688h261c121 0 175 -52 175 -131c0 -95 -61 -174 -163 -193v-1c86 -14 133 -71 133 -141c0 -127 -102 -222 -253 -222h-270zM385 348h-241l-54 -319h237c130 0 216 81 216 190c0 71 -53 129 -158 129zM427 659h-229l-49 -282h236c113 0 188 75 188 174
c0 64 -44 108 -146 108z" />
    <glyph glyph-name="C" unicode="C" horiz-adv-x="701" 
d="M61 272c0 225 153 425 373 425c151 0 243 -85 255 -214h-32c-17 112 -92 185 -227 185c-197 0 -335 -190 -335 -393c0 -143 87 -255 238 -255c135 0 224 73 281 185h33c-58 -129 -162 -214 -318 -214c-169 0 -268 123 -268 281z" />
    <glyph glyph-name="D" unicode="D" horiz-adv-x="681" 
d="M53 0l116 688h165c212 0 315 -120 315 -283c0 -237 -161 -405 -428 -405h-168zM332 659h-136l-106 -630h133c246 0 392 156 392 376c0 144 -87 254 -283 254z" />
    <glyph glyph-name="E" unicode="E" horiz-adv-x="595" 
d="M53 0l116 688h442l-4 -29h-411l-49 -293h334l-4 -29h-335l-52 -308h417l-4 -29h-450z" />
    <glyph glyph-name="F" unicode="F" horiz-adv-x="559" 
d="M53 0l116 688h436l-4 -29h-405l-52 -308h329l-3 -29h-331l-54 -322h-32z" />
    <glyph glyph-name="G" unicode="G" horiz-adv-x="743" 
d="M593 0l21 142h-2c-62 -106 -164 -151 -278 -151c-167 0 -273 124 -273 283c0 241 168 423 382 423c160 0 249 -91 253 -208h-32c-6 98 -80 179 -224 179c-194 0 -346 -173 -346 -391c0 -145 95 -257 245 -257c131 0 264 76 293 251l9 54h-253l3 28h286l-60 -353h-24z" />
    <glyph glyph-name="H" unicode="H" horiz-adv-x="694" 
d="M53 0l116 688h32l-55 -323h436l55 323h33l-116 -688h-33l57 337h-436l-57 -337h-32z" />
    <glyph glyph-name="I" unicode="I" horiz-adv-x="226" 
d="M53 0l116 688h32l-116 -688h-32z" />
    <glyph glyph-name="J" unicode="J" horiz-adv-x="515" 
d="M205 -9c-114 0 -183 56 -158 196l8 41h32l-7 -41c-22 -118 33 -167 127 -167c90 0 157 51 178 170l84 498h33l-84 -498c-24 -142 -106 -199 -213 -199z" />
    <glyph glyph-name="K" unicode="K" horiz-adv-x="637" 
d="M49 0l120 688h32l-79 -455l496 455h40l-323 -297l223 -391h-34l-212 370l-197 -181l-33 -189h-33z" />
    <glyph glyph-name="L" unicode="L" horiz-adv-x="535" 
d="M53 0l116 688h32l-111 -659h377l-4 -29h-410z" />
    <glyph glyph-name="M" unicode="M" horiz-adv-x="856" 
d="M53 0l116 688h37l184 -644l401 644h41l-116 -688h-33l107 626h-2l-391 -626h-28l-178 626h-2l-104 -626h-32z" />
    <glyph glyph-name="N" unicode="N" horiz-adv-x="699" 
d="M53 0l116 688h29l336 -631h1l107 631h33l-116 -688h-30l-336 631h-2l-106 -631h-32z" />
    <glyph glyph-name="O" unicode="O" horiz-adv-x="743" 
d="M64 271c0 237 161 426 377 426c162 0 270 -117 270 -280c0 -237 -165 -426 -381 -426c-162 0 -266 117 -266 280zM98 273c0 -149 90 -253 237 -253c193 0 343 178 343 395c0 149 -95 253 -241 253c-194 0 -339 -178 -339 -395z" />
    <glyph glyph-name="P" unicode="P" horiz-adv-x="608" 
d="M53 0l116 688h244c122 0 188 -72 188 -171c0 -148 -104 -249 -260 -249h-211l-45 -268h-32zM409 659h-213l-61 -362h210c135 0 222 91 222 218c0 83 -55 144 -158 144z" />
    <glyph glyph-name="Q" unicode="Q" horiz-adv-x="743" 
d="M64 275c0 236 167 422 377 422c162 0 267 -119 267 -284c0 -149 -67 -278 -170 -353l111 -140l-27 -22l-112 143c-54 -32 -115 -50 -180 -50c-162 0 -266 120 -266 284zM98 275c0 -148 90 -255 237 -255c187 0 340 175 340 393c0 148 -92 255 -238 255
c-189 0 -339 -175 -339 -393z" />
    <glyph glyph-name="R" unicode="R" horiz-adv-x="633" 
d="M53 0l116 688h251c126 0 189 -61 189 -155c0 -130 -93 -218 -226 -228l149 -305h-34l-149 305h-213l-51 -305h-32zM417 659h-221l-55 -326h222c125 0 212 81 212 198c0 76 -52 128 -158 128z" />
    <glyph glyph-name="S" unicode="S" horiz-adv-x="620" 
d="M52 185h31c-19 -113 61 -166 195 -166c138 0 230 62 230 170c0 214 -392 82 -392 318c0 110 93 190 255 190c140 0 232 -61 212 -179h-31c16 101 -63 151 -184 151c-137 0 -218 -65 -218 -158c0 -209 393 -76 393 -318c0 -128 -107 -202 -267 -202
c-154 0 -247 66 -224 194z" />
    <glyph glyph-name="T" unicode="T" horiz-adv-x="563" 
d="M75 660l5 28h547l-5 -28h-257l-111 -660h-33l111 660h-257z" />
    <glyph glyph-name="U" unicode="U" horiz-adv-x="679" 
d="M86 269l72 419h33l-72 -419c-28 -166 40 -248 176 -248c134 0 237 82 265 248l72 419h33l-72 -419c-33 -192 -152 -278 -300 -278s-240 86 -207 278z" />
    <glyph glyph-name="V" unicode="V" horiz-adv-x="589" 
d="M232 0l-146 688h34l136 -654h1l357 654h34l-378 -688h-38z" />
    <glyph glyph-name="W" unicode="W" horiz-adv-x="885" 
d="M158 0l-70 688h32l65 -653h2l309 653h40l86 -653h2l287 653h32l-303 -688h-44l-87 648h-1l-307 -648h-43z" />
    <glyph glyph-name="X" unicode="X" horiz-adv-x="565" 
d="M-28 0l306 352l-181 336h35l167 -313l272 313h36l-294 -337l190 -351h-35l-177 328l-284 -328h-35z" />
    <glyph glyph-name="Y" unicode="Y" horiz-adv-x="569" 
d="M222 0l49 288l-182 400h34l170 -372h1l296 372h36l-321 -403l-50 -285h-33z" />
    <glyph glyph-name="Z" unicode="Z" horiz-adv-x="559" 
d="M126 660l5 28h460l-2 -21l-548 -639h434l-4 -28h-476l2 21l547 639h-418z" />
    <glyph glyph-name="bracketleft" unicode="[" horiz-adv-x="293" 
d="M47 -201h144l-4 -27h-174l167 972h172l-3 -27h-144z" />
    <glyph glyph-name="backslash" unicode="\" horiz-adv-x="403" 
d="M293 -12l-184 712h28l184 -712h-28z" />
    <glyph glyph-name="bracketright" unicode="]" horiz-adv-x="293" 
d="M-56 -201h144l158 918h-144l3 27h175l-167 -972h-172z" />
    <glyph glyph-name="asciicircum" unicode="^" horiz-adv-x="568" 
d="M84 352l255 336h32l138 -336h-32l-125 309l-233 -309h-35z" />
    <glyph glyph-name="underscore" unicode="_" horiz-adv-x="500" 
d="M-57 -72h500l-4 -26h-500z" />
    <glyph glyph-name="quoteleft" unicode="&#x2018;" horiz-adv-x="200" 
d="M114 436l17 100l62 152h19l-58 -150h13l-17 -102h-36z" />
    <glyph glyph-name="a" unicode="a" horiz-adv-x="505" 
d="M31 111c0 96 68 140 165 152l126 15c47 5 75 18 79 47c15 94 -32 145 -120 145c-85 0 -147 -44 -167 -134h-30c20 105 95 161 199 161c102 0 170 -56 148 -185l-53 -312h-30l21 121c-34 -77 -104 -130 -201 -130c-87 0 -137 52 -137 120zM63 114c0 -55 39 -96 109 -96
c101 0 188 64 211 200l11 65c-10 -16 -33 -25 -69 -29l-125 -15c-83 -10 -137 -48 -137 -125z" />
    <glyph glyph-name="b" unicode="b" horiz-adv-x="561" 
d="M43 0l125 732h32l-28 -161c-1 -7 -31 -180 -34 -194h2c41 73 111 120 188 120c116 0 187 -85 187 -205c0 -167 -108 -301 -247 -301c-93 0 -157 60 -171 146h-1l-23 -137h-30zM115 198c0 -105 56 -179 153 -179c125 0 215 130 215 271c0 105 -60 179 -157 179
c-125 0 -211 -128 -211 -271z" />
    <glyph glyph-name="c" unicode="c" horiz-adv-x="497" 
d="M41 196c0 25 2 49 7 73c27 127 114 228 247 228c93 0 168 -59 171 -164h-31c-4 84 -63 136 -144 136c-109 0 -185 -86 -210 -200c-5 -22 -8 -47 -8 -71c0 -107 58 -179 159 -179c75 0 141 54 173 136h32c-34 -100 -113 -164 -211 -164c-117 0 -185 87 -185 205z" />
    <glyph glyph-name="d" unicode="d" horiz-adv-x="561" 
d="M41 196c0 167 108 301 246 301c92 0 157 -61 170 -146h3c1 14 34 209 35 217l28 164h31l-124 -732h-30l18 111h-2c-40 -73 -109 -120 -188 -120c-116 0 -187 85 -187 205zM73 198c0 -105 59 -179 157 -179c125 0 211 129 211 271c0 105 -56 179 -154 179
c-125 0 -214 -130 -214 -271z" />
    <glyph glyph-name="e" unicode="e" horiz-adv-x="505" 
d="M41 197c0 25 2 48 6 70c26 139 131 230 246 230c135 0 194 -116 165 -246h-381c-3 -17 -4 -35 -4 -53c0 -107 57 -179 156 -179c76 0 144 44 177 129h32c-37 -101 -117 -157 -215 -157c-115 0 -182 85 -182 206zM289 469c-95 0 -181 -77 -207 -194h347c2 15 3 29 3 41
c0 100 -60 153 -143 153z" />
    <glyph glyph-name="f" unicode="f" horiz-adv-x="274" 
d="M37 462l3 26h105l17 97c17 102 75 147 164 147h40l-3 -28h-39c-70 0 -115 -34 -130 -120l-17 -96h132l-4 -26h-132l-78 -462h-32l78 462h-104z" />
    <glyph glyph-name="g" unicode="g" horiz-adv-x="561" 
d="M15 -60h29c-15 -88 47 -141 150 -141c105 0 181 55 207 210l17 102h-1c-40 -73 -109 -120 -189 -120c-116 0 -187 85 -187 205c0 167 108 301 246 301c92 0 157 -61 170 -146h3l23 137h30l-81 -479c-30 -173 -114 -237 -241 -237c-118 0 -195 63 -176 168zM73 198
c0 -105 59 -179 157 -179c125 0 211 129 211 271c0 105 -56 179 -154 179c-125 0 -214 -130 -214 -271z" />
    <glyph glyph-name="h" unicode="h" horiz-adv-x="549" 
d="M43 0l124 732h32l-62 -356h2c43 82 110 121 189 121c101 0 167 -61 145 -194l-52 -303h-32l51 301c20 117 -28 168 -119 168c-90 0 -179 -72 -204 -219l-42 -250h-32z" />
    <glyph glyph-name="i" unicode="i" horiz-adv-x="206" 
d="M151 643l14 89h34l-15 -89h-33zM43 0l83 488h32l-83 -488h-32z" />
    <glyph glyph-name="j" unicode="j" horiz-adv-x="206" 
d="M151 643l14 89h34l-15 -89h-33zM25 -106l101 594h32l-102 -599c-13 -76 -54 -109 -124 -109h-26l3 28h26c49 0 80 21 90 86z" />
    <glyph glyph-name="k" unicode="k" horiz-adv-x="481" 
d="M43 0l124 732h32l-95 -559l339 315h40l-222 -204l158 -284h-34l-147 263l-141 -130l-22 -133h-32z" />
    <glyph glyph-name="l" unicode="l" horiz-adv-x="206" 
d="M43 0l124 732h32l-124 -732h-32z" />
    <glyph glyph-name="m" unicode="m" horiz-adv-x="863" 
d="M43 0l83 488h30l-20 -113h2c43 83 109 122 182 122c77 0 135 -41 141 -129c46 91 115 129 187 129c95 0 160 -61 137 -194l-52 -303h-32l52 301c20 117 -28 168 -112 168s-169 -74 -194 -220l-42 -249h-32l51 301c20 117 -28 168 -111 168c-82 0 -170 -76 -193 -211
l-45 -258h-32z" />
    <glyph glyph-name="n" unicode="n" horiz-adv-x="549" 
d="M43 0l83 488h31l-20 -112h2c43 82 110 121 189 121c101 0 167 -61 145 -194l-52 -303h-32l51 301c20 117 -28 168 -119 168c-93 0 -180 -80 -204 -221l-42 -248h-32z" />
    <glyph glyph-name="o" unicode="o" horiz-adv-x="532" 
d="M41 197c0 22 2 45 6 67c25 128 119 233 248 233c116 0 188 -86 188 -206c0 -22 -2 -45 -6 -67c-25 -128 -119 -233 -247 -233c-117 0 -189 86 -189 206zM73 198c0 -105 61 -179 159 -179c103 0 189 88 212 205c5 21 7 43 7 66c0 105 -61 179 -159 179
c-103 0 -189 -88 -212 -205c-5 -21 -7 -43 -7 -66z" />
    <glyph glyph-name="p" unicode="p" horiz-adv-x="561" 
d="M62 -80l-24 -140h-32l120 708h30l-20 -116h1c41 76 113 125 191 125c116 0 188 -85 188 -204c0 -168 -108 -302 -247 -302c-94 0 -158 60 -172 146h-1zM269 19c125 0 214 130 214 271c0 105 -59 179 -156 179c-125 0 -211 -128 -211 -271c0 -105 55 -179 153 -179z" />
    <glyph glyph-name="q" unicode="q" horiz-adv-x="561" 
d="M385 -80c1 7 30 180 33 191h-1c-40 -73 -109 -120 -189 -120c-116 0 -187 85 -187 205c0 167 108 301 246 301c92 0 157 -61 170 -146h3l23 137h30l-120 -708h-32zM230 19c125 0 211 129 211 271c0 105 -56 179 -154 179c-125 0 -214 -130 -214 -271
c0 -105 59 -179 157 -179z" />
    <glyph glyph-name="r" unicode="r" horiz-adv-x="334" 
d="M43 0l83 488h30l-17 -102h1c32 64 87 111 155 111c20 0 47 -4 67 -19l-14 -27c-20 12 -41 16 -61 16c-82 0 -148 -87 -167 -199l-45 -268h-32z" />
    <glyph glyph-name="s" unicode="s" horiz-adv-x="461" 
d="M19 135h30c-15 -87 54 -118 146 -118c97 0 165 37 165 116c0 160 -292 46 -292 224c0 87 75 140 186 140c104 0 181 -41 164 -136h-30c13 77 -49 110 -135 110c-92 0 -154 -41 -154 -112c0 -152 292 -37 292 -224c0 -97 -82 -144 -197 -144c-112 0 -193 44 -175 144z" />
    <glyph glyph-name="t" unicode="t" horiz-adv-x="299" 
d="M29 462l4 26h105l25 148h32l-25 -148h146l-4 -26h-147l-54 -327c-12 -74 6 -107 76 -107h55l-3 -28h-57c-89 0 -118 45 -103 134l55 328h-105z" />
    <glyph glyph-name="u" unicode="u" horiz-adv-x="541" 
d="M210 -9c-102 0 -167 61 -144 194l51 303h32l-51 -301c-20 -117 28 -168 119 -168c88 0 175 69 202 226l42 243h32l-83 -488h-31l20 116h-2c-42 -85 -109 -125 -187 -125z" />
    <glyph glyph-name="v" unicode="v" horiz-adv-x="447" 
d="M161 0l-107 488h32l98 -453h2l253 453h32l-274 -488h-36z" />
    <glyph glyph-name="w" unicode="w" horiz-adv-x="687" 
d="M122 0l-68 488h30l64 -454h1l215 454h37l58 -454h2l218 454h31l-236 -488h-39l-58 452h-2l-213 -452h-40z" />
    <glyph glyph-name="x" unicode="x" horiz-adv-x="422" 
d="M-26 0l217 245l-131 243h34l117 -220l195 220h34l-215 -245l130 -243h-33l-118 221l-195 -221h-35z" />
    <glyph glyph-name="y" unicode="y" horiz-adv-x="447" 
d="M-44 -195h19c68 0 105 43 143 111l44 80l-108 492h32l98 -453h2l253 453h32l-329 -584c-41 -75 -83 -126 -167 -126h-23z" />
    <glyph glyph-name="z" unicode="z" horiz-adv-x="413" 
d="M69 462l3 26h351l-3 -20l-380 -442h309l-4 -26h-350l2 18l382 444h-310z" />
    <glyph glyph-name="braceleft" unicode="{" horiz-adv-x="364" 
d="M100 -81l36 207c13 79 -6 108 -86 124l2 23c79 14 117 39 131 120l35 204c16 94 69 147 159 147h45l-3 -26h-43c-70 0 -116 -42 -128 -121l-35 -204c-14 -84 -52 -114 -123 -131v-2c64 -20 91 -51 76 -134l-36 -207c-13 -80 18 -121 87 -121h43l-3 -26h-44
c-90 0 -128 53 -113 147z" />
    <glyph glyph-name="bar" unicode="|" horiz-adv-x="256" 
d="M27 -240l171 1000h30l-171 -1000h-30z" />
    <glyph glyph-name="braceright" unicode="}" horiz-adv-x="364" 
d="M115 -81l36 210c14 85 51 113 122 131v2c-64 19 -90 51 -75 133l34 202c13 80 -18 121 -87 121h-43l4 26h44c89 0 127 -53 112 -147l-34 -202c-13 -77 6 -106 86 -122l-3 -23c-78 -15 -116 -40 -130 -121l-36 -210c-16 -94 -70 -147 -160 -147h-46l4 26h43
c70 0 115 42 129 121z" />
    <glyph glyph-name="asciitilde" unicode="~" horiz-adv-x="568" 
d="M63 189c14 85 60 128 120 128c87 0 126 -94 200 -94c46 0 79 32 90 99h28c-14 -85 -59 -127 -120 -127c-87 0 -126 94 -200 94c-46 0 -79 -32 -90 -100h-28z" />
    <glyph glyph-name="exclamdown" unicode="&#xa1;" horiz-adv-x="213" 
d="M113 397l15 91h35l-15 -91h-35zM40 -31l64 336h22l-51 -336l-29 -169h-35z" />
    <glyph glyph-name="cent" unicode="&#xa2;" horiz-adv-x="568" 
d="M233 -12l17 109c-97 9 -172 80 -172 196c0 171 106 301 257 308l17 100h32l-17 -101c90 -7 157 -67 158 -165h-30c-4 90 -65 139 -149 139c-115 0 -208 -86 -230 -217c-3 -20 -5 -40 -5 -62c0 -107 72 -172 164 -172c87 0 164 51 194 136h30
c-29 -100 -124 -159 -217 -163l-17 -108h-32z" />
    <glyph glyph-name="sterling" unicode="&#xa3;" horiz-adv-x="568" 
d="M86 345l3 23h96c-11 40 -22 80 -22 121c0 127 83 208 205 208c115 0 168 -73 157 -173h-31c10 80 -30 146 -129 146c-100 0 -170 -67 -170 -178c0 -41 13 -82 25 -124h191l-2 -23h-183c8 -31 15 -63 15 -97c0 -40 -9 -88 -27 -131c47 -45 90 -98 151 -98
c83 0 112 84 127 145h28c-17 -67 -49 -173 -156 -173c-67 0 -114 55 -161 101c-29 -57 -75 -101 -136 -101c-55 0 -88 33 -88 78c0 61 47 109 114 109c38 0 69 -18 98 -42c12 37 18 76 18 105c0 35 -8 70 -17 104h-106zM69 13c53 0 90 45 113 99c-28 24 -57 43 -91 43
c-52 0 -86 -40 -86 -84c0 -33 25 -58 64 -58z" />
    <glyph glyph-name="fraction" unicode="&#x2044;" horiz-adv-x="38" 
d="M-215 -12c46 71 425 641 472 712h26l-472 -712h-26z" />
    <glyph glyph-name="yen" unicode="&#xa5;" horiz-adv-x="568" 
d="M98 273l3 22h170l-171 393h35l157 -366h2l286 366h35l-308 -393h171l-3 -22h-174l-18 -110h173l-4 -22h-173l-24 -141h-32l24 141h-171l3 22h172l18 110h-171z" />
    <glyph glyph-name="florin" unicode="&#x192;" horiz-adv-x="568" 
d="M130 329l2 24h132l33 183c20 112 76 161 152 161c73 0 121 -41 103 -162l-4 -27h-29l4 27c15 101 -19 135 -76 135c-61 0 -102 -41 -118 -134l-33 -183h157l-3 -24h-158l-63 -360c-20 -113 -77 -160 -153 -160c-73 0 -121 40 -103 162l4 26h29l-4 -26
c-14 -102 19 -136 77 -136c59 0 101 41 118 134l63 360h-130z" />
    <glyph glyph-name="section" unicode="&#xa7;" horiz-adv-x="538" 
d="M9 -80h30c-9 -87 74 -122 146 -122c108 0 183 57 183 143c0 61 -47 94 -102 112l-87 28c-80 26 -123 71 -123 140c0 98 78 160 171 180c-54 22 -98 60 -98 127c0 105 93 172 216 172c87 0 186 -40 175 -148h-30c9 87 -74 122 -147 122c-107 0 -182 -57 -182 -143
c0 -61 47 -94 102 -112l87 -28c80 -26 123 -70 123 -140c0 -99 -78 -160 -171 -180c54 -22 97 -61 97 -127c0 -105 -92 -172 -215 -172c-87 0 -186 40 -175 148zM335 365l-65 20c-94 -6 -182 -66 -182 -161c0 -58 37 -95 106 -117l64 -21c95 7 183 66 183 162
c0 58 -37 95 -106 117z" />
    <glyph glyph-name="currency" unicode="&#xa4;" horiz-adv-x="568" 
d="M102 155l-16 18l71 60c-16 22 -24 50 -24 80c0 51 23 102 60 138l-48 60l20 16l47 -59c32 24 71 40 113 40c41 0 75 -15 99 -39l71 59l15 -18l-71 -60c15 -23 24 -50 24 -79c0 -52 -24 -102 -60 -138l49 -60l-20 -16l-49 59c-32 -25 -71 -40 -112 -40s-75 15 -99 39z
M275 201c88 0 159 80 159 168c0 69 -45 114 -113 114c-88 0 -159 -80 -159 -168c0 -68 45 -114 113 -114z" />
    <glyph glyph-name="quotesingle" unicode="'" horiz-adv-x="193" 
d="M116 436l23 159l15 93h32l-16 -93l-33 -159h-21z" />
    <glyph glyph-name="quotedblleft" unicode="&#x201c;" horiz-adv-x="358" 
d="M272 436l16 100l63 152h18l-57 -150h12l-16 -102h-36zM114 436l17 100l62 152h19l-58 -150h13l-17 -102h-36z" />
    <glyph glyph-name="guillemotleft" unicode="&#xab;" horiz-adv-x="493" 
d="M368 48l-113 205l182 203h28l-176 -206l107 -202h-28zM171 48l-114 205l183 203h28l-176 -206l106 -202h-27z" />
    <glyph glyph-name="guilsinglleft" unicode="&#x2039;" horiz-adv-x="295" 
d="M171 48l-114 205l183 203h28l-176 -206l106 -202h-27z" />
    <glyph glyph-name="guilsinglright" unicode="&#x203a;" horiz-adv-x="295" 
d="M22 48l177 206l-107 202h27l114 -205l-182 -203h-29z" />
    <glyph glyph-name="endash" unicode="&#x2013;" horiz-adv-x="556" 
d="M57 239l4 28h436l-4 -28h-436z" />
    <glyph glyph-name="dagger" unicode="&#x2020;" horiz-adv-x="412" 
d="M81 474l4 27h147l32 187h30l-32 -187h147l-4 -27h-148l-80 -474h-30l80 474h-146z" />
    <glyph glyph-name="daggerdbl" unicode="&#x2021;" horiz-adv-x="412" 
d="M81 474l4 27h147l32 187h30l-32 -187h147l-4 -27h-148l-44 -260h148l-4 -27h-148l-32 -187h-30l32 187h-146l4 27h146l44 260h-146z" />
    <glyph glyph-name="periodcentered" unicode="&#xb7;" horiz-adv-x="208" 
d="M74 201l17 102h39l-17 -102h-39z" />
    <glyph glyph-name="paragraph" unicode="&#xb6;" horiz-adv-x="563" 
d="M386 0l117 688h32l-117 -688h-32zM239 0l49 287c-124 3 -190 68 -190 162c0 142 112 239 267 239h23l-117 -688h-32z" />
    <glyph glyph-name="bullet" unicode="&#x2022;" horiz-adv-x="488" 
d="M240 80c-97 0 -172 75 -172 172s75 172 172 172s172 -75 172 -172s-75 -172 -172 -172z" />
    <glyph glyph-name="quotesinglbase" unicode="&#x201a;" horiz-adv-x="200" 
d="M36 0l17 103h36l-16 -100l-62 -152h-19l56 149h-12z" />
    <glyph glyph-name="quotedblbase" unicode="&#x201e;" horiz-adv-x="358" 
d="M193 0l17 103h37l-17 -100l-62 -152h-19l57 149h-13zM36 0l17 103h36l-16 -100l-62 -152h-19l56 149h-12z" />
    <glyph glyph-name="quotedblright" unicode="&#x201d;" horiz-adv-x="358" 
d="M250 436l57 150h-13l17 102h37l-17 -100l-63 -152h-18zM92 436l57 150h-12l16 102h37l-17 -100l-62 -152h-19z" />
    <glyph glyph-name="guillemotright" unicode="&#xbb;" horiz-adv-x="493" 
d="M220 48l176 206l-107 202h28l113 -205l-182 -203h-28zM22 48l177 206l-107 202h27l114 -205l-182 -203h-29z" />
    <glyph glyph-name="ellipsis" unicode="&#x2026;" horiz-adv-x="618" 
d="M451 0l18 105h39l-18 -105h-39zM246 0l18 105h38l-17 -105h-39zM40 0l17 105h39l-18 -105h-38z" />
    <glyph glyph-name="perthousand" unicode="&#x2030;" horiz-adv-x="1094" 
d="M186 337c-76 0 -112 55 -112 131c0 18 2 36 5 53c17 97 78 174 167 174c76 0 112 -55 112 -131c0 -18 -2 -36 -5 -53c-17 -97 -78 -174 -167 -174zM189 361c69 0 119 61 135 150c3 17 5 35 5 52c0 64 -27 108 -86 108c-70 0 -119 -61 -135 -150c-3 -17 -5 -35 -5 -53
c0 -63 27 -107 86 -107zM137 -12c46 71 425 641 472 712h26l-472 -712h-26zM521 -7c-77 0 -113 55 -113 131c0 18 2 36 5 53c17 97 78 174 167 174c77 0 112 -55 112 -131c0 -18 -1 -36 -4 -53c-18 -97 -78 -174 -167 -174zM523 17c70 0 119 61 135 150c3 17 5 35 5 52
c0 64 -26 108 -86 108c-69 0 -118 -61 -134 -150c-3 -17 -5 -35 -5 -53c0 -63 27 -107 85 -107zM873 -7c-77 0 -113 55 -113 131c0 18 2 36 5 53c17 97 78 174 167 174c77 0 112 -55 112 -131c0 -18 -1 -36 -4 -53c-18 -97 -78 -174 -167 -174zM875 17c70 0 119 61 135 150
c3 17 5 35 5 52c0 64 -26 108 -86 108c-69 0 -118 -61 -134 -150c-3 -17 -5 -35 -5 -53c0 -63 27 -107 85 -107z" />
    <glyph glyph-name="questiondown" unicode="&#xbf;" horiz-adv-x="451" 
d="M227 397l14 91h36l-15 -91h-35zM-15 -65c0 174 202 172 229 329l4 28h32l-4 -28c-28 -174 -229 -170 -229 -326c0 -69 57 -119 134 -119c99 0 172 58 190 175h29c-16 -130 -102 -203 -221 -203c-92 0 -164 58 -164 144z" />
    <glyph glyph-name="grave" unicode="`" horiz-adv-x="532" 
d="M308 568l-93 164h35l81 -164h-23z" />
    <glyph glyph-name="acute" unicode="&#xb4;" horiz-adv-x="532" 
d="M306 568l137 164h38l-151 -164h-24z" />
    <glyph glyph-name="circumflex" unicode="&#x2c6;" horiz-adv-x="532" 
d="M174 568l158 164h30l99 -164h-31l-87 143l-136 -143h-33z" />
    <glyph glyph-name="tilde" unicode="&#x2dc;" horiz-adv-x="532" 
d="M187 607c12 44 38 83 84 83c51 0 90 -57 131 -57c34 0 51 30 60 60h21c-10 -40 -37 -83 -84 -83c-51 0 -89 57 -131 57c-33 0 -50 -30 -59 -60h-22z" />
    <glyph glyph-name="macron" unicode="&#xaf;" horiz-adv-x="532" 
d="M193 636l4 25h276l-4 -25h-276z" />
    <glyph glyph-name="breve" unicode="&#x2d8;" horiz-adv-x="532" 
d="M323 591c-63 0 -113 34 -109 124h22c-1 -70 32 -102 88 -102c58 0 103 32 126 102h23c-27 -90 -87 -124 -150 -124z" />
    <glyph glyph-name="dotaccent" unicode="&#x2d9;" horiz-adv-x="532" 
d="M309 607l15 86h32l-15 -86h-32z" />
    <glyph glyph-name="dieresis" unicode="&#xa8;" horiz-adv-x="532" 
d="M407 607l15 86h32l-15 -86h-32zM215 607l15 86h32l-15 -86h-32z" />
    <glyph glyph-name="ring" unicode="&#x2da;" horiz-adv-x="532" 
d="M322 567c-41 0 -76 27 -76 73c0 63 50 102 100 102c41 0 77 -28 77 -73c0 -63 -50 -102 -101 -102zM324 585c39 0 78 33 78 83c0 35 -26 56 -57 56c-41 0 -78 -33 -78 -83c0 -35 25 -56 57 -56z" />
    <glyph glyph-name="cedilla" unicode="&#xb8;" horiz-adv-x="532" 
d="M174 -67l40 67h16l-25 -47c54 -1 78 -31 78 -66c0 -47 -34 -96 -112 -96h-48l5 22h45c60 0 84 39 84 72c0 27 -20 48 -65 48h-18z" />
    <glyph glyph-name="hungarumlaut" unicode="&#x2dd;" horiz-adv-x="532" 
d="M390 568l138 164h38l-151 -164h-25zM219 568l137 164h38l-151 -164h-24z" />
    <glyph glyph-name="ogonek" unicode="&#x2db;" horiz-adv-x="532" 
d="M125 -145c0 54 48 106 91 145h21c-55 -53 -85 -102 -85 -140c0 -27 17 -46 60 -46h35l-4 -23h-38c-55 0 -80 26 -80 64z" />
    <glyph glyph-name="caron" unicode="&#x2c7;" horiz-adv-x="532" 
d="M304 568l-100 164h31l87 -143l136 143h33l-158 -164h-29z" />
    <glyph glyph-name="emdash" unicode="&#x2014;" horiz-adv-x="840" 
d="M57 239l4 28h718l-4 -28h-718z" />
    <glyph glyph-name="AE" unicode="&#xc6;" horiz-adv-x="1026" 
d="M-35 0l626 688h451l-3 -29h-409l-50 -293h331l-3 -29h-333l-52 -308h415l-4 -29h-449l29 172h-354l-156 -172h-39zM187 201h332l76 449z" />
    <glyph glyph-name="ordfeminine" unicode="&#xaa;" horiz-adv-x="408" 
d="M331 344l13 79h-1c-33 -54 -88 -85 -143 -85c-75 0 -128 53 -128 136c0 132 87 219 182 219c59 0 107 -35 120 -90h1l14 85h29l-59 -344h-28zM207 363c84 0 153 90 153 190c0 72 -43 115 -103 115c-82 0 -154 -80 -154 -193c0 -70 42 -112 104 -112z" />
    <glyph glyph-name="Lslash" unicode="&#x141;" horiz-adv-x="535" 
d="M-8 210l-14 21l127 81l64 376h33l-60 -353l200 128l13 -21l-219 -140l-46 -273h377l-4 -29h-411l47 278z" />
    <glyph glyph-name="Oslash" unicode="&#xd8;" horiz-adv-x="743" 
d="M63 271c0 237 161 426 376 426c83 0 152 -31 199 -83l86 86h31l-103 -103c36 -47 57 -109 57 -180c0 -237 -164 -426 -381 -426c-82 0 -150 30 -196 82l-84 -85h-31l101 102c-35 47 -55 110 -55 181zM96 273c0 -63 16 -117 45 -160l475 478c-42 48 -105 77 -181 77
c-194 0 -339 -178 -339 -395zM676 415c0 62 -17 116 -47 159l-474 -478c41 -48 102 -76 178 -76c193 0 343 178 343 395z" />
    <glyph glyph-name="OE" unicode="&#x152;" horiz-adv-x="1037" 
d="M61 280c0 240 160 408 428 408h564l-3 -29h-410l-49 -293h332l-4 -29h-333l-52 -308h415l-4 -29h-571c-210 0 -313 120 -313 280zM95 283c0 -144 87 -254 282 -254h124l106 630h-122c-245 0 -390 -156 -390 -376z" />
    <glyph glyph-name="ordmasculine" unicode="&#xba;" horiz-adv-x="395" 
d="M209 339c-82 0 -136 52 -136 136c0 129 92 218 192 218c82 0 135 -52 135 -136c0 -129 -91 -218 -191 -218zM211 364c83 0 158 81 158 193c0 69 -39 111 -106 111c-83 0 -159 -80 -159 -193c0 -69 40 -111 107 -111z" />
    <glyph glyph-name="ae" unicode="&#xe6;" horiz-adv-x="847" 
d="M84 336c24 105 101 161 202 161c86 0 143 -39 149 -120c46 75 120 120 201 120c136 0 193 -116 165 -246h-379c-3 -17 -4 -35 -4 -53c0 -107 55 -179 154 -179c77 0 143 44 176 129h32c-37 -101 -115 -157 -213 -157c-101 0 -161 63 -176 159
c-42 -105 -121 -159 -223 -159c-87 0 -137 52 -137 120c0 96 68 139 165 151l126 16c47 6 74 17 79 47c16 94 -29 145 -117 145c-82 0 -147 -44 -170 -134h-30zM172 18c97 0 186 61 210 195l12 69c-14 -17 -37 -23 -69 -27l-125 -16c-82 -10 -137 -48 -137 -125
c0 -54 39 -96 109 -96zM634 469c-96 0 -181 -77 -207 -194h345c2 15 3 29 3 42c-1 100 -60 152 -141 152z" />
    <glyph glyph-name="dotlessi" unicode="&#x131;" horiz-adv-x="206" 
d="M43 0l83 488h32l-83 -488h-32z" />
    <glyph glyph-name="lslash" unicode="&#x142;" horiz-adv-x="206" 
d="M11 257l-12 19l107 96l61 360h32l-55 -326l89 80l12 -18l-107 -96l-63 -372h-32l57 337z" />
    <glyph glyph-name="oslash" unicode="&#xf8;" horiz-adv-x="532" 
d="M41 196c0 23 2 46 6 68c25 135 126 233 249 233c59 0 106 -23 139 -60l61 63h27l-76 -79c23 -34 36 -78 36 -128c0 -24 -2 -47 -6 -69c-25 -134 -126 -233 -249 -233c-59 0 -106 22 -139 59l-59 -62h-26l74 77c-24 34 -37 79 -37 131zM73 198c0 -43 9 -80 27 -110
l313 326c-28 34 -69 55 -121 55c-101 0 -189 -88 -212 -205c-5 -21 -7 -43 -7 -66zM451 290c0 41 -9 78 -27 107l-313 -324c28 -34 69 -54 121 -54c101 0 189 88 212 205c5 21 7 43 7 66z" />
    <glyph glyph-name="oe" unicode="&#x153;" horiz-adv-x="909" 
d="M41 196c0 23 2 46 6 68c25 133 124 233 249 233c98 0 164 -61 181 -153c44 94 128 153 220 153c136 0 194 -116 166 -246h-382c-2 -17 -3 -35 -3 -53c0 -107 56 -179 155 -179c76 0 145 44 177 129h32c-37 -101 -116 -157 -215 -157s-161 62 -176 156
c-42 -93 -123 -156 -222 -156c-117 0 -188 85 -188 205zM73 198c0 -105 60 -179 159 -179c102 0 189 88 212 205c5 21 7 43 7 66c0 105 -60 179 -159 179c-102 0 -189 -88 -212 -205c-5 -21 -7 -43 -7 -66zM693 469c-94 0 -181 -78 -207 -194h348c2 15 3 29 3 41
c0 100 -60 153 -144 153z" />
    <glyph glyph-name="germandbls" unicode="&#xdf;" horiz-adv-x="526" 
d="M43 0l88 509c28 163 113 232 223 232c92 0 141 -49 141 -112c0 -135 -149 -153 -149 -243c0 -74 135 -94 135 -211c0 -129 -110 -175 -202 -175h-72l3 27h70c75 0 168 36 168 144c0 106 -133 121 -133 210c0 110 149 125 149 245c0 51 -36 88 -113 88
c-92 0 -162 -58 -188 -205l-88 -509h-32z" />
    <glyph glyph-name="onesuperior" unicode="&#xe105;" 
d="M152 743l-10 21l142 76h20l-55 -319h108l-2 -25h-254l2 25h117l48 282z" />
    <glyph glyph-name="logicalnot" unicode="&#xac;" horiz-adv-x="568" 
d="M60 239l5 28h446l-42 -239h-30l37 211h-416z" />
    <glyph glyph-name="mu" unicode="&#xb5;" horiz-adv-x="549" 
d="M387 0l21 119h-2c-43 -87 -109 -128 -189 -128c-68 0 -116 27 -133 85c-3 -31 -32 -204 -35 -217l-13 -79h-32l122 708h32l-52 -301c-20 -117 32 -168 119 -168c89 0 176 73 202 224l42 245h32l-83 -488h-31z" />
    <glyph glyph-name="trademark" unicode="&#x2122;" horiz-adv-x="748" 
d="M353 344l59 344h38l91 -307h2l198 307h38l-59 -344h-28l54 304h-2l-196 -304h-24l-90 303h-1l-52 -303h-28zM76 664l4 24h282l-3 -24h-128l-54 -320h-28l55 320h-128z" />
    <glyph glyph-name="Eth" unicode="&#xd0;" horiz-adv-x="681" 
d="M16 331l4 27h93l56 330h165c212 0 315 -120 315 -281c0 -239 -161 -407 -429 -407h-167l56 331h-93zM332 659h-136l-51 -301h166l-4 -27h-166l-51 -302h135c244 0 390 156 390 376c0 144 -87 254 -283 254z" />
    <glyph glyph-name="onehalf" unicode="&#xbd;" horiz-adv-x="742" 
d="M396 0c17 85 63 119 130 150l41 19c51 23 98 40 98 91c0 38 -34 66 -88 66s-103 -27 -119 -98h-25c16 88 80 122 145 122c68 0 115 -36 115 -87c0 -69 -59 -88 -116 -115l-42 -20c-56 -26 -91 -54 -103 -103h226l-3 -25h-259zM124 591l-10 21l142 76h20l-55 -319h108
l-2 -25h-254l2 25h117l48 282zM140 -12c46 71 425 641 472 712h26l-472 -712h-26z" />
    <glyph glyph-name="plusminus" unicode="&#xb1;" horiz-adv-x="568" 
d="M65 286l3 27h210l34 198h30l-34 -198h207l-4 -27h-207l-33 -195h-30l33 195h-209zM10 0l5 28h450l-4 -28h-451z" />
    <glyph glyph-name="Thorn" unicode="&#xde;" horiz-adv-x="608" 
d="M53 0l116 688h32l-21 -121h213c123 0 189 -72 189 -170c0 -148 -104 -249 -259 -249h-213l-25 -148h-32zM391 539h-215l-61 -362h211c135 0 222 91 222 217c0 84 -54 145 -157 145z" />
    <glyph glyph-name="onequarter" unicode="&#xbc;" horiz-adv-x="742" 
d="M393 90l3 19l241 238h24l-40 -234h61l-3 -23h-62l-15 -90h-28l15 90h-196zM124 591l-10 21l142 76h20l-55 -319h108l-2 -25h-254l2 25h117l48 282zM143 -12c46 71 425 641 472 712h26l-472 -712h-26zM430 113h163l34 195z" />
    <glyph glyph-name="divide" unicode="&#xf7;" horiz-adv-x="568" 
d="M287 380l16 95h34l-16 -95h-34zM57 239l4 28h446l-4 -28h-446zM228 33l16 94h34l-16 -94h-34z" />
    <glyph glyph-name="brokenbar" unicode="&#xa6;" horiz-adv-x="256" 
d="M126 336l60 352h30l-60 -352h-30zM41 -164l60 352h30l-60 -352h-30z" />
    <glyph glyph-name="degree" unicode="&#xb0;" horiz-adv-x="349" 
d="M205 429c-70 0 -116 51 -116 112c0 86 69 156 156 156c70 0 116 -51 116 -113c0 -86 -69 -155 -156 -155zM206 454c72 0 127 56 127 127c0 50 -34 91 -89 91c-72 0 -127 -58 -127 -129c0 -49 34 -89 89 -89z" />
    <glyph glyph-name="thorn" unicode="&#xfe;" horiz-adv-x="561" 
d="M58 -94l-21 -126h-32l163 952h32l-25 -151c-2 -7 -34 -190 -37 -204h2c41 73 111 120 188 120c116 0 187 -85 187 -205c0 -167 -108 -301 -247 -301c-93 0 -157 60 -171 146h-1c-1 -12 -36 -219 -38 -231zM115 198c0 -105 56 -179 153 -179c125 0 214 130 214 271
c0 105 -59 179 -156 179c-125 0 -211 -128 -211 -271z" />
    <glyph glyph-name="threequarters" unicode="&#xbe;" horiz-adv-x="742" 
d="M393 90l3 19l241 238h24l-40 -234h61l-3 -23h-62l-15 -90h-28l15 90h-196zM70 443h28c-11 -63 42 -83 94 -83c64 0 118 31 118 88c0 41 -39 65 -94 65h-30l2 22h30c57 0 108 27 108 79c0 38 -38 58 -84 58c-55 0 -98 -24 -105 -80h-27c7 69 63 103 134 103
c62 0 111 -30 111 -78c0 -47 -34 -81 -83 -92v-1c40 -10 67 -38 67 -76c0 -70 -66 -111 -149 -111c-66 0 -134 28 -120 106zM141 -12c46 71 425 641 472 712h26l-472 -712h-26zM430 113h163l34 195z" />
    <glyph glyph-name="twosuperior" unicode="&#xe107;" 
d="M90 496c17 85 63 119 130 150l41 19c50 23 97 40 97 91c0 38 -34 66 -88 66s-103 -27 -118 -98h-26c17 88 80 122 146 122c68 0 114 -36 114 -87c0 -69 -58 -88 -116 -115l-41 -20c-57 -26 -92 -54 -103 -103h225l-2 -25h-259z" />
    <glyph glyph-name="registered" unicode="&#xae;" horiz-adv-x="773" 
d="M54 348c0 198 143 349 347 349c199 0 346 -151 346 -349c0 -197 -142 -357 -346 -357s-347 160 -347 357zM83 348c0 -183 129 -333 318 -333c188 0 318 150 318 333c0 184 -131 324 -318 324c-189 0 -318 -140 -318 -324zM274 176v344h155c73 0 112 -40 112 -99
c0 -53 -34 -94 -92 -102l95 -143h-31l-93 142h-118v-142h-28zM428 496h-126v-154h126c56 0 85 34 85 79c0 44 -29 75 -85 75z" />
    <glyph glyph-name="minus" unicode="&#x2212;" horiz-adv-x="568" 
d="M57 239l4 28h449l-4 -28h-449z" />
    <glyph glyph-name="eth" unicode="&#xf0;" horiz-adv-x="531" 
d="M245 557l-12 18l114 75c-37 28 -83 51 -137 69l11 25c61 -20 112 -44 152 -76l100 66l12 -18l-95 -63c68 -61 102 -145 102 -259c0 -48 -4 -98 -21 -176c-30 -135 -129 -227 -256 -227c-114 0 -184 78 -184 188c0 178 135 286 260 286c81 0 148 -47 165 -121
c11 138 -20 229 -91 292zM63 181c0 -97 60 -162 155 -162c130 0 225 127 225 255c0 99 -60 163 -154 163c-89 0 -195 -71 -219 -198c-4 -19 -7 -38 -7 -58z" />
    <glyph glyph-name="multiply" unicode="&#xd7;" horiz-adv-x="568" 
d="M80 62l-18 21l202 174l-141 173l22 19l141 -173l203 175l18 -21l-203 -175l142 -174l-22 -19l-142 174z" />
    <glyph glyph-name="threesuperior" unicode="&#xe108;" 
d="M98 595h28c-11 -63 42 -83 94 -83c64 0 118 31 118 88c0 41 -39 65 -94 65h-30l2 22h30c57 0 108 27 108 79c0 38 -38 58 -84 58c-55 0 -98 -24 -105 -80h-27c7 69 63 103 134 103c62 0 111 -30 111 -78c0 -47 -34 -81 -83 -92v-1c40 -10 67 -38 67 -76
c0 -70 -66 -111 -149 -111c-66 0 -134 28 -120 106z" />
    <glyph glyph-name="copyright" unicode="&#xa9;" horiz-adv-x="773" 
d="M54 348c0 198 143 349 347 349c199 0 346 -151 346 -349c0 -197 -142 -357 -346 -357s-347 160 -347 357zM83 348c0 -183 129 -333 318 -333c188 0 318 150 318 333c0 184 -131 324 -318 324c-189 0 -318 -140 -318 -324zM237 348c0 96 66 175 164 175
c80 0 132 -47 146 -113h-27c-13 52 -53 89 -119 89c-81 0 -136 -68 -136 -151s55 -151 136 -151c67 0 106 37 119 89h27c-14 -66 -66 -113 -146 -113c-98 0 -164 79 -164 175z" />
    <glyph glyph-name="Aacute" unicode="&#xc1;" horiz-adv-x="607" 
d="M-23 0l379 688h39l148 -688h-34l-49 229h-324l-125 -229h-34zM371 654h-1l-218 -396h302zM376 768l137 164h38l-151 -164h-24z" />
    <glyph glyph-name="Acircumflex" unicode="&#xc2;" horiz-adv-x="607" 
d="M-23 0l379 688h39l148 -688h-34l-49 229h-324l-125 -229h-34zM371 654h-1l-218 -396h302zM244 768l158 164h30l99 -164h-31l-87 143l-136 -143h-33z" />
    <glyph glyph-name="Adieresis" unicode="&#xc4;" horiz-adv-x="607" 
d="M-23 0l379 688h39l148 -688h-34l-49 229h-324l-125 -229h-34zM371 654h-1l-218 -396h302zM477 807l15 86h32l-15 -86h-32zM285 807l15 86h32l-15 -86h-32z" />
    <glyph glyph-name="Agrave" unicode="&#xc0;" horiz-adv-x="607" 
d="M-23 0l379 688h39l148 -688h-34l-49 229h-324l-125 -229h-34zM371 654h-1l-218 -396h302zM378 768l-93 164h35l81 -164h-23z" />
    <glyph glyph-name="Aring" unicode="&#xc5;" horiz-adv-x="607" 
d="M-23 0l379 688h39l148 -688h-34l-49 229h-324l-125 -229h-34zM371 654h-1l-218 -396h302zM392 767c-41 0 -76 27 -76 73c0 63 50 102 100 102c41 0 77 -28 77 -73c0 -63 -50 -102 -101 -102zM394 785c39 0 78 33 78 83c0 35 -26 56 -57 56c-41 0 -78 -33 -78 -83
c0 -35 25 -56 57 -56z" />
    <glyph glyph-name="Atilde" unicode="&#xc3;" horiz-adv-x="607" 
d="M-23 0l379 688h39l148 -688h-34l-49 229h-324l-125 -229h-34zM371 654h-1l-218 -396h302zM257 807c12 44 38 83 84 83c51 0 90 -57 131 -57c34 0 51 30 60 60h21c-10 -40 -37 -83 -84 -83c-51 0 -89 57 -131 57c-33 0 -50 -30 -59 -60h-22z" />
    <glyph glyph-name="Ccedilla" unicode="&#xc7;" horiz-adv-x="701" 
d="M280 -67l34 58c-160 7 -253 127 -253 281c0 225 153 425 373 425c151 0 243 -85 255 -214h-32c-17 112 -92 185 -227 185c-197 0 -335 -190 -335 -393c0 -143 87 -255 238 -255c135 0 224 73 281 185h33c-58 -129 -161 -213 -316 -214l-20 -38c54 -1 78 -31 78 -66
c0 -47 -34 -96 -112 -96h-48l5 22h45c60 0 84 39 84 72c0 27 -20 48 -65 48h-18z" />
    <glyph glyph-name="Eacute" unicode="&#xc9;" horiz-adv-x="595" 
d="M53 0l116 688h442l-4 -29h-411l-49 -293h334l-4 -29h-335l-52 -308h417l-4 -29h-450zM390 768l137 164h38l-151 -164h-24z" />
    <glyph glyph-name="Ecircumflex" unicode="&#xca;" horiz-adv-x="595" 
d="M53 0l116 688h442l-4 -29h-411l-49 -293h334l-4 -29h-335l-52 -308h417l-4 -29h-450zM258 768l158 164h30l99 -164h-31l-87 143l-136 -143h-33z" />
    <glyph glyph-name="Edieresis" unicode="&#xcb;" horiz-adv-x="595" 
d="M53 0l116 688h442l-4 -29h-411l-49 -293h334l-4 -29h-335l-52 -308h417l-4 -29h-450zM491 807l15 86h32l-15 -86h-32zM299 807l15 86h32l-15 -86h-32z" />
    <glyph glyph-name="Egrave" unicode="&#xc8;" horiz-adv-x="595" 
d="M53 0l116 688h442l-4 -29h-411l-49 -293h334l-4 -29h-335l-52 -308h417l-4 -29h-450zM392 768l-93 164h35l81 -164h-23z" />
    <glyph glyph-name="Iacute" unicode="&#xcd;" horiz-adv-x="226" 
d="M53 0l116 688h32l-116 -688h-32zM186 768l137 164h38l-151 -164h-24z" />
    <glyph glyph-name="Icircumflex" unicode="&#xce;" horiz-adv-x="226" 
d="M53 0l116 688h32l-116 -688h-32zM54 768l158 164h30l99 -164h-31l-87 143l-136 -143h-33z" />
    <glyph glyph-name="Idieresis" unicode="&#xcf;" horiz-adv-x="226" 
d="M53 0l116 688h32l-116 -688h-32zM287 807l15 86h32l-15 -86h-32zM95 807l15 86h32l-15 -86h-32z" />
    <glyph glyph-name="Igrave" unicode="&#xcc;" horiz-adv-x="226" 
d="M53 0l116 688h32l-116 -688h-32zM188 768l-93 164h35l81 -164h-23z" />
    <glyph glyph-name="Ntilde" unicode="&#xd1;" horiz-adv-x="699" 
d="M53 0l116 688h29l336 -631h1l107 631h33l-116 -688h-30l-336 631h-2l-106 -631h-32zM305 807c12 44 38 83 84 83c51 0 90 -57 131 -57c34 0 51 30 60 60h21c-10 -40 -37 -83 -84 -83c-51 0 -89 57 -131 57c-33 0 -50 -30 -59 -60h-22z" />
    <glyph glyph-name="Oacute" unicode="&#xd3;" horiz-adv-x="743" 
d="M64 271c0 237 161 426 377 426c162 0 270 -117 270 -280c0 -237 -165 -426 -381 -426c-162 0 -266 117 -266 280zM98 273c0 -149 90 -253 237 -253c193 0 343 178 343 395c0 149 -95 253 -241 253c-194 0 -339 -178 -339 -395zM446 768l137 164h38l-151 -164h-24z" />
    <glyph glyph-name="Ocircumflex" unicode="&#xd4;" horiz-adv-x="743" 
d="M64 271c0 237 161 426 377 426c162 0 270 -117 270 -280c0 -237 -165 -426 -381 -426c-162 0 -266 117 -266 280zM98 273c0 -149 90 -253 237 -253c193 0 343 178 343 395c0 149 -95 253 -241 253c-194 0 -339 -178 -339 -395zM314 768l158 164h30l99 -164h-31l-87 143
l-136 -143h-33z" />
    <glyph glyph-name="Odieresis" unicode="&#xd6;" horiz-adv-x="743" 
d="M64 271c0 237 161 426 377 426c162 0 270 -117 270 -280c0 -237 -165 -426 -381 -426c-162 0 -266 117 -266 280zM98 273c0 -149 90 -253 237 -253c193 0 343 178 343 395c0 149 -95 253 -241 253c-194 0 -339 -178 -339 -395zM547 807l15 86h32l-15 -86h-32zM355 807
l15 86h32l-15 -86h-32z" />
    <glyph glyph-name="Ograve" unicode="&#xd2;" horiz-adv-x="743" 
d="M64 271c0 237 161 426 377 426c162 0 270 -117 270 -280c0 -237 -165 -426 -381 -426c-162 0 -266 117 -266 280zM98 273c0 -149 90 -253 237 -253c193 0 343 178 343 395c0 149 -95 253 -241 253c-194 0 -339 -178 -339 -395zM448 768l-93 164h35l81 -164h-23z" />
    <glyph glyph-name="Otilde" unicode="&#xd5;" horiz-adv-x="743" 
d="M64 271c0 237 161 426 377 426c162 0 270 -117 270 -280c0 -237 -165 -426 -381 -426c-162 0 -266 117 -266 280zM98 273c0 -149 90 -253 237 -253c193 0 343 178 343 395c0 149 -95 253 -241 253c-194 0 -339 -178 -339 -395zM327 807c12 44 38 83 84 83
c51 0 90 -57 131 -57c34 0 51 30 60 60h21c-10 -40 -37 -83 -84 -83c-51 0 -89 57 -131 57c-33 0 -50 -30 -59 -60h-22z" />
    <glyph glyph-name="Scaron" unicode="&#x160;" horiz-adv-x="620" 
d="M52 185h31c-19 -113 61 -166 195 -166c138 0 230 62 230 170c0 214 -392 82 -392 318c0 110 93 190 255 190c140 0 232 -61 212 -179h-31c16 101 -63 151 -184 151c-137 0 -218 -65 -218 -158c0 -209 393 -76 393 -318c0 -128 -107 -202 -267 -202
c-154 0 -247 66 -224 194zM367 768l-100 164h31l87 -143l136 143h33l-158 -164h-29z" />
    <glyph glyph-name="Uacute" unicode="&#xda;" horiz-adv-x="679" 
d="M86 269l72 419h33l-72 -419c-28 -166 40 -248 176 -248c134 0 237 82 265 248l72 419h33l-72 -419c-33 -192 -152 -278 -300 -278s-240 86 -207 278zM412 768l137 164h38l-151 -164h-24z" />
    <glyph glyph-name="Ucircumflex" unicode="&#xdb;" horiz-adv-x="679" 
d="M86 269l72 419h33l-72 -419c-28 -166 40 -248 176 -248c134 0 237 82 265 248l72 419h33l-72 -419c-33 -192 -152 -278 -300 -278s-240 86 -207 278zM280 768l158 164h30l99 -164h-31l-87 143l-136 -143h-33z" />
    <glyph glyph-name="Udieresis" unicode="&#xdc;" horiz-adv-x="679" 
d="M86 269l72 419h33l-72 -419c-28 -166 40 -248 176 -248c134 0 237 82 265 248l72 419h33l-72 -419c-33 -192 -152 -278 -300 -278s-240 86 -207 278zM513 807l15 86h32l-15 -86h-32zM321 807l15 86h32l-15 -86h-32z" />
    <glyph glyph-name="Ugrave" unicode="&#xd9;" horiz-adv-x="679" 
d="M86 269l72 419h33l-72 -419c-28 -166 40 -248 176 -248c134 0 237 82 265 248l72 419h33l-72 -419c-33 -192 -152 -278 -300 -278s-240 86 -207 278zM414 768l-93 164h35l81 -164h-23z" />
    <glyph glyph-name="Yacute" unicode="&#xdd;" horiz-adv-x="569" 
d="M222 0l49 288l-182 400h34l170 -372h1l296 372h36l-321 -403l-50 -285h-33zM358 768l137 164h38l-151 -164h-24z" />
    <glyph glyph-name="Ydieresis" unicode="&#x178;" horiz-adv-x="569" 
d="M222 0l49 288l-182 400h34l170 -372h1l296 372h36l-321 -403l-50 -285h-33zM459 807l15 86h32l-15 -86h-32zM267 807l15 86h32l-15 -86h-32z" />
    <glyph glyph-name="Zcaron" unicode="&#x17d;" horiz-adv-x="559" 
d="M126 660l5 28h460l-2 -21l-548 -639h434l-4 -28h-476l2 21l547 639h-418zM357 768l-100 164h31l87 -143l136 143h33l-158 -164h-29z" />
    <glyph glyph-name="aacute" unicode="&#xe1;" horiz-adv-x="505" 
d="M31 111c0 96 68 140 165 152l126 15c47 5 75 18 79 47c15 94 -32 145 -120 145c-85 0 -147 -44 -167 -134h-30c20 105 95 161 199 161c102 0 170 -56 148 -185l-53 -312h-30l21 121c-34 -77 -104 -130 -201 -130c-87 0 -137 52 -137 120zM63 114c0 -55 39 -96 109 -96
c101 0 188 64 211 200l11 65c-10 -16 -33 -25 -69 -29l-125 -15c-83 -10 -137 -48 -137 -125zM286 568l137 164h38l-151 -164h-24z" />
    <glyph glyph-name="acircumflex" unicode="&#xe2;" horiz-adv-x="505" 
d="M31 111c0 96 68 140 165 152l126 15c47 5 75 18 79 47c15 94 -32 145 -120 145c-85 0 -147 -44 -167 -134h-30c20 105 95 161 199 161c102 0 170 -56 148 -185l-53 -312h-30l21 121c-34 -77 -104 -130 -201 -130c-87 0 -137 52 -137 120zM63 114c0 -55 39 -96 109 -96
c101 0 188 64 211 200l11 65c-10 -16 -33 -25 -69 -29l-125 -15c-83 -10 -137 -48 -137 -125zM154 568l158 164h30l99 -164h-31l-87 143l-136 -143h-33z" />
    <glyph glyph-name="adieresis" unicode="&#xe4;" horiz-adv-x="505" 
d="M31 111c0 96 68 140 165 152l126 15c47 5 75 18 79 47c15 94 -32 145 -120 145c-85 0 -147 -44 -167 -134h-30c20 105 95 161 199 161c102 0 170 -56 148 -185l-53 -312h-30l21 121c-34 -77 -104 -130 -201 -130c-87 0 -137 52 -137 120zM63 114c0 -55 39 -96 109 -96
c101 0 188 64 211 200l11 65c-10 -16 -33 -25 -69 -29l-125 -15c-83 -10 -137 -48 -137 -125zM387 607l15 86h32l-15 -86h-32zM195 607l15 86h32l-15 -86h-32z" />
    <glyph glyph-name="agrave" unicode="&#xe0;" horiz-adv-x="505" 
d="M31 111c0 96 68 140 165 152l126 15c47 5 75 18 79 47c15 94 -32 145 -120 145c-85 0 -147 -44 -167 -134h-30c20 105 95 161 199 161c102 0 170 -56 148 -185l-53 -312h-30l21 121c-34 -77 -104 -130 -201 -130c-87 0 -137 52 -137 120zM63 114c0 -55 39 -96 109 -96
c101 0 188 64 211 200l11 65c-10 -16 -33 -25 -69 -29l-125 -15c-83 -10 -137 -48 -137 -125zM296 568l-93 164h35l81 -164h-23z" />
    <glyph glyph-name="aring" unicode="&#xe5;" horiz-adv-x="505" 
d="M31 111c0 96 68 140 165 152l126 15c47 5 75 18 79 47c15 94 -32 145 -120 145c-85 0 -147 -44 -167 -134h-30c20 105 95 161 199 161c102 0 170 -56 148 -185l-53 -312h-30l21 121c-34 -77 -104 -130 -201 -130c-87 0 -137 52 -137 120zM63 114c0 -55 39 -96 109 -96
c101 0 188 64 211 200l11 65c-10 -16 -33 -25 -69 -29l-125 -15c-83 -10 -137 -48 -137 -125zM302 567c-41 0 -76 27 -76 73c0 63 50 102 100 102c41 0 77 -28 77 -73c0 -63 -50 -102 -101 -102zM304 585c39 0 78 33 78 83c0 35 -26 56 -57 56c-41 0 -78 -33 -78 -83
c0 -35 25 -56 57 -56z" />
    <glyph glyph-name="atilde" unicode="&#xe3;" horiz-adv-x="505" 
d="M31 111c0 96 68 140 165 152l126 15c47 5 75 18 79 47c15 94 -32 145 -120 145c-85 0 -147 -44 -167 -134h-30c20 105 95 161 199 161c102 0 170 -56 148 -185l-53 -312h-30l21 121c-34 -77 -104 -130 -201 -130c-87 0 -137 52 -137 120zM63 114c0 -55 39 -96 109 -96
c101 0 188 64 211 200l11 65c-10 -16 -33 -25 -69 -29l-125 -15c-83 -10 -137 -48 -137 -125zM167 607c12 44 38 83 84 83c51 0 90 -57 131 -57c34 0 51 30 60 60h21c-10 -40 -37 -83 -84 -83c-51 0 -89 57 -131 57c-33 0 -50 -30 -59 -60h-22z" />
    <glyph glyph-name="ccedilla" unicode="&#xe7;" horiz-adv-x="497" 
d="M176 -67l35 59c-108 7 -170 91 -170 204c0 25 2 49 7 73c27 127 114 228 247 228c93 0 168 -59 171 -164h-31c-4 84 -63 136 -144 136c-109 0 -185 -86 -210 -200c-5 -22 -8 -47 -8 -71c0 -107 58 -179 159 -179c75 0 141 54 173 136h32c-34 -100 -113 -163 -210 -164
l-20 -38c54 -1 78 -31 78 -66c0 -47 -34 -96 -112 -96h-48l5 22h45c60 0 84 39 84 72c0 27 -20 48 -65 48h-18z" />
    <glyph glyph-name="eacute" unicode="&#xe9;" horiz-adv-x="505" 
d="M41 197c0 25 2 48 6 70c26 139 131 230 246 230c135 0 194 -116 165 -246h-381c-3 -17 -4 -35 -4 -53c0 -107 57 -179 156 -179c76 0 144 44 177 129h32c-37 -101 -117 -157 -215 -157c-115 0 -182 85 -182 206zM289 469c-95 0 -181 -77 -207 -194h347c2 15 3 29 3 41
c0 100 -60 153 -143 153zM296 568l137 164h38l-151 -164h-24z" />
    <glyph glyph-name="ecircumflex" unicode="&#xea;" horiz-adv-x="505" 
d="M41 197c0 25 2 48 6 70c26 139 131 230 246 230c135 0 194 -116 165 -246h-381c-3 -17 -4 -35 -4 -53c0 -107 57 -179 156 -179c76 0 144 44 177 129h32c-37 -101 -117 -157 -215 -157c-115 0 -182 85 -182 206zM289 469c-95 0 -181 -77 -207 -194h347c2 15 3 29 3 41
c0 100 -60 153 -143 153zM164 568l158 164h30l99 -164h-31l-87 143l-136 -143h-33z" />
    <glyph glyph-name="edieresis" unicode="&#xeb;" horiz-adv-x="505" 
d="M41 197c0 25 2 48 6 70c26 139 131 230 246 230c135 0 194 -116 165 -246h-381c-3 -17 -4 -35 -4 -53c0 -107 57 -179 156 -179c76 0 144 44 177 129h32c-37 -101 -117 -157 -215 -157c-115 0 -182 85 -182 206zM289 469c-95 0 -181 -77 -207 -194h347c2 15 3 29 3 41
c0 100 -60 153 -143 153zM397 607l15 86h32l-15 -86h-32zM205 607l15 86h32l-15 -86h-32z" />
    <glyph glyph-name="egrave" unicode="&#xe8;" horiz-adv-x="505" 
d="M41 197c0 25 2 48 6 70c26 139 131 230 246 230c135 0 194 -116 165 -246h-381c-3 -17 -4 -35 -4 -53c0 -107 57 -179 156 -179c76 0 144 44 177 129h32c-37 -101 -117 -157 -215 -157c-115 0 -182 85 -182 206zM289 469c-95 0 -181 -77 -207 -194h347c2 15 3 29 3 41
c0 100 -60 153 -143 153zM298 568l-93 164h35l81 -164h-23z" />
    <glyph glyph-name="iacute" unicode="&#xed;" horiz-adv-x="206" 
d="M43 0l83 488h32l-83 -488h-32zM143 568l137 164h38l-151 -164h-24z" />
    <glyph glyph-name="icircumflex" unicode="&#xee;" horiz-adv-x="206" 
d="M43 0l83 488h32l-83 -488h-32zM11 568l158 164h30l99 -164h-31l-87 143l-136 -143h-33z" />
    <glyph glyph-name="idieresis" unicode="&#xef;" horiz-adv-x="206" 
d="M43 0l83 488h32l-83 -488h-32zM244 607l15 86h32l-15 -86h-32zM52 607l15 86h32l-15 -86h-32z" />
    <glyph glyph-name="igrave" unicode="&#xec;" horiz-adv-x="206" 
d="M43 0l83 488h32l-83 -488h-32zM145 568l-93 164h35l81 -164h-23z" />
    <glyph glyph-name="ntilde" unicode="&#xf1;" horiz-adv-x="549" 
d="M43 0l83 488h31l-20 -112h2c43 82 110 121 189 121c101 0 167 -61 145 -194l-52 -303h-32l51 301c20 117 -28 168 -119 168c-93 0 -180 -80 -204 -221l-42 -248h-32zM197 607c12 44 38 83 84 83c51 0 90 -57 131 -57c34 0 51 30 60 60h21c-10 -40 -37 -83 -84 -83
c-51 0 -89 57 -131 57c-33 0 -50 -30 -59 -60h-22z" />
    <glyph glyph-name="oacute" unicode="&#xf3;" horiz-adv-x="532" 
d="M41 197c0 22 2 45 6 67c25 128 119 233 248 233c116 0 188 -86 188 -206c0 -22 -2 -45 -6 -67c-25 -128 -119 -233 -247 -233c-117 0 -189 86 -189 206zM73 198c0 -105 61 -179 159 -179c103 0 189 88 212 205c5 21 7 43 7 66c0 105 -61 179 -159 179
c-103 0 -189 -88 -212 -205c-5 -21 -7 -43 -7 -66zM303 568l137 164h38l-151 -164h-24z" />
    <glyph glyph-name="ocircumflex" unicode="&#xf4;" horiz-adv-x="532" 
d="M41 197c0 22 2 45 6 67c25 128 119 233 248 233c116 0 188 -86 188 -206c0 -22 -2 -45 -6 -67c-25 -128 -119 -233 -247 -233c-117 0 -189 86 -189 206zM73 198c0 -105 61 -179 159 -179c103 0 189 88 212 205c5 21 7 43 7 66c0 105 -61 179 -159 179
c-103 0 -189 -88 -212 -205c-5 -21 -7 -43 -7 -66zM171 568l158 164h30l99 -164h-31l-87 143l-136 -143h-33z" />
    <glyph glyph-name="odieresis" unicode="&#xf6;" horiz-adv-x="532" 
d="M41 197c0 22 2 45 6 67c25 128 119 233 248 233c116 0 188 -86 188 -206c0 -22 -2 -45 -6 -67c-25 -128 -119 -233 -247 -233c-117 0 -189 86 -189 206zM73 198c0 -105 61 -179 159 -179c103 0 189 88 212 205c5 21 7 43 7 66c0 105 -61 179 -159 179
c-103 0 -189 -88 -212 -205c-5 -21 -7 -43 -7 -66zM404 607l15 86h32l-15 -86h-32zM212 607l15 86h32l-15 -86h-32z" />
    <glyph glyph-name="ograve" unicode="&#xf2;" horiz-adv-x="532" 
d="M41 197c0 22 2 45 6 67c25 128 119 233 248 233c116 0 188 -86 188 -206c0 -22 -2 -45 -6 -67c-25 -128 -119 -233 -247 -233c-117 0 -189 86 -189 206zM73 198c0 -105 61 -179 159 -179c103 0 189 88 212 205c5 21 7 43 7 66c0 105 -61 179 -159 179
c-103 0 -189 -88 -212 -205c-5 -21 -7 -43 -7 -66zM305 568l-93 164h35l81 -164h-23z" />
    <glyph glyph-name="otilde" unicode="&#xf5;" horiz-adv-x="532" 
d="M41 197c0 22 2 45 6 67c25 128 119 233 248 233c116 0 188 -86 188 -206c0 -22 -2 -45 -6 -67c-25 -128 -119 -233 -247 -233c-117 0 -189 86 -189 206zM73 198c0 -105 61 -179 159 -179c103 0 189 88 212 205c5 21 7 43 7 66c0 105 -61 179 -159 179
c-103 0 -189 -88 -212 -205c-5 -21 -7 -43 -7 -66zM184 607c12 44 38 83 84 83c51 0 90 -57 131 -57c34 0 51 30 60 60h21c-10 -40 -37 -83 -84 -83c-51 0 -89 57 -131 57c-33 0 -50 -30 -59 -60h-22z" />
    <glyph glyph-name="scaron" unicode="&#x161;" horiz-adv-x="461" 
d="M19 135h30c-15 -87 54 -118 146 -118c97 0 165 37 165 116c0 160 -292 46 -292 224c0 87 75 140 186 140c104 0 181 -41 164 -136h-30c13 77 -49 110 -135 110c-92 0 -154 -41 -154 -112c0 -152 292 -37 292 -224c0 -97 -82 -144 -197 -144c-112 0 -193 44 -175 144z
M253 568l-100 164h31l87 -143l136 143h33l-158 -164h-29z" />
    <glyph glyph-name="uacute" unicode="&#xfa;" horiz-adv-x="541" 
d="M210 -9c-102 0 -167 61 -144 194l51 303h32l-51 -301c-20 -117 28 -168 119 -168c88 0 175 69 202 226l42 243h32l-83 -488h-31l20 116h-2c-42 -85 -109 -125 -187 -125zM306 568l137 164h38l-151 -164h-24z" />
    <glyph glyph-name="ucircumflex" unicode="&#xfb;" horiz-adv-x="541" 
d="M210 -9c-102 0 -167 61 -144 194l51 303h32l-51 -301c-20 -117 28 -168 119 -168c88 0 175 69 202 226l42 243h32l-83 -488h-31l20 116h-2c-42 -85 -109 -125 -187 -125zM174 568l158 164h30l99 -164h-31l-87 143l-136 -143h-33z" />
    <glyph glyph-name="udieresis" unicode="&#xfc;" horiz-adv-x="541" 
d="M210 -9c-102 0 -167 61 -144 194l51 303h32l-51 -301c-20 -117 28 -168 119 -168c88 0 175 69 202 226l42 243h32l-83 -488h-31l20 116h-2c-42 -85 -109 -125 -187 -125zM407 607l15 86h32l-15 -86h-32zM215 607l15 86h32l-15 -86h-32z" />
    <glyph glyph-name="ugrave" unicode="&#xf9;" horiz-adv-x="541" 
d="M210 -9c-102 0 -167 61 -144 194l51 303h32l-51 -301c-20 -117 28 -168 119 -168c88 0 175 69 202 226l42 243h32l-83 -488h-31l20 116h-2c-42 -85 -109 -125 -187 -125zM308 568l-93 164h35l81 -164h-23z" />
    <glyph glyph-name="yacute" unicode="&#xfd;" horiz-adv-x="447" 
d="M-44 -195h19c68 0 105 43 143 111l44 80l-108 492h32l98 -453h2l253 453h32l-329 -584c-41 -75 -83 -126 -167 -126h-23zM263 568l137 164h38l-151 -164h-24z" />
    <glyph glyph-name="ydieresis" unicode="&#xff;" horiz-adv-x="447" 
d="M-44 -195h19c68 0 105 43 143 111l44 80l-108 492h32l98 -453h2l253 453h32l-329 -584c-41 -75 -83 -126 -167 -126h-23zM364 607l15 86h32l-15 -86h-32zM172 607l15 86h32l-15 -86h-32z" />
    <glyph glyph-name="zcaron" unicode="&#x17e;" horiz-adv-x="413" 
d="M69 462l3 26h351l-3 -20l-380 -442h309l-4 -26h-350l2 18l382 444h-310zM245 568l-100 164h31l87 -143l136 143h33l-158 -164h-29z" />
    <glyph glyph-name="Dcroat" unicode="&#x110;" horiz-adv-x="681" 
d="M16 331l4 27h93l56 330h165c212 0 315 -120 315 -281c0 -239 -161 -407 -429 -407h-167l56 331h-93zM332 659h-136l-51 -301h166l-4 -27h-166l-51 -302h135c244 0 390 156 390 376c0 144 -87 254 -283 254z" />
    <glyph glyph-name="Eng" unicode="&#x14a;" horiz-adv-x="699" 
d="M675 688l-129 -764c-18 -106 -75 -144 -157 -144h-47l5 30h47c63 0 105 33 119 116l13 77l-333 630h-2l-106 -633h-32l116 688h30l335 -633l108 633h33z" />
    <glyph glyph-name="Hbar" unicode="&#x126;" horiz-adv-x="694" 
d="M46 520l4 26h95l24 142h32l-24 -142h436l24 142h33l-24 -142h93l-4 -26h-94l-87 -520h-33l57 337h-436l-57 -337h-32l87 520h-94zM172 520l-26 -155h436l26 155h-436z" />
    <glyph glyph-name="Tbar" unicode="&#x166;" horiz-adv-x="563" 
d="M75 660l5 28h547l-5 -28h-257l-51 -305h189l-4 -26h-190l-55 -329h-33l55 329h-188l4 26h189l51 305h-257z" />
    <glyph glyph-name="longs" unicode="&#x17f;" horiz-adv-x="252" 
d="M37 462l3 26h105l17 97c17 102 75 147 164 147h40l-5 -28h-37c-70 0 -115 -34 -130 -120l-99 -584h-32l78 462h-104z" />
    <glyph glyph-name="dcroat" unicode="&#x111;" horiz-adv-x="561" 
d="M328 612l4 23h174l17 97h31l-17 -97h88l-3 -23h-89l-103 -612h-30l18 111h-2c-40 -73 -109 -120 -188 -120c-116 0 -187 85 -187 205c0 167 108 301 246 301c92 0 157 -61 170 -146h3c1 14 34 209 35 217l7 44h-174zM73 198c0 -105 59 -179 157 -179
c125 0 211 129 211 271c0 105 -56 179 -154 179c-125 0 -214 -130 -214 -271z" />
    <glyph glyph-name="eng" unicode="&#x14b;" horiz-adv-x="549" 
d="M254 -192h27c49 0 79 21 90 86l69 407c20 117 -28 168 -119 168c-93 0 -180 -80 -204 -221l-42 -248h-32l83 488h30l-20 -116h2c42 85 110 125 190 125c101 0 167 -61 145 -194l-71 -414c-13 -76 -55 -109 -124 -109h-27z" />
    <glyph glyph-name="hbar" unicode="&#x127;" horiz-adv-x="549" 
d="M60 612l3 23h87l17 97h32l-17 -97h175l-3 -23h-176l-8 -49l-33 -190h1c43 84 111 124 190 124c101 0 167 -61 145 -194l-52 -303h-32l51 301c20 117 -28 168 -119 168c-88 0 -177 -70 -203 -222l-43 -247h-32l103 612h-86z" />
    <glyph glyph-name="napostrophe" unicode="&#x149;" horiz-adv-x="549" 
d="M43 0l83 488h31l-20 -112h2c43 82 110 121 189 121c101 0 167 -61 145 -194l-52 -303h-32l51 301c20 117 -28 168 -119 168c-93 0 -180 -80 -204 -221l-42 -248h-32zM125 568l47 106h-11l11 65h32l-12 -65l-52 -106h-15z" />
    <glyph glyph-name="tbar" unicode="&#x167;" horiz-adv-x="299" 
d="M29 462l4 26h105l25 148h32l-25 -148h146l-4 -26h-147l-32 -192h141l-3 -23h-142l-18 -111c-12 -74 6 -108 76 -108h56l-3 -28h-58c-89 0 -119 45 -103 134l19 113h-107l4 23h107l32 192h-105z" />
    <glyph glyph-name="IJ" unicode="&#x132;" horiz-adv-x="742" 
d="M274 187l7 41h34l-8 -41c-22 -119 32 -167 126 -167c90 0 158 48 179 170l85 498h32l-84 -498c-24 -142 -104 -199 -212 -199c-113 0 -184 56 -159 196zM53 0l116 688h32l-116 -688h-32z" />
    <glyph glyph-name="ij" unicode="&#x133;" horiz-adv-x="413" 
d="M357 643l15 89h33l-14 -89h-34zM151 643l14 89h34l-15 -89h-33zM115 -192h26c49 0 79 21 90 86l101 594h31l-100 -599c-13 -76 -55 -109 -125 -109h-26zM43 0l83 488h32l-83 -488h-32z" />
    <glyph glyph-name="Euro" unicode="&#x20ac;" horiz-adv-x="568" 
d="M37 416l6 22h88c47 152 146 259 279 259c111 0 167 -70 172 -177h-31c-6 92 -52 149 -144 149c-112 0 -200 -93 -244 -231h209l-5 -22h-210c-12 -43 -18 -88 -22 -135h211l-4 -22h-208v-21c0 -133 53 -219 164 -219c87 0 143 48 182 129h30c-41 -98 -111 -157 -217 -157
c-132 0 -192 103 -192 248v20h-90l5 22h86c3 44 10 88 22 135h-87z" />
    <glyph glyph-name="afii61352" unicode="&#x2116;" horiz-adv-x="1115" 
d="M776 475c0 21 3 40 7 59c23 96 101 159 185 159c81 0 134 -52 134 -136c0 -21 -2 -40 -7 -59c-23 -96 -100 -159 -183 -159s-136 52 -136 136zM53 0l116 688h30l335 -631h1l107 631h33l-116 -688h-31l-335 631h-2l-106 -631h-32zM807 475c0 -69 40 -111 106 -111
c69 0 131 55 151 135c5 18 7 37 7 58c0 69 -39 111 -106 111c-68 0 -130 -54 -151 -135c-5 -18 -7 -37 -7 -58zM723 185l4 25h320l-4 -25h-320zM692 0l4 24h320l-4 -24h-320z" />
    <glyph glyph-name="estimated" unicode="&#x212e;" horiz-adv-x="850" 
d="M184 113c60 -63 146 -103 243 -103c102 0 193 44 255 117h58c-72 -84 -187 -139 -314 -139c-219 0 -397 158 -397 356c0 197 178 356 397 356c218 0 396 -159 396 -356v-10h-641c-4 0 -7 -1 -7 -4v-194c0 -8 4 -16 10 -23zM181 355h492c2 0 4 2 4 6v193
c0 10 -3 17 -10 24c-61 62 -147 100 -240 100c-96 0 -182 -41 -242 -103c-7 -7 -11 -16 -11 -26v-188c0 -4 3 -6 7 -6z" />
    <glyph glyph-name="a.sc" unicode="&#xf761;" horiz-adv-x="479" 
d="M-30 0l294 520h37l119 -520h-33l-37 168h-252l-93 -168h-35zM279 488h-2l-164 -293h231z" />
    <glyph glyph-name="b.sc" unicode="&#xf762;" horiz-adv-x="546" 
d="M53 0l88 520h208c96 0 142 -45 142 -107c0 -66 -40 -121 -117 -138v-1c65 -11 100 -58 100 -112c0 -98 -74 -162 -196 -162h-225zM322 260h-195l-39 -232h193c99 0 160 53 160 134c0 53 -37 98 -119 98zM345 492h-178l-35 -205h187c88 0 140 52 140 121
c0 48 -35 84 -114 84z" />
    <glyph glyph-name="c.sc" unicode="&#xf763;" horiz-adv-x="575" 
d="M46 209c0 169 127 320 297 320c123 0 192 -67 205 -166h-31c-15 83 -69 138 -175 138c-150 0 -263 -137 -263 -290c0 -106 71 -192 190 -192c103 0 171 55 212 138h32c-44 -100 -129 -166 -246 -166c-137 0 -221 97 -221 218z" />
    <glyph glyph-name="d.sc" unicode="&#xf764;" horiz-adv-x="575" 
d="M53 0l88 520h144c163 0 247 -92 247 -217c0 -172 -129 -303 -333 -303h-146zM281 492h-114l-79 -464h115c188 0 296 123 296 275c0 107 -70 189 -218 189z" />
    <glyph glyph-name="e.sc" unicode="&#xf765;" horiz-adv-x="504" 
d="M53 0l88 520h354l-4 -28h-324l-36 -213h264l-4 -27h-265l-38 -224h331l-4 -28h-362z" />
    <glyph glyph-name="f.sc" unicode="&#xf766;" horiz-adv-x="470" 
d="M53 0l88 520h350l-4 -28h-320l-38 -222h260l-4 -27h-260l-41 -243h-31z" />
    <glyph glyph-name="g.sc" unicode="&#xf767;" horiz-adv-x="617" 
d="M315 241l4 26h220l-45 -267h-21l13 99h-2c-48 -74 -125 -108 -213 -108c-136 0 -224 100 -224 222c0 181 130 316 300 316c125 0 200 -73 204 -160h-32c-5 71 -65 132 -175 132c-149 0 -264 -124 -264 -286c0 -108 75 -196 194 -196c101 0 206 52 226 188l5 34h-190z" />
    <glyph glyph-name="h.sc" unicode="&#xf768;" horiz-adv-x="597" 
d="M53 0l88 520h31l-41 -243h341l41 243h32l-88 -520h-32l42 249h-341l-42 -249h-31z" />
    <glyph glyph-name="i.sc" unicode="&#xf769;" horiz-adv-x="225" 
d="M53 0l88 520h31l-88 -520h-31z" />
    <glyph glyph-name="j.sc" unicode="&#xf76a;" horiz-adv-x="435" 
d="M30 145l5 28h31l-5 -28c-15 -90 33 -127 104 -127c68 0 119 39 135 128l65 374h32l-65 -374c-18 -107 -81 -155 -169 -155s-151 47 -133 154z" />
    <glyph glyph-name="k.sc" unicode="&#xf76b;" horiz-adv-x="537" 
d="M53 0l88 520h31l-58 -339l385 339h38l-254 -224l180 -296h-33l-169 276l-153 -134l-24 -142h-31z" />
    <glyph glyph-name="l.sc" unicode="&#xf76c;" horiz-adv-x="453" 
d="M53 0l88 520h31l-84 -492h301l-3 -28h-333z" />
    <glyph glyph-name="m.sc" unicode="&#xf76d;" horiz-adv-x="726" 
d="M53 0l88 520h37l146 -477h1l309 477h39l-88 -520h-32l81 469h-2l-303 -469h-22l-144 468h-2l-77 -468h-31z" />
    <glyph glyph-name="n.sc" unicode="&#xf76e;" horiz-adv-x="600" 
d="M53 0l88 520h30l264 -470h1l80 470h31l-88 -520h-30l-264 470h-1l-80 -470h-31z" />
    <glyph glyph-name="o.sc" unicode="&#xf76f;" horiz-adv-x="609" 
d="M46 209c0 186 145 320 301 320c129 0 217 -89 217 -218c0 -186 -145 -320 -302 -320c-128 0 -216 89 -216 218zM265 19c115 0 222 83 255 207c7 26 11 55 11 83c0 115 -73 192 -186 192c-115 0 -222 -83 -256 -207c-6 -26 -10 -55 -10 -83c0 -115 73 -192 186 -192z" />
    <glyph glyph-name="p.sc" unicode="&#xf770;" horiz-adv-x="520" 
d="M53 0l88 520h198c98 0 154 -62 154 -137c0 -108 -82 -182 -204 -182h-171l-34 -201h-31zM337 492h-170l-45 -263h171c100 0 167 62 167 152c0 61 -44 111 -123 111z" />
    <glyph glyph-name="q.sc" unicode="&#xf771;" horiz-adv-x="609" 
d="M46 209c0 186 145 320 301 320c129 0 217 -89 217 -218c0 -114 -55 -209 -133 -265l85 -106l-25 -19l-86 109c-43 -25 -93 -39 -143 -39c-128 0 -216 89 -216 218zM265 19c115 0 222 83 255 207c7 26 11 55 11 83c0 115 -73 192 -186 192c-115 0 -222 -83 -256 -207
c-6 -26 -10 -55 -10 -83c0 -115 73 -192 186 -192z" />
    <glyph glyph-name="r.sc" unicode="&#xf772;" horiz-adv-x="543" 
d="M53 0l88 520h205c97 0 154 -53 154 -126c0 -99 -72 -159 -175 -166l120 -228h-33l-120 227h-170l-38 -227h-31zM343 492h-176l-40 -237h179c96 0 160 49 160 137c0 58 -44 100 -123 100z" />
    <glyph glyph-name="s.sc" unicode="&#xf773;" horiz-adv-x="497" 
d="M33 143h32c-13 -82 48 -125 152 -125c113 0 175 50 175 126c0 161 -306 53 -306 235c0 85 73 150 203 150c121 0 184 -60 171 -142h-32c11 66 -39 115 -142 115c-105 0 -168 -49 -168 -121c0 -155 307 -47 307 -234c0 -91 -70 -156 -210 -156c-126 0 -198 55 -182 152z
" />
    <glyph glyph-name="t.sc" unicode="&#xf774;" horiz-adv-x="473" 
d="M54 492l5 28h443l-4 -28h-207l-83 -492h-32l84 492h-206z" />
    <glyph glyph-name="u.sc" unicode="&#xf775;" horiz-adv-x="576" 
d="M72 205l54 315h32l-54 -315c-22 -125 36 -185 143 -185c106 0 181 63 203 185l54 315h32l-54 -315c-26 -148 -118 -214 -238 -214s-198 66 -172 214z" />
    <glyph glyph-name="v.sc" unicode="&#xf776;" horiz-adv-x="482" 
d="M179 0l-118 520h33l107 -488h2l273 488h33l-292 -520h-38z" />
    <glyph glyph-name="w.sc" unicode="&#xf777;" horiz-adv-x="721" 
d="M122 0l-62 520h32l55 -484h2l239 484h33l75 -487h2l220 487h32l-236 -520h-41l-75 479h-2l-234 -479h-40z" />
    <glyph glyph-name="x.sc" unicode="&#xf778;" horiz-adv-x="468" 
d="M-24 0l240 263l-147 257h36l132 -233l210 233h36l-233 -256l150 -264h-33l-138 241l-218 -241h-35z" />
    <glyph glyph-name="y.sc" unicode="&#xf779;" horiz-adv-x="459" 
d="M168 0l35 210l-148 310h35l134 -282h1l234 282h34l-258 -311l-35 -209h-32z" />
    <glyph glyph-name="z.sc" unicode="&#xf77a;" horiz-adv-x="471" 
d="M93 493l4 27h373l-2 -19l-424 -474h339l-4 -27h-384l2 18l425 475h-329z" />
    <glyph glyph-name="dcroat.sc" unicode="&#xf676;" horiz-adv-x="577" 
d="M2 248l4 25h93l42 247h144c163 0 247 -92 247 -217c0 -172 -129 -303 -333 -303h-146l42 248h-93zM281 492h-114l-37 -219h115l-3 -25h-116l-38 -220h115c188 0 296 123 296 275c0 107 -70 189 -218 189z" />
    <glyph glyph-name="hbar.sc" unicode="&#xf681;" horiz-adv-x="597" 
d="M29 393l4 24h90l18 103h31l-18 -103h341l18 103h32l-18 -103h90l-4 -24h-90l-66 -393h-32l42 249h-341l-42 -249h-31l66 393h-90zM150 393l-19 -116h341l19 116h-341z" />
    <glyph glyph-name="dotlessi.sc" unicode="&#xe08e;" horiz-adv-x="225" 
d="M53 0l88 520h31l-88 -520h-31z" />
    <glyph glyph-name="oslash.sc" unicode="&#xf7f8;" horiz-adv-x="609" 
d="M46 209c0 186 145 320 301 320c64 0 118 -22 156 -60l61 60h29l-77 -75c31 -37 48 -86 48 -143c0 -186 -145 -320 -302 -320c-64 0 -117 22 -155 60l-61 -60h-30l77 75c-30 37 -47 86 -47 143zM265 19c115 0 222 83 255 207c7 26 11 55 11 83c0 49 -13 91 -37 123
l-365 -360c32 -34 79 -53 136 -53zM79 211c0 -49 13 -91 36 -123l366 359c-33 34 -79 54 -136 54c-115 0 -222 -83 -256 -207c-6 -26 -10 -55 -10 -83z" />
    <glyph glyph-name="tbar.sc" unicode="&#xf69c;" horiz-adv-x="473" 
d="M54 492l4 28h444l-4 -28h-207l-38 -224h157l-4 -24h-157l-41 -244h-31l41 244h-157l4 24h157l38 224h-206z" />
    <glyph glyph-name="eng.sc" unicode="&#xf67b;" horiz-adv-x="600" 
d="M249 -191h48c64 0 103 34 118 117l13 77l-263 466h-2l-79 -469h-31l87 520h30l265 -469h1l80 469h31l-100 -593c-18 -106 -73 -147 -154 -147h-48z" />
    <glyph glyph-name="eth.sc" unicode="&#xf7f0;" horiz-adv-x="577" 
d="M2 248l4 25h93l42 247h144c163 0 247 -92 247 -217c0 -172 -129 -303 -333 -303h-146l42 248h-93zM281 492h-114l-37 -219h115l-3 -25h-116l-38 -220h115c188 0 296 123 296 275c0 107 -70 189 -218 189z" />
    <glyph glyph-name="thorn.sc" unicode="&#xf7fe;" horiz-adv-x="520" 
d="M53 0l88 520h31l-16 -91h169c97 0 153 -62 153 -137c0 -108 -82 -182 -204 -182h-172l-19 -110h-30zM322 401h-170l-45 -263h170c101 0 168 61 168 151c0 62 -44 112 -123 112z" />
    <glyph glyph-name="germandbls.sc" unicode="&#xe0a4;" horiz-adv-x="994" 
d="M33 143h32c-13 -82 48 -125 152 -125c113 0 175 50 175 126c0 161 -306 53 -306 235c0 85 73 150 203 150c121 0 184 -60 171 -142h-32c11 66 -39 115 -142 115c-105 0 -168 -49 -168 -121c0 -155 307 -47 307 -234c0 -91 -70 -156 -210 -156c-126 0 -198 55 -182 152z
M530 143h32c-13 -82 48 -125 152 -125c113 0 175 50 175 126c0 161 -306 53 -306 235c0 85 73 150 203 150c121 0 184 -60 171 -142h-32c11 66 -39 115 -142 115c-105 0 -168 -49 -168 -121c0 -155 307 -47 307 -234c0 -91 -70 -156 -210 -156c-126 0 -198 55 -182 152z" />
    <glyph glyph-name="ae.sc" unicode="&#xf7e6;" horiz-adv-x="831" 
d="M-39 0l495 520h366l-3 -28h-325l-36 -213h265l-4 -27h-266l-38 -224h331l-4 -28h-363l21 128h-280l-121 -128h-38zM145 155h260l56 333z" />
    <glyph glyph-name="oe.sc" unicode="&#xf6fa;" horiz-adv-x="844" 
d="M46 217c0 173 128 303 332 303h458l-4 -28h-324l-37 -213h265l-4 -27h-265l-38 -224h331l-4 -28h-464c-163 0 -246 92 -246 217zM79 217c0 -107 69 -189 217 -189h101l79 464h-101c-189 0 -296 -123 -296 -275z" />
    <glyph glyph-name="ij.sc" unicode="&#xf684;" horiz-adv-x="661" 
d="M256 145l5 28h31l-5 -28c-16 -90 33 -127 104 -127c67 0 119 39 135 128l65 374h31l-64 -374c-18 -107 -82 -155 -170 -155s-150 47 -132 154zM53 0l88 520h31l-88 -520h-31z" />
    <glyph glyph-name="ampersand.sc" unicode="&#xf726;" horiz-adv-x="554" 
d="M35 111c0 97 81 139 165 173c-35 43 -54 78 -54 115c0 73 63 128 149 128c79 0 120 -43 120 -97c0 -87 -86 -121 -172 -155l152 -170c38 48 57 108 66 155h29c-10 -48 -30 -119 -77 -175l75 -85h-34l-59 65c-43 -43 -105 -74 -193 -74c-105 0 -167 49 -167 120zM203 17
c79 0 135 28 174 68l-161 180c-78 -32 -149 -68 -149 -148c0 -63 52 -100 136 -100zM174 401c0 -34 17 -65 52 -107c82 33 161 63 161 136c0 42 -32 73 -94 73c-67 0 -119 -41 -119 -102z" />
    <glyph glyph-name="exclam.sc" unicode="&#xf721;" horiz-adv-x="213" 
d="M74 141l37 251l22 128h35l-22 -128l-50 -251h-22zM44 0l13 76h35l-13 -76h-35z" />
    <glyph glyph-name="exclamdown.sc" unicode="&#xf7a1;" horiz-adv-x="213" 
d="M120 444l13 76h35l-13 -76h-35zM44 0l22 128l51 251h21l-37 -251l-22 -128h-35z" />
    <glyph glyph-name="question.sc" unicode="&#xf73f;" horiz-adv-x="426" 
d="M171 149l4 22c25 135 206 117 206 236c0 53 -52 94 -131 94c-87 0 -153 -40 -169 -127h-30c18 100 95 154 202 154c94 0 160 -50 160 -119c0 -140 -184 -121 -206 -238l-4 -22h-32zM152 0l13 76h35l-13 -76h-35z" />
    <glyph glyph-name="questiondown.sc" unicode="&#xf7bf;" horiz-adv-x="426" 
d="M223 447l13 76h35l-14 -76h-34zM10 113c0 140 184 121 206 239l4 22h32l-4 -22c-26 -136 -206 -117 -206 -236c0 -53 52 -95 131 -95c86 0 153 41 168 128h30c-17 -100 -94 -154 -201 -154c-95 0 -160 50 -160 118z" />
    <glyph glyph-name="zero.oldstyle" unicode="&#xf730;" horiz-adv-x="556" 
d="M35 194c0 176 137 303 282 303c122 0 199 -83 199 -203c0 -176 -137 -303 -282 -303c-122 0 -199 83 -199 203zM68 196c0 -104 67 -177 169 -177c125 0 246 114 246 273c0 104 -67 177 -168 177c-126 0 -247 -114 -247 -273z" />
    <glyph glyph-name="one.oldstyle" unicode="&#xf731;" horiz-adv-x="295" 
d="M40 350l-13 24l188 114h23l-84 -488h-31l76 445z" />
    <glyph glyph-name="two.oldstyle" unicode="&#xf732;" horiz-adv-x="469" 
d="M4 0c19 118 97 171 186 207l85 35c72 30 135 56 135 128c0 52 -49 100 -138 100c-94 0 -164 -41 -187 -141h-29c24 119 112 168 217 168c104 0 168 -54 168 -124c0 -95 -78 -123 -157 -156l-84 -35c-72 -30 -141 -75 -153 -154h348l-4 -28h-387z" />
    <glyph glyph-name="three.oldstyle" unicode="&#xf733;" horiz-adv-x="496" 
d="M-21 -1h30c-21 -117 56 -180 158 -180c119 0 212 72 212 188c0 81 -66 139 -160 139h-38l6 27h39c94 0 185 69 185 169c0 83 -62 127 -138 127c-83 0 -168 -48 -183 -164h-31c18 129 115 192 217 192c93 0 166 -57 166 -152c0 -100 -81 -168 -159 -183v-2
c72 -14 127 -70 127 -153c0 -132 -105 -216 -245 -216c-120 0 -209 71 -186 208z" />
    <glyph glyph-name="four.oldstyle" unicode="&#xf734;" horiz-adv-x="513" 
d="M-23 0l4 23l412 468h26l-78 -463h103l-3 -28h-104l-34 -200h-32l33 200h-327zM20 28h289l68 405z" />
    <glyph glyph-name="five.oldstyle" unicode="&#xf735;" horiz-adv-x="490" 
d="M1 -27h32c0 -76 40 -154 153 -154c125 0 211 119 211 242c0 92 -56 151 -144 151c-70 0 -129 -32 -179 -103l-32 2l90 377h335l-4 -29h-306l-75 -305h2c43 57 104 86 175 86c106 0 171 -68 171 -177c0 -142 -103 -272 -246 -272c-125 0 -183 80 -183 182z" />
    <glyph glyph-name="six.oldstyle" unicode="&#xf736;" horiz-adv-x="520" 
d="M53 211c0 21 2 43 4 66c21 203 108 420 290 420c109 0 169 -69 163 -181h-31c5 94 -44 153 -135 153c-159 0 -234 -201 -253 -382c33 85 112 153 218 153s169 -69 169 -177c0 -142 -101 -272 -244 -272c-108 0 -181 61 -181 220zM90 171c0 -95 52 -152 145 -152
c126 0 210 118 210 242c0 92 -53 151 -141 151c-125 0 -214 -117 -214 -241z" />
    <glyph glyph-name="seven.oldstyle" unicode="&#xf737;" horiz-adv-x="426" 
d="M-13 -200l423 659h-358l3 29h396l-4 -23l-425 -665h-35z" />
    <glyph glyph-name="eight.oldstyle" unicode="&#xf738;" horiz-adv-x="519" 
d="M27 155c0 115 95 189 186 205v2c-54 15 -100 63 -100 135c0 114 102 200 219 200c94 0 165 -56 165 -151s-78 -167 -156 -184v-2c71 -17 125 -71 125 -153c0 -129 -110 -216 -247 -216c-116 0 -192 65 -192 164zM59 157c0 -84 67 -138 162 -138c118 0 213 75 213 188
c0 81 -65 139 -160 139c-109 0 -215 -72 -215 -189zM280 373c95 0 186 71 186 172c0 80 -62 125 -136 125c-98 0 -186 -72 -186 -173c0 -74 58 -124 136 -124z" />
    <glyph glyph-name="nine.oldstyle" unicode="&#xf739;" horiz-adv-x="520" 
d="M6 -28h32c-6 -94 43 -153 134 -153c160 0 232 201 252 381c-34 -85 -112 -152 -218 -152s-168 69 -168 177c0 142 100 272 243 272c108 0 181 -61 181 -220c0 -21 -2 -43 -4 -66c-20 -203 -106 -420 -288 -420c-110 0 -170 69 -164 181zM425 317c0 82 -45 152 -145 152
c-126 0 -210 -118 -210 -242c0 -92 53 -151 141 -151c125 0 214 117 214 241z" />
    <glyph glyph-name="a.superior" unicode="&#xf6e9;" horiz-adv-x="408" 
d="M360 496l13 79h-2c-32 -54 -86 -85 -142 -85c-75 0 -128 53 -128 136c0 132 87 219 181 219c60 0 108 -35 121 -90h1l14 85h29l-59 -344h-28zM132 627c0 -70 42 -112 104 -112c84 0 153 90 153 190c0 72 -43 115 -103 115c-82 0 -154 -80 -154 -193z" />
    <glyph glyph-name="b.superior" unicode="&#xf6ea;" horiz-adv-x="408" 
d="M98 496l88 516h30l-17 -105c-1 -8 -24 -131 -28 -147h1c32 54 88 85 144 85c75 0 127 -53 127 -136c0 -132 -87 -219 -182 -219c-60 0 -109 33 -121 90l-14 -84h-28zM155 631c0 -72 43 -116 103 -116c82 0 154 80 154 194c0 68 -42 111 -104 111
c-84 0 -153 -91 -153 -189z" />
    <glyph glyph-name="d.superior" unicode="&#xf6eb;" horiz-adv-x="408" 
d="M101 626c0 132 87 219 181 219c60 0 108 -35 121 -90h1c1 10 22 139 23 144l19 113h30l-88 -516h-28l13 79h-2c-32 -54 -86 -85 -142 -85c-75 0 -128 53 -128 136zM132 627c0 -69 42 -112 104 -112c84 0 153 90 153 190c0 72 -43 115 -103 115c-82 0 -154 -80 -154 -193z
" />
    <glyph glyph-name="e.superior" unicode="&#xf6ec;" horiz-adv-x="375" 
d="M101 625c0 19 2 37 6 55c21 98 96 165 181 165c95 0 134 -77 121 -162l-2 -11h-271c-3 -15 -4 -31 -4 -47c0 -71 36 -109 101 -109c68 0 110 32 127 84h28c-19 -67 -75 -109 -157 -109s-130 50 -130 134zM286 820c-67 0 -124 -50 -145 -128h239c9 65 -16 128 -94 128z
" />
    <glyph glyph-name="g.superior" unicode="&#xe0a3;" horiz-adv-x="408" 
d="M80 454h27c-10 -64 34 -94 101 -94c78 0 133 36 153 147l12 68h-1c-32 -54 -87 -85 -143 -85c-75 0 -128 53 -128 136c0 132 87 219 181 219c60 0 108 -35 121 -90h1l14 85h29l-57 -333c-22 -127 -91 -171 -183 -171c-79 0 -139 36 -127 118zM132 627
c0 -70 42 -112 104 -112c84 0 153 90 153 190c0 72 -43 115 -103 115c-82 0 -154 -80 -154 -193z" />
    <glyph glyph-name="h.superior" unicode="&#xf637;" horiz-adv-x="395" 
d="M298 821c-62 0 -122 -51 -139 -148l-30 -177h-30l88 516h30l-18 -106c-1 -5 -22 -124 -25 -135h1c29 50 77 75 129 75c73 0 125 -40 108 -147l-34 -203h-30l34 203c15 89 -24 122 -84 122z" />
    <glyph glyph-name="i.superior" unicode="&#xf6ed;" horiz-adv-x="148" 
d="M176 946l11 66h31l-11 -66h-31zM100 496l58 344h30l-58 -344h-30z" />
    <glyph glyph-name="l.superior" unicode="&#xf6ee;" horiz-adv-x="150" 
d="M100 496l88 516h30l-88 -516h-30z" />
    <glyph glyph-name="m.superior" unicode="&#xf6ef;" horiz-adv-x="623" 
d="M99 496l59 344h29l-13 -68h1c29 49 76 74 125 74c55 0 98 -25 106 -86c31 59 82 86 134 86c71 0 122 -40 104 -147l-34 -203h-30l34 203c15 89 -23 122 -80 122c-56 0 -117 -45 -135 -150l-29 -175h-30l34 203c15 89 -23 122 -80 122c-59 0 -118 -51 -135 -148l-30 -177
h-30z" />
    <glyph glyph-name="n.superior" unicode="&#x207f;" horiz-adv-x="395" 
d="M99 496l59 344h29l-13 -68h1c30 49 78 74 129 74c73 0 126 -41 108 -147l-34 -203h-30l34 203c15 89 -24 122 -84 122c-62 0 -122 -51 -139 -148l-30 -177h-30z" />
    <glyph glyph-name="o.superior" unicode="&#xf6f0;" horiz-adv-x="395" 
d="M101 627c0 129 92 218 192 218c82 0 135 -52 135 -136c0 -129 -91 -218 -191 -218c-82 0 -136 52 -136 136zM132 627c0 -69 40 -111 107 -111c83 0 158 81 158 193c0 69 -39 111 -106 111c-83 0 -159 -80 -159 -193z" />
    <glyph glyph-name="r.superior" unicode="&#xf6f1;" horiz-adv-x="248" 
d="M99 496l58 344h28l-11 -68h1c21 42 55 73 106 73c16 0 42 -3 56 -17l-11 -26c-14 12 -34 16 -48 16c-62 0 -105 -66 -118 -141l-31 -181h-30z" />
    <glyph glyph-name="s.superior" unicode="&#xf6f2;" horiz-adv-x="357" 
d="M96 595h28c-6 -62 52 -81 102 -81c64 0 114 23 114 78c0 39 -24 56 -69 64l-63 11c-44 7 -81 28 -81 76c0 65 59 103 138 103c64 0 128 -30 123 -101h-28c4 56 -43 77 -97 77c-60 0 -107 -26 -107 -74c0 -40 32 -51 66 -57l63 -11c49 -9 85 -33 85 -84
c0 -74 -67 -106 -145 -106c-63 0 -138 25 -129 105z" />
    <glyph glyph-name="t.superior" unicode="&#xf6f3;" horiz-adv-x="243" 
d="M100 816l4 24h81l18 104h30l-18 -104h105l-5 -24h-104l-38 -220c-10 -56 8 -74 53 -74h39l-5 -26h-40c-64 0 -90 26 -77 97l38 223h-81z" />
    <glyph glyph-name="period.superior" unicode="&#xf6e8;" horiz-adv-x="150" 
d="M98 496l12 68h32l-12 -68h-32z" />
    <glyph glyph-name="comma.superior" unicode="&#xf6e2;" horiz-adv-x="150" 
d="M98 496l12 68h32l-12 -67l-43 -102h-16l38 101h-11z" />
    <glyph glyph-name="dollar.superior" unicode="&#xf6e4;" 
d="M103 593h27c-4 -45 27 -81 94 -81c59 0 110 29 110 83c0 95 -198 41 -198 150c0 56 47 96 119 100l10 54h27l-10 -55c54 -5 98 -35 99 -92h-27c-1 47 -41 70 -90 70c-59 0 -100 -29 -100 -74c0 -88 199 -34 199 -150c0 -64 -55 -104 -130 -108l-10 -61h-27l11 61
c-65 4 -109 44 -104 103z" />
    <glyph glyph-name="cent.superior" unicode="&#xf6e0;" 
d="M116 644c0 84 62 147 145 152l9 49h27l-10 -49c52 -5 92 -36 92 -87h-28c0 36 -31 65 -81 65c-69 0 -124 -53 -124 -127c0 -53 35 -85 91 -85c50 0 90 29 103 65h28c-13 -46 -61 -84 -122 -88l-9 -48h-26l8 48c-64 6 -103 46 -103 105z" />
    <glyph glyph-name="hyphen.superior" unicode="&#xf6e6;" horiz-adv-x="277" 
d="M107 656l4 26h196l-4 -26h-196z" />
    <glyph glyph-name="parenleft.superior" unicode="&#x207d;" horiz-adv-x="175" 
d="M166 424c-23 36 -44 101 -44 177c0 131 71 254 128 311h26c-51 -52 -125 -185 -125 -311c0 -79 20 -144 41 -177h-26z" />
    <glyph glyph-name="parenright.superior" unicode="&#x207e;" horiz-adv-x="175" 
d="M62 424h-27c53 53 125 185 125 312c0 78 -21 143 -42 176h28c22 -36 42 -101 42 -176c0 -132 -69 -255 -126 -312z" />
    <glyph glyph-name="period.inferior" unicode="&#xf6e7;" horiz-adv-x="150" 
d="M-2 -152l12 68h32l-12 -68h-32z" />
    <glyph glyph-name="comma.inferior" unicode="&#xf6e1;" horiz-adv-x="150" 
d="M-2 -152l12 68h32l-12 -67l-43 -102h-16l38 101h-11z" />
    <glyph glyph-name="dollar.inferior" unicode="&#xf6e3;" 
d="M3 -55h27c-4 -45 27 -81 94 -81c59 0 110 29 110 83c0 95 -198 41 -198 150c0 56 47 96 119 100l10 54h27l-10 -55c54 -5 98 -35 99 -92h-27c-1 47 -41 70 -90 70c-59 0 -100 -29 -100 -74c0 -88 199 -34 199 -150c0 -64 -55 -104 -130 -108l-10 -61h-27l11 61
c-65 4 -109 44 -104 103z" />
    <glyph glyph-name="cent.inferior" unicode="&#xf6df;" 
d="M16 -4c0 84 62 147 145 152l9 49h27l-10 -49c52 -5 92 -36 92 -87h-28c0 36 -31 65 -81 65c-69 0 -124 -53 -124 -127c0 -53 35 -85 91 -85c50 0 90 29 103 65h28c-13 -46 -61 -84 -122 -88l-9 -48h-26l8 48c-64 6 -103 46 -103 105z" />
    <glyph glyph-name="hyphen.inferior" unicode="&#xf6e5;" horiz-adv-x="277" 
d="M7 8l4 26h196l-4 -26h-196z" />
    <glyph glyph-name="parenleft.inferior" unicode="&#x208d;" horiz-adv-x="175" 
d="M66 -224c-23 36 -44 101 -44 177c0 131 71 254 128 311h26c-51 -52 -125 -185 -125 -311c0 -79 20 -144 41 -177h-26z" />
    <glyph glyph-name="parenright.inferior" unicode="&#x208e;" horiz-adv-x="175" 
d="M-38 -224h-27c53 53 125 185 125 312c0 78 -21 143 -42 176h28c22 -36 42 -101 42 -176c0 -132 -69 -255 -126 -312z" />
    <glyph glyph-name="zero.numerator" unicode="&#xf661;" 
d="M186 337c-76 0 -112 55 -112 131c0 18 2 36 5 53c17 97 78 174 167 174c76 0 112 -55 112 -131c0 -18 -2 -36 -5 -53c-17 -97 -78 -174 -167 -174zM189 361c69 0 119 61 135 150c3 17 5 35 5 52c0 64 -27 108 -86 108c-70 0 -119 -61 -135 -150c-3 -17 -5 -35 -5 -53
c0 -63 27 -107 86 -107z" />
    <glyph glyph-name="one.numerator" unicode="&#xf662;" 
d="M124 591l-10 21l142 76h20l-55 -319h108l-2 -25h-254l2 25h117l48 282z" />
    <glyph glyph-name="two.numerator" unicode="&#xf663;" 
d="M62 344c17 85 63 119 130 150l41 19c50 23 97 40 97 91c0 38 -34 66 -88 66s-103 -27 -118 -98h-26c17 88 80 122 146 122c68 0 114 -36 114 -87c0 -69 -58 -88 -116 -115l-41 -20c-57 -26 -92 -54 -103 -103h225l-2 -25h-259z" />
    <glyph glyph-name="three.numerator" unicode="&#xf664;" 
d="M70 443h28c-11 -63 42 -83 94 -83c64 0 118 31 118 88c0 41 -39 65 -94 65h-30l2 22h30c57 0 108 27 108 79c0 38 -38 58 -84 58c-55 0 -98 -24 -105 -80h-27c7 69 63 103 134 103c62 0 111 -30 111 -78c0 -47 -34 -81 -83 -92v-1c40 -10 67 -38 67 -76
c0 -70 -66 -111 -149 -111c-66 0 -134 28 -120 106z" />
    <glyph glyph-name="four.numerator" unicode="&#xf665;" 
d="M59 434l2 19l242 238h24l-40 -234h60l-3 -23h-61l-15 -90h-29l15 90h-195zM96 457h162l34 194z" />
    <glyph glyph-name="five.numerator" unicode="&#xf666;" 
d="M82 434h26c1 -43 29 -74 89 -74c51 0 93 28 108 71c5 11 7 24 7 37c0 49 -37 77 -86 77c-38 0 -72 -17 -99 -49l-29 2l45 190h215l-3 -25h-190l-34 -135h2c26 26 60 40 100 40c62 0 108 -37 108 -98c0 -79 -67 -133 -145 -133c-74 0 -114 40 -114 97z" />
    <glyph glyph-name="six.numerator" unicode="&#xf667;" 
d="M78 455c0 22 2 45 5 64c22 130 103 176 171 176c65 0 101 -35 101 -94h-28c0 42 -22 71 -76 71c-51 0 -118 -38 -139 -155l-3 -16c21 38 65 67 122 67c63 0 109 -37 109 -98c0 -79 -67 -133 -146 -133c-65 0 -116 33 -116 118zM109 436c0 -50 35 -76 88 -76s98 33 110 81
c3 8 4 17 4 27c0 49 -38 77 -86 77c-60 0 -116 -47 -116 -109z" />
    <glyph glyph-name="seven.numerator" unicode="&#xf668;" 
d="M122 344l219 318h-230l4 26h265l-2 -18l-223 -326h-33z" />
    <glyph glyph-name="eight.numerator" unicode="&#xf669;" 
d="M66 419c0 57 46 94 99 105v1c-37 8 -57 34 -57 67c0 64 64 103 136 103c62 0 111 -30 111 -78c0 -47 -34 -81 -82 -92v-1c39 -9 66 -38 66 -76c0 -70 -67 -111 -153 -111c-72 0 -120 31 -120 82zM95 422c0 -41 38 -62 94 -62c66 0 121 31 121 88c0 41 -39 65 -94 65
s-121 -28 -121 -91zM218 535c57 0 108 27 108 79c0 38 -38 58 -83 58c-56 0 -107 -27 -107 -80c0 -37 34 -57 82 -57z" />
    <glyph glyph-name="nine.numerator" unicode="&#xf66a;" 
d="M81 431h27c0 -42 22 -71 76 -71c52 0 119 38 139 155c1 3 1 8 2 13c-22 -37 -66 -64 -121 -64c-62 0 -109 37 -109 98c0 79 68 133 146 133c66 0 117 -33 117 -118c0 -22 -3 -45 -6 -64c-22 -130 -102 -176 -170 -176c-65 0 -101 35 -101 94zM326 596c0 48 -33 76 -87 76
c-53 0 -98 -33 -111 -81c-2 -8 -4 -17 -4 -27c0 -49 38 -77 86 -77c60 0 116 47 116 109z" />
    <glyph glyph-name="period.numerator" unicode="&#xf66c;" horiz-adv-x="150" 
d="M70 344l12 68h32l-12 -68h-32z" />
    <glyph glyph-name="comma.numerator" unicode="&#xf66b;" horiz-adv-x="150" 
d="M70 344l12 68h32l-12 -67l-43 -102h-16l38 101h-11z" />
    <glyph glyph-name="dollar.numerator" unicode="&#xf62f;" 
d="M75 441h27c-4 -45 27 -81 94 -81c59 0 110 29 110 83c0 95 -198 41 -198 150c0 56 47 96 119 100l10 54h27l-10 -55c54 -5 98 -35 99 -92h-27c-1 47 -41 70 -90 70c-59 0 -100 -29 -100 -74c0 -88 199 -34 199 -150c0 -64 -55 -104 -130 -108l-10 -61h-27l11 61
c-65 4 -109 44 -104 103z" />
    <glyph glyph-name="cent.numerator" unicode="&#xf62e;" 
d="M88 492c0 84 62 147 145 152l9 49h27l-10 -49c52 -5 92 -36 92 -87h-28c0 36 -31 65 -81 65c-69 0 -124 -53 -124 -127c0 -53 35 -85 91 -85c50 0 90 29 103 65h28c-13 -46 -61 -84 -122 -88l-9 -48h-26l8 48c-64 6 -103 46 -103 105z" />
    <glyph glyph-name="hyphen.numerator" unicode="&#xf630;" horiz-adv-x="277" 
d="M79 504l4 26h196l-4 -26h-196z" />
    <glyph glyph-name="parenleft.numerator" unicode="&#xf631;" horiz-adv-x="175" 
d="M138 272c-23 36 -44 101 -44 177c0 131 71 254 128 311h26c-51 -52 -125 -185 -125 -311c0 -79 20 -144 41 -177h-26z" />
    <glyph glyph-name="parenright.numerator" unicode="&#xf632;" horiz-adv-x="175" 
d="M34 272h-27c53 53 125 185 125 312c0 78 -21 143 -42 176h28c22 -36 42 -101 42 -176c0 -132 -69 -255 -126 -312z" />
    <glyph glyph-name="zero.denominator" unicode="&#xf655;" 
d="M130 -7c-76 0 -112 55 -112 131c0 18 2 36 5 53c17 97 78 174 167 174c76 0 112 -55 112 -131c0 -18 -2 -36 -5 -53c-17 -97 -78 -174 -167 -174zM133 17c69 0 119 61 135 150c3 17 5 35 5 52c0 64 -27 108 -86 108c-70 0 -119 -61 -135 -150c-3 -17 -5 -35 -5 -53
c0 -63 27 -107 86 -107z" />
    <glyph glyph-name="one.denominator" unicode="&#xf656;" 
d="M68 247l-10 21l142 76h20l-55 -319h108l-2 -25h-254l2 25h117l48 282z" />
    <glyph glyph-name="two.denominator" unicode="&#xf657;" 
d="M6 0c17 85 63 119 130 150l41 19c50 23 97 40 97 91c0 38 -34 66 -88 66s-103 -27 -118 -98h-26c17 88 80 122 146 122c68 0 114 -36 114 -87c0 -69 -58 -88 -116 -115l-41 -20c-57 -26 -92 -54 -103 -103h225l-2 -25h-259z" />
    <glyph glyph-name="three.denominator" unicode="&#xf658;" 
d="M14 99h28c-11 -63 42 -83 94 -83c64 0 118 31 118 88c0 41 -39 65 -94 65h-30l2 22h30c57 0 108 27 108 79c0 38 -38 58 -84 58c-55 0 -98 -24 -105 -80h-27c7 69 63 103 134 103c62 0 111 -30 111 -78c0 -47 -34 -81 -83 -92v-1c40 -10 67 -38 67 -76
c0 -70 -66 -111 -149 -111c-66 0 -134 28 -120 106z" />
    <glyph glyph-name="four.denominator" unicode="&#xf659;" 
d="M3 90l2 19l242 238h24l-40 -234h60l-3 -23h-61l-15 -90h-29l15 90h-195zM40 113h162l34 194z" />
    <glyph glyph-name="five.denominator" unicode="&#xf65a;" 
d="M26 90h26c1 -43 29 -74 89 -74c51 0 93 28 108 71c5 11 7 24 7 37c0 49 -37 77 -86 77c-38 0 -72 -17 -99 -49l-29 2l45 190h215l-3 -25h-190l-34 -135h2c26 26 60 40 100 40c62 0 108 -37 108 -98c0 -79 -67 -133 -145 -133c-74 0 -114 40 -114 97z" />
    <glyph glyph-name="six.denominator" unicode="&#xf65b;" 
d="M22 111c0 22 2 45 5 64c22 130 103 176 171 176c65 0 101 -35 101 -94h-28c0 42 -22 71 -76 71c-51 0 -118 -38 -139 -155l-3 -16c21 38 65 67 122 67c63 0 109 -37 109 -98c0 -79 -67 -133 -146 -133c-65 0 -116 33 -116 118zM53 92c0 -50 35 -76 88 -76s98 33 110 81
c3 8 4 17 4 27c0 49 -38 77 -86 77c-60 0 -116 -47 -116 -109z" />
    <glyph glyph-name="seven.denominator" unicode="&#xf65c;" 
d="M66 0l219 318h-230l4 26h265l-2 -18l-223 -326h-33z" />
    <glyph glyph-name="eight.denominator" unicode="&#xf65d;" 
d="M10 75c0 57 46 94 99 105v1c-37 8 -57 34 -57 67c0 64 64 103 136 103c62 0 111 -30 111 -78c0 -47 -34 -81 -82 -92v-1c39 -9 66 -38 66 -76c0 -70 -67 -111 -153 -111c-72 0 -120 31 -120 82zM39 78c0 -41 38 -62 94 -62c66 0 121 31 121 88c0 41 -39 65 -94 65
s-121 -28 -121 -91zM162 191c57 0 108 27 108 79c0 38 -38 58 -83 58c-56 0 -107 -27 -107 -80c0 -37 34 -57 82 -57z" />
    <glyph glyph-name="nine.denominator" unicode="&#xf65e;" 
d="M25 87h27c0 -42 22 -71 76 -71c52 0 119 38 139 155c1 3 1 8 2 13c-22 -37 -66 -64 -121 -64c-62 0 -109 37 -109 98c0 79 68 133 146 133c66 0 117 -33 117 -118c0 -22 -3 -45 -6 -64c-22 -130 -102 -176 -170 -176c-65 0 -101 35 -101 94zM270 252c0 48 -33 76 -87 76
c-53 0 -98 -33 -111 -81c-2 -8 -4 -17 -4 -27c0 -49 38 -77 86 -77c60 0 116 47 116 109z" />
    <glyph glyph-name="period.denominator" unicode="&#xf660;" horiz-adv-x="150" 
d="M14 0l12 68h32l-12 -68h-32z" />
    <glyph glyph-name="comma.denominator" unicode="&#xf65f;" horiz-adv-x="150" 
d="M14 0l12 68h32l-12 -67l-43 -102h-16l38 101h-11z" />
    <glyph glyph-name="dollar.denominator" unicode="&#xf62a;" 
d="M19 97h27c-4 -45 27 -81 94 -81c59 0 110 29 110 83c0 95 -198 41 -198 150c0 56 47 96 119 100l10 54h27l-10 -55c54 -5 98 -35 99 -92h-27c-1 47 -41 70 -90 70c-59 0 -100 -29 -100 -74c0 -88 199 -34 199 -150c0 -64 -55 -104 -130 -108l-10 -61h-27l11 61
c-65 4 -109 44 -104 103z" />
    <glyph glyph-name="cent.denominator" unicode="&#xf629;" 
d="M32 148c0 84 62 147 145 152l9 49h27l-10 -49c52 -5 92 -36 92 -87h-28c0 36 -31 65 -81 65c-69 0 -124 -53 -124 -127c0 -53 35 -85 91 -85c50 0 90 29 103 65h28c-13 -46 -61 -84 -122 -88l-9 -48h-26l8 48c-64 6 -103 46 -103 105z" />
    <glyph glyph-name="hyphen.denominator" unicode="&#xf62b;" horiz-adv-x="277" 
d="M23 160l4 26h196l-4 -26h-196z" />
    <glyph glyph-name="parenleft.denominator" unicode="&#xf62c;" horiz-adv-x="175" 
d="M82 -72c-23 36 -44 101 -44 177c0 131 71 254 128 311h26c-51 -52 -125 -185 -125 -311c0 -79 20 -144 41 -177h-26z" />
    <glyph glyph-name="parenright.denominator" unicode="&#xf62d;" horiz-adv-x="175" 
d="M-22 -72h-27c53 53 125 185 125 312c0 78 -21 143 -42 176h28c22 -36 42 -101 42 -176c0 -132 -69 -255 -126 -312z" />
    <glyph glyph-name="uni2190" unicode="&#x2190;" horiz-adv-x="660" 
d="M277 38l-17 -17l-232 231l232 231l17 -17l-205 -203c19 2 142 2 152 2h408v-25h-408c-10 0 -133 0 -152 1z" />
    <glyph glyph-name="uni2192" unicode="&#x2192;" horiz-adv-x="660" 
d="M400 21l-17 17l204 203c-18 -1 -141 -1 -151 -1h-408v25h408c10 0 133 0 151 -2l-204 203l17 17l232 -231z" />
    <glyph glyph-name="emdash.cap" unicode="&#xf6bc;" horiz-adv-x="840" 
d="M73 334l4 28h720l-4 -28h-720z" />
    <glyph glyph-name="endash.cap" unicode="&#xf6bb;" horiz-adv-x="556" 
d="M73 334l4 28h436l-4 -28h-436z" />
    <glyph glyph-name="exclamdown.cap" unicode="&#xf6b4;" horiz-adv-x="213" 
d="M147 597l15 91h36l-15 -91h-36zM45 0l29 169l65 336h21l-50 -336l-30 -169h-35z" />
    <glyph glyph-name="guillemotleft.cap" unicode="&#xf6b6;" horiz-adv-x="493" 
d="M385 144l-113 205l182 203h28l-176 -206l107 -202h-28zM189 144l-114 205l182 203h29l-177 -206l107 -202h-27z" />
    <glyph glyph-name="guillemotright.cap" unicode="&#xf6b7;" horiz-adv-x="493" 
d="M235 144l176 206l-107 202h28l113 -205l-182 -203h-28zM38 144l176 206l-106 202h27l114 -205l-183 -203h-28z" />
    <glyph glyph-name="guilsinglleft.cap" unicode="&#xf6b8;" horiz-adv-x="295" 
d="M189 144l-114 205l182 203h29l-177 -206l107 -202h-27z" />
    <glyph glyph-name="guilsinglright.cap" unicode="&#xf6b9;" horiz-adv-x="295" 
d="M40 144l176 206l-107 202h28l113 -205l-182 -203h-28z" />
    <glyph glyph-name="hyphen.cap" unicode="&#xf6ba;" horiz-adv-x="396" 
d="M73 334l4 28h276l-4 -28h-276z" />
    <glyph glyph-name="questiondown.cap" unicode="&#xf6b5;" horiz-adv-x="451" 
d="M263 597l14 91h36l-15 -91h-35zM21 135c0 174 202 172 229 329l4 28h32l-4 -28c-28 -174 -229 -170 -229 -326c0 -69 57 -119 134 -119c99 0 172 58 190 175h29c-16 -130 -102 -203 -221 -203c-92 0 -164 58 -164 144z" />
    <glyph glyph-name="braceleft.cap" unicode="&#xf6b2;" horiz-adv-x="361" 
d="M130 91l21 121c13 78 -6 108 -86 124l2 22c79 15 117 40 131 121l20 118c16 95 69 147 159 147h45l-3 -25h-43c-70 0 -116 -43 -128 -122l-20 -118c-14 -84 -52 -113 -123 -131v-2c64 -19 91 -51 76 -134l-21 -121c-13 -80 17 -122 86 -122h44l-4 -25h-43
c-89 0 -129 53 -113 147z" />
    <glyph glyph-name="braceright.cap" unicode="&#xf6b3;" horiz-adv-x="361" 
d="M15 -30c70 0 116 42 129 121l19 123c15 84 53 113 124 131v1c-65 20 -91 52 -77 134l21 117c14 80 -18 121 -87 121h-42l3 26h43c89 0 130 -53 114 -147l-21 -117c-14 -78 6 -107 85 -123l-2 -23c-78 -14 -116 -40 -130 -120l-20 -123c-16 -94 -69 -147 -159 -147h-47
l4 26h43z" />
    <glyph glyph-name="bracketleft.cap" unicode="&#xf6b0;" horiz-adv-x="293" 
d="M41 -56l139 800h172l-3 -27h-143l-130 -746h144l-4 -27h-175z" />
    <glyph glyph-name="bracketright.cap" unicode="&#xf6b1;" horiz-adv-x="293" 
d="M-27 -29h142l130 746h-143l3 27h175l-138 -800h-173z" />
    <glyph glyph-name="parenleft.cap" unicode="&#xf6ae;" horiz-adv-x="287" 
d="M181 -56c-40 69 -80 172 -80 299c0 213 122 395 218 501h31c-96 -107 -218 -292 -218 -500c0 -122 39 -230 78 -300h-29z" />
    <glyph glyph-name="parenright.cap" unicode="&#xf6af;" horiz-adv-x="287" 
d="M-35 -56c96 107 220 292 220 500c0 123 -41 230 -80 300h30c39 -69 81 -172 81 -299c0 -213 -124 -395 -220 -501h-31z" />
    <glyph glyph-name="periodcentered.cap" unicode="&#xf6bd;" horiz-adv-x="287" 
d="M131 303l16 92h37l-16 -92h-37z" />
    <glyph glyph-name="lessequal" unicode="&#x2264;" horiz-adv-x="568" 
d="M80 286l3 27l449 182l-4 -30l-415 -166l359 -165l-5 -29zM30 0l5 28h418l-4 -28h-419z" />
    <glyph glyph-name="greaterequal" unicode="&#x2265;" horiz-adv-x="568" 
d="M108 466l5 29l387 -182l-4 -27l-448 -181l3 30l415 164zM30 0l5 28h418l-4 -28h-419z" />
    <glyph glyph-name="approxequal" unicode="&#x2248;" horiz-adv-x="568" 
d="M83 289c14 85 60 128 120 128c87 0 126 -94 200 -94c46 0 79 32 90 99h28c-14 -85 -59 -127 -120 -127c-87 0 -126 94 -200 94c-46 0 -79 -32 -90 -100h-28zM47 87c14 84 60 127 120 127c87 0 126 -93 200 -93c46 0 79 32 90 98h28c-14 -84 -59 -126 -120 -126
c-87 0 -126 93 -200 93c-46 0 -79 -31 -90 -99h-28z" />
    <glyph glyph-name="notequal" unicode="&#x2260;" horiz-adv-x="568" 
d="M76 346l4 27h270l111 152l21 -14l-100 -138h144l-4 -27h-160l-133 -183h262l-4 -28h-278l-110 -152l-21 14l100 138h-137l4 28h153l133 183h-255z" />
    <glyph glyph-name="infinity" unicode="&#x221e;" horiz-adv-x="708" 
d="M145 97c-79 0 -125 53 -125 124c0 100 77 186 173 186c80 0 133 -65 163 -133c55 68 126 133 203 133c79 0 125 -53 125 -124c0 -100 -77 -186 -173 -186c-80 0 -133 64 -163 132c-55 -68 -126 -132 -203 -132zM147 122c73 0 141 73 188 130c-27 60 -71 130 -144 130
c-80 0 -143 -77 -143 -159c0 -56 35 -101 99 -101zM513 122c80 0 143 78 143 159c0 56 -35 101 -99 101c-73 0 -141 -73 -188 -130c27 -59 71 -130 144 -130z" />
    <glyph glyph-name="lozenge" unicode="&#x25ca;" horiz-adv-x="639" 
d="M261 0l-204 344l320 344h31l205 -346l-321 -342h-31zM91 343l189 -317l298 318l-190 317z" />
    <glyph glyph-name="integral" unicode="&#x222b;" horiz-adv-x="364" 
d="M-11 -131c98 0 141 62 154 185l60 535c15 136 67 212 186 212h30l-3 -28h-27c-98 0 -140 -62 -154 -184l-60 -535c-15 -136 -68 -212 -186 -212h-30l3 27h27z" />
    <glyph glyph-name="partialdiff" unicode="&#x2202;" horiz-adv-x="568" 
d="M25 159c0 153 126 281 278 281c79 0 177 -42 180 -150v-7c19 62 32 145 32 195c0 139 -69 191 -153 191c-108 0 -176 -65 -210 -153h-31c37 105 118 181 244 181c101 0 183 -61 183 -218c0 -39 -6 -88 -16 -138c-37 -195 -152 -350 -327 -350c-101 0 -180 62 -180 168z
M210 19c166 0 251 163 251 244c0 106 -81 149 -157 149c-130 0 -246 -108 -246 -251c0 -89 63 -142 152 -142z" />
    <glyph glyph-name="product" unicode="&#x220f;" horiz-adv-x="687" 
d="M53 0l120 688h489l-119 -688h-32l114 660h-426l-114 -660h-32z" />
    <glyph glyph-name="radical" unicode="&#x221a;" horiz-adv-x="588" 
d="M53 344l4 27l122 36l92 -370h1l347 651h34l-368 -688h-36l-96 374z" />
    <glyph glyph-name="summation" unicode="&#x2211;" horiz-adv-x="503" 
d="M-14 0l4 20l283 325l-170 321l3 22h436l-4 -28h-397l170 -317l-275 -315h403l-4 -28h-449z" />
    <glyph glyph-name="Delta" unicode="&#x2206;" horiz-adv-x="602" 
d="M-14 0l368 688h38l136 -688h-542zM367 653l-332 -625h453z" />
    <glyph glyph-name="Omega" unicode="&#x2126;" horiz-adv-x="696" 
d="M377 0l31 178c76 19 218 119 218 287c0 120 -88 204 -211 204c-150 0 -290 -126 -290 -296c0 -113 77 -180 135 -195l-31 -178h-193l4 28h162l23 132c-68 29 -134 101 -134 212c0 184 156 325 328 325c140 0 241 -97 241 -230c0 -167 -128 -273 -226 -308l-22 -131h164
l-4 -28h-195z" />
    <glyph glyph-name="pi" unicode="&#x3c0;" horiz-adv-x="563" 
d="M45 0l84 488h384l-84 -488h-32l79 460h-320l-79 -460h-32z" />
    <glyph glyph-name="afii61289" unicode="&#x2113;" horiz-adv-x="412" 
d="M129 26c-28 30 -38 77 -38 139v74l-2 1l-59 -41l-12 24c25 20 49 40 73 61v136c0 144 27 204 73 246c27 24 54 33 85 33c63 0 101 -49 101 -128c0 -132 -115 -225 -181 -277v-109c0 -108 42 -138 91 -138c47 0 83 29 118 80l22 -16c-32 -76 -91 -123 -169 -123
c-46 0 -79 14 -102 38zM171 342c62 53 121 134 121 230c0 61 -21 91 -55 91c-43 0 -68 -48 -68 -179v-141z" />
    <glyph glyph-name="Abreve" unicode="&#x102;" horiz-adv-x="607" 
d="M-23 0l379 688h39l148 -688h-34l-49 229h-324l-125 -229h-34zM371 654h-1l-218 -396h302zM393 791c-63 0 -113 34 -109 124h22c-1 -70 32 -102 88 -102c58 0 103 32 126 102h23c-27 -90 -87 -124 -150 -124z" />
    <glyph glyph-name="Amacron" unicode="&#x100;" horiz-adv-x="607" 
d="M-23 0l379 688h39l148 -688h-34l-49 229h-324l-125 -229h-34zM371 654h-1l-218 -396h302zM263 836l4 25h276l-4 -25h-276z" />
    <glyph glyph-name="Aogonek" unicode="&#x104;" horiz-adv-x="607" 
d="M431 -145c0 54 48 106 91 145h-13l-49 229h-324l-125 -229h-34l379 688h39l148 -688c-55 -53 -85 -102 -85 -140c0 -27 17 -46 60 -46h35l-4 -23h-38c-55 0 -80 26 -80 64zM371 654h-1l-218 -396h302z" />
    <glyph glyph-name="Cacute" unicode="&#x106;" horiz-adv-x="701" 
d="M61 272c0 225 153 425 373 425c151 0 243 -85 255 -214h-32c-17 112 -92 185 -227 185c-197 0 -335 -190 -335 -393c0 -143 87 -255 238 -255c135 0 224 73 281 185h33c-58 -129 -162 -214 -318 -214c-169 0 -268 123 -268 281zM441 768l137 164h38l-151 -164h-24z" />
    <glyph glyph-name="Ccaron" unicode="&#x10c;" horiz-adv-x="701" 
d="M61 272c0 225 153 425 373 425c151 0 243 -85 255 -214h-32c-17 112 -92 185 -227 185c-197 0 -335 -190 -335 -393c0 -143 87 -255 238 -255c135 0 224 73 281 185h33c-58 -129 -162 -214 -318 -214c-169 0 -268 123 -268 281zM439 768l-100 164h31l87 -143l136 143h33
l-158 -164h-29z" />
    <glyph glyph-name="Ccircumflex" unicode="&#x108;" horiz-adv-x="701" 
d="M61 272c0 225 153 425 373 425c151 0 243 -85 255 -214h-32c-17 112 -92 185 -227 185c-197 0 -335 -190 -335 -393c0 -143 87 -255 238 -255c135 0 224 73 281 185h33c-58 -129 -162 -214 -318 -214c-169 0 -268 123 -268 281zM309 768l158 164h30l99 -164h-31l-87 143
l-136 -143h-33z" />
    <glyph glyph-name="Cdotaccent" unicode="&#x10a;" horiz-adv-x="701" 
d="M61 272c0 225 153 425 373 425c151 0 243 -85 255 -214h-32c-17 112 -92 185 -227 185c-197 0 -335 -190 -335 -393c0 -143 87 -255 238 -255c135 0 224 73 281 185h33c-58 -129 -162 -214 -318 -214c-169 0 -268 123 -268 281zM444 807l15 86h32l-15 -86h-32z" />
    <glyph glyph-name="Dcaron" unicode="&#x10e;" horiz-adv-x="681" 
d="M53 0l116 688h165c212 0 315 -120 315 -283c0 -237 -161 -405 -428 -405h-168zM332 659h-136l-106 -630h133c246 0 392 156 392 376c0 144 -87 254 -283 254zM382 768l-100 164h31l87 -143l136 143h33l-158 -164h-29z" />
    <glyph glyph-name="Ebreve" unicode="&#x114;" horiz-adv-x="595" 
d="M53 0l116 688h442l-4 -29h-411l-49 -293h334l-4 -29h-335l-52 -308h417l-4 -29h-450zM407 791c-63 0 -113 34 -109 124h22c-1 -70 32 -102 88 -102c58 0 103 32 126 102h23c-27 -90 -87 -124 -150 -124z" />
    <glyph glyph-name="Ecaron" unicode="&#x11a;" horiz-adv-x="595" 
d="M53 0l116 688h442l-4 -29h-411l-49 -293h334l-4 -29h-335l-52 -308h417l-4 -29h-450zM388 768l-100 164h31l87 -143l136 143h33l-158 -164h-29z" />
    <glyph glyph-name="Edotaccent" unicode="&#x116;" horiz-adv-x="595" 
d="M53 0l116 688h442l-4 -29h-411l-49 -293h334l-4 -29h-335l-52 -308h417l-4 -29h-450zM393 807l15 86h32l-15 -86h-32z" />
    <glyph glyph-name="Emacron" unicode="&#x112;" horiz-adv-x="595" 
d="M53 0l116 688h442l-4 -29h-411l-49 -293h334l-4 -29h-335l-52 -308h417l-4 -29h-450zM277 836l4 25h276l-4 -25h-276z" />
    <glyph glyph-name="Eogonek" unicode="&#x118;" horiz-adv-x="595" 
d="M53 0l116 688h442l-4 -29h-411l-49 -293h334l-4 -29h-335l-52 -308h417l-4 -29c-55 -53 -85 -102 -85 -140c0 -27 17 -46 60 -46h35l-4 -23h-38c-55 0 -80 26 -80 64c0 54 48 106 91 145h-429z" />
    <glyph glyph-name="Gbreve" unicode="&#x11e;" horiz-adv-x="743" 
d="M593 0l21 142h-2c-62 -106 -164 -151 -278 -151c-167 0 -273 124 -273 283c0 241 168 423 382 423c160 0 249 -91 253 -208h-32c-6 98 -80 179 -224 179c-194 0 -346 -173 -346 -391c0 -145 95 -257 245 -257c131 0 264 76 293 251l9 54h-253l3 28h286l-60 -353h-24z
M467 791c-63 0 -113 34 -109 124h22c-1 -70 32 -102 88 -102c58 0 103 32 126 102h23c-27 -90 -87 -124 -150 -124z" />
    <glyph glyph-name="Gcircumflex" unicode="&#x11c;" horiz-adv-x="743" 
d="M593 0l21 142h-2c-62 -106 -164 -151 -278 -151c-167 0 -273 124 -273 283c0 241 168 423 382 423c160 0 249 -91 253 -208h-32c-6 98 -80 179 -224 179c-194 0 -346 -173 -346 -391c0 -145 95 -257 245 -257c131 0 264 76 293 251l9 54h-253l3 28h286l-60 -353h-24z
M318 768l158 164h30l99 -164h-31l-87 143l-136 -143h-33z" />
    <glyph glyph-name="Gcommaaccent" unicode="&#x122;" horiz-adv-x="743" 
d="M593 0l21 142h-2c-62 -106 -164 -151 -278 -151c-167 0 -273 124 -273 283c0 241 168 423 382 423c160 0 249 -91 253 -208h-32c-6 98 -80 179 -224 179c-194 0 -346 -173 -346 -391c0 -145 95 -257 245 -257c131 0 264 76 293 251l9 54h-253l3 28h286l-60 -353h-24z
M306 -63h32l-12 -65l-52 -106h-15l46 106h-11z" />
    <glyph glyph-name="Gdotaccent" unicode="&#x120;" horiz-adv-x="743" 
d="M593 0l21 142h-2c-62 -106 -164 -151 -278 -151c-167 0 -273 124 -273 283c0 241 168 423 382 423c160 0 249 -91 253 -208h-32c-6 98 -80 179 -224 179c-194 0 -346 -173 -346 -391c0 -145 95 -257 245 -257c131 0 264 76 293 251l9 54h-253l3 28h286l-60 -353h-24z
M453 807l15 86h32l-15 -86h-32z" />
    <glyph glyph-name="Hcircumflex" unicode="&#x124;" horiz-adv-x="694" 
d="M53 0l116 688h32l-55 -323h436l55 323h33l-116 -688h-33l57 337h-436l-57 -337h-32zM288 768l158 164h30l99 -164h-31l-87 143l-136 -143h-33z" />
    <glyph glyph-name="Ibreve" unicode="&#x12c;" horiz-adv-x="226" 
d="M53 0l116 688h32l-116 -688h-32zM203 791c-63 0 -113 34 -109 124h22c-1 -70 32 -102 88 -102c58 0 103 32 126 102h23c-27 -90 -87 -124 -150 -124z" />
    <glyph glyph-name="Idotaccent" unicode="&#x130;" horiz-adv-x="226" 
d="M53 0l116 688h32l-116 -688h-32zM189 807l15 86h32l-15 -86h-32z" />
    <glyph glyph-name="Imacron" unicode="&#x12a;" horiz-adv-x="226" 
d="M53 0l116 688h32l-116 -688h-32zM73 836l4 25h276l-4 -25h-276z" />
    <glyph glyph-name="Iogonek" unicode="&#x12e;" horiz-adv-x="226" 
d="M53 0l116 688h32l-116 -688c-55 -53 -85 -102 -85 -140c0 -27 17 -46 60 -46h35l-4 -23h-38c-55 0 -80 26 -80 64c0 54 48 106 91 145h-11z" />
    <glyph glyph-name="Itilde" unicode="&#x128;" horiz-adv-x="226" 
d="M53 0l116 688h32l-116 -688h-32zM67 807c12 44 38 83 84 83c51 0 90 -57 131 -57c34 0 51 30 60 60h21c-10 -40 -37 -83 -84 -83c-51 0 -89 57 -131 57c-33 0 -50 -30 -59 -60h-22z" />
    <glyph glyph-name="Jcircumflex" unicode="&#x134;" horiz-adv-x="515" 
d="M205 -9c-114 0 -183 56 -158 196l8 41h32l-7 -41c-22 -118 33 -167 127 -167c90 0 157 51 178 170l84 498h33l-84 -498c-24 -142 -106 -199 -213 -199zM356 768l158 164h30l99 -164h-31l-87 143l-136 -143h-33z" />
    <glyph glyph-name="Kcommaaccent" unicode="&#x136;" horiz-adv-x="637" 
d="M49 0l120 688h32l-79 -455l496 455h40l-323 -297l223 -391h-34l-212 370l-197 -181l-33 -189h-33zM269 -63h32l-12 -65l-52 -106h-15l46 106h-11z" />
    <glyph glyph-name="Lacute" unicode="&#x139;" horiz-adv-x="535" 
d="M53 0l116 688h32l-111 -659h377l-4 -29h-410zM186 768l137 164h38l-151 -164h-24z" />
    <glyph glyph-name="Lcaron" unicode="&#x13d;" horiz-adv-x="535" 
d="M52 0l117 688h33l-112 -659h377l-4 -29h-411zM366 506l49 114h-12l11 68h34l-10 -66l-55 -116h-17z" />
    <glyph glyph-name="Lcommaaccent" unicode="&#x13b;" horiz-adv-x="535" 
d="M53 0l116 688h32l-111 -659h377l-4 -29h-410zM234 -63h32l-12 -65l-52 -106h-15l46 106h-11z" />
    <glyph glyph-name="Ldot" unicode="&#x13f;" horiz-adv-x="535" 
d="M52 0l117 688h33l-112 -659h377l-4 -29h-411zM303 304l15 89h33l-14 -89h-34z" />
    <glyph glyph-name="Nacute" unicode="&#x143;" horiz-adv-x="699" 
d="M53 0l116 688h29l336 -631h1l107 631h33l-116 -688h-30l-336 631h-2l-106 -631h-32zM424 768l137 164h38l-151 -164h-24z" />
    <glyph glyph-name="Ncaron" unicode="&#x147;" horiz-adv-x="699" 
d="M53 0l116 688h29l336 -631h1l107 631h33l-116 -688h-30l-336 631h-2l-106 -631h-32zM422 768l-100 164h31l87 -143l136 143h33l-158 -164h-29z" />
    <glyph glyph-name="Ncommaaccent" unicode="&#x145;" horiz-adv-x="699" 
d="M53 0l116 688h29l336 -631h1l107 631h33l-116 -688h-30l-336 631h-2l-106 -631h-32zM277 -63h32l-12 -65l-52 -106h-15l46 106h-11z" />
    <glyph glyph-name="Obreve" unicode="&#x14e;" horiz-adv-x="743" 
d="M64 271c0 237 161 426 377 426c162 0 270 -117 270 -280c0 -237 -165 -426 -381 -426c-162 0 -266 117 -266 280zM98 273c0 -149 90 -253 237 -253c193 0 343 178 343 395c0 149 -95 253 -241 253c-194 0 -339 -178 -339 -395zM463 791c-63 0 -113 34 -109 124h22
c-1 -70 32 -102 88 -102c58 0 103 32 126 102h23c-27 -90 -87 -124 -150 -124z" />
    <glyph glyph-name="Ohungarumlaut" unicode="&#x150;" horiz-adv-x="743" 
d="M64 271c0 237 161 426 377 426c162 0 270 -117 270 -280c0 -237 -165 -426 -381 -426c-162 0 -266 117 -266 280zM98 273c0 -149 90 -253 237 -253c193 0 343 178 343 395c0 149 -95 253 -241 253c-194 0 -339 -178 -339 -395zM530 768l138 164h38l-151 -164h-25z
M359 768l137 164h38l-151 -164h-24z" />
    <glyph glyph-name="Omacron" unicode="&#x14c;" horiz-adv-x="743" 
d="M64 271c0 237 161 426 377 426c162 0 270 -117 270 -280c0 -237 -165 -426 -381 -426c-162 0 -266 117 -266 280zM98 273c0 -149 90 -253 237 -253c193 0 343 178 343 395c0 149 -95 253 -241 253c-194 0 -339 -178 -339 -395zM333 836l4 25h276l-4 -25h-276z" />
    <glyph glyph-name="Oslashacute" unicode="&#x1fe;" horiz-adv-x="743" 
d="M63 271c0 237 161 426 376 426c83 0 152 -31 199 -83l86 86h31l-103 -103c36 -47 57 -109 57 -180c0 -237 -164 -426 -381 -426c-82 0 -150 30 -196 82l-84 -85h-31l101 102c-35 47 -55 110 -55 181zM96 273c0 -63 16 -117 45 -160l475 478c-42 48 -105 77 -181 77
c-194 0 -339 -178 -339 -395zM676 415c0 62 -17 116 -47 159l-474 -478c41 -48 102 -76 178 -76c193 0 343 178 343 395zM441 768l137 164h38l-151 -164h-24z" />
    <glyph glyph-name="Racute" unicode="&#x154;" horiz-adv-x="633" 
d="M53 0l116 688h251c126 0 189 -61 189 -155c0 -130 -93 -218 -226 -228l149 -305h-34l-149 305h-213l-51 -305h-32zM417 659h-221l-55 -326h222c125 0 212 81 212 198c0 76 -52 128 -158 128zM374 768l137 164h38l-151 -164h-24z" />
    <glyph glyph-name="Rcaron" unicode="&#x158;" horiz-adv-x="633" 
d="M53 0l116 688h251c126 0 189 -61 189 -155c0 -130 -93 -218 -226 -228l149 -305h-34l-149 305h-213l-51 -305h-32zM417 659h-221l-55 -326h222c125 0 212 81 212 198c0 76 -52 128 -158 128zM372 768l-100 164h31l87 -143l136 143h33l-158 -164h-29z" />
    <glyph glyph-name="Rcommaaccent" unicode="&#x156;" horiz-adv-x="633" 
d="M53 0l116 688h251c126 0 189 -61 189 -155c0 -130 -93 -218 -226 -228l149 -305h-34l-149 305h-213l-51 -305h-32zM417 659h-221l-55 -326h222c125 0 212 81 212 198c0 76 -52 128 -158 128zM257 -66h32l-12 -65l-52 -106h-15l46 106h-11z" />
    <glyph glyph-name="Sacute" unicode="&#x15a;" horiz-adv-x="620" 
d="M52 185h31c-19 -113 61 -166 195 -166c138 0 230 62 230 170c0 214 -392 82 -392 318c0 110 93 190 255 190c140 0 232 -61 212 -179h-31c16 101 -63 151 -184 151c-137 0 -218 -65 -218 -158c0 -209 393 -76 393 -318c0 -128 -107 -202 -267 -202
c-154 0 -247 66 -224 194zM369 768l137 164h38l-151 -164h-24z" />
    <glyph glyph-name="Scedilla" unicode="&#x15e;" horiz-adv-x="620" 
d="M232 -67l34 58c-148 3 -237 68 -214 194h31c-19 -113 61 -166 195 -166c138 0 230 62 230 170c0 214 -392 82 -392 318c0 110 93 190 255 190c140 0 232 -61 212 -179h-31c16 101 -63 151 -184 151c-137 0 -218 -65 -218 -158c0 -209 393 -76 393 -318
c0 -126 -104 -200 -260 -202l-20 -38c54 -1 78 -31 78 -66c0 -47 -34 -96 -112 -96h-48l5 22h45c60 0 84 39 84 72c0 27 -20 48 -65 48h-18z" />
    <glyph glyph-name="Scircumflex" unicode="&#x15c;" horiz-adv-x="620" 
d="M52 185h31c-19 -113 61 -166 195 -166c138 0 230 62 230 170c0 214 -392 82 -392 318c0 110 93 190 255 190c140 0 232 -61 212 -179h-31c16 101 -63 151 -184 151c-137 0 -218 -65 -218 -158c0 -209 393 -76 393 -318c0 -128 -107 -202 -267 -202
c-154 0 -247 66 -224 194zM237 768l158 164h30l99 -164h-31l-87 143l-136 -143h-33z" />
    <glyph glyph-name="Scommaaccent" unicode="&#x218;" horiz-adv-x="620" 
d="M52 185h31c-19 -113 61 -166 195 -166c138 0 230 62 230 170c0 214 -392 82 -392 318c0 110 93 190 255 190c140 0 232 -61 212 -179h-31c16 101 -63 151 -184 151c-137 0 -218 -65 -218 -158c0 -209 393 -76 393 -318c0 -128 -107 -202 -267 -202
c-154 0 -247 66 -224 194zM253 -63h32l-12 -65l-52 -106h-15l46 106h-11z" />
    <glyph glyph-name="Tcaron" unicode="&#x164;" horiz-adv-x="563" 
d="M75 660l5 28h547l-5 -28h-257l-111 -660h-33l111 660h-257zM352 768l-100 164h31l87 -143l136 143h33l-158 -164h-29z" />
    <glyph glyph-name="Tcommaaccent" unicode="&#x162;" horiz-adv-x="563" 
d="M191 -67l40 67h-10l111 660h-257l5 28h547l-5 -28h-257l-111 -660h-7l-25 -47c54 -1 78 -31 78 -66c0 -47 -34 -96 -112 -96h-48l5 22h45c60 0 84 39 84 72c0 27 -20 48 -65 48h-18z" />
    <glyph glyph-name="Ubreve" unicode="&#x16c;" horiz-adv-x="679" 
d="M86 269l72 419h33l-72 -419c-28 -166 40 -248 176 -248c134 0 237 82 265 248l72 419h33l-72 -419c-33 -192 -152 -278 -300 -278s-240 86 -207 278zM429 791c-63 0 -113 34 -109 124h22c-1 -70 32 -102 88 -102c58 0 103 32 126 102h23c-27 -90 -87 -124 -150 -124z" />
    <glyph glyph-name="Uhungarumlaut" unicode="&#x170;" horiz-adv-x="679" 
d="M86 269l72 419h33l-72 -419c-28 -166 40 -248 176 -248c134 0 237 82 265 248l72 419h33l-72 -419c-33 -192 -152 -278 -300 -278s-240 86 -207 278zM496 768l138 164h38l-151 -164h-25zM325 768l137 164h38l-151 -164h-24z" />
    <glyph glyph-name="Umacron" unicode="&#x16a;" horiz-adv-x="679" 
d="M86 269l72 419h33l-72 -419c-28 -166 40 -248 176 -248c134 0 237 82 265 248l72 419h33l-72 -419c-33 -192 -152 -278 -300 -278s-240 86 -207 278zM299 836l4 25h276l-4 -25h-276z" />
    <glyph glyph-name="Uogonek" unicode="&#x172;" horiz-adv-x="673" 
d="M86 269l72 419h33l-72 -419c-28 -166 40 -248 176 -248c134 0 237 82 265 248l72 419h33l-72 -419c-20 -118 -74 -194 -145 -238c-71 -45 -167 -111 -167 -171c0 -28 19 -46 63 -46h35l-4 -23h-39c-55 0 -81 23 -81 63c0 56 62 108 121 147c-26 -7 -54 -10 -83 -10
c-148 0 -240 86 -207 278z" />
    <glyph glyph-name="Uring" unicode="&#x16e;" horiz-adv-x="679" 
d="M86 269l72 419h33l-72 -419c-28 -166 40 -248 176 -248c134 0 237 82 265 248l72 419h33l-72 -419c-33 -192 -152 -278 -300 -278s-240 86 -207 278zM428 767c-41 0 -76 27 -76 73c0 63 50 102 100 102c41 0 77 -28 77 -73c0 -63 -50 -102 -101 -102zM430 785
c39 0 78 33 78 83c0 35 -26 56 -57 56c-41 0 -78 -33 -78 -83c0 -35 25 -56 57 -56z" />
    <glyph glyph-name="Utilde" unicode="&#x168;" horiz-adv-x="679" 
d="M86 269l72 419h33l-72 -419c-28 -166 40 -248 176 -248c134 0 237 82 265 248l72 419h33l-72 -419c-33 -192 -152 -278 -300 -278s-240 86 -207 278zM293 807c12 44 38 83 84 83c51 0 90 -57 131 -57c34 0 51 30 60 60h21c-10 -40 -37 -83 -84 -83c-51 0 -89 57 -131 57
c-33 0 -50 -30 -59 -60h-22z" />
    <glyph glyph-name="Wacute" unicode="&#x1e82;" horiz-adv-x="885" 
d="M158 0l-70 688h32l65 -653h2l309 653h40l86 -653h2l287 653h32l-303 -688h-44l-87 648h-1l-307 -648h-43zM514 768l137 164h38l-151 -164h-24z" />
    <glyph glyph-name="Wcircumflex" unicode="&#x174;" horiz-adv-x="885" 
d="M158 0l-70 688h32l65 -653h2l309 653h40l86 -653h2l287 653h32l-303 -688h-44l-87 648h-1l-307 -648h-43zM382 768l158 164h30l99 -164h-31l-87 143l-136 -143h-33z" />
    <glyph glyph-name="Wdieresis" unicode="&#x1e84;" horiz-adv-x="885" 
d="M158 0l-70 688h32l65 -653h2l309 653h40l86 -653h2l287 653h32l-303 -688h-44l-87 648h-1l-307 -648h-43zM615 807l15 86h32l-15 -86h-32zM423 807l15 86h32l-15 -86h-32z" />
    <glyph glyph-name="Wgrave" unicode="&#x1e80;" horiz-adv-x="885" 
d="M158 0l-70 688h32l65 -653h2l309 653h40l86 -653h2l287 653h32l-303 -688h-44l-87 648h-1l-307 -648h-43zM516 768l-93 164h35l81 -164h-23z" />
    <glyph glyph-name="Ycircumflex" unicode="&#x176;" horiz-adv-x="569" 
d="M222 0l49 288l-182 400h34l170 -372h1l296 372h36l-321 -403l-50 -285h-33zM226 768l158 164h30l99 -164h-31l-87 143l-136 -143h-33z" />
    <glyph glyph-name="Ygrave" unicode="&#x1ef2;" horiz-adv-x="569" 
d="M222 0l49 288l-182 400h34l170 -372h1l296 372h36l-321 -403l-50 -285h-33zM360 768l-93 164h35l81 -164h-23z" />
    <glyph glyph-name="Zacute" unicode="&#x179;" horiz-adv-x="559" 
d="M126 660l5 28h460l-2 -21l-548 -639h434l-4 -28h-476l2 21l547 639h-418zM359 768l137 164h38l-151 -164h-24z" />
    <glyph glyph-name="Zdotaccent" unicode="&#x17b;" horiz-adv-x="559" 
d="M126 660l5 28h460l-2 -21l-548 -639h434l-4 -28h-476l2 21l547 639h-418zM362 807l15 86h32l-15 -86h-32z" />
    <glyph glyph-name="AEacute" unicode="&#x1fc;" horiz-adv-x="1026" 
d="M-35 0l626 688h451l-3 -29h-409l-50 -293h331l-3 -29h-333l-52 -308h415l-4 -29h-449l29 172h-354l-156 -172h-39zM187 201h332l76 449zM622 768l137 164h38l-151 -164h-24z" />
    <glyph glyph-name="abreve" unicode="&#x103;" horiz-adv-x="505" 
d="M31 111c0 96 68 140 165 152l126 15c47 5 75 18 79 47c15 94 -32 145 -120 145c-85 0 -147 -44 -167 -134h-30c20 105 95 161 199 161c102 0 170 -56 148 -185l-53 -312h-30l21 121c-34 -77 -104 -130 -201 -130c-87 0 -137 52 -137 120zM63 114c0 -55 39 -96 109 -96
c101 0 188 64 211 200l11 65c-10 -16 -33 -25 -69 -29l-125 -15c-83 -10 -137 -48 -137 -125zM303 591c-63 0 -113 34 -109 124h22c-1 -70 32 -102 88 -102c58 0 103 32 126 102h23c-27 -90 -87 -124 -150 -124z" />
    <glyph glyph-name="amacron" unicode="&#x101;" horiz-adv-x="505" 
d="M31 111c0 96 68 140 165 152l126 15c47 5 75 18 79 47c15 94 -32 145 -120 145c-85 0 -147 -44 -167 -134h-30c20 105 95 161 199 161c102 0 170 -56 148 -185l-53 -312h-30l21 121c-34 -77 -104 -130 -201 -130c-87 0 -137 52 -137 120zM63 114c0 -55 39 -96 109 -96
c101 0 188 64 211 200l11 65c-10 -16 -33 -25 -69 -29l-125 -15c-83 -10 -137 -48 -137 -125zM173 636l4 25h276l-4 -25h-276z" />
    <glyph glyph-name="aogonek" unicode="&#x105;" horiz-adv-x="505" 
d="M267 -145c0 54 48 106 91 145h-10l21 121c-34 -77 -104 -130 -201 -130c-87 0 -137 52 -137 120c0 96 68 140 165 152l126 15c47 5 75 18 79 47c15 94 -32 145 -120 145c-85 0 -147 -44 -167 -134h-30c20 105 95 161 199 161c102 0 170 -56 148 -185l-53 -312h1
c-55 -53 -85 -102 -85 -140c0 -27 17 -46 60 -46h35l-4 -23h-38c-55 0 -80 26 -80 64zM63 114c0 -55 39 -96 109 -96c101 0 188 64 211 200l11 65c-10 -16 -33 -25 -69 -29l-125 -15c-83 -10 -137 -48 -137 -125z" />
    <glyph glyph-name="cacute" unicode="&#x107;" horiz-adv-x="497" 
d="M41 196c0 25 2 49 7 73c27 127 114 228 247 228c93 0 168 -59 171 -164h-31c-4 84 -63 136 -144 136c-109 0 -185 -86 -210 -200c-5 -22 -8 -47 -8 -71c0 -107 58 -179 159 -179c75 0 141 54 173 136h32c-34 -100 -113 -164 -211 -164c-117 0 -185 87 -185 205zM302 568
l137 164h38l-151 -164h-24z" />
    <glyph glyph-name="ccaron" unicode="&#x10d;" horiz-adv-x="497" 
d="M41 196c0 25 2 49 7 73c27 127 114 228 247 228c93 0 168 -59 171 -164h-31c-4 84 -63 136 -144 136c-109 0 -185 -86 -210 -200c-5 -22 -8 -47 -8 -71c0 -107 58 -179 159 -179c75 0 141 54 173 136h32c-34 -100 -113 -164 -211 -164c-117 0 -185 87 -185 205zM300 568
l-100 164h31l87 -143l136 143h33l-158 -164h-29z" />
    <glyph glyph-name="ccircumflex" unicode="&#x109;" horiz-adv-x="497" 
d="M41 196c0 25 2 49 7 73c27 127 114 228 247 228c93 0 168 -59 171 -164h-31c-4 84 -63 136 -144 136c-109 0 -185 -86 -210 -200c-5 -22 -8 -47 -8 -71c0 -107 58 -179 159 -179c75 0 141 54 173 136h32c-34 -100 -113 -164 -211 -164c-117 0 -185 87 -185 205zM170 568
l158 164h30l99 -164h-31l-87 143l-136 -143h-33z" />
    <glyph glyph-name="cdotaccent" unicode="&#x10b;" horiz-adv-x="497" 
d="M41 196c0 25 2 49 7 73c27 127 114 228 247 228c93 0 168 -59 171 -164h-31c-4 84 -63 136 -144 136c-109 0 -185 -86 -210 -200c-5 -22 -8 -47 -8 -71c0 -107 58 -179 159 -179c75 0 141 54 173 136h32c-34 -100 -113 -164 -211 -164c-117 0 -185 87 -185 205zM305 607
l15 86h32l-15 -86h-32z" />
    <glyph glyph-name="dcaron" unicode="&#x10f;" horiz-adv-x="561" 
d="M41 196c0 167 108 301 246 301c92 0 157 -61 170 -146h3c1 14 34 209 35 217l28 164h31l-124 -732h-30l18 111h-2c-40 -73 -109 -120 -188 -120c-116 0 -187 85 -187 205zM73 198c0 -105 59 -179 157 -179c125 0 211 129 211 271c0 105 -56 179 -154 179
c-125 0 -214 -130 -214 -271zM606 550l48 113h-12l12 69h33l-12 -67l-53 -115h-16z" />
    <glyph glyph-name="ebreve" unicode="&#x115;" horiz-adv-x="505" 
d="M41 197c0 25 2 48 6 70c26 139 131 230 246 230c135 0 194 -116 165 -246h-381c-3 -17 -4 -35 -4 -53c0 -107 57 -179 156 -179c76 0 144 44 177 129h32c-37 -101 -117 -157 -215 -157c-115 0 -182 85 -182 206zM289 469c-95 0 -181 -77 -207 -194h347c2 15 3 29 3 41
c0 100 -60 153 -143 153zM313 591c-63 0 -113 34 -109 124h22c-1 -70 32 -102 88 -102c58 0 103 32 126 102h23c-27 -90 -87 -124 -150 -124z" />
    <glyph glyph-name="ecaron" unicode="&#x11b;" horiz-adv-x="505" 
d="M41 197c0 25 2 48 6 70c26 139 131 230 246 230c135 0 194 -116 165 -246h-381c-3 -17 -4 -35 -4 -53c0 -107 57 -179 156 -179c76 0 144 44 177 129h32c-37 -101 -117 -157 -215 -157c-115 0 -182 85 -182 206zM289 469c-95 0 -181 -77 -207 -194h347c2 15 3 29 3 41
c0 100 -60 153 -143 153zM294 568l-100 164h31l87 -143l136 143h33l-158 -164h-29z" />
    <glyph glyph-name="edotaccent" unicode="&#x117;" horiz-adv-x="505" 
d="M41 197c0 25 2 48 6 70c26 139 131 230 246 230c135 0 194 -116 165 -246h-381c-3 -17 -4 -35 -4 -53c0 -107 57 -179 156 -179c76 0 144 44 177 129h32c-37 -101 -117 -157 -215 -157c-115 0 -182 85 -182 206zM289 469c-95 0 -181 -77 -207 -194h347c2 15 3 29 3 41
c0 100 -60 153 -143 153zM299 607l15 86h32l-15 -86h-32z" />
    <glyph glyph-name="emacron" unicode="&#x113;" horiz-adv-x="505" 
d="M41 197c0 25 2 48 6 70c26 139 131 230 246 230c135 0 194 -116 165 -246h-381c-3 -17 -4 -35 -4 -53c0 -107 57 -179 156 -179c76 0 144 44 177 129h32c-37 -101 -117 -157 -215 -157c-115 0 -182 85 -182 206zM289 469c-95 0 -181 -77 -207 -194h347c2 15 3 29 3 41
c0 100 -60 153 -143 153zM183 636l4 25h276l-4 -25h-276z" />
    <glyph glyph-name="eogonek" unicode="&#x119;" horiz-adv-x="505" 
d="M41 197c0 25 2 48 6 70c26 139 131 230 246 230c135 0 194 -116 165 -246h-381c-3 -17 -4 -35 -4 -53c0 -107 57 -179 156 -179c76 0 144 44 177 129h32c-21 -56 -55 -96 -96 -124c-66 -44 -150 -109 -150 -165c0 -28 18 -45 61 -45h35l-3 -23h-39c-55 0 -81 23 -81 62
c0 54 57 104 112 144c-17 -4 -36 -6 -54 -6c-115 0 -182 85 -182 206zM289 469c-95 0 -181 -77 -207 -194h347c2 15 3 29 3 41c0 100 -60 153 -143 153z" />
    <glyph glyph-name="gbreve" unicode="&#x11f;" horiz-adv-x="561" 
d="M15 -60h29c-15 -88 47 -141 150 -141c105 0 181 55 207 210l17 102h-1c-40 -73 -109 -120 -189 -120c-116 0 -187 85 -187 205c0 167 108 301 246 301c92 0 157 -61 170 -146h3l23 137h30l-81 -479c-30 -173 -114 -237 -241 -237c-118 0 -195 63 -176 168zM73 198
c0 -105 59 -179 157 -179c125 0 211 129 211 271c0 105 -56 179 -154 179c-125 0 -214 -130 -214 -271zM309 591c-63 0 -113 34 -109 124h22c-1 -70 32 -102 88 -102c58 0 103 32 126 102h23c-27 -90 -87 -124 -150 -124z" />
    <glyph glyph-name="gcircumflex" unicode="&#x11d;" horiz-adv-x="561" 
d="M15 -60h29c-15 -88 47 -141 150 -141c105 0 181 55 207 210l17 102h-1c-40 -73 -109 -120 -189 -120c-116 0 -187 85 -187 205c0 167 108 301 246 301c92 0 157 -61 170 -146h3l23 137h30l-81 -479c-30 -173 -114 -237 -241 -237c-118 0 -195 63 -176 168zM73 198
c0 -105 59 -179 157 -179c125 0 211 129 211 271c0 105 -56 179 -154 179c-125 0 -214 -130 -214 -271zM160 568l158 164h30l99 -164h-31l-87 143l-136 -143h-33z" />
    <glyph glyph-name="gcommaaccent" unicode="&#x123;" horiz-adv-x="561" 
d="M15 -60h29c-15 -88 47 -141 150 -141c105 0 181 55 207 210l17 102h-1c-40 -73 -109 -120 -189 -120c-116 0 -187 85 -187 205c0 167 108 301 246 301c92 0 157 -61 170 -146h3l23 137h30l-81 -479c-30 -173 -114 -237 -241 -237c-118 0 -195 63 -176 168zM73 198
c0 -105 59 -179 157 -179c125 0 211 129 211 271c0 105 -56 179 -154 179c-125 0 -214 -130 -214 -271zM287 568l12 66l52 105h15l-46 -106h11l-12 -65h-32z" />
    <glyph glyph-name="gdotaccent" unicode="&#x121;" horiz-adv-x="561" 
d="M15 -60h29c-15 -88 47 -141 150 -141c105 0 181 55 207 210l17 102h-1c-40 -73 -109 -120 -189 -120c-116 0 -187 85 -187 205c0 167 108 301 246 301c92 0 157 -61 170 -146h3l23 137h30l-81 -479c-30 -173 -114 -237 -241 -237c-118 0 -195 63 -176 168zM73 198
c0 -105 59 -179 157 -179c125 0 211 129 211 271c0 105 -56 179 -154 179c-125 0 -214 -130 -214 -271zM295 607l15 86h32l-15 -86h-32z" />
    <glyph glyph-name="hcircumflex" unicode="&#x125;" horiz-adv-x="549" 
d="M43 0l124 732h32l-62 -356h2c43 82 110 121 189 121c101 0 167 -61 145 -194l-52 -303h-32l51 301c20 117 -28 168 -119 168c-90 0 -179 -72 -204 -219l-42 -250h-32zM51 812l158 164h30l99 -164h-31l-87 143l-136 -143h-33z" />
    <glyph glyph-name="ibreve" unicode="&#x12d;" horiz-adv-x="206" 
d="M43 0l83 488h32l-83 -488h-32zM160 591c-63 0 -113 34 -109 124h22c-1 -70 32 -102 88 -102c58 0 103 32 126 102h23c-27 -90 -87 -124 -150 -124z" />
    <glyph glyph-name="imacron" unicode="&#x12b;" horiz-adv-x="206" 
d="M43 0l83 488h32l-83 -488h-32zM30 636l4 25h276l-4 -25h-276z" />
    <glyph glyph-name="iogonek" unicode="&#x12f;" horiz-adv-x="206" 
d="M43 0l83 488h32l-83 -488c-55 -53 -85 -102 -85 -140c0 -27 17 -46 60 -46h35l-4 -23h-38c-55 0 -80 26 -80 64c0 54 48 106 91 145h-11zM151 643l14 89h34l-15 -89h-33z" />
    <glyph glyph-name="itilde" unicode="&#x129;" horiz-adv-x="206" 
d="M43 0l83 488h32l-83 -488h-32zM24 607c12 44 38 83 84 83c51 0 90 -57 131 -57c34 0 51 30 60 60h21c-10 -40 -37 -83 -84 -83c-51 0 -89 57 -131 57c-33 0 -50 -30 -59 -60h-22z" />
    <glyph glyph-name="jcircumflex" unicode="&#x135;" horiz-adv-x="206" 
d="M25 -106l101 594h32l-102 -599c-13 -76 -54 -109 -124 -109h-26l3 28h26c49 0 80 21 90 86zM11 568l158 164h30l99 -164h-31l-87 143l-136 -143h-33z" />
    <glyph glyph-name="kcommaaccent" unicode="&#x137;" horiz-adv-x="481" 
d="M43 0l124 732h32l-95 -559l339 315h40l-222 -204l158 -284h-34l-147 263l-141 -130l-22 -133h-32zM196 -63h32l-12 -65l-52 -106h-15l46 106h-11z" />
    <glyph glyph-name="lacute" unicode="&#x13a;" horiz-adv-x="206" 
d="M43 0l124 732h32l-124 -732h-32zM184 812l137 164h38l-151 -164h-24z" />
    <glyph glyph-name="lcaron" unicode="&#x13e;" horiz-adv-x="206" 
d="M251 550l48 113h-12l11 69h34l-12 -67l-53 -115h-16zM43 0l124 732h32l-124 -732h-32z" />
    <glyph glyph-name="lcommaaccent" unicode="&#x13c;" horiz-adv-x="206" 
d="M43 0l124 732h32l-124 -732h-32zM33 -63h32l-12 -65l-52 -106h-15l46 106h-11z" />
    <glyph glyph-name="ldot" unicode="&#x140;" horiz-adv-x="236" 
d="M43 0l124 732h32l-124 -732h-32zM211 299l15 89h32l-15 -89h-32z" />
    <glyph glyph-name="nacute" unicode="&#x144;" horiz-adv-x="549" 
d="M43 0l83 488h31l-20 -112h2c43 82 110 121 189 121c101 0 167 -61 145 -194l-52 -303h-32l51 301c20 117 -28 168 -119 168c-93 0 -180 -80 -204 -221l-42 -248h-32zM316 568l137 164h38l-151 -164h-24z" />
    <glyph glyph-name="ncaron" unicode="&#x148;" horiz-adv-x="549" 
d="M43 0l83 488h31l-20 -112h2c43 82 110 121 189 121c101 0 167 -61 145 -194l-52 -303h-32l51 301c20 117 -28 168 -119 168c-93 0 -180 -80 -204 -221l-42 -248h-32zM314 568l-100 164h31l87 -143l136 143h33l-158 -164h-29z" />
    <glyph glyph-name="ncommaaccent" unicode="&#x146;" horiz-adv-x="549" 
d="M43 0l83 488h31l-20 -112h2c43 82 110 121 189 121c101 0 167 -61 145 -194l-52 -303h-32l51 301c20 117 -28 168 -119 168c-93 0 -180 -80 -204 -221l-42 -248h-32zM205 -63h32l-12 -65l-52 -106h-15l46 106h-11z" />
    <glyph glyph-name="obreve" unicode="&#x14f;" horiz-adv-x="532" 
d="M41 197c0 22 2 45 6 67c25 128 119 233 248 233c116 0 188 -86 188 -206c0 -22 -2 -45 -6 -67c-25 -128 -119 -233 -247 -233c-117 0 -189 86 -189 206zM73 198c0 -105 61 -179 159 -179c103 0 189 88 212 205c5 21 7 43 7 66c0 105 -61 179 -159 179
c-103 0 -189 -88 -212 -205c-5 -21 -7 -43 -7 -66zM320 591c-63 0 -113 34 -109 124h22c-1 -70 32 -102 88 -102c58 0 103 32 126 102h23c-27 -90 -87 -124 -150 -124z" />
    <glyph glyph-name="ohungarumlaut" unicode="&#x151;" horiz-adv-x="532" 
d="M41 197c0 22 2 45 6 67c25 128 119 233 248 233c116 0 188 -86 188 -206c0 -22 -2 -45 -6 -67c-25 -128 -119 -233 -247 -233c-117 0 -189 86 -189 206zM73 198c0 -105 61 -179 159 -179c103 0 189 88 212 205c5 21 7 43 7 66c0 105 -61 179 -159 179
c-103 0 -189 -88 -212 -205c-5 -21 -7 -43 -7 -66zM387 568l138 164h38l-151 -164h-25zM216 568l137 164h38l-151 -164h-24z" />
    <glyph glyph-name="omacron" unicode="&#x14d;" horiz-adv-x="532" 
d="M41 197c0 22 2 45 6 67c25 128 119 233 248 233c116 0 188 -86 188 -206c0 -22 -2 -45 -6 -67c-25 -128 -119 -233 -247 -233c-117 0 -189 86 -189 206zM73 198c0 -105 61 -179 159 -179c103 0 189 88 212 205c5 21 7 43 7 66c0 105 -61 179 -159 179
c-103 0 -189 -88 -212 -205c-5 -21 -7 -43 -7 -66zM190 636l4 25h276l-4 -25h-276z" />
    <glyph glyph-name="oslashacute" unicode="&#x1ff;" horiz-adv-x="532" 
d="M41 196c0 23 2 46 6 68c25 135 126 233 249 233c59 0 106 -23 139 -60l61 63h27l-76 -79c23 -34 36 -78 36 -128c0 -24 -2 -47 -6 -69c-25 -134 -126 -233 -249 -233c-59 0 -106 22 -139 59l-59 -62h-26l74 77c-24 34 -37 79 -37 131zM73 198c0 -43 9 -80 27 -110
l313 326c-28 34 -69 55 -121 55c-101 0 -189 -88 -212 -205c-5 -21 -7 -43 -7 -66zM451 290c0 41 -9 78 -27 107l-313 -324c28 -34 69 -54 121 -54c101 0 189 88 212 205c5 21 7 43 7 66zM303 568l137 164h38l-151 -164h-24z" />
    <glyph glyph-name="racute" unicode="&#x155;" horiz-adv-x="334" 
d="M43 0l83 488h30l-17 -102h1c32 64 87 111 155 111c20 0 47 -4 67 -19l-14 -27c-20 12 -41 16 -61 16c-82 0 -148 -87 -167 -199l-45 -268h-32zM240 568l137 164h38l-151 -164h-24z" />
    <glyph glyph-name="rcaron" unicode="&#x159;" horiz-adv-x="334" 
d="M43 0l83 488h30l-17 -102h1c32 64 87 111 155 111c20 0 47 -4 67 -19l-14 -27c-20 12 -41 16 -61 16c-82 0 -148 -87 -167 -199l-45 -268h-32zM238 568l-100 164h31l87 -143l136 143h33l-158 -164h-29z" />
    <glyph glyph-name="rcommaaccent" unicode="&#x157;" horiz-adv-x="334" 
d="M43 0l83 488h30l-17 -102h1c32 64 87 111 155 111c20 0 47 -4 67 -19l-14 -27c-20 12 -41 16 -61 16c-82 0 -148 -87 -167 -199l-45 -268h-32zM33 -63h32l-12 -65l-52 -106h-15l46 106h-11z" />
    <glyph glyph-name="sacute" unicode="&#x15b;" horiz-adv-x="461" 
d="M19 135h30c-15 -87 54 -118 146 -118c97 0 165 37 165 116c0 160 -292 46 -292 224c0 87 75 140 186 140c104 0 181 -41 164 -136h-30c13 77 -49 110 -135 110c-92 0 -154 -41 -154 -112c0 -152 292 -37 292 -224c0 -97 -82 -144 -197 -144c-112 0 -193 44 -175 144z
M255 568l137 164h38l-151 -164h-24z" />
    <glyph glyph-name="scedilla" unicode="&#x15f;" horiz-adv-x="461" 
d="M148 -67l34 58c-106 3 -181 47 -163 144h30c-15 -87 54 -118 146 -118c97 0 165 37 165 116c0 160 -292 46 -292 224c0 87 75 140 186 140c104 0 181 -41 164 -136h-30c13 77 -49 110 -135 110c-92 0 -154 -41 -154 -112c0 -152 292 -37 292 -224
c0 -96 -80 -142 -192 -144l-20 -38c54 -1 78 -31 78 -66c0 -47 -34 -96 -112 -96h-48l5 22h45c60 0 84 39 84 72c0 27 -20 48 -65 48h-18z" />
    <glyph glyph-name="scircumflex" unicode="&#x15d;" horiz-adv-x="461" 
d="M19 135h30c-15 -87 54 -118 146 -118c97 0 165 37 165 116c0 160 -292 46 -292 224c0 87 75 140 186 140c104 0 181 -41 164 -136h-30c13 77 -49 110 -135 110c-92 0 -154 -41 -154 -112c0 -152 292 -37 292 -224c0 -97 -82 -144 -197 -144c-112 0 -193 44 -175 144z
M123 568l158 164h30l99 -164h-31l-87 143l-136 -143h-33z" />
    <glyph glyph-name="scommaaccent" unicode="&#x219;" horiz-adv-x="461" 
d="M19 135h30c-15 -87 54 -118 146 -118c97 0 165 37 165 116c0 160 -292 46 -292 224c0 87 75 140 186 140c104 0 181 -41 164 -136h-30c13 77 -49 110 -135 110c-92 0 -154 -41 -154 -112c0 -152 292 -37 292 -224c0 -97 -82 -144 -197 -144c-112 0 -193 44 -175 144z
M169 -63h32l-12 -65l-52 -106h-15l46 106h-11z" />
    <glyph glyph-name="tcaron" unicode="&#x165;" horiz-adv-x="299" 
d="M29 462l4 26h105l25 148h32l-25 -148h146l-4 -26h-147l-54 -326c-12 -74 6 -108 76 -108h56l-3 -28h-58c-89 0 -118 45 -103 134l55 328h-105zM256 558l48 113h-12l12 70h33l-12 -68l-53 -115h-16z" />
    <glyph glyph-name="tcommaaccent" unicode="&#x163;" horiz-adv-x="299" 
d="M100 -67l39 71c-55 14 -72 57 -60 130l55 328h-105l4 26h105l25 148h32l-25 -148h146l-4 -26h-147l-54 -327c-12 -74 6 -107 76 -107h55l-3 -28h-57c-10 0 -19 0 -28 1l-23 -48c54 -1 79 -31 79 -66c0 -47 -35 -96 -113 -96h-47l4 22h46c59 0 83 39 83 72
c0 27 -20 48 -65 48h-18z" />
    <glyph glyph-name="ubreve" unicode="&#x16d;" horiz-adv-x="541" 
d="M210 -9c-102 0 -167 61 -144 194l51 303h32l-51 -301c-20 -117 28 -168 119 -168c88 0 175 69 202 226l42 243h32l-83 -488h-31l20 116h-2c-42 -85 -109 -125 -187 -125zM323 591c-63 0 -113 34 -109 124h22c-1 -70 32 -102 88 -102c58 0 103 32 126 102h23
c-27 -90 -87 -124 -150 -124z" />
    <glyph glyph-name="uhungarumlaut" unicode="&#x171;" horiz-adv-x="541" 
d="M210 -9c-102 0 -167 61 -144 194l51 303h32l-51 -301c-20 -117 28 -168 119 -168c88 0 175 69 202 226l42 243h32l-83 -488h-31l20 116h-2c-42 -85 -109 -125 -187 -125zM390 568l138 164h38l-151 -164h-25zM219 568l137 164h38l-151 -164h-24z" />
    <glyph glyph-name="umacron" unicode="&#x16b;" horiz-adv-x="541" 
d="M210 -9c-102 0 -167 61 -144 194l51 303h32l-51 -301c-20 -117 28 -168 119 -168c88 0 175 69 202 226l42 243h32l-83 -488h-31l20 116h-2c-42 -85 -109 -125 -187 -125zM193 636l4 25h276l-4 -25h-276z" />
    <glyph glyph-name="uogonek" unicode="&#x173;" horiz-adv-x="541" 
d="M298 -145c0 54 48 106 91 145h-10l20 116h-2c-42 -85 -109 -125 -187 -125c-102 0 -167 61 -144 194l51 303h32l-51 -301c-20 -117 28 -168 119 -168c88 0 175 69 202 226l42 243h32l-83 -488c-55 -53 -85 -102 -85 -140c0 -27 17 -46 60 -46h35l-4 -23h-38
c-55 0 -80 26 -80 64z" />
    <glyph glyph-name="uring" unicode="&#x16f;" horiz-adv-x="541" 
d="M210 -9c-102 0 -167 61 -144 194l51 303h32l-51 -301c-20 -117 28 -168 119 -168c88 0 175 69 202 226l42 243h32l-83 -488h-31l20 116h-2c-42 -85 -109 -125 -187 -125zM322 567c-41 0 -76 27 -76 73c0 63 50 102 100 102c41 0 77 -28 77 -73c0 -63 -50 -102 -101 -102z
M324 585c39 0 78 33 78 83c0 35 -26 56 -57 56c-41 0 -78 -33 -78 -83c0 -35 25 -56 57 -56z" />
    <glyph glyph-name="utilde" unicode="&#x169;" horiz-adv-x="541" 
d="M210 -9c-102 0 -167 61 -144 194l51 303h32l-51 -301c-20 -117 28 -168 119 -168c88 0 175 69 202 226l42 243h32l-83 -488h-31l20 116h-2c-42 -85 -109 -125 -187 -125zM187 607c12 44 38 83 84 83c51 0 90 -57 131 -57c34 0 51 30 60 60h21c-10 -40 -37 -83 -84 -83
c-51 0 -89 57 -131 57c-33 0 -50 -30 -59 -60h-22z" />
    <glyph glyph-name="wacute" unicode="&#x1e83;" horiz-adv-x="687" 
d="M122 0l-68 488h30l64 -454h1l215 454h37l58 -454h2l218 454h31l-236 -488h-39l-58 452h-2l-213 -452h-40zM381 568l137 164h38l-151 -164h-24z" />
    <glyph glyph-name="wcircumflex" unicode="&#x175;" horiz-adv-x="687" 
d="M122 0l-68 488h30l64 -454h1l215 454h37l58 -454h2l218 454h31l-236 -488h-39l-58 452h-2l-213 -452h-40zM249 568l158 164h30l99 -164h-31l-87 143l-136 -143h-33z" />
    <glyph glyph-name="wdieresis" unicode="&#x1e85;" horiz-adv-x="687" 
d="M122 0l-68 488h30l64 -454h1l215 454h37l58 -454h2l218 454h31l-236 -488h-39l-58 452h-2l-213 -452h-40zM482 607l15 86h32l-15 -86h-32zM290 607l15 86h32l-15 -86h-32z" />
    <glyph glyph-name="wgrave" unicode="&#x1e81;" horiz-adv-x="687" 
d="M122 0l-68 488h30l64 -454h1l215 454h37l58 -454h2l218 454h31l-236 -488h-39l-58 452h-2l-213 -452h-40zM383 568l-93 164h35l81 -164h-23z" />
    <glyph glyph-name="ycircumflex" unicode="&#x177;" horiz-adv-x="447" 
d="M-44 -195h19c68 0 105 43 143 111l44 80l-108 492h32l98 -453h2l253 453h32l-329 -584c-41 -75 -83 -126 -167 -126h-23zM131 568l158 164h30l99 -164h-31l-87 143l-136 -143h-33z" />
    <glyph glyph-name="ygrave" unicode="&#x1ef3;" horiz-adv-x="447" 
d="M-44 -195h19c68 0 105 43 143 111l44 80l-108 492h32l98 -453h2l253 453h32l-329 -584c-41 -75 -83 -126 -167 -126h-23zM265 568l-93 164h35l81 -164h-23z" />
    <glyph glyph-name="zacute" unicode="&#x17a;" horiz-adv-x="413" 
d="M69 462l3 26h351l-3 -20l-380 -442h309l-4 -26h-350l2 18l382 444h-310zM247 568l137 164h38l-151 -164h-24z" />
    <glyph glyph-name="zdotaccent" unicode="&#x17c;" horiz-adv-x="413" 
d="M69 462l3 26h351l-3 -20l-380 -442h309l-4 -26h-350l2 18l382 444h-310zM250 607l15 86h32l-15 -86h-32z" />
    <glyph glyph-name="aeacute" unicode="&#x1fd;" horiz-adv-x="847" 
d="M84 336c24 105 101 161 202 161c86 0 143 -39 149 -120c46 75 120 120 201 120c136 0 193 -116 165 -246h-379c-3 -17 -4 -35 -4 -53c0 -107 55 -179 154 -179c77 0 143 44 176 129h32c-37 -101 -115 -157 -213 -157c-101 0 -161 63 -176 159
c-42 -105 -121 -159 -223 -159c-87 0 -137 52 -137 120c0 96 68 139 165 151l126 16c47 6 74 17 79 47c16 94 -29 145 -117 145c-82 0 -147 -44 -170 -134h-30zM172 18c97 0 186 61 210 195l12 69c-14 -17 -37 -23 -69 -27l-125 -16c-82 -10 -137 -48 -137 -125
c0 -54 39 -96 109 -96zM634 469c-96 0 -181 -77 -207 -194h345c2 15 3 29 3 42c-1 100 -60 152 -141 152zM452 568l137 164h38l-151 -164h-24z" />
    <glyph glyph-name="space_uni0326" unicode="&#xf6c3;" horiz-adv-x="532" 
d="M195 -63h32l-12 -65l-52 -106h-15l46 106h-11z" />
    <glyph glyph-name="aacute.sc" unicode="&#xf7e1;" horiz-adv-x="479" 
d="M-30 0l294 520h37l119 -520h-33l-37 168h-252l-93 -168h-35zM279 488h-2l-164 -293h231zM282 600l137 164h38l-151 -164h-24z" />
    <glyph glyph-name="abreve.sc" unicode="&#xf66d;" horiz-adv-x="479" 
d="M-30 0l294 520h37l119 -520h-33l-37 168h-252l-93 -168h-35zM279 488h-2l-164 -293h231zM299 623c-63 0 -113 34 -109 124h22c-1 -70 32 -102 88 -102c58 0 103 32 126 102h23c-27 -90 -87 -124 -150 -124z" />
    <glyph glyph-name="acircumflex.sc" unicode="&#xf7e2;" horiz-adv-x="479" 
d="M-30 0l294 520h37l119 -520h-33l-37 168h-252l-93 -168h-35zM279 488h-2l-164 -293h231zM150 600l158 164h30l99 -164h-31l-87 143l-136 -143h-33z" />
    <glyph glyph-name="adieresis.sc" unicode="&#xf7e4;" horiz-adv-x="479" 
d="M-30 0l294 520h37l119 -520h-33l-37 168h-252l-93 -168h-35zM279 488h-2l-164 -293h231zM383 639l15 86h32l-15 -86h-32zM191 639l15 86h32l-15 -86h-32z" />
    <glyph glyph-name="aeacute.sc" unicode="&#xf670;" horiz-adv-x="831" 
d="M-39 0l495 520h366l-3 -28h-325l-36 -213h265l-4 -27h-266l-38 -224h331l-4 -28h-363l21 128h-280l-121 -128h-38zM145 155h260l56 333zM487 600l137 164h38l-151 -164h-24z" />
    <glyph glyph-name="agrave.sc" unicode="&#xf7e0;" horiz-adv-x="479" 
d="M-30 0l294 520h37l119 -520h-33l-37 168h-252l-93 -168h-35zM279 488h-2l-164 -293h231zM284 600l-93 164h35l81 -164h-23z" />
    <glyph glyph-name="amacron.sc" unicode="&#xf66e;" horiz-adv-x="479" 
d="M-30 0l294 520h37l119 -520h-33l-37 168h-252l-93 -168h-35zM279 488h-2l-164 -293h231zM169 668l4 25h276l-4 -25h-276z" />
    <glyph glyph-name="aogonek.sc" unicode="&#xf66f;" horiz-adv-x="479" 
d="M309 -145c0 54 48 106 91 145h-13l-37 168h-252l-93 -168h-35l294 520h37l119 -520h1c-55 -53 -85 -102 -85 -140c0 -27 17 -46 60 -46h35l-4 -23h-38c-55 0 -80 26 -80 64zM279 488h-2l-164 -293h231z" />
    <glyph glyph-name="aring.sc" unicode="&#xf7e5;" horiz-adv-x="479" 
d="M-30 0l294 520h37l119 -520h-33l-37 168h-252l-93 -168h-35zM279 488h-2l-164 -293h231zM298 599c-41 0 -76 27 -76 73c0 63 50 102 100 102c41 0 77 -28 77 -73c0 -63 -50 -102 -101 -102zM300 617c39 0 78 33 78 83c0 35 -26 56 -57 56c-41 0 -78 -33 -78 -83
c0 -35 25 -56 57 -56z" />
    <glyph glyph-name="atilde.sc" unicode="&#xf7e3;" horiz-adv-x="479" 
d="M-30 0l294 520h37l119 -520h-33l-37 168h-252l-93 -168h-35zM279 488h-2l-164 -293h231zM163 639c12 44 38 83 84 83c51 0 90 -57 131 -57c34 0 51 30 60 60h21c-10 -40 -37 -83 -84 -83c-51 0 -89 57 -131 57c-33 0 -50 -30 -59 -60h-22z" />
    <glyph glyph-name="cacute.sc" unicode="&#xf671;" horiz-adv-x="575" 
d="M46 209c0 169 127 320 297 320c123 0 192 -67 205 -166h-31c-15 83 -69 138 -175 138c-150 0 -263 -137 -263 -290c0 -106 71 -192 190 -192c103 0 171 55 212 138h32c-44 -100 -129 -166 -246 -166c-137 0 -221 97 -221 218zM348 600l137 164h38l-151 -164h-24z" />
    <glyph glyph-name="ccaron.sc" unicode="&#xf672;" horiz-adv-x="575" 
d="M46 209c0 169 127 320 297 320c123 0 192 -67 205 -166h-31c-15 83 -69 138 -175 138c-150 0 -263 -137 -263 -290c0 -106 71 -192 190 -192c103 0 171 55 212 138h32c-44 -100 -129 -166 -246 -166c-137 0 -221 97 -221 218zM346 600l-100 164h31l87 -143l136 143h33
l-158 -164h-29z" />
    <glyph glyph-name="ccedilla.sc" unicode="&#xf7e7;" horiz-adv-x="575" 
d="M220 -67l34 58c-129 6 -208 101 -208 218c0 169 127 320 297 320c123 0 192 -67 205 -166h-31c-15 83 -69 138 -175 138c-150 0 -263 -137 -263 -290c0 -106 71 -192 190 -192c103 0 171 55 212 138h32c-44 -99 -127 -164 -242 -166l-20 -38c54 -1 78 -31 78 -66
c0 -47 -34 -96 -112 -96h-48l5 22h45c60 0 84 39 84 72c0 27 -20 48 -65 48h-18z" />
    <glyph glyph-name="ccircumflex.sc" unicode="&#xf673;" horiz-adv-x="575" 
d="M46 209c0 169 127 320 297 320c123 0 192 -67 205 -166h-31c-15 83 -69 138 -175 138c-150 0 -263 -137 -263 -290c0 -106 71 -192 190 -192c103 0 171 55 212 138h32c-44 -100 -129 -166 -246 -166c-137 0 -221 97 -221 218zM216 600l158 164h30l99 -164h-31l-87 143
l-136 -143h-33z" />
    <glyph glyph-name="cdotaccent.sc" unicode="&#xf674;" horiz-adv-x="575" 
d="M46 209c0 169 127 320 297 320c123 0 192 -67 205 -166h-31c-15 83 -69 138 -175 138c-150 0 -263 -137 -263 -290c0 -106 71 -192 190 -192c103 0 171 55 212 138h32c-44 -100 -129 -166 -246 -166c-137 0 -221 97 -221 218zM351 639l15 86h32l-15 -86h-32z" />
    <glyph glyph-name="dcaron.sc" unicode="&#xf675;" horiz-adv-x="575" 
d="M53 0l88 520h144c163 0 247 -92 247 -217c0 -172 -129 -303 -333 -303h-146zM281 492h-114l-79 -464h115c188 0 296 123 296 275c0 107 -70 189 -218 189zM320 600l-100 164h31l87 -143l136 143h33l-158 -164h-29z" />
    <glyph glyph-name="eacute.sc" unicode="&#xf7e9;" horiz-adv-x="504" 
d="M53 0l88 520h354l-4 -28h-324l-36 -213h264l-4 -27h-265l-38 -224h331l-4 -28h-362zM317 600l137 164h38l-151 -164h-24z" />
    <glyph glyph-name="ebreve.sc" unicode="&#xf677;" horiz-adv-x="504" 
d="M53 0l88 520h354l-4 -28h-324l-36 -213h264l-4 -27h-265l-38 -224h331l-4 -28h-362zM334 623c-63 0 -113 34 -109 124h22c-1 -70 32 -102 88 -102c58 0 103 32 126 102h23c-27 -90 -87 -124 -150 -124z" />
    <glyph glyph-name="ecaron.sc" unicode="&#xf678;" horiz-adv-x="504" 
d="M53 0l88 520h354l-4 -28h-324l-36 -213h264l-4 -27h-265l-38 -224h331l-4 -28h-362zM315 600l-100 164h31l87 -143l136 143h33l-158 -164h-29z" />
    <glyph glyph-name="ecircumflex.sc" unicode="&#xf7ea;" horiz-adv-x="504" 
d="M53 0l88 520h354l-4 -28h-324l-36 -213h264l-4 -27h-265l-38 -224h331l-4 -28h-362zM185 600l158 164h30l99 -164h-31l-87 143l-136 -143h-33z" />
    <glyph glyph-name="edieresis.sc" unicode="&#xf7eb;" horiz-adv-x="504" 
d="M53 0l88 520h354l-4 -28h-324l-36 -213h264l-4 -27h-265l-38 -224h331l-4 -28h-362zM418 639l15 86h32l-15 -86h-32zM226 639l15 86h32l-15 -86h-32z" />
    <glyph glyph-name="edotaccent.sc" unicode="&#xf679;" horiz-adv-x="504" 
d="M53 0l88 520h354l-4 -28h-324l-36 -213h264l-4 -27h-265l-38 -224h331l-4 -28h-362zM320 639l15 86h32l-15 -86h-32z" />
    <glyph glyph-name="egrave.sc" unicode="&#xf7e8;" horiz-adv-x="504" 
d="M53 0l88 520h354l-4 -28h-324l-36 -213h264l-4 -27h-265l-38 -224h331l-4 -28h-362zM319 600l-93 164h35l81 -164h-23z" />
    <glyph glyph-name="emacron.sc" unicode="&#xf67a;" horiz-adv-x="504" 
d="M53 0l88 520h354l-4 -28h-324l-36 -213h264l-4 -27h-265l-38 -224h331l-4 -28h-362zM204 668l4 25h276l-4 -25h-276z" />
    <glyph glyph-name="eogonek.sc" unicode="&#xf67c;" horiz-adv-x="504" 
d="M53 0l88 520h354l-4 -28h-324l-36 -213h264l-4 -27h-265l-38 -224h331l-4 -28c-55 -53 -85 -102 -85 -140c0 -27 17 -46 60 -46h35l-4 -23h-38c-55 0 -80 26 -80 64c0 54 48 106 91 145h-341z" />
    <glyph glyph-name="gbreve.sc" unicode="&#xf67d;" horiz-adv-x="617" 
d="M315 241l4 26h220l-45 -267h-21l13 99h-2c-48 -74 -125 -108 -213 -108c-136 0 -224 100 -224 222c0 181 130 316 300 316c125 0 200 -73 204 -160h-32c-5 71 -65 132 -175 132c-149 0 -264 -124 -264 -286c0 -108 75 -196 194 -196c101 0 206 52 226 188l5 34h-190z
M372 623c-63 0 -113 34 -109 124h22c-1 -70 32 -102 88 -102c58 0 103 32 126 102h23c-27 -90 -87 -124 -150 -124z" />
    <glyph glyph-name="gcircumflex.sc" unicode="&#xf67e;" horiz-adv-x="617" 
d="M315 241l4 26h220l-45 -267h-21l13 99h-2c-48 -74 -125 -108 -213 -108c-136 0 -224 100 -224 222c0 181 130 316 300 316c125 0 200 -73 204 -160h-32c-5 71 -65 132 -175 132c-149 0 -264 -124 -264 -286c0 -108 75 -196 194 -196c101 0 206 52 226 188l5 34h-190z
M223 600l158 164h30l99 -164h-31l-87 143l-136 -143h-33z" />
    <glyph glyph-name="gcommaaccent.sc" unicode="&#xf67f;" horiz-adv-x="617" 
d="M315 241l4 26h220l-45 -267h-21l13 99h-2c-48 -74 -125 -108 -213 -108c-136 0 -224 100 -224 222c0 181 130 316 300 316c125 0 200 -73 204 -160h-32c-5 71 -65 132 -175 132c-149 0 -264 -124 -264 -286c0 -108 75 -196 194 -196c101 0 206 52 226 188l5 34h-190z
M241 -63h32l-12 -65l-52 -106h-15l46 106h-11z" />
    <glyph glyph-name="gdotaccent.sc" unicode="&#xf680;" horiz-adv-x="617" 
d="M315 241l4 26h220l-45 -267h-21l13 99h-2c-48 -74 -125 -108 -213 -108c-136 0 -224 100 -224 222c0 181 130 316 300 316c125 0 200 -73 204 -160h-32c-5 71 -65 132 -175 132c-149 0 -264 -124 -264 -286c0 -108 75 -196 194 -196c101 0 206 52 226 188l5 34h-190z
M358 639l15 86h32l-15 -86h-32z" />
    <glyph glyph-name="hcircumflex.sc" unicode="&#xf682;" horiz-adv-x="597" 
d="M53 0l88 520h31l-41 -243h341l41 243h32l-88 -520h-32l42 249h-341l-42 -249h-31zM211 600l158 164h30l99 -164h-31l-87 143l-136 -143h-33z" />
    <glyph glyph-name="iacute.sc" unicode="&#xf7ed;" horiz-adv-x="225" 
d="M53 0l88 520h31l-88 -520h-31zM158 600l137 164h38l-151 -164h-24z" />
    <glyph glyph-name="ibreve.sc" unicode="&#xf683;" horiz-adv-x="225" 
d="M53 0l88 520h31l-88 -520h-31zM175 623c-63 0 -113 34 -109 124h22c-1 -70 32 -102 88 -102c58 0 103 32 126 102h23c-27 -90 -87 -124 -150 -124z" />
    <glyph glyph-name="icircumflex.sc" unicode="&#xf7ee;" horiz-adv-x="225" 
d="M53 0l88 520h31l-88 -520h-31zM26 600l158 164h30l99 -164h-31l-87 143l-136 -143h-33z" />
    <glyph glyph-name="idieresis.sc" unicode="&#xf7ef;" horiz-adv-x="225" 
d="M53 0l88 520h31l-88 -520h-31zM259 639l15 86h32l-15 -86h-32zM67 639l15 86h32l-15 -86h-32z" />
    <glyph glyph-name="idotaccent.sc" unicode="&#xf6ad;" horiz-adv-x="225" 
d="M53 0l88 520h31l-88 -520h-31zM161 639l15 86h32l-15 -86h-32z" />
    <glyph glyph-name="igrave.sc" unicode="&#xf7ec;" horiz-adv-x="225" 
d="M53 0l88 520h31l-88 -520h-31zM160 600l-93 164h35l81 -164h-23z" />
    <glyph glyph-name="imacron.sc" unicode="&#xf685;" horiz-adv-x="225" 
d="M53 0l88 520h31l-88 -520h-31zM45 668l4 25h276l-4 -25h-276z" />
    <glyph glyph-name="iogonek.sc" unicode="&#xf686;" horiz-adv-x="225" 
d="M53 0l88 520h31l-88 -520h1c-55 -53 -85 -102 -85 -140c0 -27 17 -46 60 -46h35l-4 -23h-38c-55 0 -80 26 -80 64c0 54 48 106 91 145h-11z" />
    <glyph glyph-name="itilde.sc" unicode="&#xf687;" horiz-adv-x="225" 
d="M53 0l88 520h31l-88 -520h-31zM39 639c12 44 38 83 84 83c51 0 90 -57 131 -57c34 0 51 30 60 60h21c-10 -40 -37 -83 -84 -83c-51 0 -89 57 -131 57c-33 0 -50 -30 -59 -60h-22z" />
    <glyph glyph-name="jcircumflex.sc" unicode="&#xf688;" horiz-adv-x="435" 
d="M30 145l5 28h31l-5 -28c-15 -90 33 -127 104 -127c68 0 119 39 135 128l65 374h32l-65 -374c-18 -107 -81 -155 -169 -155s-151 47 -133 154zM250 600l158 164h30l99 -164h-31l-87 143l-136 -143h-33z" />
    <glyph glyph-name="kcommaaccent.sc" unicode="&#xf689;" horiz-adv-x="537" 
d="M53 0l88 520h31l-58 -339l385 339h38l-254 -224l180 -296h-33l-169 276l-153 -134l-24 -142h-31zM227 -63h32l-12 -65l-52 -106h-15l46 106h-11z" />
    <glyph glyph-name="lacute.sc" unicode="&#xf68a;" horiz-adv-x="453" 
d="M53 0l88 520h31l-84 -492h301l-3 -28h-333zM158 600l137 164h38l-151 -164h-24z" />
    <glyph glyph-name="lcaron.sc" unicode="&#xf68b;" horiz-adv-x="453" 
d="M53 0l88 520h31l-84 -492h301l-3 -28h-333zM312 349l46 106h-11l12 65h31l-9 -64l-54 -107h-15z" />
    <glyph glyph-name="lcommaaccent.sc" unicode="&#xf68c;" horiz-adv-x="453" 
d="M53 0l88 520h31l-84 -492h301l-3 -28h-333zM195 -63h32l-12 -65l-52 -106h-15l46 106h-11z" />
    <glyph glyph-name="ldot.sc" unicode="&#xf68d;" horiz-adv-x="453" 
d="M53 0l88 520h31l-84 -492h301l-3 -28h-333zM266 220l15 87h32l-15 -87h-32z" />
    <glyph glyph-name="lslash.sc" unicode="&#xf6f9;" horiz-adv-x="453" 
d="M16 139l-12 21l86 63l51 297h31l-46 -271l144 106l11 -21l-161 -118l-32 -188h301l-3 -28h-333l32 190z" />
    <glyph glyph-name="nacute.sc" unicode="&#xf68e;" horiz-adv-x="600" 
d="M53 0l88 520h30l264 -470h1l80 470h31l-88 -520h-30l-264 470h-1l-80 -470h-31zM343 600l137 164h38l-151 -164h-24z" />
    <glyph glyph-name="ncaron.sc" unicode="&#xf68f;" horiz-adv-x="600" 
d="M53 0l88 520h30l264 -470h1l80 470h31l-88 -520h-30l-264 470h-1l-80 -470h-31zM341 600l-100 164h31l87 -143l136 143h33l-158 -164h-29z" />
    <glyph glyph-name="ncommaaccent.sc" unicode="&#xf690;" horiz-adv-x="600" 
d="M53 0l88 520h30l264 -470h1l80 470h31l-88 -520h-30l-264 470h-1l-80 -470h-31zM228 -63h32l-12 -65l-52 -106h-15l46 106h-11z" />
    <glyph glyph-name="ntilde.sc" unicode="&#xf7f1;" horiz-adv-x="600" 
d="M53 0l88 520h30l264 -470h1l80 470h31l-88 -520h-30l-264 470h-1l-80 -470h-31zM224 639c12 44 38 83 84 83c51 0 90 -57 131 -57c34 0 51 30 60 60h21c-10 -40 -37 -83 -84 -83c-51 0 -89 57 -131 57c-33 0 -50 -30 -59 -60h-22z" />
    <glyph glyph-name="oacute.sc" unicode="&#xf7f3;" horiz-adv-x="609" 
d="M46 209c0 186 145 320 301 320c129 0 217 -89 217 -218c0 -186 -145 -320 -302 -320c-128 0 -216 89 -216 218zM265 19c115 0 222 83 255 207c7 26 11 55 11 83c0 115 -73 192 -186 192c-115 0 -222 -83 -256 -207c-6 -26 -10 -55 -10 -83c0 -115 73 -192 186 -192z
M352 600l137 164h38l-151 -164h-24z" />
    <glyph glyph-name="obreve.sc" unicode="&#xf691;" horiz-adv-x="609" 
d="M46 209c0 186 145 320 301 320c129 0 217 -89 217 -218c0 -186 -145 -320 -302 -320c-128 0 -216 89 -216 218zM265 19c115 0 222 83 255 207c7 26 11 55 11 83c0 115 -73 192 -186 192c-115 0 -222 -83 -256 -207c-6 -26 -10 -55 -10 -83c0 -115 73 -192 186 -192z
M369 623c-63 0 -113 34 -109 124h22c-1 -70 32 -102 88 -102c58 0 103 32 126 102h23c-27 -90 -87 -124 -150 -124z" />
    <glyph glyph-name="ocircumflex.sc" unicode="&#xf7f4;" horiz-adv-x="609" 
d="M46 209c0 186 145 320 301 320c129 0 217 -89 217 -218c0 -186 -145 -320 -302 -320c-128 0 -216 89 -216 218zM265 19c115 0 222 83 255 207c7 26 11 55 11 83c0 115 -73 192 -186 192c-115 0 -222 -83 -256 -207c-6 -26 -10 -55 -10 -83c0 -115 73 -192 186 -192z
M220 600l158 164h30l99 -164h-31l-87 143l-136 -143h-33z" />
    <glyph glyph-name="odieresis.sc" unicode="&#xf7f6;" horiz-adv-x="609" 
d="M46 209c0 186 145 320 301 320c129 0 217 -89 217 -218c0 -186 -145 -320 -302 -320c-128 0 -216 89 -216 218zM265 19c115 0 222 83 255 207c7 26 11 55 11 83c0 115 -73 192 -186 192c-115 0 -222 -83 -256 -207c-6 -26 -10 -55 -10 -83c0 -115 73 -192 186 -192z
M453 639l15 86h32l-15 -86h-32zM261 639l15 86h32l-15 -86h-32z" />
    <glyph glyph-name="ograve.sc" unicode="&#xf7f2;" horiz-adv-x="609" 
d="M46 209c0 186 145 320 301 320c129 0 217 -89 217 -218c0 -186 -145 -320 -302 -320c-128 0 -216 89 -216 218zM265 19c115 0 222 83 255 207c7 26 11 55 11 83c0 115 -73 192 -186 192c-115 0 -222 -83 -256 -207c-6 -26 -10 -55 -10 -83c0 -115 73 -192 186 -192z
M354 600l-93 164h35l81 -164h-23z" />
    <glyph glyph-name="ohungarumlaut.sc" unicode="&#xf692;" horiz-adv-x="609" 
d="M46 209c0 186 145 320 301 320c129 0 217 -89 217 -218c0 -186 -145 -320 -302 -320c-128 0 -216 89 -216 218zM265 19c115 0 222 83 255 207c7 26 11 55 11 83c0 115 -73 192 -186 192c-115 0 -222 -83 -256 -207c-6 -26 -10 -55 -10 -83c0 -115 73 -192 186 -192z
M436 600l138 164h38l-151 -164h-25zM265 600l137 164h38l-151 -164h-24z" />
    <glyph glyph-name="omacron.sc" unicode="&#xf693;" horiz-adv-x="609" 
d="M46 209c0 186 145 320 301 320c129 0 217 -89 217 -218c0 -186 -145 -320 -302 -320c-128 0 -216 89 -216 218zM265 19c115 0 222 83 255 207c7 26 11 55 11 83c0 115 -73 192 -186 192c-115 0 -222 -83 -256 -207c-6 -26 -10 -55 -10 -83c0 -115 73 -192 186 -192z
M239 668l4 25h276l-4 -25h-276z" />
    <glyph glyph-name="oslashacute.sc" unicode="&#xf694;" horiz-adv-x="609" 
d="M46 209c0 186 145 320 301 320c64 0 118 -22 156 -60l61 60h29l-77 -75c31 -37 48 -86 48 -143c0 -186 -145 -320 -302 -320c-64 0 -117 22 -155 60l-61 -60h-30l77 75c-30 37 -47 86 -47 143zM265 19c115 0 222 83 255 207c7 26 11 55 11 83c0 49 -13 91 -37 123
l-365 -360c32 -34 79 -53 136 -53zM79 211c0 -49 13 -91 36 -123l366 359c-33 34 -79 54 -136 54c-115 0 -222 -83 -256 -207c-6 -26 -10 -55 -10 -83zM347 600l137 164h38l-151 -164h-24z" />
    <glyph glyph-name="otilde.sc" unicode="&#xf7f5;" horiz-adv-x="609" 
d="M46 209c0 186 145 320 301 320c129 0 217 -89 217 -218c0 -186 -145 -320 -302 -320c-128 0 -216 89 -216 218zM265 19c115 0 222 83 255 207c7 26 11 55 11 83c0 115 -73 192 -186 192c-115 0 -222 -83 -256 -207c-6 -26 -10 -55 -10 -83c0 -115 73 -192 186 -192z
M233 639c12 44 38 83 84 83c51 0 90 -57 131 -57c34 0 51 30 60 60h21c-10 -40 -37 -83 -84 -83c-51 0 -89 57 -131 57c-33 0 -50 -30 -59 -60h-22z" />
    <glyph glyph-name="racute.sc" unicode="&#xf695;" horiz-adv-x="543" 
d="M53 0l88 520h205c97 0 154 -53 154 -126c0 -99 -72 -159 -175 -166l120 -228h-33l-120 227h-170l-38 -227h-31zM343 492h-176l-40 -237h179c96 0 160 49 160 137c0 58 -44 100 -123 100zM297 600l137 164h38l-151 -164h-24z" />
    <glyph glyph-name="rcaron.sc" unicode="&#xf696;" horiz-adv-x="543" 
d="M53 0l88 520h205c97 0 154 -53 154 -126c0 -99 -72 -159 -175 -166l120 -228h-33l-120 227h-170l-38 -227h-31zM343 492h-176l-40 -237h179c96 0 160 49 160 137c0 58 -44 100 -123 100zM295 600l-100 164h31l87 -143l136 143h33l-158 -164h-29z" />
    <glyph glyph-name="rcommaaccent.sc" unicode="&#xf697;" horiz-adv-x="543" 
d="M53 0l88 520h205c97 0 154 -53 154 -126c0 -99 -72 -159 -175 -166l120 -228h-33l-120 227h-170l-38 -227h-31zM343 492h-176l-40 -237h179c96 0 160 49 160 137c0 58 -44 100 -123 100zM216 -63h32l-12 -65l-52 -106h-15l46 106h-11z" />
    <glyph glyph-name="sacute.sc" unicode="&#xf698;" horiz-adv-x="497" 
d="M33 143h32c-13 -82 48 -125 152 -125c113 0 175 50 175 126c0 161 -306 53 -306 235c0 85 73 150 203 150c121 0 184 -60 171 -142h-32c11 66 -39 115 -142 115c-105 0 -168 -49 -168 -121c0 -155 307 -47 307 -234c0 -91 -70 -156 -210 -156c-126 0 -198 55 -182 152z
M286 600l137 164h38l-151 -164h-24z" />
    <glyph glyph-name="scaron.sc" unicode="&#xf6fd;" horiz-adv-x="497" 
d="M33 143h32c-13 -82 48 -125 152 -125c113 0 175 50 175 126c0 161 -306 53 -306 235c0 85 73 150 203 150c121 0 184 -60 171 -142h-32c11 66 -39 115 -142 115c-105 0 -168 -49 -168 -121c0 -155 307 -47 307 -234c0 -91 -70 -156 -210 -156c-126 0 -198 55 -182 152z
M284 600l-100 164h31l87 -143l136 143h33l-158 -164h-29z" />
    <glyph glyph-name="scedilla.sc" unicode="&#xf699;" horiz-adv-x="497" 
d="M170 -67l34 58c-119 3 -187 57 -171 152h32c-13 -82 48 -125 152 -125c113 0 175 50 175 126c0 161 -306 53 -306 235c0 85 73 150 203 150c121 0 184 -60 171 -142h-32c11 66 -39 115 -142 115c-105 0 -168 -49 -168 -121c0 -155 307 -47 307 -234
c0 -90 -68 -154 -204 -156l-20 -38c54 -1 78 -31 78 -66c0 -47 -34 -96 -112 -96h-48l5 22h45c60 0 84 39 84 72c0 27 -20 48 -65 48h-18z" />
    <glyph glyph-name="scircumflex.sc" unicode="&#xf69a;" horiz-adv-x="497" 
d="M33 143h32c-13 -82 48 -125 152 -125c113 0 175 50 175 126c0 161 -306 53 -306 235c0 85 73 150 203 150c121 0 184 -60 171 -142h-32c11 66 -39 115 -142 115c-105 0 -168 -49 -168 -121c0 -155 307 -47 307 -234c0 -91 -70 -156 -210 -156c-126 0 -198 55 -182 152z
M154 600l158 164h30l99 -164h-31l-87 143l-136 -143h-33z" />
    <glyph glyph-name="scommaaccent.sc" unicode="&#xf69b;" horiz-adv-x="497" 
d="M33 143h32c-13 -82 48 -125 152 -125c113 0 175 50 175 126c0 161 -306 53 -306 235c0 85 73 150 203 150c121 0 184 -60 171 -142h-32c11 66 -39 115 -142 115c-105 0 -168 -49 -168 -121c0 -155 307 -47 307 -234c0 -91 -70 -156 -210 -156c-126 0 -198 55 -182 152z
M191 -63h32l-12 -65l-52 -106h-15l46 106h-11z" />
    <glyph glyph-name="tcaron.sc" unicode="&#xf69d;" horiz-adv-x="473" 
d="M54 492l5 28h443l-4 -28h-207l-83 -492h-32l84 492h-206zM280 600l-100 164h31l87 -143l136 143h33l-158 -164h-29z" />
    <glyph glyph-name="tcommaaccent.sc" unicode="&#xf69e;" horiz-adv-x="473" 
d="M146 -67l40 67h-10l84 492h-206l5 28h443l-4 -28h-207l-83 -492h-6l-25 -47c54 -1 78 -31 78 -66c0 -47 -34 -96 -112 -96h-48l5 22h45c60 0 84 39 84 72c0 27 -20 48 -65 48h-18z" />
    <glyph glyph-name="uacute.sc" unicode="&#xf7fa;" horiz-adv-x="576" 
d="M72 205l54 315h32l-54 -315c-22 -125 36 -185 143 -185c106 0 181 63 203 185l54 315h32l-54 -315c-26 -148 -118 -214 -238 -214s-198 66 -172 214zM332 600l137 164h38l-151 -164h-24z" />
    <glyph glyph-name="ubreve.sc" unicode="&#xf69f;" horiz-adv-x="576" 
d="M72 205l54 315h32l-54 -315c-22 -125 36 -185 143 -185c106 0 181 63 203 185l54 315h32l-54 -315c-26 -148 -118 -214 -238 -214s-198 66 -172 214zM349 623c-63 0 -113 34 -109 124h22c-1 -70 32 -102 88 -102c58 0 103 32 126 102h23c-27 -90 -87 -124 -150 -124z" />
    <glyph glyph-name="ucircumflex.sc" unicode="&#xf7fb;" horiz-adv-x="576" 
d="M72 205l54 315h32l-54 -315c-22 -125 36 -185 143 -185c106 0 181 63 203 185l54 315h32l-54 -315c-26 -148 -118 -214 -238 -214s-198 66 -172 214zM200 600l158 164h30l99 -164h-31l-87 143l-136 -143h-33z" />
    <glyph glyph-name="udieresis.sc" unicode="&#xf7fc;" horiz-adv-x="576" 
d="M72 205l54 315h32l-54 -315c-22 -125 36 -185 143 -185c106 0 181 63 203 185l54 315h32l-54 -315c-26 -148 -118 -214 -238 -214s-198 66 -172 214zM433 639l15 86h32l-15 -86h-32zM241 639l15 86h32l-15 -86h-32z" />
    <glyph glyph-name="ugrave.sc" unicode="&#xf7f9;" horiz-adv-x="576" 
d="M72 205l54 315h32l-54 -315c-22 -125 36 -185 143 -185c106 0 181 63 203 185l54 315h32l-54 -315c-26 -148 -118 -214 -238 -214s-198 66 -172 214zM334 600l-93 164h35l81 -164h-23z" />
    <glyph glyph-name="uhungarumlaut.sc" unicode="&#xf6a0;" horiz-adv-x="576" 
d="M72 205l54 315h32l-54 -315c-22 -125 36 -185 143 -185c106 0 181 63 203 185l54 315h32l-54 -315c-26 -148 -118 -214 -238 -214s-198 66 -172 214zM416 600l138 164h38l-151 -164h-25zM245 600l137 164h38l-151 -164h-24z" />
    <glyph glyph-name="umacron.sc" unicode="&#xf6a1;" horiz-adv-x="576" 
d="M72 205l54 315h32l-54 -315c-22 -125 36 -185 143 -185c106 0 181 63 203 185l54 315h32l-54 -315c-26 -148 -118 -214 -238 -214s-198 66 -172 214zM219 668l4 25h276l-4 -25h-276z" />
    <glyph glyph-name="uogonek.sc" unicode="&#xf6a2;" horiz-adv-x="577" 
d="M70 205l55 315h32l-55 -315c-22 -125 37 -185 144 -185c106 0 181 63 202 185l55 315h32l-55 -315c-17 -94 -61 -152 -119 -187c-71 -43 -146 -102 -146 -158c0 -28 17 -46 60 -46h35l-4 -23h-38c-55 0 -83 24 -83 64c0 55 59 103 118 142c-19 -4 -39 -6 -60 -6
c-122 0 -198 66 -173 214z" />
    <glyph glyph-name="uring.sc" unicode="&#xf6a3;" horiz-adv-x="576" 
d="M72 205l54 315h32l-54 -315c-22 -125 36 -185 143 -185c106 0 181 63 203 185l54 315h32l-54 -315c-26 -148 -118 -214 -238 -214s-198 66 -172 214zM348 599c-41 0 -76 27 -76 73c0 63 50 102 100 102c41 0 77 -28 77 -73c0 -63 -50 -102 -101 -102zM350 617
c39 0 78 33 78 83c0 35 -26 56 -57 56c-41 0 -78 -33 -78 -83c0 -35 25 -56 57 -56z" />
    <glyph glyph-name="utilde.sc" unicode="&#xf6a4;" horiz-adv-x="576" 
d="M72 205l54 315h32l-54 -315c-22 -125 36 -185 143 -185c106 0 181 63 203 185l54 315h32l-54 -315c-26 -148 -118 -214 -238 -214s-198 66 -172 214zM213 639c12 44 38 83 84 83c51 0 90 -57 131 -57c34 0 51 30 60 60h21c-10 -40 -37 -83 -84 -83c-51 0 -89 57 -131 57
c-33 0 -50 -30 -59 -60h-22z" />
    <glyph glyph-name="wacute.sc" unicode="&#xf6a5;" horiz-adv-x="721" 
d="M122 0l-62 520h32l55 -484h2l239 484h33l75 -487h2l220 487h32l-236 -520h-41l-75 479h-2l-234 -479h-40zM404 600l137 164h38l-151 -164h-24z" />
    <glyph glyph-name="wcircumflex.sc" unicode="&#xf6a6;" horiz-adv-x="721" 
d="M122 0l-62 520h32l55 -484h2l239 484h33l75 -487h2l220 487h32l-236 -520h-41l-75 479h-2l-234 -479h-40zM272 600l158 164h30l99 -164h-31l-87 143l-136 -143h-33z" />
    <glyph glyph-name="wdieresis.sc" unicode="&#xf6a7;" horiz-adv-x="721" 
d="M122 0l-62 520h32l55 -484h2l239 484h33l75 -487h2l220 487h32l-236 -520h-41l-75 479h-2l-234 -479h-40zM505 639l15 86h32l-15 -86h-32zM313 639l15 86h32l-15 -86h-32z" />
    <glyph glyph-name="wgrave.sc" unicode="&#xf6a8;" horiz-adv-x="721" 
d="M122 0l-62 520h32l55 -484h2l239 484h33l75 -487h2l220 487h32l-236 -520h-41l-75 479h-2l-234 -479h-40zM406 600l-93 164h35l81 -164h-23z" />
    <glyph glyph-name="yacute.sc" unicode="&#xf7fd;" horiz-adv-x="459" 
d="M168 0l35 210l-148 310h35l134 -282h1l234 282h34l-258 -311l-35 -209h-32zM276 600l137 164h38l-151 -164h-24z" />
    <glyph glyph-name="ycircumflex.sc" unicode="&#xf6a9;" horiz-adv-x="459" 
d="M168 0l35 210l-148 310h35l134 -282h1l234 282h34l-258 -311l-35 -209h-32zM144 600l158 164h30l99 -164h-31l-87 143l-136 -143h-33z" />
    <glyph glyph-name="ydieresis.sc" unicode="&#xf7ff;" horiz-adv-x="459" 
d="M168 0l35 210l-148 310h35l134 -282h1l234 282h34l-258 -311l-35 -209h-32zM377 639l15 86h32l-15 -86h-32zM185 639l15 86h32l-15 -86h-32z" />
    <glyph glyph-name="ygrave.sc" unicode="&#xf6aa;" horiz-adv-x="459" 
d="M168 0l35 210l-148 310h35l134 -282h1l234 282h34l-258 -311l-35 -209h-32zM278 600l-93 164h35l81 -164h-23z" />
    <glyph glyph-name="zacute.sc" unicode="&#xf6ab;" horiz-adv-x="471" 
d="M93 493l4 27h373l-2 -19l-424 -474h339l-4 -27h-384l2 18l425 475h-329zM282 600l137 164h38l-151 -164h-24z" />
    <glyph glyph-name="zcaron.sc" unicode="&#xf6ff;" horiz-adv-x="471" 
d="M93 493l4 27h373l-2 -19l-424 -474h339l-4 -27h-384l2 18l425 475h-329zM280 600l-100 164h31l87 -143l136 143h33l-158 -164h-29z" />
    <glyph glyph-name="zdotaccent.sc" unicode="&#xf6ac;" horiz-adv-x="471" 
d="M93 493l4 27h373l-2 -19l-424 -474h339l-4 -27h-384l2 18l425 475h-329zM285 639l15 86h32l-15 -86h-32z" />
    <glyph glyph-name="uni0394" unicode="&#x394;" horiz-adv-x="602" 
d="M-14 0l368 688h38l136 -688h-542zM367 653l-332 -625h453z" />
    <glyph glyph-name="uni03A9" unicode="&#x3a9;" horiz-adv-x="696" 
d="M377 0l31 178c76 19 218 119 218 287c0 120 -88 204 -211 204c-150 0 -290 -126 -290 -296c0 -113 77 -180 135 -195l-31 -178h-193l4 28h162l23 132c-68 29 -134 101 -134 212c0 184 156 325 328 325c140 0 241 -97 241 -230c0 -167 -128 -273 -226 -308l-22 -131h164
l-4 -28h-195z" />
    <glyph glyph-name="uni03BC" unicode="&#x3bc;" horiz-adv-x="549" 
d="M387 0l21 119h-2c-43 -87 -109 -128 -189 -128c-68 0 -116 27 -133 85c-3 -31 -32 -204 -35 -217l-13 -79h-32l122 708h32l-52 -301c-20 -117 32 -168 119 -168c89 0 176 73 202 224l42 245h32l-83 -488h-31z" />
    <glyph glyph-name="uni021A" unicode="&#x21a;" horiz-adv-x="563" 
d="M75 660l5 28h547l-5 -28h-257l-111 -660h-33l111 660h-257zM212 -63h32l-12 -65l-52 -106h-15l46 106h-11z" />
    <glyph glyph-name="uni021B" unicode="&#x21b;" horiz-adv-x="299" 
d="M29 462l4 26h105l25 148h32l-25 -148h146l-4 -26h-147l-54 -327c-12 -74 6 -107 76 -107h55l-3 -28h-57c-89 0 -118 45 -103 134l55 328h-105zM124 -63h32l-12 -65l-52 -106h-15l46 106h-11z" />
    <glyph glyph-name="uni00AD" unicode="&#xad;" horiz-adv-x="396" 
d="M57 239l4 28h276l-4 -28h-276z" />
    <glyph glyph-name="uni02C9" unicode="&#x2c9;" horiz-adv-x="532" 
d="M193 636l4 25h276l-4 -25h-276z" />
    <glyph glyph-name="uni2215" unicode="&#x2215;" horiz-adv-x="38" 
d="M-215 -12c46 71 425 641 472 712h26l-472 -712h-26z" />
    <glyph glyph-name="uni2219" unicode="&#x2219;" horiz-adv-x="208" 
d="M74 201l17 102h39l-17 -102h-39z" />
    <glyph glyph-name="at.sc" horiz-adv-x="826" 
d="M229 79c0 71 55 105 134 117l98 15c36 5 60 13 64 35c10 58 -16 106 -91 106c-65 0 -117 -32 -134 -99h-29c19 81 83 123 166 123c86 0 133 -48 118 -133l-26 -148c-9 -48 15 -80 67 -80c113 0 164 146 164 240c0 160 -132 250 -296 250c-212 0 -401 -159 -401 -391
c0 -158 115 -263 279 -263c95 0 167 28 224 77h33c-69 -68 -162 -100 -259 -100c-178 0 -304 117 -304 285c0 244 201 415 431 415c177 0 320 -102 320 -271c0 -108 -61 -264 -198 -264c-49 0 -92 23 -92 77v2c-34 -50 -88 -79 -160 -79c-67 0 -108 35 -108 86zM510 162
l9 49c-4 -6 -23 -16 -55 -21l-96 -14c-65 -10 -108 -37 -108 -94c0 -39 30 -65 83 -65c79 0 147 46 167 145z" />
    <glyph glyph-name="fi.sc" horiz-adv-x="695" 
d="M53 0l88 520h350l-4 -28h-320l-38 -222h260l-4 -27h-260l-41 -243h-31zM523 0l88 520h32l-88 -520h-32z" />
    <glyph glyph-name="fl.sc" horiz-adv-x="924" 
d="M53 0l88 520h350l-4 -28h-320l-38 -222h260l-4 -27h-260l-41 -243h-31zM523 0l88 520h32l-84 -492h301l-4 -28h-333z" />
    <glyph glyph-name="dotlessj" unicode="&#xf6be;" horiz-adv-x="206" 
d="M25 -106l101 594h32l-102 -599c-13 -76 -54 -109 -124 -109h-26l3 28h26c49 0 80 21 90 86z" />
    <glyph glyph-name="t_t" horiz-adv-x="557" 
d="M162 462l-54 -326c-12 -74 6 -108 77 -108h54l-4 -28h-56c-89 0 -118 45 -103 134l55 328h-102l4 26h103l25 148h31l-25 -148h229l25 148h32l-25 -148h146l-4 -26h-147l-54 -326c-13 -74 6 -108 76 -108h56l-3 -28h-58c-89 0 -119 45 -103 134l55 328h-230z" />
    <glyph glyph-name="t_f" horiz-adv-x="528" 
d="M29 462l4 26h103l25 148h31l-25 -148h232l17 97c17 102 74 147 164 147h40l-3 -28h-39c-70 0 -115 -34 -130 -120l-17 -96h132l-4 -26h-132l-78 -462h-32l78 462h-233l-54 -326c-12 -74 7 -108 77 -108h36l-3 -28h-38c-90 0 -119 45 -104 134l55 328h-102z" />
    <glyph glyph-name="caronquoteleft" horiz-adv-x="532" 
d="M301 568l12 66l52 105h15l-46 -106h11l-12 -65h-32z" />
    <glyph glyph-name="caronquoteright" horiz-adv-x="532" 
d="M291 568l47 106h-11l11 65h32l-12 -65l-52 -106h-15z" />
    <glyph glyph-name="slashedzero" horiz-adv-x="568" 
d="M240 -9c-127 0 -183 96 -183 236c0 39 3 79 9 117c31 200 136 353 290 353c128 0 183 -96 183 -236c0 -39 -3 -78 -9 -117c-31 -200 -136 -353 -290 -353zM243 20c132 0 224 135 254 324c7 39 10 78 10 116c0 58 -10 107 -32 143l-343 -536c25 -30 62 -47 111 -47z
M89 228c0 -57 9 -105 29 -140l343 535c-25 29 -61 45 -108 45c-132 0 -224 -135 -254 -324c-7 -39 -10 -78 -10 -116z" />
    <glyph glyph-name="zero.sc" horiz-adv-x="504" 
d="M208 -9c-112 0 -161 77 -161 186c0 30 3 59 8 88c26 148 111 264 241 264c112 0 161 -77 161 -186c0 -30 -3 -59 -8 -88c-26 -148 -111 -264 -241 -264zM211 18c107 0 182 100 206 237c5 29 8 58 8 88c0 96 -40 159 -132 159c-107 0 -182 -99 -206 -237
c-5 -29 -8 -58 -8 -87c0 -96 41 -160 132 -160z" />
    <glyph glyph-name="one.sc" horiz-adv-x="504" 
d="M114 381l-11 24l205 115h22l-84 -493h161l-4 -27h-362l4 27h169l77 453z" />
    <glyph glyph-name="two.sc" horiz-adv-x="504" 
d="M28 0c24 118 70 164 170 215l71 36c76 39 156 63 156 152c0 58 -55 99 -130 99c-79 0 -153 -37 -173 -135h-30c25 120 115 162 205 162c87 0 159 -49 159 -124c0 -105 -91 -134 -170 -174l-70 -36c-96 -49 -130 -86 -148 -168h330l-3 -27h-367z" />
    <glyph glyph-name="three.sc" horiz-adv-x="504" 
d="M39 149h29c-16 -96 59 -132 143 -132c109 0 185 51 185 139c0 62 -56 104 -145 104h-41l5 25h40c94 0 163 50 163 127c0 57 -49 91 -125 91c-74 0 -148 -37 -161 -120h-28c14 96 98 146 191 146c92 0 153 -44 153 -114c0 -68 -49 -125 -131 -142v-1
c67 -13 110 -55 110 -115c0 -106 -90 -166 -219 -166c-97 0 -187 44 -169 158z" />
    <glyph glyph-name="four.sc" horiz-adv-x="504" 
d="M23 146l3 18v4l349 352h26l-60 -348h94l-4 -26h-94l-25 -146h-32l25 146h-282zM64 172h245l51 298z" />
    <glyph glyph-name="five.sc" horiz-adv-x="504" 
d="M52 136h31c0 -66 56 -118 138 -118s148 47 171 113c6 17 9 36 9 56c0 70 -55 122 -136 122c-71 0 -122 -34 -156 -81l-33 3l67 289h312l-4 -28h-285l-52 -224h3c30 37 81 68 154 68c95 0 162 -61 162 -147c0 -20 -3 -40 -9 -58c-26 -87 -108 -140 -204 -140
c-94 0 -167 56 -168 145z" />
    <glyph glyph-name="six.sc" horiz-adv-x="504" 
d="M49 168c0 31 3 55 7 80c34 206 135 281 249 281c90 0 152 -45 152 -138h-31c0 69 -42 111 -123 111c-96 0 -182 -66 -215 -254l-3 -23c27 66 95 111 184 111c96 0 161 -62 161 -150c0 -15 -2 -32 -7 -50c-24 -86 -104 -145 -202 -145c-99 0 -172 53 -172 177zM85 138
c0 -77 59 -120 137 -120c82 0 146 49 169 118c5 16 7 32 7 48c0 71 -49 126 -136 126c-102 0 -177 -76 -177 -172z" />
    <glyph glyph-name="seven.sc" horiz-adv-x="504" 
d="M124 0l343 491h-359l5 29h395l-3 -21l-347 -499h-34z" />
    <glyph glyph-name="eight.sc" horiz-adv-x="504" 
d="M33 112c0 90 75 145 160 162c-60 14 -90 52 -90 99c0 96 83 156 192 156c93 0 153 -44 153 -114c0 -68 -50 -124 -132 -141v-1c67 -14 111 -58 111 -116c0 -106 -90 -166 -219 -166c-109 0 -175 43 -175 121zM65 116c0 -64 52 -99 145 -99c94 0 165 38 182 106
c3 10 4 21 4 33c0 62 -55 104 -144 104c-76 0 -162 -36 -183 -111c-3 -10 -4 -22 -4 -33zM256 285c79 0 140 36 158 94c3 10 4 22 4 34c0 57 -50 90 -125 90c-77 0 -140 -35 -157 -97c-3 -9 -4 -20 -4 -31c0 -54 45 -90 124 -90z" />
    <glyph glyph-name="nine.sc" horiz-adv-x="504" 
d="M48 129h31c0 -69 42 -111 123 -111c97 0 183 66 215 254l3 24c-26 -66 -94 -112 -183 -112c-96 0 -161 62 -161 150c0 15 2 32 7 50c24 86 104 145 202 145s170 -55 171 -177c0 -32 -2 -55 -6 -80c-35 -206 -135 -281 -249 -281c-91 0 -152 45 -153 138zM420 382
c0 71 -55 120 -137 120s-146 -49 -168 -118c-5 -16 -8 -32 -8 -48c0 -71 50 -126 136 -126c102 0 177 76 177 172z" />
    <glyph glyph-name="slashedzero.sc" horiz-adv-x="504" 
d="M208 -9c-112 0 -161 77 -161 186c0 30 3 59 8 88c26 148 111 264 241 264c112 0 161 -77 161 -186c0 -30 -3 -59 -8 -88c-26 -148 -111 -264 -241 -264zM211 18c107 0 182 100 206 237c5 29 8 58 8 88c0 48 -10 88 -32 116l-267 -414c21 -18 49 -27 85 -27zM79 178
c0 -48 10 -88 31 -116l266 413c-20 17 -48 27 -83 27c-107 0 -182 -99 -206 -237c-5 -29 -8 -58 -8 -87z" />
    <glyph glyph-name="currency.sc" horiz-adv-x="504" 
d="M57 72l-17 19l71 60c-14 23 -22 50 -22 80c0 51 22 101 59 137l-48 61l20 16l48 -59c31 24 70 39 112 39c41 0 75 -15 99 -39l69 60l18 -18l-72 -61c15 -22 23 -49 23 -79c0 -52 -23 -102 -60 -138l49 -60l-21 -16l-48 58c-31 -24 -70 -38 -111 -38c-42 0 -76 14 -99 38z
M229 119c89 0 160 79 160 168c0 68 -45 113 -112 113c-89 0 -160 -79 -160 -169c0 -67 44 -112 112 -112z" />
    <glyph glyph-name="dollar.sc" horiz-adv-x="504" 
d="M39 145h30c-9 -90 68 -128 148 -128c98 0 174 44 174 127c0 50 -29 82 -99 101l-89 24c-59 15 -111 44 -111 108c0 89 70 148 184 152l15 87h29l-16 -88c85 -6 148 -55 146 -140h-30c2 73 -56 115 -137 115c-99 0 -159 -45 -159 -121c0 -52 41 -73 95 -87l89 -24
c79 -21 115 -62 115 -122c0 -97 -84 -154 -199 -158l-16 -91h-29l16 92c-87 6 -166 54 -156 153z" />
    <glyph glyph-name="cent.sc" horiz-adv-x="504" 
d="M70 228c0 15 2 30 4 44c18 104 102 178 207 183l12 73h29l-12 -74c76 -6 132 -50 139 -125h-32c-6 60 -52 100 -128 100c-91 0 -165 -65 -182 -157c-3 -14 -4 -28 -4 -43c0 -78 53 -132 136 -132c80 0 138 42 159 101h31c-22 -72 -92 -123 -180 -128l-13 -78h-30l14 78
c-92 7 -150 71 -150 158z" />
    <glyph glyph-name="Euro.sc" horiz-adv-x="504" 
d="M47 311l6 20h57c35 107 110 198 229 198c93 0 143 -58 147 -140h-29c-4 67 -45 113 -120 113c-100 0 -164 -77 -196 -171h190l-6 -20h-190c-4 -16 -8 -32 -10 -48c-3 -16 -4 -32 -5 -47h177l-6 -20h-172v-11c0 -100 47 -167 140 -167c71 0 117 39 147 99h30
c-34 -75 -90 -126 -180 -126c-111 0 -169 80 -169 192v13h-74l6 20h68c1 15 3 31 6 47s6 32 11 48h-57z" />
    <glyph glyph-name="yen.sc" horiz-adv-x="504" 
d="M83 203l2 19h139l-143 298h36l131 -277h2l228 277h35l-247 -298h137l-2 -19h-143l-13 -80h142l-2 -18h-143l-18 -105h-32l18 105h-143l2 18h144l13 80h-143z" />
    <glyph glyph-name="sterling.sc" horiz-adv-x="504" 
d="M74 259l3 21h81c-11 31 -22 61 -22 93c0 93 68 156 170 156c78 0 143 -42 136 -133h-29c6 73 -47 107 -110 107c-83 0 -136 -52 -136 -129c0 -32 12 -62 23 -94h159l-2 -21h-150c7 -24 14 -49 14 -75c0 -27 -7 -62 -22 -94c39 -35 75 -73 125 -73c64 0 85 53 101 107h28
c-20 -69 -49 -131 -131 -131c-56 0 -95 41 -133 76c-24 -42 -62 -76 -112 -76c-47 0 -78 27 -78 66c0 49 37 83 93 83c34 0 61 -15 86 -35c9 26 13 52 13 73c0 27 -7 53 -16 79h-91zM69 13c44 0 74 33 91 73c-24 20 -49 35 -78 35c-45 0 -69 -27 -69 -60
c0 -24 19 -48 56 -48z" />
    <glyph glyph-name="florin.sc" horiz-adv-x="504" 
d="M105 243l1 22h112l23 138c14 88 57 126 123 126c68 0 97 -42 89 -122l-3 -24h-28l2 23c7 65 -9 98 -61 98c-49 0 -79 -32 -90 -101l-23 -138h130l-1 -22h-133l-44 -266c-14 -88 -57 -126 -123 -126c-68 0 -97 42 -88 122l2 24h29l-3 -23c-8 -65 10 -98 62 -98
c49 0 79 32 90 101l43 266h-109z" />
    <glyph glyph-name="zero.TOSF" horiz-adv-x="568" 
d="M45 189c0 177 133 308 278 308c120 0 195 -80 195 -198c0 -177 -133 -308 -278 -308c-120 0 -195 80 -195 198zM78 191c0 -102 64 -172 165 -172c124 0 242 118 242 278c0 102 -64 172 -164 172c-125 0 -243 -118 -243 -278z" />
    <glyph glyph-name="one.TOSF" horiz-adv-x="568" 
d="M119 322l-13 24l229 142h23l-78 -460h195l-3 -28h-432l3 28h205l71 416z" />
    <glyph glyph-name="two.TOSF" horiz-adv-x="568" 
d="M36 0c19 118 97 181 191 213l88 29c78 26 148 49 148 128c0 52 -52 100 -146 100c-100 0 -174 -42 -197 -142h-29c24 120 117 169 228 169c107 0 176 -54 176 -127c0 -98 -86 -124 -171 -153l-87 -29c-76 -27 -145 -81 -158 -160h372l-4 -28h-411z" />
    <glyph glyph-name="three.TOSF" horiz-adv-x="568" 
d="M4 -1h30c-17 -109 48 -180 172 -180c115 0 224 66 224 187c0 78 -67 140 -173 140h-50l5 27h52c114 0 198 77 198 167c0 84 -62 129 -149 129c-95 0 -181 -51 -201 -164h-30c22 127 118 192 234 192c103 0 177 -57 177 -154c0 -96 -85 -168 -167 -181v-2
c79 -16 137 -77 137 -153c0 -139 -124 -216 -258 -216c-142 0 -222 79 -201 208z" />
    <glyph glyph-name="four.TOSF" horiz-adv-x="568" 
d="M-15 0l4 23l425 468h26l-78 -463h114l-4 -28h-114l-34 -200h-32l33 200h-340zM27 28h303l68 406z" />
    <glyph glyph-name="five.TOSF" horiz-adv-x="568" 
d="M17 -27h32c3 -77 49 -154 170 -154c98 0 173 59 206 143c12 28 19 60 19 93c0 100 -73 157 -159 157c-72 0 -138 -31 -193 -103l-32 2l85 377h368l-4 -29h-339l-71 -309h1c51 61 117 90 190 90c103 0 186 -66 186 -183c0 -34 -7 -66 -17 -95
c-37 -102 -128 -171 -242 -171c-132 0 -197 80 -200 182z" />
    <glyph glyph-name="six.TOSF" horiz-adv-x="568" 
d="M63 215c0 25 1 53 4 82c26 207 127 400 311 400c116 0 178 -69 172 -181h-32c5 93 -45 153 -143 153c-165 0 -251 -184 -275 -372c-1 -5 -2 -13 -2 -23c31 91 117 166 234 166c115 0 187 -73 187 -180c0 -26 -5 -50 -11 -73c-29 -110 -124 -196 -250 -196
c-114 0 -195 66 -195 224zM101 174c0 -88 54 -155 160 -155s186 75 214 168c6 22 11 46 11 71c0 92 -59 154 -158 154c-131 0 -227 -111 -227 -238z" />
    <glyph glyph-name="seven.TOSF" horiz-adv-x="568" 
d="M108 -200l403 659h-418l4 29h455l-4 -23l-405 -665h-35z" />
    <glyph glyph-name="eight.TOSF" horiz-adv-x="568" 
d="M37 157c0 110 97 186 196 203v2c-66 15 -109 65 -109 139c0 120 113 196 231 196c105 0 179 -57 179 -157c0 -89 -78 -162 -165 -179v-2c76 -15 134 -73 134 -154c0 -133 -127 -214 -263 -214c-120 0 -203 66 -203 166zM69 159c0 -83 72 -140 174 -140
c116 0 229 69 229 185c0 81 -68 142 -175 142c-122 0 -228 -76 -228 -187zM304 373c115 0 199 77 199 166c0 85 -62 131 -150 131c-99 0 -198 -63 -198 -169c0 -72 48 -128 149 -128z" />
    <glyph glyph-name="nine.TOSF" horiz-adv-x="568" 
d="M15 -28h32c-6 -93 45 -153 143 -153c165 0 251 184 275 372c0 5 1 13 2 22c-31 -91 -117 -165 -234 -165c-116 0 -187 73 -187 180c0 26 4 50 11 73c29 110 124 196 249 196c115 0 196 -66 196 -224c0 -25 -1 -53 -4 -82c-26 -207 -127 -400 -311 -400
c-116 0 -178 69 -172 181zM464 314c0 93 -62 155 -160 155c-106 0 -186 -75 -214 -168c-6 -22 -11 -46 -11 -71c0 -92 59 -154 158 -154c130 0 227 111 227 238z" />
    <glyph glyph-name="slashedzero.TOSF" horiz-adv-x="568" 
d="M45 189c0 177 133 308 278 308c120 0 195 -80 195 -198c0 -177 -133 -308 -278 -308c-120 0 -195 80 -195 198zM485 297c0 44 -12 83 -34 112l-323 -348c28 -27 67 -42 115 -42c124 0 242 118 242 278zM78 191c0 -45 12 -83 34 -112l322 348c-28 26 -67 42 -113 42
c-125 0 -243 -118 -243 -278z" />
    <glyph glyph-name="zero.PPF" horiz-adv-x="537" 
d="M53 220c0 38 3 80 10 124c34 201 127 353 279 353c119 0 170 -93 170 -229c0 -38 -3 -80 -11 -124c-34 -201 -127 -353 -279 -353c-120 0 -169 93 -169 229zM226 20c129 0 210 137 242 324c8 44 12 85 12 122c0 122 -44 202 -142 202c-130 0 -209 -137 -241 -324
c-8 -44 -12 -85 -12 -122c0 -122 43 -202 141 -202z" />
    <glyph glyph-name="one.PPF" horiz-adv-x="296" 
d="M72 547l-12 24l192 117h24l-118 -688h-32l111 646z" />
    <glyph glyph-name="two.PPF" horiz-adv-x="494" 
d="M5 0c30 154 85 211 201 282l86 52c86 52 163 94 163 207c0 79 -59 128 -140 128c-94 0 -170 -48 -195 -182h-29c27 159 126 210 227 210c94 0 169 -54 169 -154c0 -128 -87 -175 -176 -229l-86 -52c-117 -71 -157 -123 -180 -234h368l-4 -28h-404z" />
    <glyph glyph-name="three.PPF" horiz-adv-x="517" 
d="M31 199h30c-21 -117 56 -180 158 -180c119 0 212 72 212 188c0 81 -66 139 -160 139h-38l6 27h39c94 0 185 69 185 169c0 83 -62 127 -138 127c-83 0 -168 -48 -183 -164h-31c18 129 115 192 217 192c93 0 166 -57 166 -152c0 -100 -81 -168 -159 -183v-2
c72 -14 127 -70 127 -153c0 -132 -105 -216 -245 -216c-120 0 -209 71 -186 208z" />
    <glyph glyph-name="four.PPF" horiz-adv-x="516" 
d="M16 200l4 23l411 468h26l-78 -463h104l-3 -28h-105l-34 -200h-32l33 200h-326zM58 228h289l68 405z" />
    <glyph glyph-name="five.PPF" horiz-adv-x="496" 
d="M27 173h32c0 -76 40 -154 153 -154c125 0 211 119 211 242c0 92 -56 151 -145 151c-69 0 -128 -32 -178 -103l-32 2l89 377h336l-4 -29h-307l-74 -306h1c43 57 104 87 175 87c106 0 172 -68 172 -177c0 -142 -103 -272 -246 -272c-125 0 -183 81 -183 182z" />
    <glyph glyph-name="six.PPF" horiz-adv-x="522" 
d="M55 211c0 21 2 43 4 66c20 203 108 420 290 420c109 0 169 -69 163 -181h-32c6 94 -43 153 -134 153c-159 0 -234 -201 -253 -382c33 85 112 153 218 153s168 -69 168 -177c0 -142 -100 -272 -243 -272c-108 0 -181 61 -181 220zM92 171c0 -88 48 -152 145 -152
c126 0 210 118 210 242c0 92 -53 151 -141 151c-125 0 -214 -117 -214 -241z" />
    <glyph glyph-name="seven.PPF" horiz-adv-x="426" 
d="M20 0l423 659h-358l3 29h396l-4 -23l-425 -665h-35z" />
    <glyph glyph-name="eight.PPF" horiz-adv-x="520" 
d="M27 155c0 115 95 189 186 205v2c-54 15 -100 63 -100 135c0 114 102 200 219 200c94 0 165 -56 165 -151s-78 -167 -156 -184v-2c71 -17 125 -71 125 -153c0 -129 -110 -216 -247 -216c-116 0 -192 65 -192 164zM59 157c0 -84 67 -138 162 -138c118 0 213 75 213 188
c0 81 -65 139 -160 139c-109 0 -215 -72 -215 -189zM280 373c95 0 186 71 186 172c0 80 -62 125 -136 125c-98 0 -186 -72 -186 -173c0 -74 58 -124 136 -124z" />
    <glyph glyph-name="nine.PPF" horiz-adv-x="522" 
d="M45 172h32c-6 -94 43 -153 134 -153c160 0 233 203 253 384c-32 -86 -111 -155 -218 -155c-106 0 -169 69 -169 177c0 142 101 272 244 272c108 0 180 -61 180 -220c0 -21 -1 -43 -3 -66c-21 -203 -105 -420 -287 -420c-110 0 -172 69 -166 181zM465 517
c0 82 -46 152 -145 152c-127 0 -210 -118 -210 -242c0 -92 52 -151 141 -151c124 0 214 117 214 241z" />
    <glyph glyph-name="slashedzero.PPF" horiz-adv-x="537" 
d="M222 -9c-120 0 -169 93 -169 229c0 38 3 80 10 124c34 201 127 353 279 353c119 0 170 -93 170 -229c0 -38 -3 -80 -11 -124c-34 -201 -127 -353 -279 -353zM226 20c129 0 210 137 242 324c8 44 12 85 12 122c0 52 -8 96 -25 130l-334 -524c23 -34 57 -52 105 -52z
M85 222c0 -51 7 -94 23 -128l334 524c-23 32 -58 50 -104 50c-130 0 -209 -137 -241 -324c-8 -44 -12 -85 -12 -122z" />
    <glyph glyph-name="currency.PPF" horiz-adv-x="464" 
d="M52 155l-16 18l71 60c-15 23 -23 50 -23 80c0 51 23 102 60 138l-48 60l20 16l47 -59c31 24 70 40 112 40c41 0 75 -15 99 -39l71 59l16 -18l-71 -61c15 -22 23 -49 23 -78c0 -51 -23 -101 -59 -138l48 -60l-20 -16l-48 59c-32 -25 -70 -40 -112 -40s-76 15 -100 39z
M225 201c89 0 160 80 160 168c0 69 -45 114 -113 114c-89 0 -160 -80 -160 -168c0 -68 46 -114 113 -114z" />
    <glyph glyph-name="dollar.PPF" horiz-adv-x="490" 
d="M14 181h32c-11 -105 62 -163 155 -163c114 0 198 74 198 176c0 72 -36 107 -106 132l-92 33c-65 24 -116 59 -116 143c0 111 90 189 203 194l18 108h32l-18 -108c89 -8 158 -70 151 -169h-31c4 91 -59 143 -142 143c-96 0 -180 -64 -180 -165c0 -69 42 -96 102 -118
l91 -34c79 -29 120 -73 120 -157c0 -116 -93 -199 -222 -205l-18 -111h-32l18 112c-98 7 -175 72 -163 189z" />
    <glyph glyph-name="cent.PPF" horiz-adv-x="497" 
d="M202 -9l17 105c-102 8 -162 83 -162 197c0 170 109 299 248 307l16 97h32l-16 -97c84 -7 144 -65 148 -163h-32c-6 83 -58 136 -139 136c-116 0 -223 -112 -223 -278c0 -105 58 -171 153 -171c79 0 145 54 179 135h32c-34 -95 -109 -157 -204 -163l-17 -105h-32z" />
    <glyph glyph-name="Euro.PPF" horiz-adv-x="563" 
d="M43 416l6 22h76c46 152 146 259 279 259c111 0 171 -70 176 -177h-31c-6 92 -55 150 -147 150c-112 0 -200 -94 -244 -232h243l-6 -22h-243c-8 -29 -14 -59 -18 -91c-2 -15 -3 -30 -4 -44h224l-5 -22h-220v-22c0 -132 54 -219 165 -219c86 0 146 49 184 130h30
c-43 -100 -112 -157 -217 -157c-131 0 -195 103 -195 248v20h-85l6 22h80c0 14 2 28 4 44c4 31 9 62 17 91h-75z" />
    <glyph glyph-name="yen.PPF" horiz-adv-x="480" 
d="M70 273l3 22h155l-156 393h34l143 -366h2l266 366h36l-291 -393h153l-3 -22h-155l-18 -110h154l-4 -22h-154l-24 -141h-32l24 141h-156l4 22h156l18 110h-155z" />
    <glyph glyph-name="sterling.PPF" horiz-adv-x="525" 
d="M87 344l2 24h87c-7 39 -14 79 -14 117c0 131 68 212 183 212c106 0 151 -76 140 -173h-31c10 77 -21 146 -111 146c-93 0 -149 -67 -149 -181c0 -40 8 -80 15 -121h162l-2 -24h-156c5 -27 8 -54 8 -82c0 -42 -10 -95 -29 -144c46 -45 86 -99 147 -99c80 0 105 70 124 145
h28c-21 -81 -50 -173 -153 -173c-68 0 -112 57 -157 103c-29 -57 -73 -103 -134 -103c-53 0 -84 33 -84 78c0 61 47 109 112 109c37 0 67 -17 94 -40c14 42 20 87 20 117c0 29 -4 59 -9 89h-93zM49 13c54 0 90 46 112 101c-26 23 -54 41 -88 41c-48 0 -83 -37 -83 -83
c0 -36 23 -59 59 -59z" />
    <glyph glyph-name="florin.PPF" horiz-adv-x="481" 
d="M80 329l3 24h131l33 183c20 112 76 161 152 161c73 0 121 -41 104 -162l-4 -27h-30l4 27c15 101 -19 135 -76 135c-61 0 -102 -41 -118 -134l-33 -183h157l-2 -24h-159l-63 -360c-20 -113 -76 -161 -152 -161c-73 0 -121 41 -103 162l4 27h29l-4 -27
c-15 -101 19 -135 76 -135c61 0 102 41 118 134l63 360h-130z" />
    <glyph glyph-name="zero.scppf" horiz-adv-x="481" 
d="M47 178c0 30 2 59 6 87c25 148 109 264 232 264c102 0 149 -77 149 -188c0 -29 -2 -58 -7 -86c-24 -148 -109 -264 -231 -264c-102 0 -149 77 -149 187zM199 18c99 0 171 100 195 237c5 28 8 57 8 86c0 97 -40 161 -120 161c-100 0 -173 -99 -196 -237
c-5 -28 -7 -57 -7 -86c0 -97 40 -161 120 -161z" />
    <glyph glyph-name="one.scppf" horiz-adv-x="272" 
d="M47 404l-11 24l161 92h23l-89 -520h-32l82 479z" />
    <glyph glyph-name="two.scppf" horiz-adv-x="430" 
d="M1 0c24 117 73 161 171 215l72 39c76 42 135 67 135 152c0 58 -51 96 -120 96c-74 0 -141 -38 -159 -135h-29c21 119 105 162 190 162c82 0 149 -47 149 -120c0 -102 -70 -132 -149 -175l-72 -39c-94 -51 -130 -87 -148 -168h316l-4 -27h-352z" />
    <glyph glyph-name="three.scppf" horiz-adv-x="437" 
d="M19 150h29c-15 -86 48 -133 134 -133c91 0 167 52 167 139c0 62 -56 104 -133 104h-32l4 25h32c77 0 151 48 151 127c0 58 -50 91 -112 91c-71 0 -136 -36 -150 -120h-28c14 97 91 146 178 146c81 0 142 -44 142 -115c0 -67 -51 -123 -120 -141v-1
c57 -13 100 -57 100 -115c0 -105 -92 -166 -202 -166c-96 0 -177 50 -160 159z" />
    <glyph glyph-name="four.scppf" horiz-adv-x="444" 
d="M7 148l2 13v3l2 6l341 352h26l-60 -348h88l-5 -26h-88l-25 -148h-32l25 148h-274zM49 174h236l51 295z" />
    <glyph glyph-name="five.scppf" horiz-adv-x="434" 
d="M29 130h31c0 -56 35 -112 125 -112c84 0 174 62 174 177c0 74 -57 115 -121 115c-57 0 -105 -27 -146 -82l-33 3l67 289h288l-5 -28h-259l-52 -223h1c39 46 84 67 147 67c78 0 144 -51 144 -139c0 -137 -107 -206 -206 -206c-101 0 -154 58 -155 139z" />
    <glyph glyph-name="six.scppf" horiz-adv-x="457" 
d="M45 166c0 31 2 56 7 82c37 206 125 281 232 281c90 0 147 -47 147 -139h-30c0 67 -38 112 -117 112c-90 0 -164 -66 -199 -254c-1 -4 -2 -8 -2 -13c29 63 94 101 172 101c90 0 148 -59 148 -141c0 -126 -95 -204 -202 -204c-104 0 -156 64 -156 175zM81 136
c0 -74 50 -118 122 -118c91 0 168 67 168 175c0 68 -46 116 -121 116c-91 0 -169 -66 -169 -173z" />
    <glyph glyph-name="seven.scppf" horiz-adv-x="381" 
d="M25 0l342 491h-300l4 29h336l-2 -21l-346 -499h-34z" />
    <glyph glyph-name="eight.scppf" horiz-adv-x="452" 
d="M19 115c0 79 64 141 146 159c-47 16 -78 52 -78 101c0 95 93 154 182 154c81 0 141 -45 141 -116c0 -68 -51 -122 -119 -140v-1c57 -14 99 -55 99 -115c0 -104 -97 -166 -207 -166c-96 0 -164 43 -164 124zM51 118c0 -65 54 -101 134 -101c91 0 174 52 174 139
c0 62 -55 104 -133 104c-95 0 -175 -59 -175 -142zM230 285c76 0 150 48 150 127c0 58 -50 91 -113 91c-70 0 -150 -45 -150 -127c0 -56 48 -91 113 -91z" />
    <glyph glyph-name="nine.scppf" horiz-adv-x="458" 
d="M27 130h30c0 -67 39 -112 118 -112c90 0 164 66 198 254c0 3 1 7 2 12c-30 -62 -94 -100 -172 -100c-90 0 -148 59 -148 141c0 126 95 204 202 204c102 0 156 -64 156 -175c0 -31 -2 -56 -7 -82c-37 -206 -125 -281 -232 -281c-89 0 -147 47 -147 139zM377 384
c0 70 -51 118 -123 118c-90 0 -167 -67 -167 -175c0 -68 46 -116 121 -116c91 0 169 66 169 173z" />
    <glyph glyph-name="slashedzero.scppf" horiz-adv-x="481" 
d="M47 178c0 30 2 59 6 87c25 148 109 264 232 264c102 0 149 -77 149 -188c0 -29 -2 -58 -7 -86c-24 -148 -109 -264 -231 -264c-102 0 -149 77 -149 187zM199 18c99 0 171 100 195 237c5 28 8 57 8 86c0 44 -9 81 -25 109l-263 -395c20 -24 48 -37 85 -37zM79 179
c0 -42 7 -77 21 -104l262 394c-19 21 -46 33 -80 33c-100 0 -173 -99 -196 -237c-5 -28 -7 -57 -7 -86z" />
    <glyph glyph-name="currency.scppf" horiz-adv-x="456" 
d="M29 72l-18 19l72 60c-15 23 -23 50 -23 80c0 51 23 101 59 137l-48 61l21 16l47 -59c32 24 70 39 112 39c41 0 75 -15 99 -39l70 60l17 -18l-72 -61c15 -22 23 -49 23 -79c0 -52 -23 -102 -59 -138l48 -60l-20 -16l-49 58c-31 -24 -70 -38 -111 -38s-75 14 -99 38z
M200 119c89 0 160 79 160 168c0 68 -44 113 -112 113c-89 0 -160 -79 -160 -169c0 -67 45 -112 112 -112z" />
    <glyph glyph-name="dollar.scppf" horiz-adv-x="420" 
d="M9 137h30c-9 -82 57 -120 131 -120c81 0 159 46 159 130c0 49 -28 77 -89 96l-76 24c-56 17 -97 48 -97 112c0 88 69 145 168 149l16 88h29l-16 -88c71 -7 130 -52 129 -129h-30c0 65 -55 104 -120 104c-83 0 -145 -44 -145 -120c0 -49 34 -74 83 -90l77 -24
c70 -21 104 -57 104 -118c0 -96 -83 -154 -181 -159l-15 -92h-30l16 92c-83 4 -153 52 -143 145z" />
    <glyph glyph-name="cent.scppf" horiz-adv-x="425" 
d="M37 224c0 17 2 32 5 48c18 103 96 177 194 182l12 74h29l-12 -74c67 -6 125 -50 132 -125h-32c-7 60 -54 99 -119 99c-86 0 -154 -65 -171 -156c-3 -15 -5 -31 -5 -47c0 -77 47 -128 127 -128c73 0 126 40 150 102h31c-26 -75 -92 -124 -171 -129l-13 -78h-30l14 79
c-88 7 -141 67 -141 153z" />
    <glyph glyph-name="Euro.scppf" horiz-adv-x="477" 
d="M30 312l6 20h58c35 107 109 197 231 197c94 0 144 -58 151 -140h-30c-6 67 -46 113 -123 113c-100 0 -165 -77 -197 -170h188l-6 -20h-188c-5 -18 -9 -37 -12 -55c-3 -14 -4 -27 -5 -41h179l-6 -20h-174v-9c0 -102 48 -169 142 -169c76 0 122 39 151 99h29
c-32 -75 -88 -126 -182 -126c-114 0 -171 83 -171 198v7h-75l6 20h69c1 13 2 27 5 41c3 18 7 37 12 55h-58z" />
    <glyph glyph-name="yen.scppf" horiz-adv-x="419" 
d="M57 203l2 19h124l-131 298h35l119 -277h2l212 277h36l-230 -298h117l-3 -19h-124l-13 -80h124l-3 -18h-124l-18 -105h-32l18 105h-127l2 18h128l13 80h-127z" />
    <glyph glyph-name="sterling.scppf" horiz-adv-x="477" 
d="M67 259l3 21h88c-7 31 -14 61 -14 93c0 93 59 156 155 156c68 0 128 -42 121 -133h-30c7 73 -40 107 -94 107c-77 0 -121 -52 -121 -129c0 -32 7 -62 15 -94h152l-2 -21h-145c5 -24 9 -49 9 -75c0 -27 -7 -61 -21 -93c39 -34 74 -74 124 -74c64 0 85 53 95 107h27
c-13 -69 -42 -131 -124 -131c-57 0 -95 41 -133 77c-24 -43 -62 -77 -112 -77c-47 0 -75 27 -75 66c0 49 37 83 93 83c33 0 59 -15 84 -34c8 26 12 51 12 72c0 27 -5 53 -11 79h-96zM62 13c44 0 74 34 92 74c-23 19 -47 34 -76 34c-45 0 -69 -27 -69 -60
c0 -24 16 -48 53 -48z" />
    <glyph glyph-name="florin.scppf" horiz-adv-x="418" 
d="M62 243l1 22h112l23 138c14 88 57 126 123 126c68 0 97 -42 88 -122l-2 -24h-28l2 23c7 65 -9 98 -61 98c-49 0 -79 -32 -90 -101l-23 -138h130l-1 -22h-133l-44 -266c-14 -88 -57 -126 -123 -126c-68 0 -97 42 -88 122l2 24h29l-3 -23c-8 -65 9 -98 62 -98
c49 0 79 32 90 101l43 266h-109z" />
    <glyph glyph-name="slashedzero.oldstyle" horiz-adv-x="556" 
d="M35 194c0 176 137 303 282 303c122 0 199 -83 199 -203c0 -176 -137 -303 -282 -303c-122 0 -199 83 -199 203zM483 292c0 47 -14 88 -38 118l-324 -349c29 -27 69 -42 116 -42c125 0 246 114 246 273zM68 196c0 -47 14 -87 38 -118l323 349c-29 27 -68 42 -114 42
c-126 0 -247 -114 -247 -273z" />
    <glyph glyph-name="plus.sc" horiz-adv-x="504" 
d="M58 249l5 28h177l31 181h30l-31 -181h177l-5 -28h-177l-31 -184h-30l31 184h-177z" />
    <glyph glyph-name="minus.sc" horiz-adv-x="504" 
d="M58 249l5 28h384l-5 -28h-384z" />
    <glyph glyph-name="multiply.sc" horiz-adv-x="504" 
d="M76 89l-17 20l176 155l-121 155l20 17l121 -155l176 155l17 -19l-177 -156l122 -154l-21 -17l-121 154z" />
    <glyph glyph-name="divide.sc" horiz-adv-x="504" 
d="M254 363l14 77h32l-14 -77h-32zM58 249l5 28h384l-5 -28h-384zM206 87l14 76h32l-14 -76h-32z" />
    <glyph glyph-name="equal.sc" horiz-adv-x="504" 
d="M72 331l5 28h384l-5 -28h-384zM44 169l5 28h384l-5 -28h-384z" />
    <glyph glyph-name="less.sc" horiz-adv-x="504" 
d="M71 251l4 26l384 152l-5 -30l-346 -135l299 -135l-4 -29z" />
    <glyph glyph-name="greater.sc" horiz-adv-x="504" 
d="M97 400l4 28l333 -151l-4 -26l-385 -152l5 30l346 135z" />
    <glyph glyph-name="plusminus.sc" horiz-adv-x="504" 
d="M76 255l4 27h160l28 160h29l-28 -160h160l-4 -27h-161l-28 -164h-29l28 164h-159zM32 0l5 27h348l-5 -27h-348z" />
    <glyph glyph-name="lessequal.sc" horiz-adv-x="504" 
d="M74 255l4 27l375 143l-4 -30l-341 -127l297 -127l-5 -26zM31 0l4 27h349l-5 -27h-348z" />
    <glyph glyph-name="greaterequal.sc" horiz-adv-x="504" 
d="M101 396l5 27l327 -141l-4 -27l-376 -142l4 28l342 127zM35 0l4 27h349l-5 -27h-348z" />
    <glyph glyph-name="notequal.sc" horiz-adv-x="504" 
d="M72 331l5 28h232l88 113l19 -12l-78 -101h123l-5 -28h-140l-103 -134h220l-5 -28h-236l-87 -113l-21 13l77 100h-117l5 28h134l104 134h-215z" />
    <glyph glyph-name="logicalnot.sc" horiz-adv-x="504" 
d="M58 249l5 28h383l-36 -210h-30l30 182h-352z" />
    <glyph glyph-name="asciitilde.sc" horiz-adv-x="504" 
d="M68 210c12 71 56 105 106 105c74 0 97 -73 160 -73c38 0 67 27 75 76h27c-12 -71 -54 -104 -105 -104c-72 0 -97 74 -160 74c-38 0 -67 -29 -76 -78h-27z" />
    <glyph glyph-name="approxequal.sc" horiz-adv-x="504" 
d="M82 289c12 70 55 104 105 104c74 0 98 -73 161 -73c37 0 66 27 74 77h28c-12 -71 -55 -104 -105 -104c-72 0 -97 73 -160 73c-39 0 -68 -28 -77 -77h-26zM54 129c12 70 56 106 106 106c74 0 97 -74 160 -74c38 0 67 27 75 76h27c-12 -70 -55 -104 -105 -104
c-72 0 -97 74 -160 74c-37 0 -67 -28 -75 -78h-28z" />
    <glyph glyph-name="infinity.sc" horiz-adv-x="599" 
d="M131 133c-66 0 -108 42 -108 101c0 91 64 153 147 153c64 0 110 -48 133 -105c42 57 101 105 166 105s108 -42 108 -101c0 -91 -64 -153 -147 -153c-66 0 -111 47 -134 104c-41 -57 -101 -104 -165 -104zM432 157c67 0 119 52 119 125c0 48 -32 82 -84 82
c-60 0 -118 -55 -153 -104c18 -49 58 -103 118 -103zM133 157c60 0 118 54 152 103c-18 49 -58 104 -117 104c-67 0 -119 -53 -119 -126c0 -48 32 -81 84 -81z" />
    <glyph glyph-name="numbersign.sc" horiz-adv-x="490" 
d="M42 369l1 25h102l22 126h29l-22 -126h183l22 126h29l-22 -126h92l-1 -25h-96l-37 -206h98l-1 -25h-101l-24 -138h-29l24 138h-183l-24 -138h-29l24 138h-93l1 25h96l37 206h-98zM169 369l-37 -206h183l37 206h-183z" />
    <glyph glyph-name="percent.sc" horiz-adv-x="561" 
d="M75 -8l385 536h25l-386 -536h-24zM133 249c-59 0 -88 42 -88 99c0 12 2 26 4 40c14 77 57 139 126 139c59 0 88 -42 88 -99c0 -12 -2 -26 -4 -40c-14 -77 -57 -139 -126 -139zM174 505c-52 0 -86 -49 -98 -117c-2 -14 -4 -27 -4 -39c0 -46 19 -78 62 -78
c52 0 86 49 98 117c2 14 4 27 4 39c0 46 -19 78 -62 78zM382 -11c-58 0 -87 42 -87 99c0 12 2 26 4 40c14 77 57 139 126 139c58 0 87 -42 87 -99c0 -12 -2 -26 -4 -40c-14 -77 -57 -139 -126 -139zM424 245c-52 0 -86 -49 -99 -117c-2 -14 -4 -27 -4 -39
c0 -46 19 -78 62 -78c52 0 86 49 99 117c2 14 4 27 4 39c0 46 -19 78 -62 78z" />
    <glyph glyph-name="perthousand.sc" horiz-adv-x="825" 
d="M75 -8l385 536h25l-386 -536h-24zM133 249c-59 0 -88 42 -88 99c0 12 2 26 4 40c14 77 57 139 126 139c59 0 88 -42 88 -99c0 -12 -2 -26 -4 -40c-14 -77 -57 -139 -126 -139zM174 505c-52 0 -86 -49 -98 -117c-2 -14 -4 -27 -4 -39c0 -46 19 -78 62 -78
c52 0 86 49 98 117c2 14 4 27 4 39c0 46 -19 78 -62 78zM382 -11c-58 0 -87 42 -87 99c0 12 2 26 4 40c14 77 57 139 126 139c58 0 87 -42 87 -99c0 -12 -2 -26 -4 -40c-14 -77 -57 -139 -126 -139zM424 245c-52 0 -86 -49 -99 -117c-2 -14 -4 -27 -4 -39
c0 -46 19 -78 62 -78c52 0 86 49 99 117c2 14 4 27 4 39c0 46 -19 78 -62 78zM646 -11c-59 0 -88 42 -88 99c0 12 2 26 4 40c14 77 57 139 126 139c59 0 88 -42 88 -99c0 -12 -2 -26 -4 -40c-14 -77 -57 -139 -126 -139zM687 245c-52 0 -86 -49 -98 -117
c-2 -14 -4 -27 -4 -39c0 -46 19 -78 62 -78c52 0 86 49 98 117c2 14 4 27 4 39c0 46 -19 78 -62 78z" />
    <glyph glyph-name="hyphen.sc" horiz-adv-x="396" 
d="M59 249l4 28h276l-4 -28h-276z" />
    <glyph glyph-name="endash.sc" horiz-adv-x="556" 
d="M59 249l4 28h434l-4 -28h-434z" />
    <glyph glyph-name="emdash.sc" horiz-adv-x="840" 
d="M59 249l4 28h720l-4 -28h-720z" />
    <glyph glyph-name="dagger.sc" horiz-adv-x="340" 
d="M60 353l3 25h112l24 142h29l-24 -142h113l-3 -25h-114l-60 -353h-29l59 353h-110z" />
    <glyph glyph-name="daggerdbl.sc" horiz-adv-x="340" 
d="M60 355l3 25h112l24 140h29l-24 -140h113l-3 -25h-114l-33 -192h112l-3 -25h-113l-23 -138h-29l23 138h-111l3 25h112l33 192h-111z" />
    <glyph glyph-name="parenleft.sc" horiz-adv-x="248" 
d="M139 -92c-26 61 -54 146 -54 246c0 189 96 354 174 458h28c-78 -104 -171 -275 -171 -459c0 -97 26 -184 51 -245h-28z" />
    <glyph glyph-name="parenright.sc" horiz-adv-x="248" 
d="M-10 -92h-29c79 105 172 275 172 459c0 97 -27 184 -52 245h29c26 -61 53 -146 53 -246c0 -189 -95 -354 -173 -458z" />
    <glyph glyph-name="bracketleft.sc" horiz-adv-x="257" 
d="M36 -92l121 704h136l-3 -26h-108l-112 -652h108l-3 -26h-139z" />
    <glyph glyph-name="bracketright.sc" horiz-adv-x="257" 
d="M-34 -66h109l111 652h-108l3 26h139l-120 -704h-137z" />
    <glyph glyph-name="braceleft.sc" horiz-adv-x="300" 
d="M95 23l23 135c10 64 -12 82 -68 95l3 20c61 12 90 33 101 95l23 128c13 73 55 116 126 116h35l-4 -25h-32c-54 0 -86 -30 -97 -91l-24 -134c-10 -59 -38 -85 -97 -99v-1c53 -15 73 -40 62 -102l-23 -137c-11 -61 11 -90 65 -90h32l-2 -25h-35c-71 0 -101 42 -88 115z" />
    <glyph glyph-name="braceright.sc" horiz-adv-x="300" 
d="M-2 -67c54 0 86 30 97 91l24 138c10 59 39 85 98 99v1c-53 14 -73 40 -63 102l22 133c12 61 -10 90 -64 90h-33l3 25h35c71 0 101 -42 88 -115l-22 -131c-11 -64 12 -82 68 -95l-3 -20c-61 -12 -90 -33 -102 -95l-23 -132c-13 -73 -55 -116 -127 -116h-35l5 25h32z" />
    <glyph glyph-name="slash.sc" horiz-adv-x="327" 
d="M14 -12h-30l325 544h29z" />
    <glyph glyph-name="backslash.sc" horiz-adv-x="327" 
d="M217 -12l-140 544h28l140 -544h-28z" />
    <glyph glyph-name="quoteleft.sc" horiz-adv-x="203" 
d="M86 268l17 100l62 152h19l-58 -150h13l-17 -102h-36z" />
    <glyph glyph-name="quotedblleft.sc" horiz-adv-x="360" 
d="M244 268l16 100l63 152h18l-57 -150h12l-16 -102h-36zM86 268l17 100l62 152h19l-58 -150h13l-17 -102h-36z" />
    <glyph glyph-name="quoteright.sc" horiz-adv-x="203" 
d="M65 268l58 150h-14l17 102h37l-17 -100l-62 -152h-19z" />
    <glyph glyph-name="quotedblright.sc" horiz-adv-x="360" 
d="M223 268l57 150h-13l17 102h37l-17 -100l-63 -152h-18zM65 268l58 150h-14l17 102h37l-17 -100l-62 -152h-19z" />
    <glyph glyph-name="guilsinglleft.sc" horiz-adv-x="258" 
d="M145 104l-84 161l138 158h28l-133 -160l76 -159h-25z" />
    <glyph glyph-name="guilsinglright.sc" horiz-adv-x="258" 
d="M30 104l134 160l-77 159h26l83 -161l-137 -158h-29z" />
    <glyph glyph-name="guillemotleft.sc" horiz-adv-x="412" 
d="M298 104l-83 161l138 158h28l-133 -160l76 -159h-26zM145 104l-84 161l138 158h28l-133 -160l76 -159h-25z" />
    <glyph glyph-name="guillemotright.sc" horiz-adv-x="412" 
d="M184 104l133 160l-76 159h26l83 -161l-138 -158h-28zM30 104l134 160l-77 159h26l83 -161l-137 -158h-29z" />
    <glyph glyph-name="quotesingle.sc" horiz-adv-x="193" 
d="M88 268l23 159l15 93h32l-16 -93l-33 -159h-21z" />
    <glyph glyph-name="quotedbl.sc" horiz-adv-x="369" 
d="M264 268l23 159l15 93h32l-16 -93l-33 -159h-21zM88 268l23 159l15 93h32l-16 -93l-33 -159h-21z" />
    <glyph glyph-name="asterisk.sc" horiz-adv-x="439" 
d="M279 528l-31 -150l149 51l4 -24l-151 -41l71 -117l-23 -16l-62 122l-104 -122l-20 16l112 118l-135 40l12 25l131 -52l20 150h27z" />
    <glyph glyph-name="degree.sc" horiz-adv-x="349" 
d="M177 261c-70 0 -116 51 -116 112c0 86 69 156 156 156c70 0 116 -51 116 -113c0 -86 -69 -155 -156 -155zM178 286c72 0 127 56 127 127c0 50 -34 91 -89 91c-72 0 -127 -58 -127 -129c0 -49 34 -89 89 -89z" />
    <glyph glyph-name="bullet.sc" horiz-adv-x="408" 
d="M204 128c-73 0 -132 58 -132 132s59 132 132 132s132 -58 132 -132s-59 -132 -132 -132z" />
    <glyph glyph-name="periodcentered.sc" horiz-adv-x="205" 
d="M76 217l17 93h37l-16 -93h-38z" />
    <glyph glyph-name="paragraph.sc" horiz-adv-x="470" 
d="M299 0l89 520h30l-89 -520h-30zM182 0l37 217c-91 3 -141 54 -141 125c0 107 86 178 203 178h19l-88 -520h-30z" />
    <glyph glyph-name="section.sc" horiz-adv-x="423" 
d="M5 -60h28c-5 -58 42 -88 109 -88c77 0 132 44 132 105c0 51 -36 70 -76 83l-67 21c-59 20 -90 51 -90 101c0 73 54 123 121 137c-40 16 -72 44 -72 96c0 78 67 132 161 132c80 0 143 -35 137 -110h-28c5 57 -42 87 -110 87c-76 0 -131 -44 -131 -105c0 -50 36 -69 76 -82
l66 -22c60 -20 91 -51 91 -101c0 -73 -55 -123 -122 -138c40 -16 73 -44 73 -95c0 -78 -67 -132 -161 -132c-80 0 -143 36 -137 111zM245 272l-47 15c-67 -6 -128 -51 -128 -120c0 -44 28 -65 78 -82l45 -16c67 6 130 50 130 121c0 43 -29 65 -78 82z" />
    <glyph glyph-name="copyright.sc" horiz-adv-x="609" 
d="M42 264c0 149 108 265 262 265c151 0 263 -116 263 -265s-109 -273 -263 -273s-262 124 -262 273zM66 264c0 -137 97 -251 238 -251c142 0 239 114 239 251c0 138 -99 243 -239 243c-141 0 -238 -105 -238 -243zM181 264c0 79 47 134 127 134c60 0 101 -38 111 -87h-23
c-9 36 -40 65 -88 65c-64 0 -102 -43 -102 -112c0 -63 39 -112 99 -112c49 0 79 28 88 65h23c-10 -51 -50 -87 -111 -87c-75 0 -124 61 -124 134z" />
    <glyph glyph-name="registered.sc" horiz-adv-x="609" 
d="M42 264c0 149 108 265 262 265c151 0 263 -116 263 -265s-109 -273 -263 -273s-262 124 -262 273zM66 264c0 -137 97 -251 238 -251c142 0 239 114 239 251c0 138 -99 243 -239 243c-141 0 -238 -105 -238 -243zM209 136v256h120c55 0 86 -32 86 -77
c0 -39 -25 -71 -69 -77l69 -102h-27l-69 101h-84v-101h-26zM326 371h-91v-113h91c42 0 64 24 64 57s-22 56 -64 56z" />
    <glyph glyph-name="trademark.sc" horiz-adv-x="582" 
d="M260 260l44 260h32l70 -224h1l146 224h32l-44 -260h-26l39 217h-2l-143 -217h-18l-68 219h-2l-36 -219h-25zM48 498l3 22h216l-3 -22h-96l-40 -238h-27l40 238h-93z" />
    <glyph glyph-name="ordfeminine.sc" horiz-adv-x="308" 
d="M252 260l9 60c-24 -41 -66 -64 -109 -64c-59 0 -99 38 -99 102c0 101 65 166 140 166c46 0 83 -27 91 -70l11 66h25l-44 -260h-24zM157 277c66 0 115 68 115 141c0 54 -32 84 -77 84c-62 0 -116 -59 -116 -143c0 -51 31 -82 78 -82z" />
    </font>
</defs>
</svg>
