<?xml version="1.0" encoding="utf-8"?>
<svg width="317" height="186" version="1.1" id="Layer_1" xmlns="http://www.w3.org/2000/svg" xmlns:xlink="http://www.w3.org/1999/xlink" x="0px" y="0px"
	 viewBox="0 0 317 186" style="enable-background:new 0 0 317 186;" xml:space="preserve">
<style type="text/css">
	.st0{fill-rule:evenodd;clip-rule:evenodd;fill:#D51E00;}
	.st1{fill-rule:evenodd;clip-rule:evenodd;fill:#E8D7B0;}
	.st2{fill-rule:evenodd;clip-rule:evenodd;fill:#39B54A;}
	.st3{fill:#F4E3BF;}
</style>
<desc>Created with Sketch.</desc>
<g id="italian">
	<polygon id="Rectangle-3" class="st0" points="186.1,186 165.4,186 165.4,183.7 186.1,183.7 	"/>
	<polygon id="Rectangle-3-Copy" class="st1" points="165.4,186 144.8,186 144.8,183.7 165.4,183.7 	"/>
	<polygon id="Rectangle-3-Copy-2" class="st2" points="144.8,186 124.1,186 124.1,183.7 144.8,183.7 	"/>
</g>
<path id="hairdressing" d="M33.4,162.8H25v-1.4h0.2c0.8,0,0.9-0.3,0.9-0.7v-9.4h-16v9.4c0,0.2,0.1,0.4,0.2,0.5
	c0.1,0.1,0.3,0.2,0.5,0.2h0.2v1.4H2.8v-1.4h0.2c0.5,0,0.7-0.2,0.7-0.7v-23.2c0-0.5-0.2-0.7-0.7-0.7H2.8v-1.4h8.2v1.4h-0.2
	c-0.2,0-0.3,0.1-0.5,0.2c-0.1,0.1-0.2,0.3-0.2,0.5v8.5h16v-8.5c0-0.3-0.1-0.7-0.9-0.7H25v-1.4h8.4v1.4h-0.2c-0.2,0-0.3,0.1-0.5,0.2
	c-0.1,0.1-0.2,0.3-0.2,0.5v23.2c0,0.2,0.1,0.4,0.2,0.5c0.1,0.1,0.3,0.2,0.5,0.2h0.2V162.8z M25.5,162.3h7.4v-0.4
	c-0.2,0-0.4-0.1-0.5-0.3c-0.2-0.2-0.4-0.5-0.4-0.9v-23.2c0-0.4,0.1-0.7,0.4-0.9c0.2-0.1,0.3-0.2,0.5-0.3v-0.4h-7.4v0.4
	c1,0.1,1.1,0.8,1.1,1.2v9h-17v-9c0-0.4,0.1-0.7,0.4-0.9c0.2-0.1,0.3-0.2,0.5-0.3v-0.4H3.3v0.4c0.6,0.1,1,0.5,1,1.2v23.2
	c0,0.7-0.3,1.1-1,1.2v0.4h7.2v-0.4c-0.2,0-0.4-0.1-0.5-0.3c-0.2-0.2-0.4-0.5-0.4-0.9v-9.9h17v9.9c0,0.4-0.2,1.1-1.1,1.2V162.3z
	 M63.7,162.8h-7.8v-1.3h0.2c0.1,0,0.3,0,0.4-0.1c0.1,0,0.2-0.1,0.2-0.3c0-0.2,0-0.3-0.1-0.5c-0.1-0.2-0.2-0.4-0.3-0.7l-1.3-2.8H44.4
	l-1.4,2.6c-0.1,0.3-0.2,0.5-0.3,0.7c-0.1,0.2-0.1,0.4-0.1,0.5c0,0.2,0,0.3,0.1,0.3c0.1,0.1,0.3,0.1,0.6,0.1h0.2v1.4h-7.4v-1.4l0.2,0
	c0.3-0.1,0.6-0.2,0.8-0.5c0.2-0.3,0.4-0.6,0.6-0.9l7.6-16.6c0.2-0.5,0.4-0.9,0.5-1.1c0.1-0.3,0.2-0.5,0.2-0.7c0-0.1,0-0.2,0-0.2
	c-0.1,0-0.2-0.1-0.3-0.2l-0.1-0.1v-1.3h8.2v1.3l-0.1,0.1c-0.1,0.1-0.3,0.1-0.4,0.2c0,0,0,0.1,0,0.2c0,0.2,0.1,0.4,0.2,0.6
	c0.2,0.3,0.3,0.6,0.5,1l8.3,17.4c0.1,0.3,0.3,0.5,0.5,0.6c0.2,0.1,0.4,0.2,0.6,0.3l0.2,0.1V162.8z M56.4,162.3h6.8v-0.5
	c-0.2-0.1-0.4-0.2-0.6-0.3c-0.2-0.2-0.5-0.4-0.6-0.8l-8.3-17.4c-0.2-0.4-0.3-0.7-0.5-1c-0.2-0.3-0.3-0.6-0.3-0.9
	c0-0.5,0.2-0.6,0.4-0.7c0.1,0,0.1,0,0.2-0.1v-0.5h-7.2v0.5c0.1,0,0.1,0.1,0.2,0.1c0.2,0.1,0.2,0.5,0.2,0.6c0,0.3-0.1,0.6-0.2,0.9
	c-0.1,0.3-0.3,0.7-0.5,1.2l-7.6,16.6c-0.1,0.3-0.4,0.6-0.6,0.9c-0.2,0.3-0.6,0.5-0.9,0.6v0.5h6.4v-0.4c-0.2,0-0.4-0.1-0.6-0.1
	c-0.2-0.1-0.4-0.3-0.4-0.7c0-0.2,0-0.4,0.1-0.7c0.1-0.2,0.2-0.5,0.3-0.8l1.5-2.9h11.3l1.5,3.1c0.1,0.3,0.2,0.5,0.3,0.7
	c0.1,0.2,0.1,0.4,0.1,0.7c0,0.5-0.2,0.7-0.4,0.8c-0.1,0.1-0.3,0.1-0.4,0.2V162.3z M54,153.3h-8.6l4-9.5L54,153.3z M46.2,152.8h7
	l-3.7-7.7L46.2,152.8z M74.5,162.8h-8.3v-1.4h0.2c0.6,0,0.9-0.1,1-0.1c0.1,0,0.2-0.1,0.2-0.4v-19.1c0-0.2-0.1-0.3-0.2-0.4
	c-0.1-0.1-0.3-0.1-1-0.1h-0.2v-1.4h8.3v1.4h-0.2c-0.8,0-1.2,0.2-1.2,0.5v19.1c0,0.3,0.4,0.5,1.2,0.5h0.2V162.8z M66.7,162.3H74v-0.4
	c-1.2-0.1-1.4-0.6-1.4-1v-19.1c0-0.4,0.3-0.9,1.4-1v-0.4h-7.3v0.4c0.5,0,0.8,0.1,1,0.2c0.2,0.1,0.4,0.3,0.4,0.8v19.1
	c0,0.5-0.2,0.7-0.4,0.8c-0.2,0.1-0.5,0.2-1,0.2V162.3z M105.7,162.8h-8.3v-1.4h0.2c0.4,0,0.4-0.1,0.4-0.2c0-0.2-0.1-0.6-0.7-1.4
	l-4-5.9h-6.7v7.1c0,0.2,0.1,0.3,0.2,0.4c0.2,0.1,0.4,0.1,0.5,0.1h0.2v1.4h-7.3v-1.4h0.2c0.6,0,0.7-0.2,0.7-0.5v-19.1
	c0-0.3-0.1-0.5-0.7-0.5h-0.2v-1.4h14.4c3.1,0,5.5,0.5,7.2,1.5c1.8,1.1,2.7,2.9,2.7,5.4c0,1-0.2,1.8-0.5,2.6
	c-0.4,0.7-0.8,1.4-1.4,1.9c-0.6,0.5-1.2,1-1.9,1.3c-0.6,0.3-1.2,0.5-1.8,0.7l4.8,7c0.2,0.3,0.5,0.6,0.8,0.8c0.3,0.2,0.6,0.3,1,0.4
	l0.2,0V162.8z M97.9,162.3h7.3v-0.5c-0.3-0.1-0.6-0.2-0.9-0.4c-0.4-0.2-0.7-0.5-1-0.9l-5.2-7.6l0.4-0.1c0.7-0.2,1.4-0.4,2-0.7
	c0.7-0.3,1.3-0.7,1.8-1.2c0.5-0.5,1-1.1,1.3-1.8c0.3-0.7,0.5-1.5,0.5-2.4c0-2.3-0.8-4-2.4-4.9c-1.7-1-4-1.5-7-1.5H80.8v0.4
	c0.8,0.1,0.9,0.7,0.9,1v19.1c0,0.3-0.1,0.9-0.9,1v0.4h6.3v-0.4c-0.2,0-0.3-0.1-0.5-0.2c-0.3-0.2-0.5-0.4-0.5-0.8v-7.6h7.5l4.1,6.2
	c0.5,0.8,0.8,1.3,0.8,1.7c0,0.2-0.1,0.6-0.7,0.7V162.3z M94.5,150h-8.3v-6.4h8.3c1.8,0,3.1,0.3,3.9,0.8c0.9,0.5,1.3,1.3,1.3,2.2
	C99.8,148.8,98,150,94.5,150z M86.7,149.5h7.8c3.2,0,4.8-1,4.8-2.9c0-0.8-0.4-1.4-1.1-1.8c-0.8-0.5-2-0.7-3.7-0.7h-7.8V149.5z
	 M123.3,162.8h-14.7v-1.4h0.2c0.9,0,0.9-0.4,0.9-0.5v-19.1c0-0.2,0-0.5-0.9-0.5h-0.2v-1.4h14.5c2,0,3.8,0.3,5.3,1
	c1.5,0.7,2.7,1.5,3.6,2.6c0.9,1.1,1.6,2.3,2,3.7c0.4,1.4,0.7,2.8,0.7,4.2c0,1.5-0.2,2.9-0.6,4.2c-0.4,1.4-1.1,2.6-2,3.7
	c-0.9,1.1-2.1,1.9-3.5,2.6C127.1,162.4,125.3,162.8,123.3,162.8z M109.1,162.3h14.2c2,0,3.7-0.3,5-0.9c1.4-0.6,2.5-1.5,3.3-2.5
	c0.9-1,1.5-2.2,1.9-3.5c0.4-1.3,0.6-2.7,0.6-4.1c0-1.4-0.2-2.8-0.6-4.1c-0.4-1.3-1.1-2.5-1.9-3.5c-0.9-1-2-1.8-3.4-2.5
	c-1.4-0.6-3.1-1-5.1-1h-14v0.4c1,0.1,1.2,0.7,1.2,1v19.1c0,0.4-0.2,0.9-1.2,1V162.3z M121.6,159h-6.9v-15.5h6.9
	c1.1,0,2.1,0.1,3.1,0.2c1,0.1,1.9,0.4,2.6,1c0.8,0.5,1.4,1.3,1.8,2.3c0.4,1,0.7,2.4,0.7,4.1s-0.2,3.1-0.7,4.2c-0.4,1-1,1.9-1.8,2.4
	c-0.7,0.5-1.6,0.9-2.6,1.1C123.7,158.9,122.7,159,121.6,159z M115.2,158.5h6.4c1,0,2-0.1,3-0.2c0.9-0.1,1.7-0.5,2.4-1
	c0.7-0.5,1.2-1.2,1.6-2.2c0.4-1,0.6-2.3,0.6-4c0-1.7-0.2-3-0.6-3.9c-0.4-0.9-1-1.6-1.6-2.1c-0.7-0.5-1.5-0.8-2.4-0.9
	c-0.9-0.1-1.9-0.2-3-0.2h-6.4V158.5z M163.5,162.8h-8.3v-1.4h0.2c0.4,0,0.4-0.1,0.4-0.2c0-0.2-0.1-0.6-0.7-1.4l-4-5.9h-6.7v7.1
	c0,0.2,0.1,0.3,0.2,0.4c0.2,0.1,0.4,0.1,0.5,0.1h0.2v1.4h-7.3v-1.4h0.2c0.6,0,0.7-0.2,0.7-0.5v-19.1c0-0.3-0.1-0.5-0.7-0.5h-0.2
	v-1.4h14.4c3.1,0,5.5,0.5,7.2,1.5c1.8,1.1,2.7,2.9,2.7,5.4c0,1-0.2,1.8-0.5,2.6c-0.4,0.7-0.8,1.4-1.4,1.9c-0.6,0.5-1.2,1-1.9,1.3
	c-0.6,0.3-1.2,0.5-1.8,0.7l4.8,7c0.2,0.3,0.5,0.6,0.8,0.8c0.3,0.2,0.6,0.3,1,0.4l0.2,0V162.8z M155.7,162.3h7.3v-0.5
	c-0.3-0.1-0.6-0.2-0.9-0.4c-0.4-0.2-0.7-0.5-1-0.9l-5.2-7.6l0.4-0.1c0.7-0.2,1.4-0.4,2-0.7c0.7-0.3,1.3-0.7,1.8-1.2
	c0.5-0.5,1-1.1,1.3-1.8c0.3-0.7,0.5-1.5,0.5-2.4c0-2.3-0.8-4-2.4-4.9c-1.7-1-4-1.5-7-1.5h-13.9v0.4c0.8,0.1,0.9,0.7,0.9,1v19.1
	c0,0.3-0.1,0.9-0.9,1v0.4h6.3v-0.4c-0.2,0-0.3-0.1-0.5-0.2c-0.3-0.2-0.5-0.4-0.5-0.8v-7.6h7.5l4.1,6.2c0.5,0.8,0.8,1.3,0.8,1.7
	c0,0.2-0.1,0.6-0.7,0.7V162.3z M152.4,150h-8.3v-6.4h8.3c1.8,0,3.1,0.3,3.9,0.8c0.9,0.5,1.3,1.3,1.3,2.2
	C157.7,148.8,155.9,150,152.4,150z M144.6,149.5h7.8c3.2,0,4.8-1,4.8-2.9c0-0.8-0.4-1.4-1.1-1.8c-0.8-0.5-2-0.7-3.7-0.7h-7.8V149.5z
	 M188.9,163.3h-1.4v-0.2c0-0.2-0.1-0.3-0.2-0.3c-0.3,0-0.6,0-1,0h-19v-1.4h0.2c0.1,0,0.2,0,0.4-0.1c0,0,0.1-0.1,0.1-0.4v-19.1
	c0-0.3-0.1-0.4-0.1-0.4c-0.1-0.1-0.2-0.1-0.4-0.1h-0.2v-1.4h18.4c1.3,0,1.3-0.5,1.3-0.7v-0.2h1.4v6.2H187v-0.2c0-0.2,0-0.7-1.3-0.7
	h-12.2v4.6h7.6c0.6,0,1,0,1.2-0.1c0.1,0,0.2-0.1,0.2-0.5v-0.2h1.4v5.9h-1.6l0.1-0.3c0-0.1,0-0.2,0-0.3c0-0.1-0.1-0.1-0.2-0.1
	c-0.4-0.1-0.9-0.1-1.5-0.1h-7.2v5.5h12.9c0.4,0,0.7-0.1,0.9-0.2c0.2-0.1,0.3-0.3,0.3-0.5v-0.2h1.4V163.3z M187.9,162.8h0.5V158h-0.4
	c-0.1,0.3-0.2,0.5-0.5,0.7c-0.3,0.2-0.7,0.3-1.2,0.3h-13.4v-6.5h7.7c0.7,0,1.2,0,1.6,0.1c0.3,0.1,0.4,0.2,0.5,0.3
	c0.1,0.1,0.1,0.2,0.1,0.3h0.5v-4.9H183c-0.1,0.4-0.3,0.6-0.6,0.7c-0.3,0.1-0.7,0.1-1.4,0.1h-8.1v-5.6h12.7c1.3,0,1.7,0.5,1.8,1h0.4
	v-5.2h-0.4c-0.1,0.5-0.5,0.9-1.8,0.9h-17.9v0.5c0.1,0,0.3,0.1,0.4,0.2c0.2,0.1,0.4,0.3,0.4,0.8v19.1c0,0.4-0.2,0.7-0.4,0.8
	c-0.1,0.1-0.3,0.2-0.4,0.2v0.5h18.5c0.4,0,0.8,0,1.1,0.1C187.7,162.4,187.9,162.5,187.9,162.8z M203.2,162.9c-1.2,0-2.3-0.1-3.5-0.3
	c-1.1-0.2-2.2-0.5-3.1-0.8c-0.9-0.3-1.7-0.6-2.4-0.8c-0.9-0.3-1.1-0.4-1.1-0.4c-0.2,0-0.3,0.1-0.4,0.2l-0.1,0.2l-1.1-0.8l2.5-6.1
	l1.4,0.4v0.2c0,0.1,0,0.3,0,0.5c0,0.1,0,0.3,0,0.5c0,0.4,0.3,0.8,0.9,1.2c0.6,0.4,1.4,0.8,2.3,1c0.9,0.3,1.8,0.5,2.7,0.7
	c0.9,0.2,1.6,0.3,2.1,0.3c0.5,0,1.1,0,1.7-0.1c0.7-0.1,1.4-0.2,2-0.4c0.6-0.2,1.2-0.5,1.7-0.9c0.4-0.3,0.6-0.8,0.6-1.4
	c0-0.6-0.4-1.1-1.1-1.4c-0.8-0.3-1.9-0.6-3.1-0.8c-1.3-0.2-2.6-0.4-4.1-0.6c-1.5-0.2-2.9-0.5-4.1-0.9c-1.3-0.4-2.4-1.1-3.2-1.9
	c-0.9-0.8-1.3-2.1-1.3-3.6c0-2.3,0.9-4.1,2.8-5.4c1.8-1.3,4.5-2,7.8-2c1.6,0,3,0.1,4.2,0.4c1.2,0.3,2.1,0.5,2.9,0.9
	c0.8,0.3,1.4,0.6,1.9,0.9c0.6,0.3,0.9,0.4,1,0.4c0.3,0,0.4,0,0.5-0.1c0.1-0.1,0.3-0.2,0.5-0.3l0.2-0.1l0.8,0.8l-2.7,5.2l-1.3-0.4
	l0-0.1c0-0.2-0.1-0.4-0.1-0.6c0-0.1-0.1-0.3-0.4-0.5c-0.7-0.6-1.7-1-3.1-1.4c-1.4-0.4-3-0.6-4.7-0.6c-0.7,0-1.3,0-1.9,0.1
	c-0.6,0.1-1.1,0.2-1.6,0.4c-0.4,0.2-0.8,0.4-1,0.7c-0.2,0.3-0.4,0.6-0.4,1c0,0.6,0.4,1.1,1.1,1.4c0.8,0.3,1.9,0.6,3.1,0.8
	c1.3,0.2,2.7,0.4,4.1,0.6c1.5,0.2,2.9,0.5,4.1,1c1.3,0.5,2.4,1.1,3.2,2c0.9,0.9,1.3,2.1,1.3,3.7c0,1.6-0.4,2.8-1.2,3.8
	c-0.8,1-1.7,1.8-2.8,2.3c-1.1,0.6-2.4,0.9-3.7,1.1C205.7,162.8,204.4,162.9,203.2,162.9z M193.1,160.1c0.1,0,0.4,0,1.3,0.4
	c0.7,0.3,1.5,0.5,2.4,0.8c0.9,0.3,2,0.5,3.1,0.8c2.3,0.4,4.5,0.4,7.1,0.1c1.3-0.2,2.5-0.5,3.5-1.1c1.1-0.5,1.9-1.3,2.7-2.2
	c0.7-0.9,1-2.1,1-3.5c0-1.4-0.4-2.6-1.2-3.4c-0.8-0.8-1.8-1.5-3.1-1.9c-1.2-0.4-2.6-0.8-4-0.9c-1.4-0.2-2.8-0.4-4.1-0.6
	c-1.3-0.2-2.4-0.5-3.2-0.8c-0.9-0.4-1.4-1-1.4-1.8c0-0.5,0.2-1,0.5-1.4c0.3-0.4,0.7-0.6,1.2-0.9c0.5-0.2,1.1-0.4,1.7-0.5
	c0.6-0.1,1.3-0.1,2-0.1c1.8,0,3.4,0.2,4.9,0.6c1.5,0.4,2.6,0.9,3.3,1.5c0.3,0.2,0.5,0.5,0.5,0.8l0.1,0.5l0.6,0.2l2.4-4.5l-0.3-0.3
	c-0.1,0.1-0.2,0.1-0.3,0.2c-0.2,0.1-0.4,0.2-0.7,0.2c-0.3,0-0.7-0.1-1.2-0.4c-0.5-0.2-1.1-0.5-1.9-0.8c-0.8-0.3-1.7-0.6-2.9-0.8
	c-1.1-0.3-2.5-0.4-4.1-0.4c-3.2,0-5.7,0.6-7.5,1.9c-1.8,1.3-2.6,2.9-2.6,5c0,1.4,0.4,2.5,1.2,3.2c0.8,0.8,1.8,1.4,3.1,1.8
	c1.2,0.4,2.6,0.7,4,0.9c1.5,0.2,2.8,0.4,4.1,0.6c1.3,0.2,2.4,0.5,3.2,0.8c0.9,0.4,1.4,1,1.4,1.9c0,0.7-0.3,1.3-0.8,1.8
	c-0.5,0.4-1.1,0.7-1.8,1c-0.7,0.2-1.4,0.4-2.1,0.4c-0.7,0.1-1.3,0.1-1.8,0.1c-0.5,0-1.3-0.1-2.2-0.3c-0.9-0.2-1.8-0.4-2.7-0.7
	c-0.9-0.3-1.7-0.7-2.4-1.1c-0.7-0.5-1.1-1-1.1-1.6c0-0.2,0-0.4,0-0.5c0-0.1,0-0.1,0-0.2l-0.6-0.1l-2.2,5.3l0.4,0.3
	C192.6,160.2,192.9,160.1,193.1,160.1z M229.3,162.9c-1.2,0-2.3-0.1-3.5-0.3c-1.1-0.2-2.2-0.5-3.2-0.8c-0.9-0.3-1.7-0.6-2.4-0.8
	c-0.9-0.3-1.1-0.4-1.1-0.4c-0.2,0-0.3,0.1-0.4,0.2l-0.1,0.2l-1.1-0.8l2.5-6.1l1.4,0.4v0.2c0,0.1,0,0.3,0,0.5c0,0.1,0,0.3,0,0.5
	c0,0.4,0.3,0.8,0.9,1.2c0.6,0.4,1.4,0.8,2.3,1c0.9,0.3,1.8,0.5,2.7,0.7c0.9,0.2,1.6,0.3,2.1,0.3c0.5,0,1.1,0,1.7-0.1
	c0.7-0.1,1.4-0.2,2-0.4c0.6-0.2,1.2-0.5,1.7-0.9c0.4-0.3,0.6-0.8,0.6-1.4c0-0.6-0.4-1.1-1.1-1.4c-0.8-0.3-1.9-0.6-3.1-0.8
	c-1.3-0.2-2.6-0.4-4.1-0.6c-1.5-0.2-2.9-0.5-4.1-0.9c-1.3-0.4-2.4-1.1-3.2-1.9c-0.9-0.8-1.3-2.1-1.3-3.6c0-2.3,0.9-4.1,2.8-5.4
	c1.8-1.3,4.5-2,7.8-2c1.6,0,3,0.1,4.2,0.4c1.2,0.3,2.1,0.5,2.9,0.9c0.8,0.3,1.4,0.6,1.9,0.9c0.6,0.3,0.8,0.4,1,0.4
	c0.3,0,0.4,0,0.5-0.1c0.1-0.1,0.3-0.2,0.5-0.3l0.2-0.1l0.8,0.8l-2.7,5.2L237,147l-0.1-0.8c0-0.1-0.1-0.3-0.4-0.5
	c-0.7-0.6-1.7-1-3.1-1.4c-1.4-0.4-3-0.6-4.7-0.6c-0.7,0-1.3,0-1.9,0.1c-0.6,0.1-1.1,0.2-1.6,0.4c-0.4,0.2-0.8,0.4-1,0.7
	c-0.2,0.3-0.4,0.6-0.4,1c0,0.6,0.4,1.1,1.1,1.4c0.8,0.3,1.9,0.6,3.1,0.8c1.3,0.2,2.7,0.4,4.1,0.6c1.5,0.2,2.9,0.5,4.1,1
	c1.3,0.5,2.4,1.1,3.2,2c0.9,0.9,1.3,2.1,1.3,3.7c0,1.6-0.4,2.8-1.2,3.8c-0.8,1-1.7,1.8-2.8,2.3c-1.1,0.6-2.4,0.9-3.7,1.1
	C231.8,162.8,230.5,162.9,229.3,162.9z M219.2,160.1c0.1,0,0.4,0,1.3,0.4c0.7,0.3,1.4,0.5,2.4,0.8c0.9,0.3,2,0.5,3.1,0.8
	c2.3,0.4,4.5,0.4,7.1,0.1c1.3-0.2,2.5-0.5,3.5-1.1c1.1-0.5,1.9-1.3,2.7-2.2c0.7-0.9,1-2.1,1-3.5c0-1.4-0.4-2.6-1.2-3.4
	c-0.8-0.8-1.8-1.5-3.1-1.9c-1.2-0.4-2.6-0.8-4-0.9c-1.4-0.2-2.8-0.4-4.1-0.6c-1.3-0.2-2.4-0.5-3.2-0.8c-0.9-0.4-1.4-1-1.4-1.8
	c0-0.5,0.2-1,0.5-1.4c0.3-0.4,0.7-0.6,1.2-0.9c0.5-0.2,1.1-0.4,1.7-0.5c0.6-0.1,1.3-0.1,2-0.1c1.8,0,3.4,0.2,4.9,0.6
	c1.5,0.4,2.6,0.9,3.3,1.5c0.3,0.2,0.5,0.5,0.5,0.8l0.1,0.5l0.6,0.2l2.4-4.5L240,142c-0.1,0.1-0.2,0.1-0.3,0.2
	c-0.2,0.1-0.4,0.2-0.7,0.2c-0.3,0-0.7-0.1-1.2-0.4c-0.5-0.2-1.1-0.5-1.9-0.8c-0.8-0.3-1.7-0.6-2.9-0.8c-1.1-0.3-2.5-0.4-4.1-0.4
	c-3.2,0-5.7,0.6-7.5,1.9c-1.8,1.3-2.6,2.9-2.6,5c0,1.4,0.4,2.5,1.2,3.2c0.8,0.8,1.8,1.4,3.1,1.8c1.2,0.4,2.6,0.7,4,0.9
	c1.5,0.2,2.8,0.4,4.1,0.6c1.3,0.2,2.4,0.5,3.2,0.8c0.9,0.4,1.4,1,1.4,1.9c0,0.7-0.3,1.3-0.8,1.8c-0.5,0.4-1.1,0.7-1.8,1
	c-0.7,0.2-1.4,0.4-2.1,0.4c-0.7,0.1-1.3,0.1-1.8,0.1c-0.5,0-1.3-0.1-2.2-0.3c-0.9-0.2-1.8-0.4-2.7-0.7c-0.9-0.3-1.7-0.7-2.4-1.1
	c-0.7-0.5-1.1-1-1.1-1.6c0-0.2,0-0.4,0-0.5c0-0.1,0-0.1,0-0.2l-0.6-0.1l-2.2,5.3l0.4,0.3C218.8,160.2,219,160.1,219.2,160.1z
	 M254.3,162.8H246v-1.4h0.2c0.6,0,0.9-0.1,1-0.1c0.1,0,0.2-0.1,0.2-0.4v-19.1c0-0.2-0.1-0.3-0.2-0.4c-0.1-0.1-0.4-0.1-1-0.1H246
	v-1.4h8.3v1.4H254c-0.8,0-1.2,0.2-1.2,0.5v19.1c0,0.3,0.4,0.5,1.2,0.5h0.2V162.8z M246.5,162.3h7.3v-0.4c-1.2-0.1-1.4-0.6-1.4-1
	v-19.1c0-0.4,0.3-0.9,1.4-1v-0.4h-7.3v0.4c0.5,0,0.8,0.1,1,0.2c0.2,0.1,0.4,0.3,0.4,0.8v19.1c0,0.5-0.2,0.7-0.4,0.8
	c-0.2,0.1-0.5,0.2-1,0.2V162.3z M286.5,162.8h-7.2v-1.4h0.2c0.1,0,0.1,0,0.1,0h0c0,0-0.1-0.1-0.4-0.5c-0.3-0.3-0.7-0.7-1.1-1.2
	l-12.3-13.1v14.3c0,0.2,0,0.5,0.8,0.5h0.2v1.4h-6.8v-1.4h0.2c0.6,0,0.7-0.2,0.7-0.5v-19.1c0-0.3-0.1-0.5-0.7-0.5h-0.2v-1.4h8v1.4
	l-0.2,0c-0.1,0-0.2,0-0.2,0c0,0,0.1,0.2,1.1,1.2l11.9,12.6v-13.2c0-0.2,0-0.5-0.8-0.5h-0.2v-1.4h6.7v1.4h-0.2
	c-0.6,0-0.7,0.2-0.7,0.5v19.1c0,0.3,0.1,0.5,0.7,0.5h0.2V162.8z M279.9,162.3h6.2v-0.4c-0.8-0.1-0.9-0.7-0.9-1v-19.1
	c0-0.3,0.1-0.9,0.9-1v-0.4h-5.7v0.4c0.9,0.1,1,0.7,1,1v14.5l-12.7-13.5c-1.1-1.1-1.2-1.4-1.2-1.6c0-0.1,0.1-0.3,0.4-0.5v-0.5h-7v0.4
	c0.8,0.1,0.9,0.7,0.9,1v19.1c0,0.3-0.1,0.9-0.9,1v0.4h5.8v-0.4c-0.9-0.1-1.1-0.7-1.1-1v-15.5l13.1,14c0.4,0.4,0.8,0.8,1.1,1.2
	c0.5,0.5,0.6,0.7,0.6,0.9c0,0.2-0.1,0.4-0.4,0.5V162.3z M304.3,162.9c-2.2,0-4.3-0.3-6.1-0.8c-1.8-0.5-3.4-1.3-4.6-2.3
	c-1.3-1-2.3-2.3-2.9-3.7c-0.7-1.4-1-3.1-1-4.9s0.3-3.5,1-4.9c0.7-1.4,1.7-2.7,2.9-3.7c1.3-1,2.8-1.8,4.6-2.3
	c1.8-0.5,3.9-0.8,6.1-0.8c1.3,0,2.5,0.1,3.6,0.4c1,0.2,1.9,0.5,2.7,0.8c0.8,0.3,1.4,0.5,1.9,0.8c0.5,0.3,0.8,0.3,1,0.3
	c0.3,0,0.5,0,0.5-0.1c0.1,0,0.2-0.1,0.4-0.3l0.1-0.1l1,0.5l-3.2,6l-1-0.6l0-0.2c0.1-0.3,0.1-0.5,0.1-0.5c0-0.2-0.2-0.5-0.6-0.8
	c-0.4-0.3-1-0.7-1.7-1c-0.7-0.3-1.5-0.5-2.4-0.7c-2.1-0.4-4.3-0.3-6.2,0.2c-1.1,0.3-2.1,0.7-2.9,1.3c-0.8,0.6-1.5,1.4-2,2.3
	c-0.5,0.9-0.7,2.1-0.7,3.5c0,1.4,0.3,2.6,0.8,3.5c0.5,0.9,1.2,1.7,2,2.3c0.8,0.6,1.8,1,2.8,1.3c1,0.3,2,0.4,3,0.4
	c1.4,0,2.8-0.1,4.1-0.3c1.2-0.2,2.4-0.6,3.4-1.1v-2.8h-5c-0.3,0-0.6,0.1-0.9,0.2c-0.2,0.1-0.3,0.3-0.4,0.7l0,0.2h-1.4v-5.8h1.4
	l0,0.2c0.1,0.3,0.2,0.4,0.4,0.5c0.2,0.1,0.5,0.1,0.9,0.1h10.3v1.3l-0.1,0.1c-0.3,0.1-0.5,0.3-0.5,0.4c-0.1,0.1-0.1,0.3-0.1,0.6v4.9
	c0,0.4,0.1,0.5,0.1,0.5c0,0,0.1,0.1,0.5,0.3l0.2,0.1v0.9l-0.1,0.1c-0.3,0.2-0.8,0.5-1.5,0.9c-0.7,0.4-1.5,0.7-2.5,1.1
	c-1,0.3-2.2,0.6-3.5,0.9C307.5,162.8,305.9,162.9,304.3,162.9z M304.3,139.9c-2.2,0-4.2,0.3-5.9,0.8c-1.8,0.5-3.3,1.3-4.5,2.3
	c-1.2,1-2.2,2.2-2.8,3.5c-0.6,1.4-1,3-1,4.7s0.3,3.4,1,4.7c0.6,1.4,1.6,2.6,2.8,3.5c1.2,1,2.7,1.7,4.5,2.2c1.8,0.5,3.8,0.7,6,0.7
	c1.6,0,3.1-0.1,4.4-0.3c1.3-0.2,2.5-0.5,3.5-0.8c1-0.3,1.8-0.7,2.5-1c0.6-0.3,1-0.6,1.3-0.8v-0.3c-0.3-0.1-0.5-0.3-0.6-0.4
	c-0.1-0.2-0.2-0.4-0.2-0.8v-4.9c0-0.4,0.1-0.7,0.2-0.9c0.1-0.2,0.3-0.3,0.6-0.5v-0.5h-9.8c-0.4,0-0.8-0.1-1.1-0.2
	c-0.2-0.1-0.5-0.3-0.6-0.7H304v4.8h0.5c0.1-0.4,0.3-0.6,0.6-0.8c0.3-0.2,0.7-0.3,1.1-0.3h5.5v3.6l-0.1,0.1c-1.1,0.6-2.4,1-3.7,1.2
	c-1.3,0.2-2.7,0.3-4.2,0.3c-1,0-2.1-0.1-3.1-0.4c-1.1-0.3-2.1-0.7-3-1.3c-0.9-0.6-1.6-1.4-2.2-2.4c-0.6-1-0.9-2.3-0.9-3.7
	c0-1.5,0.3-2.7,0.8-3.8c0.5-1,1.2-1.9,2.1-2.5c0.9-0.6,1.9-1.1,3.1-1.4c2-0.5,4.3-0.6,6.4-0.2c0.9,0.2,1.8,0.4,2.5,0.8
	c0.7,0.3,1.3,0.7,1.8,1c0.5,0.4,0.8,0.8,0.8,1.2c0,0,0,0.1-0.1,0.4l0.2,0.1l2.7-5.1l-0.2-0.1c-0.2,0.1-0.3,0.2-0.5,0.3
	c-0.2,0.1-0.4,0.1-0.7,0.1c-0.3,0-0.7-0.1-1.2-0.4c-0.5-0.2-1.1-0.5-1.9-0.8c-0.7-0.3-1.6-0.5-2.6-0.8
	C306.8,140.1,305.6,139.9,304.3,139.9z M24.3,135.4c0-0.6-0.4-0.9-1.1-0.9v-0.9h7.9v0.9c-0.2,0-0.5,0.1-0.6,0.2
	c-0.2,0.2-0.3,0.4-0.3,0.7v23.2c0,0.3,0.1,0.5,0.3,0.7c0.2,0.2,0.4,0.2,0.6,0.2v0.9h-7.9v-0.9c0.8,0,1.1-0.3,1.1-0.9V149H7.8v9.6
	c0,0.3,0.1,0.5,0.3,0.7c0.2,0.2,0.4,0.2,0.6,0.2v0.9H1v-0.9c0.6,0,1-0.3,1-0.9v-23.2c0-0.6-0.3-0.9-1-0.9v-0.9h7.7v0.9
	c-0.2,0-0.5,0.1-0.6,0.2c-0.2,0.2-0.3,0.4-0.3,0.7v8.7h16.5V135.4z M34.4,159.5c0.4-0.1,0.7-0.3,1-0.6c0.3-0.3,0.5-0.6,0.6-0.9
	l7.6-16.6c0.2-0.5,0.4-0.9,0.5-1.2s0.2-0.6,0.2-0.8c0-0.2,0-0.3-0.1-0.4c-0.1-0.1-0.2-0.1-0.3-0.2v-0.9h7.7v0.9
	c-0.1,0.1-0.2,0.1-0.3,0.2c-0.1,0-0.2,0.2-0.2,0.4c0,0.2,0.1,0.5,0.2,0.7c0.2,0.3,0.3,0.6,0.5,1l8.3,17.4c0.2,0.3,0.4,0.5,0.6,0.7
	c0.2,0.1,0.4,0.2,0.7,0.3v0.9h-7.3v-0.8c0.2,0,0.3-0.1,0.5-0.2c0.2-0.1,0.3-0.3,0.3-0.6c0-0.2,0-0.4-0.1-0.6
	c-0.1-0.2-0.2-0.4-0.3-0.7l-1.4-2.9h-11l-1.4,2.8c-0.1,0.3-0.2,0.5-0.3,0.7c-0.1,0.2-0.1,0.4-0.1,0.6c0,0.3,0.1,0.4,0.3,0.5
	c0.2,0.1,0.4,0.1,0.7,0.1v0.9h-6.9V159.5z M51.5,151l-4.1-8.6l-3.6,8.6H51.5z M64.4,159.5c0.5,0,0.9-0.1,1.1-0.2
	c0.2-0.1,0.3-0.3,0.3-0.6v-19.1c0-0.3-0.1-0.5-0.3-0.6c-0.2-0.1-0.6-0.2-1.1-0.2v-0.9h7.8v0.9c-1,0-1.4,0.3-1.4,0.8v19.1
	c0,0.5,0.5,0.8,1.4,0.8v0.9h-7.8V159.5z M92.6,137.9c3,0,5.4,0.5,7.1,1.5c1.7,1,2.6,2.7,2.6,5.1c0,0.9-0.2,1.7-0.5,2.5
	c-0.3,0.7-0.8,1.3-1.4,1.9c-0.6,0.5-1.2,1-1.9,1.3c-0.7,0.3-1.4,0.6-2.1,0.7l5,7.3c0.3,0.4,0.6,0.7,0.9,0.8c0.3,0.2,0.7,0.3,1,0.4
	v0.9h-7.8v-0.9c0.4,0,0.7-0.2,0.7-0.5c0-0.3-0.3-0.9-0.8-1.6l-4-6h-7.1v7.3c0,0.3,0.1,0.5,0.3,0.6c0.2,0.1,0.4,0.2,0.6,0.2v0.9h-6.8
	v-0.9c0.6,0,0.9-0.3,0.9-0.8v-19.1c0-0.5-0.3-0.8-0.9-0.8v-0.9H92.6z M92.5,147.6c3.3,0,5-1.1,5-3.2c0-0.9-0.4-1.5-1.2-2
	c-0.8-0.5-2.1-0.7-3.8-0.7h-8.1v5.9H92.5z M106.8,159.5c0.8,0,1.2-0.3,1.2-0.8v-19.1c0-0.5-0.4-0.8-1.2-0.8v-0.9H121
	c2,0,3.7,0.3,5.2,1c1.4,0.6,2.6,1.5,3.5,2.5c0.9,1,1.6,2.2,2,3.6c0.4,1.3,0.6,2.7,0.6,4.2s-0.2,2.8-0.6,4.2s-1.1,2.5-1.9,3.6
	c-0.9,1-2,1.9-3.4,2.5c-1.4,0.6-3.1,1-5.1,1h-14.4V159.5z M119.5,156.7c1.1,0,2.1-0.1,3-0.2c1-0.2,1.8-0.5,2.5-1s1.3-1.3,1.7-2.3
	c0.4-1,0.6-2.4,0.6-4.1c0-1.7-0.2-3-0.6-4c-0.4-1-1-1.7-1.7-2.2c-0.7-0.5-1.6-0.8-2.5-0.9c-1-0.1-2-0.2-3-0.2h-6.7v15H119.5z
	 M150.4,137.9c3,0,5.4,0.5,7.1,1.5c1.7,1,2.6,2.7,2.6,5.1c0,0.9-0.2,1.7-0.5,2.5s-0.8,1.3-1.4,1.9c-0.6,0.5-1.2,1-1.9,1.3
	c-0.7,0.3-1.4,0.6-2.1,0.7l5,7.3c0.3,0.4,0.6,0.7,0.9,0.8s0.7,0.3,1,0.4v0.9h-7.8v-0.9c0.4,0,0.7-0.2,0.7-0.5c0-0.3-0.3-0.9-0.8-1.6
	l-4-6h-7.1v7.3c0,0.3,0.1,0.5,0.3,0.6c0.2,0.1,0.4,0.2,0.6,0.2v0.9h-6.8v-0.9c0.6,0,0.9-0.3,0.9-0.8v-19.1c0-0.5-0.3-0.8-0.9-0.8
	v-0.9H150.4z M150.3,147.6c3.3,0,5-1.1,5-3.2c0-0.9-0.4-1.5-1.2-2c-0.8-0.5-2.1-0.7-3.8-0.7h-8.1v5.9H150.3z M185.2,142.7
	c0-0.6-0.5-1-1.6-1h-12.5v5.1h7.9c0.6,0,1,0,1.3-0.1c0.3-0.1,0.4-0.3,0.4-0.7h0.9v5.4h-1c0.1-0.4,0-0.6-0.4-0.7s-0.9-0.1-1.6-0.1
	h-7.5v6h13.1c0.4,0,0.8-0.1,1-0.3c0.3-0.2,0.4-0.4,0.4-0.7h0.9v5.4h-0.9c0-0.3-0.1-0.5-0.4-0.5c-0.3,0-0.6-0.1-1-0.1h-18.8v-0.9
	c0.2,0,0.3-0.1,0.5-0.2c0.2-0.1,0.3-0.3,0.3-0.6v-19.1c0-0.3-0.1-0.5-0.3-0.6c-0.2-0.1-0.3-0.2-0.5-0.2v-0.9h18.2
	c1.1,0,1.6-0.3,1.6-0.9h0.9v5.7H185.2z M193,152.6c0,0.1,0,0.3,0,0.4c0,0.2,0,0.3,0,0.5c0,0.5,0.3,1,1,1.4c0.6,0.4,1.4,0.8,2.3,1.1
	s1.8,0.5,2.7,0.7c0.9,0.2,1.6,0.3,2.1,0.3c0.5,0,1.1,0,1.8-0.1s1.4-0.2,2.1-0.4c0.7-0.2,1.3-0.5,1.7-0.9c0.5-0.4,0.7-0.9,0.7-1.6
	c0-0.8-0.4-1.3-1.3-1.6c-0.8-0.3-1.9-0.6-3.1-0.8c-1.3-0.2-2.6-0.4-4.1-0.6c-1.5-0.2-2.8-0.5-4.1-0.9c-1.3-0.4-2.3-1-3.1-1.8
	c-0.8-0.8-1.3-1.9-1.3-3.4c0-2.2,0.9-3.9,2.7-5.2c1.8-1.3,4.4-1.9,7.6-1.9c1.6,0,3,0.1,4.1,0.4s2.1,0.5,2.9,0.8s1.4,0.6,1.9,0.8
	s0.9,0.4,1.1,0.4c0.3,0,0.5,0,0.6-0.1c0.1-0.1,0.3-0.2,0.5-0.3l0.6,0.6l-2.6,4.8l-0.9-0.3c0-0.2-0.1-0.4-0.1-0.6
	c0-0.2-0.2-0.4-0.5-0.6c-0.7-0.6-1.7-1.1-3.2-1.5c-1.4-0.4-3-0.6-4.8-0.6c-0.7,0-1.3,0-1.9,0.1s-1.2,0.2-1.6,0.4
	c-0.5,0.2-0.9,0.5-1.1,0.8c-0.3,0.3-0.4,0.7-0.4,1.2c0,0.8,0.4,1.3,1.3,1.6c0.8,0.3,1.9,0.6,3.1,0.8s2.6,0.4,4.1,0.6
	s2.8,0.5,4.1,0.9c1.3,0.4,2.3,1.1,3.1,1.9c0.8,0.9,1.3,2,1.3,3.5c0,1.5-0.4,2.7-1.1,3.7c-0.7,1-1.6,1.7-2.7,2.3
	c-1.1,0.5-2.3,0.9-3.6,1.1c-1.3,0.2-2.6,0.3-3.7,0.3c-1.2,0-2.3-0.1-3.5-0.3c-1.1-0.2-2.2-0.5-3.1-0.8c-0.9-0.3-1.7-0.6-2.4-0.8
	s-1-0.4-1.2-0.4c-0.2,0-0.4,0.1-0.6,0.3l-0.7-0.5l2.4-5.7L193,152.6z M219.1,152.6c0,0.1,0,0.3,0,0.4c0,0.2,0,0.3,0,0.5
	c0,0.5,0.3,1,1,1.4s1.4,0.8,2.3,1.1c0.9,0.3,1.8,0.5,2.7,0.7s1.6,0.3,2.1,0.3c0.5,0,1.1,0,1.8-0.1c0.7-0.1,1.4-0.2,2.1-0.4
	c0.7-0.2,1.3-0.5,1.7-0.9c0.5-0.4,0.7-0.9,0.7-1.6c0-0.8-0.4-1.3-1.3-1.6c-0.8-0.3-1.9-0.6-3.1-0.8c-1.3-0.2-2.6-0.4-4.1-0.6
	c-1.5-0.2-2.8-0.5-4.1-0.9s-2.3-1-3.1-1.8c-0.8-0.8-1.3-1.9-1.3-3.4c0-2.2,0.9-3.9,2.7-5.2c1.8-1.3,4.4-1.9,7.6-1.9
	c1.6,0,3,0.1,4.1,0.4c1.1,0.3,2.1,0.5,2.9,0.8c0.8,0.3,1.4,0.6,1.9,0.8c0.5,0.3,0.9,0.4,1.1,0.4c0.3,0,0.5,0,0.6-0.1
	c0.1-0.1,0.3-0.2,0.5-0.3l0.6,0.6L236,145l-0.9-0.3c0-0.2-0.1-0.4-0.1-0.6s-0.2-0.4-0.5-0.6c-0.7-0.6-1.7-1.1-3.2-1.5
	c-1.4-0.4-3-0.6-4.8-0.6c-0.7,0-1.3,0-1.9,0.1s-1.2,0.2-1.6,0.4c-0.5,0.2-0.9,0.5-1.1,0.8c-0.3,0.3-0.4,0.7-0.4,1.2
	c0,0.8,0.4,1.3,1.3,1.6c0.8,0.3,1.9,0.6,3.1,0.8c1.3,0.2,2.6,0.4,4.1,0.6c1.5,0.2,2.8,0.5,4.1,0.9s2.3,1.1,3.1,1.9
	c0.8,0.9,1.3,2,1.3,3.5c0,1.5-0.4,2.7-1.1,3.7c-0.7,1-1.6,1.7-2.7,2.3c-1.1,0.5-2.3,0.9-3.6,1.1c-1.3,0.2-2.6,0.3-3.7,0.3
	c-1.2,0-2.3-0.1-3.5-0.3c-1.1-0.2-2.2-0.5-3.1-0.8c-0.9-0.3-1.7-0.6-2.4-0.8s-1-0.4-1.2-0.4c-0.2,0-0.4,0.1-0.6,0.3l-0.7-0.5
	l2.4-5.7L219.1,152.6z M244.2,159.5c0.5,0,0.9-0.1,1.1-0.2c0.2-0.1,0.3-0.3,0.3-0.6v-19.1c0-0.3-0.1-0.5-0.3-0.6
	c-0.2-0.1-0.6-0.2-1.1-0.2v-0.9h7.8v0.9c-1,0-1.4,0.3-1.4,0.8v19.1c0,0.5,0.5,0.8,1.4,0.8v0.9h-7.8V159.5z M258.4,159.5
	c0.6,0,0.9-0.3,0.9-0.8v-19.1c0-0.5-0.3-0.8-0.9-0.8v-0.9h7.5v0.9c-0.2,0-0.4,0.1-0.4,0.3c0,0.2,0.4,0.6,1.1,1.4l12.3,13v-13.9
	c0-0.5-0.3-0.8-1-0.8v-0.9h6.2v0.9c-0.6,0-0.9,0.3-0.9,0.8v19.1c0,0.5,0.3,0.8,0.9,0.8v0.9h-6.7v-0.9c0.2,0,0.4-0.1,0.4-0.3
	c0-0.1-0.2-0.4-0.5-0.7c-0.3-0.3-0.7-0.7-1.1-1.2l-12.7-13.5v14.9c0,0.5,0.4,0.8,1.1,0.8v0.9h-6.3V159.5z M310.2,145.3l-0.6-0.4
	c0.1-0.3,0.1-0.5,0.1-0.6c0-0.3-0.2-0.6-0.7-1c-0.4-0.4-1-0.7-1.7-1s-1.5-0.6-2.4-0.7s-1.8-0.3-2.7-0.3c-1.3,0-2.5,0.1-3.6,0.4
	c-1.1,0.3-2.1,0.8-3,1.4s-1.5,1.4-2,2.4c-0.5,1-0.8,2.2-0.8,3.6s0.3,2.6,0.8,3.6c0.5,1,1.3,1.8,2.1,2.4c0.9,0.6,1.8,1,2.9,1.3
	c1.1,0.3,2.1,0.4,3.1,0.4c1.5,0,2.9-0.1,4.2-0.3c1.3-0.2,2.5-0.6,3.6-1.2v-3.2h-5.3c-0.4,0-0.7,0.1-1,0.2c-0.3,0.2-0.4,0.4-0.5,0.8
	h-0.9V148h0.9c0.1,0.3,0.2,0.6,0.5,0.7s0.6,0.2,1,0.2h10v0.9c-0.3,0.1-0.5,0.3-0.6,0.5s-0.2,0.4-0.2,0.8v4.9c0,0.3,0,0.5,0.1,0.6
	c0.1,0.1,0.3,0.2,0.6,0.4v0.6c-0.3,0.2-0.8,0.5-1.5,0.8c-0.7,0.4-1.5,0.7-2.5,1c-1,0.3-2.2,0.6-3.5,0.8c-1.3,0.2-2.8,0.3-4.5,0.3
	c-2.2,0-4.2-0.2-6-0.7c-1.8-0.5-3.3-1.2-4.6-2.2c-1.2-1-2.2-2.2-2.9-3.6c-0.7-1.4-1-3-1-4.8s0.3-3.4,1-4.8c0.7-1.4,1.6-2.6,2.9-3.6
	c1.2-1,2.8-1.8,4.6-2.3c1.8-0.5,3.8-0.8,6-0.8c1.3,0,2.5,0.1,3.5,0.4c1,0.2,1.9,0.5,2.7,0.8c0.8,0.3,1.4,0.5,1.9,0.8
	c0.5,0.2,0.8,0.4,1.1,0.4c0.3,0,0.5,0,0.6-0.1s0.3-0.2,0.5-0.3l0.6,0.3L310.2,145.3z"/>
<g id="bonnici">
	<path class="st3" d="M304.3,73.6C182.2,31.2,123.2,94.3,38.7,70.8c-8.7-2.4-22.6-5.3-36.2-2.2c0,0,19-17.6,26.5-18.4
		C13.8,41.6,7.5,19.4,7.5,19.4c109.4,51.8,196.2-46.8,307.7,21.5c0,0-27.2-1.9-35.3,3.9C295.7,54.6,304.3,73.6,304.3,73.6z
		 M170.2,67.7c46.5-5.3,90.2,6.9,95.8,7.1c5.6,0.2,10.7-1.7,2.7-5.8c-30.7-12.7-103.5-1.5-103.5-1.5S158.1,68.9,170.2,67.7z
		 M84.3,32c11.7-0.4,43.5-2.2,68.5-16.6c2.1-1.2,2.7-4.2,0.5-6c-1.9-1.5-5.7-1.3-7.6-0.2c-4.7,2.8-24.8,17.3-50.7,20.5
		C75.1,32.2,80.7,32.2,84.3,32z M70.2,30.6c25.6-2.3,37.3-7.8,42.5-10c4.4-1.9,16.9-10.8,12.2-16.9c-4.8-6.3-24.5-2-31.2,0.4
		C81.4,8.4,77.2,15.2,78.5,17.7c2.7,5.1,17.3,2.9,26.7-1.9c7.1-3.7,2.5-8.1-2-7.3c-4.2,0.8-6.2,4.1-4.9,6.2
		c-3.7,3.8-14.3,4.4-15.1,1c-1.2-5,14.5-10.5,22.5-11.9c8.1-1.4,14.5-0.6,15.1,3.3c1.3,8-13.9,14.6-30.4,18.6
		c-9.1,2.2-18.7,3.3-26.1,4.3C64.3,30,60.6,31.5,70.2,30.6z M46.3,48.8c0.4-1.9,0.7-3.4,1-4.5c0.2-1.1,0.5-1.8,0.7-2.3
		c0.2-0.5,0.5-0.7,0.7-0.8c0.2,0,0.6,0,1,0.1l0.6,0.1c0.1,0,0.2,0,0.2-0.1c0-0.1,0-0.2-0.2-0.2c-0.2,0-0.5-0.1-0.9-0.2
		c-0.4-0.1-0.7-0.1-1.1-0.2c-0.4-0.1-0.7-0.1-1-0.2c-0.3-0.1-0.5-0.1-0.6-0.1c-0.1,0-0.3-0.1-0.6-0.2c-0.3-0.1-0.7-0.2-1.1-0.3
		c-0.4-0.1-0.8-0.2-1.2-0.3c-0.4-0.1-0.7-0.2-0.9-0.2c-0.1,0-0.2,0-0.2,0.1c0,0.1,0,0.2,0.2,0.2l0.8,0.2c0.4,0.1,0.7,0.2,0.9,0.3
		c0.2,0.1,0.3,0.4,0.3,1c0,0.5-0.1,1.3-0.3,2.4c-0.2,1.1-0.5,2.6-0.9,4.6l-1.2,5.5c-0.4,2-0.8,3.7-1.2,5.1c-0.4,1.3-0.7,2.4-1,3.2
		c-0.3,0.8-0.7,1.5-1,1.9c-0.3,0.4-0.7,0.8-1.1,1.1c-0.2,0.1-0.4,0.2-0.6,0.2c-0.3,0-0.5,0-0.7,0c-0.1,0-0.4-0.1-0.8-0.2
		c-0.4-0.1-0.8-0.2-1.2-0.3c-0.3-0.1-0.5-0.1-0.6-0.1c-0.5,0-0.8,0.2-1.1,0.5c-0.3,0.3-0.4,0.7-0.5,1c0,0.2,0,0.3,0.1,0.5
		c0.1,0.2,0.3,0.3,0.6,0.4c0.1,0,0.2,0.1,0.3,0.1c0.1,0,0.2,0.1,0.4,0.1c0.1,0,0.3,0,0.6-0.1c0.3-0.1,0.5-0.2,0.8-0.3
		c0.3-0.1,0.6-0.3,0.9-0.4c0.3-0.2,0.5-0.3,0.7-0.4c1.1-0.7,2.1-1.3,2.9-1.9c0.8-0.6,1.5-1.2,2.1-1.9c0.6-0.7,1.1-1.6,1.5-2.6
		c0.4-1,0.8-2.3,1.1-3.9c0-0.2,0.1-0.5,0.2-0.8c0.1-0.3,0.1-0.6,0.2-0.9c0.1-0.3,0.1-0.6,0.2-0.9c0.1-0.3,0.1-0.5,0.2-0.7L46.3,48.8
		z M72.1,65.2c0.8-0.3,1.5-0.8,2.1-1.3c0.7-0.5,1.2-1.1,1.7-1.8c0.4-0.7,0.7-1.3,0.7-2c0-0.6,0-1.2-0.1-1.7s-0.3-1-0.6-1.4
		c-0.2-0.4-0.5-0.8-0.9-1.1c-0.3-0.3-0.7-0.7-1-1c0.3-0.3,0.5-0.6,0.7-0.9c0.2-0.3,0.5-0.6,0.9-0.9c0.1-0.1,0.2-0.2,0.1-0.2
		c-0.1,0-0.1,0-0.2,0c-0.2,0-0.6,0-1.2,0.1c-0.6,0-1.2,0-1.7,0l-4.4-0.3c-0.1,0-0.2,0.1-0.3,0.2c-0.1,0.1-0.3,0.3-0.4,0.5
		c-0.2,0.2-0.3,0.4-0.5,0.6c-0.2,0.2-0.3,0.4-0.5,0.5c-0.1,0.1-0.1,0.2,0.1,0.2c0.4,0,0.8,0,1.3,0c0.5,0,1.2,0.1,2.1,0.1l3.6,0.3
		c0.3,0.4,0.5,1.1,0.6,2s0.2,1.8,0.1,2.8c0,0.6-0.1,1.2-0.2,1.7c-0.1,0.6-0.2,1.1-0.4,1.5c-0.2,0.5-0.3,0.8-0.6,1.1
		c-0.2,0.3-0.5,0.4-0.8,0.4c-0.8-0.1-2-0.7-3.5-2.1c-1.5-1.3-3.3-3.3-5.5-6c-0.7-0.9-1.4-1.8-2.1-2.8c-0.7-0.9-1.3-1.8-1.8-2.6
		c-0.5-0.8-0.9-1.6-1.2-2.4c-0.3-0.8-0.4-1.4-0.4-2.1c0.1-1.2,0.5-2.1,1.3-2.8c0.8-0.6,1.8-0.9,3.2-0.8c0.8,0.1,1.5,0.3,2,0.6
		c0.6,0.4,1,0.9,1.4,1.5c0.4,0.6,0.6,1.3,0.8,2.1s0.3,1.7,0.3,2.6c0,0.3,0,0.4,0.2,0.4c0.1,0,0.2-0.1,0.2-0.4c0-0.7,0.1-1.3,0.2-2
		c0.1-0.6,0.1-1.2,0.2-1.8c0.1-0.6,0.2-1.2,0.3-1.7c-0.1-0.1-0.4-0.3-0.9-0.4c-0.4-0.2-0.9-0.3-1.5-0.5c-0.5-0.2-1.1-0.3-1.7-0.4
		c-0.6-0.1-1-0.2-1.4-0.2c-0.9,0-1.7,0.1-2.4,0.3c-0.7,0.2-1.4,0.6-2,1.1c-0.6,0.5-1,1.1-1.4,1.9c-0.4,0.7-0.6,1.6-0.6,2.5
		c0,0.7,0.2,1.5,0.8,2.6c0.6,1.1,1.3,2.2,2.2,3.5L59,54.6c-0.7,0-1.3,0.2-2,0.5c-0.7,0.3-1.3,0.7-1.8,1.2c-0.6,0.5-1,1-1.4,1.6
		c-0.4,0.6-0.6,1.2-0.6,1.8c0,0.6,0.1,1.2,0.3,1.8c0.2,0.6,0.6,1.2,1,1.7c0.4,0.5,0.9,0.9,1.4,1.2c0.5,0.3,1.1,0.5,1.6,0.6
		c0.6,0,1.3-0.1,2-0.4c0.7-0.3,1.3-0.7,1.9-1.1c0.6-0.4,1.2-0.9,1.6-1.4c0.5-0.5,0.8-0.9,1-1.2c1.4,1.6,2.6,2.7,3.6,3.5
		c1,0.8,1.8,1.2,2.4,1.2C70.7,65.7,71.4,65.5,72.1,65.2z M62.6,59.2c0.4,0.5,0.8,1,1.2,1.4c-0.6,0.9-1.2,1.6-2,2.1
		c-0.8,0.5-1.6,0.7-2.4,0.7c-0.4,0-0.9-0.2-1.4-0.5c-0.5-0.3-1-0.7-1.4-1.1c-0.4-0.5-0.8-1-1.1-1.6c-0.3-0.6-0.4-1.2-0.4-1.9
		c0.1-1.1,0.5-1.9,1.1-2.4c0.6-0.5,1.6-0.9,2.9-1.1c0.3,0.5,0.7,0.9,1,1.4c0.4,0.5,0.7,0.9,1.1,1.4C61.8,58.1,62.2,58.7,62.6,59.2z
		 M86.5,43.1c-0.9,0.3-1.7,0.8-2.3,1.4c-0.6,0.6-1.1,1.2-1.5,2c-0.3,0.8-0.5,1.6-0.4,2.6c0.1,0.9,0.3,1.6,0.8,2.2
		c0.4,0.6,1,1.1,1.7,1.6c0.7,0.4,1.5,0.8,2.3,1.1c0.9,0.3,1.7,0.6,2.6,0.9c0.8,0.3,1.7,0.6,2.5,0.9c0.8,0.3,1.5,0.6,2.2,1
		c0.6,0.4,1.2,0.9,1.6,1.4c0.4,0.5,0.6,1.2,0.7,2c0.1,1.3-0.2,2.3-1,3.2c-0.8,0.9-2,1.4-3.7,1.5c-1.3,0.1-2.5,0-3.4-0.3
		c-1-0.3-1.8-0.8-2.4-1.6c-0.7-0.7-1.2-1.6-1.5-2.8c-0.4-1.1-0.6-2.4-0.7-3.9c0-0.2-0.1-0.3-0.2-0.3c-0.1,0-0.2,0.1-0.2,0.4
		c0,0.4,0.1,1,0.1,1.7c0.1,0.8,0.1,1.6,0.2,2.4c0.1,0.8,0.1,1.6,0.2,2.4c0.1,0.8,0.1,1.3,0.1,1.7c0,0.1,0,0.2,0.1,0.2
		c0,0,0.1,0.1,0.3,0.1c0.6,0.1,1.1,0.2,1.7,0.3c0.5,0.1,1.1,0.1,1.7,0.2c0.6,0,1.2,0.1,1.9,0.1c0.7,0,1.4,0,2.3-0.1
		c1-0.1,1.8-0.3,2.7-0.6c0.8-0.4,1.5-0.8,2.1-1.4c0.6-0.6,1.1-1.3,1.4-2c0.3-0.8,0.4-1.6,0.4-2.5c-0.1-0.9-0.3-1.6-0.7-2.2
		c-0.4-0.6-1-1.1-1.6-1.6c-0.7-0.4-1.4-0.8-2.2-1.1c-0.8-0.3-1.7-0.6-2.5-0.9c-0.9-0.3-1.7-0.6-2.5-0.9c-0.8-0.3-1.5-0.7-2.2-1.1
		c-0.7-0.4-1.2-0.9-1.6-1.4c-0.4-0.5-0.6-1.2-0.7-2c0-0.6,0-1.2,0.2-1.7c0.2-0.5,0.5-1,0.9-1.4c0.4-0.4,1-0.8,1.6-1
		c0.7-0.3,1.5-0.4,2.5-0.5c1.5-0.1,2.7,0,3.6,0.4c0.9,0.4,1.7,0.9,2.2,1.7c0.5,0.7,0.9,1.6,1.1,2.7c0.2,1,0.4,2.2,0.4,3.4
		c0,0.2,0.1,0.3,0.2,0.3c0.1,0,0.2-0.1,0.1-0.3c-0.1-1.3-0.2-2.3-0.2-3.3c0-0.9-0.1-1.7-0.1-2.3c0-0.6,0-1.1,0-1.5
		c0-0.4,0-0.6-0.1-0.8c0-0.1-0.1-0.2-0.1-0.2c-0.1,0-0.1-0.1-0.2-0.1c-0.9-0.1-1.9-0.3-3-0.4c-1.1-0.1-2.4-0.1-4,0
		C88.3,42.6,87.4,42.8,86.5,43.1z M118.1,61.7c0.4-0.1,0.7-0.1,1.1-0.2c0.3-0.1,0.7-0.1,1-0.2c0.3-0.1,0.5-0.1,0.6-0.1
		c0.1,0,0.2,0,0.6-0.1c0.3-0.1,0.7-0.1,1.1-0.2c0.4-0.1,0.9-0.1,1.3-0.2c0.5-0.1,0.9-0.1,1.3-0.2c0.4-0.1,0.8-0.1,1.1-0.2
		s0.5-0.1,0.6-0.1c2.9-0.5,4.9-1.4,6-2.7c1.1-1.3,1.5-2.9,1.2-4.7c-0.1-0.8-0.5-1.6-0.9-2.1c-0.5-0.6-1.1-1.1-1.8-1.4
		c-0.7-0.4-1.5-0.6-2.5-0.7c-0.9-0.1-1.9-0.1-2.9,0c0.9-0.3,1.8-0.6,2.5-1c0.7-0.4,1.4-0.9,1.9-1.4c0.5-0.5,0.9-1.1,1.1-1.8
		c0.2-0.7,0.2-1.4,0.1-2.2c-0.2-1-0.5-1.8-1-2.4c-0.5-0.6-1.1-1-1.9-1.3c-0.8-0.3-1.7-0.4-2.8-0.4c-1.1,0-2.3,0.1-3.6,0.4
		c-0.1,0-0.5,0.1-1,0.2c-0.5,0.1-1.1,0.2-1.7,0.3c-0.6,0.1-1.1,0.2-1.7,0.3c-0.5,0.1-0.8,0.2-0.9,0.2c-0.1,0-0.3,0.1-0.6,0.1
		c-0.3,0-0.6,0.1-1,0.1c-0.3,0-0.7,0.1-1.1,0.2c-0.4,0.1-0.6,0.1-0.9,0.1c-0.1,0-0.2,0.1-0.2,0.2c0,0.1,0.1,0.1,0.2,0.1l0.6-0.1
		c0.4-0.1,0.7-0.1,0.9,0c0.2,0.1,0.5,0.3,0.7,0.8c0.2,0.5,0.4,1.3,0.6,2.3c0.2,1.1,0.5,2.6,0.8,4.5l1,5.5c0.3,1.9,0.6,3.4,0.7,4.5
		c0.2,1.1,0.2,1.9,0.2,2.4c0,0.5-0.2,0.9-0.4,1c-0.2,0.1-0.5,0.2-0.9,0.3l-0.6,0.1c-0.1,0-0.2,0.1-0.2,0.2c0,0.1,0.1,0.1,0.2,0.1
		C117.5,61.9,117.8,61.8,118.1,61.7z M119.7,47.4c-0.2-1.3-0.4-2.4-0.6-3.3c-0.2-0.9-0.3-1.6-0.4-2.2c-0.1-0.6-0.2-1-0.2-1.4
		c0-0.3,0-0.6,0.1-0.7c0.1-0.2,0.2-0.3,0.3-0.3c0.2,0,0.4-0.1,0.6-0.1l2.3-0.4c1-0.2,1.9-0.3,2.7-0.3c0.8,0,1.5,0.1,2,0.4
		c0.6,0.3,1,0.7,1.4,1.3c0.4,0.6,0.6,1.3,0.8,2.3c0.3,1.9,0,3.3-0.8,4.3c-0.9,1-2.3,1.6-4.3,1.9l-3.6,0.6L119.7,47.4z M123.6,60.5
		c-0.3,0-0.5,0.1-0.7,0.1c-0.2,0-0.4-0.1-0.5-0.2c-0.2-0.1-0.3-0.3-0.4-0.7c-0.1-0.3-0.3-0.8-0.4-1.3c-0.1-0.6-0.3-1.3-0.4-2.2
		c-0.2-0.9-0.4-2-0.6-3.3l-0.5-3.1l4-0.7c2.3-0.4,4-0.2,5.1,0.5c1.1,0.7,1.8,2,2.1,3.7c0.3,1.9,0.1,3.4-0.7,4.5
		c-0.8,1.1-2.2,1.8-4.3,2.2L123.6,60.5z M140.1,51.2c0.8,1.3,1.9,2.3,3,3.1c1.2,0.8,2.5,1.4,3.9,1.7c1.4,0.3,2.9,0.3,4.4,0.1
		c1.5-0.3,2.8-0.8,4.1-1.6c1.3-0.8,2.3-1.8,3.2-3c0.9-1.2,1.5-2.5,1.8-4c0.4-1.5,0.4-3,0.1-4.6c-0.3-1.6-0.9-3.1-1.7-4.3
		c-0.9-1.3-1.9-2.3-3.1-3.1c-1.2-0.8-2.5-1.4-4-1.7s-2.9-0.3-4.4-0.1c-1.5,0.3-2.9,0.8-4.1,1.6c-1.2,0.8-2.3,1.8-3.1,3
		c-0.8,1.2-1.4,2.5-1.8,4c-0.4,1.5-0.4,3.1-0.1,4.7C138.7,48.5,139.3,49.9,140.1,51.2z M141,41.8c0.2-1.4,0.5-2.7,1.1-3.8
		c0.6-1.1,1.3-2,2.3-2.7c0.9-0.7,2.1-1.2,3.4-1.5c1.3-0.2,2.5-0.2,3.6,0.2c1.1,0.4,2.1,0.9,3,1.8c0.9,0.8,1.6,1.9,2.2,3.2
		c0.6,1.3,1.1,2.7,1.4,4.3c0.3,1.6,0.4,3.1,0.2,4.5c-0.2,1.4-0.5,2.7-1.1,3.8c-0.6,1.1-1.3,2-2.3,2.7c-1,0.7-2.1,1.2-3.4,1.4
		c-1.3,0.2-2.5,0.2-3.6-0.2c-1.1-0.3-2.1-0.9-2.9-1.8c-0.9-0.8-1.6-1.9-2.2-3.2c-0.6-1.3-1.1-2.7-1.4-4.3
		C140.9,44.7,140.9,43.2,141,41.8z M163.4,31.2c0.5-0.1,1,0,1.4,0.1c0.4,0.1,0.8,0.4,1.2,0.7c0.2,0.2,0.4,0.3,0.5,0.5
		c0.1,0.2,0.2,0.3,0.2,0.4l1.7,11.4c0.3,1.9,0.4,3.4,0.5,4.4c0,1.1,0,1.9-0.1,2.4c-0.1,0.5-0.3,0.9-0.6,1.1
		c-0.3,0.2-0.6,0.3-0.9,0.3l-0.2,0c-0.1,0-0.2,0.1-0.2,0.2c0,0.1,0.1,0.1,0.2,0.1c0.4-0.1,0.9-0.2,1.4-0.3c0.5-0.1,0.9-0.2,1.1-0.2
		c0.1,0,0.4,0,0.7-0.1c0.4,0,0.8-0.1,1.2-0.1c0.4,0,0.9-0.1,1.3-0.2s0.8-0.1,1-0.1c0.1,0,0.2-0.1,0.1-0.2s-0.1-0.1-0.2-0.1l-0.4,0.1
		c-0.4,0.1-0.8,0.1-1.2,0c-0.4,0-0.8-0.3-1.2-0.7c-0.4-0.5-0.8-1.2-1.1-2.2c-0.4-1-0.7-2.5-1-4.5l-1.7-11.5l18.1,16.8
		c0.2,0.2,0.3,0.3,0.5,0.4c0.2,0.1,0.3,0.2,0.4,0.2c0.2,0,0.2-0.1,0.2-0.4l-2-13.5c-0.3-1.9-0.5-3.5-0.6-4.5s-0.1-1.9,0-2.4
		c0.1-0.5,0.2-0.9,0.5-1c0.2-0.1,0.6-0.2,0.9-0.3l0.2,0c0.1,0,0.2-0.1,0.2-0.2s-0.1-0.1-0.2-0.1c-0.5,0.1-0.9,0.2-1.4,0.3
		c-0.5,0.1-0.8,0.2-1.1,0.2c-0.1,0-0.4,0.1-0.7,0.1c-0.4,0-0.8,0.1-1.2,0.1c-0.4,0.1-0.9,0.1-1.3,0.2c-0.4,0.1-0.8,0.1-1,0.1
		c-0.1,0-0.2,0.1-0.2,0.2c0,0.1,0.1,0.1,0.2,0.1l0.4-0.1c0.4-0.1,0.8-0.1,1.2,0c0.4,0,0.9,0.3,1.3,0.7c0.4,0.5,0.8,1.2,1.2,2.2
		c0.4,1,0.7,2.5,1,4.5l1.5,9.9l-15.6-14.4c-0.3-0.3-0.6-0.5-0.9-0.8c-0.3-0.3-0.5-0.5-0.6-0.7c-0.1-0.1-0.2-0.2-0.3-0.1
		c-0.1,0-0.5,0.1-1.2,0.2c-0.7,0.1-1.9,0.3-3.5,0.6c-0.1,0-0.2,0.1-0.1,0.2c0,0.1,0.1,0.1,0.2,0.1L163.4,31.2z M189.7,27.4
		c0.6,0,1,0,1.4,0.2c0.4,0.2,0.8,0.4,1.2,0.8c0.2,0.2,0.4,0.4,0.4,0.5c0.1,0.2,0.1,0.3,0.1,0.4l0.8,11.5c0.1,1.9,0.2,3.4,0.2,4.5
		c0,1.1-0.1,1.9-0.3,2.4c-0.2,0.5-0.4,0.9-0.7,1c-0.3,0.2-0.6,0.2-1,0.3l-0.2,0c-0.1,0-0.2,0.1-0.2,0.2c0,0.1,0.1,0.1,0.2,0.1
		c0.4,0,0.9-0.1,1.5-0.2s0.9-0.1,1.1-0.1c0.1,0,0.4,0,0.7,0c0.4,0,0.8,0,1.2,0c0.4,0,0.9,0,1.3-0.1c0.4,0,0.8-0.1,1-0.1
		c0.1,0,0.2-0.1,0.1-0.2c0-0.1-0.1-0.1-0.2-0.1l-0.4,0c-0.4,0-0.8,0-1.2-0.1c-0.4-0.1-0.8-0.3-1.2-0.8c-0.4-0.5-0.7-1.3-1-2.3
		c-0.3-1.1-0.5-2.6-0.7-4.5l-0.9-11.5l16.9,18c0.1,0.2,0.3,0.3,0.5,0.4c0.2,0.1,0.3,0.2,0.4,0.2c0.2,0,0.2-0.1,0.2-0.3l-1-13.6
		c-0.2-2-0.2-3.5-0.3-4.6c0-1.1,0-1.9,0.2-2.4c0.1-0.5,0.3-0.8,0.6-1c0.3-0.1,0.6-0.2,1-0.2l0.2,0c0.1,0,0.2-0.1,0.2-0.2
		c0-0.1-0.1-0.1-0.2-0.1c-0.5,0-0.9,0.1-1.4,0.2c-0.5,0.1-0.8,0.1-1.1,0.1c-0.1,0-0.4,0-0.8,0c-0.4,0-0.8,0-1.2,0.1
		c-0.4,0-0.9,0-1.3,0.1c-0.4,0-0.8,0-1,0.1c-0.1,0-0.2,0.1-0.2,0.2c0,0.1,0.1,0.1,0.2,0.1l0.4,0c0.4,0,0.8,0,1.2,0.1
		c0.4,0.1,0.9,0.3,1.3,0.8c0.4,0.5,0.8,1.3,1.1,2.3c0.3,1.1,0.6,2.6,0.7,4.5l0.8,10l-14.6-15.5c-0.3-0.3-0.5-0.6-0.8-0.9
		c-0.3-0.3-0.4-0.5-0.6-0.7c-0.1-0.1-0.2-0.2-0.3-0.2c-0.1,0-0.5,0.1-1.2,0.2c-0.7,0.1-1.9,0.2-3.5,0.3c-0.1,0-0.2,0.1-0.2,0.1
		c0,0.1,0.1,0.1,0.2,0.1L189.7,27.4z M219.6,39.3c0,2,0,3.5,0,4.6c0,1.1-0.1,1.9-0.2,2.4c-0.1,0.5-0.3,0.8-0.5,0.9
		c-0.2,0.1-0.5,0.1-0.9,0.2l-0.7,0c-0.1,0-0.2,0-0.2,0.1c0,0.1,0.1,0.1,0.2,0.1c0.2,0,0.5,0,0.9,0c0.4,0,0.7,0,1.1,0
		c0.4,0,0.7,0,1,0c0.3,0,0.5,0,0.6,0c0.1,0,0.3,0,0.6,0c0.3,0,0.6,0,1,0c0.4,0,0.7,0,1.1,0c0.4,0,0.6,0,0.9,0c0.1,0,0.2,0,0.2-0.1
		c0-0.1-0.1-0.1-0.2-0.1l-0.7,0c-0.4,0-0.7,0-0.9-0.1c-0.2-0.1-0.4-0.4-0.5-0.9c-0.1-0.5-0.2-1.3-0.2-2.4c0-1.1-0.1-2.6-0.1-4.6
		l0-5.6c0-2,0-3.5,0-4.6c0-1.1,0.1-1.9,0.2-2.4c0.1-0.5,0.3-0.8,0.5-0.9c0.2-0.1,0.5-0.1,0.9-0.2l0.7,0c0.1,0,0.2,0,0.2-0.1
		c0-0.1-0.1-0.1-0.2-0.1c-0.2,0-0.5,0-0.9,0c-0.4,0-0.7,0-1.1,0c-0.4,0-0.7,0-1,0c-0.3,0-0.5,0-0.6,0c-0.1,0-0.3,0-0.6,0
		c-0.3,0-0.7,0-1,0c-0.4,0-0.7,0-1.1,0c-0.4,0-0.7,0-0.9,0c-0.1,0-0.2,0-0.2,0.1c0,0.1,0.1,0.1,0.2,0.1l0.7,0c0.4,0,0.7,0,0.9,0.1
		c0.2,0.1,0.4,0.4,0.5,0.9c0.1,0.5,0.2,1.3,0.2,2.4s0.1,2.6,0.1,4.6L219.6,39.3z M233.4,32.1c0.6-1.3,1.3-2.4,2.1-3.4
		c0.9-0.9,1.9-1.6,3.1-2c1.2-0.5,2.5-0.6,4-0.5c2.5,0.2,4.3,1,5.5,2.5c1.2,1.5,1.8,3.5,1.9,6.1l0.3,0l0.1-7
		c-0.4-0.2-0.9-0.4-1.6-0.7c-0.6-0.2-1.3-0.4-2-0.6c-0.7-0.2-1.4-0.3-2.2-0.5c-0.8-0.1-1.5-0.2-2.1-0.3c-1.6-0.1-3.2,0-4.7,0.5
		c-1.5,0.5-2.9,1.1-4.1,2.1c-1.2,0.9-2.2,2.1-2.9,3.4c-0.8,1.4-1.2,2.9-1.3,4.5c-0.1,1.6,0.1,3.2,0.6,4.6c0.5,1.4,1.3,2.7,2.3,3.8
		c1,1.1,2.2,2,3.7,2.7c1.4,0.7,3,1.1,4.7,1.2c1.7,0.1,3.3,0.1,4.7-0.1c1.4-0.2,2.6-0.4,3.5-0.7l0.9-7.4l-0.3,0
		c-0.2,1.3-0.6,2.4-1,3.4c-0.5,1-1.1,1.9-1.8,2.6c-0.7,0.7-1.6,1.2-2.6,1.5c-1,0.3-2.2,0.4-3.5,0.3c-1.4-0.1-2.7-0.5-3.8-1.1
		c-1.1-0.6-2-1.4-2.7-2.5c-0.7-1-1.2-2.3-1.5-3.6c-0.3-1.4-0.4-2.9-0.3-4.5C232.6,35,232.9,33.5,233.4,32.1z M257.9,42
		c-0.3,1.9-0.6,3.4-0.8,4.5c-0.2,1.1-0.4,1.8-0.6,2.3c-0.2,0.5-0.4,0.8-0.7,0.8c-0.2,0.1-0.6,0.1-0.9,0l-0.7-0.1
		c-0.1,0-0.2,0-0.2,0.1c0,0.1,0,0.2,0.2,0.2c0.2,0,0.5,0.1,0.9,0.1c0.4,0.1,0.7,0.1,1.1,0.1c0.4,0.1,0.7,0.1,1,0.1
		c0.3,0,0.5,0.1,0.6,0.1c0.1,0,0.3,0.1,0.6,0.1c0.3,0.1,0.6,0.1,1,0.2c0.4,0.1,0.7,0.1,1.1,0.2c0.3,0.1,0.6,0.1,0.9,0.2
		c0.1,0,0.2,0,0.2-0.1c0-0.1,0-0.2-0.2-0.2l-0.7-0.1c-0.4-0.1-0.7-0.2-0.9-0.3c-0.2-0.1-0.3-0.5-0.4-1s0-1.3,0.2-2.4
		c0.1-1.1,0.4-2.6,0.7-4.5l0.9-5.5c0.3-1.9,0.6-3.4,0.8-4.5c0.2-1.1,0.4-1.8,0.6-2.3c0.2-0.5,0.4-0.8,0.7-0.8c0.2-0.1,0.6-0.1,0.9,0
		l0.7,0.1c0.1,0,0.2,0,0.2-0.1c0-0.1,0-0.2-0.2-0.2c-0.2,0-0.5-0.1-0.9-0.1c-0.3,0-0.7-0.1-1.1-0.1c-0.4,0-0.7-0.1-1-0.1
		c-0.3,0-0.5-0.1-0.6-0.1c-0.1,0-0.3-0.1-0.6-0.1c-0.3-0.1-0.6-0.1-1-0.2c-0.4-0.1-0.7-0.1-1.1-0.2c-0.4-0.1-0.7-0.1-0.9-0.2
		c-0.1,0-0.2,0-0.2,0.1c0,0.1,0,0.2,0.2,0.2l0.7,0.1c0.4,0.1,0.7,0.2,0.9,0.3c0.2,0.1,0.3,0.5,0.4,1s0,1.3-0.2,2.4
		c-0.1,1.1-0.4,2.6-0.7,4.5L257.9,42z"/>
</g>
<path id="mens" d="M82.4,129.4H65.1V127h0.2c2.6,0,2.6-1.3,2.6-1.7v-35l-21.4,39.1H46l-0.1-0.1L25.1,90.2v35.1c0,0.4,0,1.7,2.8,1.7
	h0.2v2.4H11.5V127h0.2c0.5,0,1-0.1,1.4-0.4c0.4-0.3,0.5-0.7,0.5-1.2V76.4c0-0.6-0.2-0.9-0.5-1.1c-0.4-0.2-0.9-0.3-1.4-0.3h-0.2v-2.4
	H32V75h-0.2c-0.3,0-0.7,0.1-1,0.3c-0.3,0.2-0.5,0.4-0.5,0.7c0,0.3,0.1,0.7,0.4,1.3c0.3,0.6,0.6,1.2,1,1.8l15.1,27.5L62,79.4
	c0.5-0.9,0.9-1.6,1.1-2.2c0.2-0.5,0.4-1,0.4-1.3c0-0.4-0.1-0.9-1.1-0.9h-0.2v-2.4h20.3V75h-0.2c-0.5,0-1,0.1-1.4,0.3
	c-0.3,0.2-0.5,0.6-0.5,1.1v48.9c0,0.6,0.2,1,0.5,1.2c0.4,0.3,0.8,0.4,1.4,0.4h0.2V129.4z M65.6,128.9h16.3v-1.4
	c-0.5,0-1-0.2-1.4-0.5c-0.5-0.4-0.7-0.9-0.7-1.6V76.4c0-0.7,0.3-1.3,0.8-1.6c0.4-0.2,0.9-0.4,1.4-0.4V73H62.6v1.4
	c1.2,0.1,1.4,0.9,1.4,1.4c0,0.5-0.1,1-0.4,1.6c-0.3,0.5-0.6,1.3-1.1,2.2l-15.7,27.9L31.2,79.3c-0.4-0.6-0.7-1.3-1-1.8
	c-0.3-0.6-0.5-1.1-0.5-1.5c0-0.5,0.2-0.9,0.7-1.2c0.3-0.2,0.7-0.3,1-0.3V73H12v1.4c0.5,0,1,0.2,1.4,0.4c0.5,0.3,0.8,0.8,0.8,1.6
	v48.9c0,0.7-0.2,1.3-0.7,1.6c-0.4,0.3-0.9,0.5-1.4,0.5v1.4h15.6v-1.4c-2-0.1-3-0.8-3-2.2V89.4h0.6l0.1,0.1l21.1,39.4l21.5-39.4h0.6
	v35.8c0,1-0.5,2.1-2.9,2.2V128.9z M145.8,130.6h-2.4v-0.2c0-0.7-0.3-0.8-0.6-0.8c-0.6-0.1-1.3-0.1-2.1-0.1H101V127h0.2
	c0.3,0,0.6-0.1,0.9-0.3c0.3-0.2,0.4-0.5,0.4-1V85.5c0-0.5-0.1-0.8-0.4-1c-0.3-0.2-0.6-0.3-0.9-0.3H101v-2.4h38.3
	c3.1,0,3.1-1.3,3.1-1.7v-0.2h2.4v12.4h-2.4V92c0-0.4,0-1.8-3.1-1.8h-25.9v10.2h16.3c1.2,0,2.1-0.1,2.6-0.3c0.3-0.1,0.7-0.3,0.7-1.2
	v-0.2h2.4v11.9h-2.7l0.1-0.3c0.1-0.3,0.1-0.6,0-0.8c-0.1-0.2-0.3-0.3-0.6-0.4c-0.8-0.2-1.9-0.3-3.3-0.3h-15.4V121h27.2
	c0.8,0,1.5-0.2,2-0.5c0.5-0.3,0.7-0.8,0.7-1.3v-0.2h2.4V130.6z M143.8,130.1h1.4v-10.8h-1.4c-0.1,0.6-0.4,1.1-1,1.5
	c-0.6,0.4-1.4,0.6-2.3,0.6h-27.7v-13.1h15.9c1.4,0,2.6,0.1,3.4,0.3c0.5,0.1,0.8,0.3,1,0.6c0.1,0.2,0.2,0.5,0.1,0.8h1.6V99.2h-1.4
	c-0.1,0.9-0.6,1.3-1,1.4c-0.6,0.2-1.5,0.3-2.8,0.3h-16.8V89.7h26.4c2.2,0,3.4,0.7,3.6,2h1.4V80.3h-1.4c-0.1,1.3-1.3,1.9-3.6,1.9
	h-37.8v1.4c0.3,0,0.6,0.2,1,0.4c0.4,0.3,0.6,0.8,0.6,1.4v40.1c0,0.7-0.2,1.1-0.6,1.4c-0.3,0.2-0.6,0.4-1,0.4v1.4h39.1
	c0.9,0,1.6,0,2.2,0.1C143.4,129.1,143.8,129.5,143.8,130.1z M215.9,129.4h-14.4V127h0.2c0.5,0,0.5-0.2,0.5-0.3c0-0.1-0.1-0.4-1-1.3
	c-0.7-0.7-1.4-1.5-2.3-2.5l-26.2-27.8v30.6c0,0.6,0.2,1.4,2,1.4h0.2v2.4h-13.7V127h0.2c1.5,0,1.7-0.8,1.7-1.4V85.5
	c0-0.6-0.2-1.4-1.7-1.4h-0.2v-2.4h16.3v2.4l-0.2,0c-0.2,0-0.5,0.1-0.5,0.3c0,0.1,0.1,0.5,2.3,2.7l25.3,26.8V85.5
	c0-0.6-0.2-1.4-1.9-1.4h-0.2v-2.4h13.6v2.4h-0.2c-1.5,0-1.7,0.8-1.7,1.4v40.1c0,0.6,0.2,1.4,1.7,1.4h0.2V129.4z M202,128.9h13.4
	v-1.4c-1.6-0.1-1.9-1-1.9-1.9V85.5c0-0.8,0.3-1.8,1.9-1.9v-1.4h-12.6v1.4c1.8,0.1,2.1,1,2.1,1.9v29.7l-26.2-27.7
	c-2.1-2.1-2.4-2.7-2.4-3.1c0-0.3,0.1-0.6,0.8-0.7v-1.5h-15.3v1.4c1.6,0.1,1.9,1,1.9,1.9v40.1c0,0.8-0.3,1.8-1.9,1.9v1.4h12.7v-1.4
	c-1.9-0.1-2.3-1-2.3-1.9V93.8l27,28.8c0.9,0.9,1.6,1.8,2.3,2.5c1,1,1.1,1.4,1.1,1.7c0,0.2-0.1,0.7-0.8,0.8V128.9z M230,102.1v-3.9
	l0.2,0c1-0.3,2.2-0.8,3.6-1.6c1.3-0.8,2.6-1.8,3.7-2.9c1.1-1.1,2-2.3,2.7-3.5c0.7-1.2,1-2.5,0.8-3.7c-0.1-0.2-0.2-0.6-1-0.6
	c-0.6-0.1-1.2-0.1-1.8-0.1c-1.8,0-3.5-0.6-4.8-1.8c-1.4-1.2-2.1-3-2.1-5.2c0-2.1,0.8-4,2.3-5.5c1.5-1.5,3.2-2.3,5.2-2.3
	c2.9,0,5.2,1.1,6.7,3.2c1.5,2.1,2.2,4.7,2.2,7.8c0,2.4-0.5,4.7-1.5,6.9c-1,2.2-2.3,4.2-3.8,6c-1.6,1.8-3.4,3.4-5.5,4.7
	c-2.1,1.3-4.3,2.2-6.5,2.7L230,102.1z M230.5,98.6v2.9c2.1-0.5,4.1-1.4,6.1-2.6c2-1.3,3.9-2.8,5.4-4.6c1.5-1.8,2.8-3.7,3.8-5.9
	c0.9-2.1,1.4-4.4,1.4-6.7c0-2.9-0.7-5.4-2.2-7.5c-1.4-2-3.5-3-6.3-3c-1.8,0-3.4,0.7-4.8,2.2c-1.4,1.4-2.1,3.2-2.1,5.2
	c0,2.1,0.6,3.7,1.9,4.8c1.3,1.1,2.8,1.7,4.5,1.7c0.6,0,1.2,0,1.9,0.1c0.9,0.1,1.3,0.6,1.4,1c0.2,1.4-0.1,2.7-0.9,4
	c-0.7,1.3-1.7,2.5-2.8,3.6c-1.1,1.1-2.4,2.1-3.7,2.9C232.7,97.7,231.5,98.3,230.5,98.6z M82.4,129.4H65.1V127h0.2
	c2.6,0,2.6-1.3,2.6-1.7v-35l-21.4,39.1H46l-0.1-0.1L25.1,90.2v35.1c0,0.4,0,1.7,2.8,1.7h0.2v2.4H11.5V127h0.2c0.5,0,1-0.1,1.4-0.4
	c0.4-0.3,0.5-0.7,0.5-1.2V76.4c0-0.6-0.2-0.9-0.5-1.1c-0.4-0.2-0.9-0.3-1.4-0.3h-0.2v-2.4H32V75h-0.2c-0.3,0-0.7,0.1-1,0.3
	c-0.3,0.2-0.5,0.4-0.5,0.7c0,0.3,0.1,0.7,0.4,1.3c0.3,0.6,0.6,1.2,1,1.8l15.1,27.5L62,79.4c0.5-0.9,0.9-1.6,1.1-2.2
	c0.2-0.5,0.4-1,0.4-1.3c0-0.4-0.1-0.9-1.1-0.9h-0.2v-2.4h20.3V75h-0.2c-0.5,0-1,0.1-1.4,0.3c-0.3,0.2-0.5,0.6-0.5,1.1v48.9
	c0,0.6,0.2,1,0.5,1.2c0.4,0.3,0.8,0.4,1.4,0.4h0.2V129.4z M65.6,128.9h16.3v-1.4c-0.5,0-1-0.2-1.4-0.5c-0.5-0.4-0.7-0.9-0.7-1.6
	V76.4c0-0.7,0.3-1.3,0.8-1.6c0.4-0.2,0.9-0.4,1.4-0.4V73H62.6v1.4c1.2,0.1,1.4,0.9,1.4,1.4c0,0.5-0.1,1-0.4,1.6
	c-0.3,0.5-0.6,1.3-1.1,2.2l-15.7,27.9L31.2,79.3c-0.4-0.6-0.7-1.3-1-1.8c-0.3-0.6-0.5-1.1-0.5-1.5c0-0.5,0.2-0.9,0.7-1.2
	c0.3-0.2,0.7-0.3,1-0.3V73H12v1.4c0.5,0,1,0.2,1.4,0.4c0.5,0.3,0.8,0.8,0.8,1.6v48.9c0,0.7-0.2,1.3-0.7,1.6
	c-0.4,0.3-0.9,0.5-1.4,0.5v1.4h15.6v-1.4c-2-0.1-3-0.8-3-2.2V89.4h0.6l0.1,0.1l21.1,39.4l21.5-39.4h0.6v35.8c0,1-0.5,2.1-2.9,2.2
	V128.9z M145.8,130.6h-2.4v-0.2c0-0.7-0.3-0.8-0.6-0.8c-0.6-0.1-1.3-0.1-2.1-0.1H101V127h0.2c0.3,0,0.6-0.1,0.9-0.3
	c0.3-0.2,0.4-0.5,0.4-1V85.5c0-0.5-0.1-0.8-0.4-1c-0.3-0.2-0.6-0.3-0.9-0.3H101v-2.4h38.3c3.1,0,3.1-1.3,3.1-1.7v-0.2h2.4v12.4h-2.4
	V92c0-0.4,0-1.8-3.1-1.8h-25.9v10.2h16.3c1.2,0,2.1-0.1,2.6-0.3c0.3-0.1,0.7-0.3,0.7-1.2v-0.2h2.4v11.9h-2.7l0.1-0.3
	c0.1-0.3,0.1-0.6,0-0.8c-0.1-0.2-0.3-0.3-0.6-0.4c-0.8-0.2-1.9-0.3-3.3-0.3h-15.4V121h27.2c0.8,0,1.5-0.2,2-0.5
	c0.5-0.3,0.7-0.8,0.7-1.3v-0.2h2.4V130.6z M143.8,130.1h1.4v-10.8h-1.4c-0.1,0.6-0.4,1.1-1,1.5c-0.6,0.4-1.4,0.6-2.3,0.6h-27.7
	v-13.1h15.9c1.4,0,2.6,0.1,3.4,0.3c0.5,0.1,0.8,0.3,1,0.6c0.1,0.2,0.2,0.5,0.1,0.8h1.6V99.2h-1.4c-0.1,0.9-0.6,1.3-1,1.4
	c-0.6,0.2-1.5,0.3-2.8,0.3h-16.8V89.7h26.4c2.2,0,3.4,0.7,3.6,2h1.4V80.3h-1.4c-0.1,1.3-1.3,1.9-3.6,1.9h-37.8v1.4
	c0.3,0,0.6,0.2,1,0.4c0.4,0.3,0.6,0.8,0.6,1.4v40.1c0,0.7-0.2,1.1-0.6,1.4c-0.3,0.2-0.6,0.4-1,0.4v1.4h39.1c0.9,0,1.6,0,2.2,0.1
	C143.4,129.1,143.8,129.5,143.8,130.1z M215.9,129.4h-14.4V127h0.2c0.5,0,0.5-0.2,0.5-0.3c0-0.1-0.1-0.4-1-1.3
	c-0.7-0.7-1.4-1.5-2.3-2.5l-26.2-27.8v30.6c0,0.6,0.2,1.4,2,1.4h0.2v2.4h-13.7V127h0.2c1.5,0,1.7-0.8,1.7-1.4V85.5
	c0-0.6-0.2-1.4-1.7-1.4h-0.2v-2.4h16.3v2.4l-0.2,0c-0.2,0-0.5,0.1-0.5,0.3c0,0.1,0.1,0.5,2.3,2.7l25.3,26.8V85.5
	c0-0.6-0.2-1.4-1.9-1.4h-0.2v-2.4h13.6v2.4h-0.2c-1.5,0-1.7,0.8-1.7,1.4v40.1c0,0.6,0.2,1.4,1.7,1.4h0.2V129.4z M202,128.9h13.4
	v-1.4c-1.6-0.1-1.9-1-1.9-1.9V85.5c0-0.8,0.3-1.8,1.9-1.9v-1.4h-12.6v1.4c1.8,0.1,2.1,1,2.1,1.9v29.7l-26.2-27.7
	c-2.1-2.1-2.4-2.7-2.4-3.1c0-0.3,0.1-0.6,0.8-0.7v-1.5h-15.3v1.4c1.6,0.1,1.9,1,1.9,1.9v40.1c0,0.8-0.3,1.8-1.9,1.9v1.4h12.7v-1.4
	c-1.9-0.1-2.3-1-2.3-1.9V93.8l27,28.8c0.9,0.9,1.6,1.8,2.3,2.5c1,1,1.1,1.4,1.1,1.7c0,0.2-0.1,0.7-0.8,0.8V128.9z M230,102.1v-3.9
	l0.2,0c1-0.3,2.2-0.8,3.6-1.6c1.3-0.8,2.6-1.8,3.7-2.9c1.1-1.1,2-2.3,2.7-3.5c0.7-1.2,1-2.5,0.8-3.7c-0.1-0.2-0.2-0.6-1-0.6
	c-0.6-0.1-1.2-0.1-1.8-0.1c-1.8,0-3.5-0.6-4.8-1.8c-1.4-1.2-2.1-3-2.1-5.2c0-2.1,0.8-4,2.3-5.5c1.5-1.5,3.2-2.3,5.2-2.3
	c2.9,0,5.2,1.1,6.7,3.2c1.5,2.1,2.2,4.7,2.2,7.8c0,2.4-0.5,4.7-1.5,6.9c-1,2.2-2.3,4.2-3.8,6c-1.6,1.8-3.4,3.4-5.5,4.7
	c-2.1,1.3-4.3,2.2-6.5,2.7L230,102.1z M230.5,98.6v2.9c2.1-0.5,4.1-1.4,6.1-2.6c2-1.3,3.9-2.8,5.4-4.6c1.5-1.8,2.8-3.7,3.8-5.9
	c0.9-2.1,1.4-4.4,1.4-6.7c0-2.9-0.7-5.4-2.2-7.5c-1.4-2-3.5-3-6.3-3c-1.8,0-3.4,0.7-4.8,2.2c-1.4,1.4-2.1,3.2-2.1,5.2
	c0,2.1,0.6,3.7,1.9,4.8c1.3,1.1,2.8,1.7,4.5,1.7c0.6,0,1.2,0,1.9,0.1c0.9,0.1,1.3,0.6,1.4,1c0.2,1.4-0.1,2.7-0.9,4
	c-0.7,1.3-1.7,2.5-2.8,3.6c-1.1,1.1-2.4,2.1-3.7,2.9C232.7,97.7,231.5,98.3,230.5,98.6z M285,129.7c-2.4,0-4.9-0.2-7.3-0.7
	c-2.4-0.5-4.6-1-6.6-1.6c-2-0.6-3.6-1.2-5-1.7c-1.7-0.7-2.2-0.8-2.4-0.8c-0.4,0-0.8,0.2-1.1,0.6l-0.1,0.2l-1.9-1.3l5.1-12.4l2.4,0.6
	v0.2c0,0.3,0,0.6-0.1,0.9c0,0.3-0.1,0.6-0.1,1c0,1,0.6,1.9,1.9,2.7c1.3,0.9,3,1.6,4.8,2.2c1.9,0.6,3.8,1.1,5.7,1.4
	c1.9,0.4,3.3,0.5,4.4,0.5c1,0,2.2-0.1,3.7-0.2c1.4-0.1,2.9-0.4,4.3-0.9c1.4-0.5,2.6-1.1,3.6-1.9c0.9-0.8,1.4-1.8,1.4-3.1
	c0-1.5-0.8-2.5-2.5-3.2c-1.7-0.7-3.9-1.3-6.5-1.6c-2.6-0.4-5.5-0.8-8.6-1.2c-3.1-0.4-6-1-8.6-1.9c-2.7-0.9-4.9-2.2-6.7-3.9
	c-1.8-1.7-2.7-4.2-2.7-7.3c0-4.6,1.9-8.4,5.8-11.1c3.8-2.7,9.2-4.1,16.1-4.1c3.4,0,6.3,0.3,8.7,0.8c2.4,0.5,4.4,1.1,6.1,1.8
	c1.6,0.6,3,1.2,4,1.8c1,0.5,1.7,0.8,2.2,0.8c0.5,0,0.9-0.1,1.2-0.2c0.3-0.2,0.7-0.4,1.1-0.6l0.2-0.1l1.4,1.4l-5.5,10.4l-2.3-0.8
	l0-0.1c-0.1-0.4-0.1-0.9-0.2-1.3c-0.1-0.4-0.4-0.7-0.9-1.1c-1.4-1.2-3.6-2.2-6.6-3.1c-3-0.8-6.3-1.3-10-1.3c-1.4,0-2.8,0.1-4,0.3
	c-1.3,0.2-2.4,0.5-3.4,0.9c-1,0.4-1.7,0.9-2.3,1.6c-0.5,0.6-0.8,1.4-0.8,2.4c0,1.5,0.8,2.5,2.5,3.1c1.7,0.7,3.9,1.2,6.5,1.6
	c2.7,0.4,5.5,0.8,8.6,1.2c3.1,0.4,6,1.1,8.6,2c2.7,0.9,4.9,2.3,6.7,4.1c1.8,1.8,2.7,4.4,2.7,7.6c0,3.2-0.8,5.8-2.4,7.9
	c-1.6,2-3.5,3.6-5.8,4.8c-2.3,1.2-4.9,1.9-7.6,2.3C290,129.6,287.4,129.7,285,129.7z M263.8,124.4c0.2,0,0.7,0.1,2.6,0.8
	c1.4,0.5,3,1.1,5,1.7c1.9,0.6,4.1,1.1,6.5,1.6c2.4,0.5,4.8,0.7,7.2,0.7c2.4,0,5-0.2,7.7-0.5c2.7-0.4,5.2-1.1,7.5-2.2
	c2.2-1.1,4.1-2.7,5.6-4.6c1.5-1.9,2.3-4.5,2.3-7.6c0-3.1-0.9-5.5-2.6-7.2c-1.7-1.8-3.9-3.1-6.5-4c-2.6-0.9-5.5-1.6-8.5-2
	c-3-0.4-5.9-0.8-8.6-1.2c-2.7-0.4-4.9-0.9-6.6-1.6c-1.8-0.7-2.8-1.9-2.8-3.6c0-1.1,0.3-2,0.9-2.7c0.6-0.7,1.4-1.3,2.5-1.7
	c1-0.4,2.2-0.7,3.5-0.9c1.3-0.2,2.7-0.3,4.1-0.3c3.7,0,7.1,0.4,10.1,1.3c3,0.9,5.3,1.9,6.7,3.2c0.6,0.5,1,0.9,1,1.4
	c0.1,0.4,0.1,0.8,0.2,1.1l1.6,0.5l5.2-9.7l-0.9-0.9c-0.3,0.2-0.6,0.3-0.9,0.5c-0.3,0.2-0.8,0.3-1.4,0.3c-0.5,0-1.3-0.3-2.4-0.8
	c-1-0.5-2.4-1.1-4-1.8c-1.6-0.6-3.7-1.2-6-1.8c-2.4-0.5-5.3-0.8-8.6-0.8c-6.8,0-12.1,1.4-15.8,4c-3.7,2.7-5.6,6.3-5.6,10.7
	c0,3,0.9,5.3,2.5,6.9c1.7,1.6,3.9,2.9,6.5,3.8c2.6,0.9,5.5,1.5,8.5,1.9c3,0.4,5.9,0.8,8.6,1.2c2.7,0.4,4.9,1,6.7,1.7
	c1.8,0.8,2.8,2,2.8,3.7c0,1.4-0.5,2.6-1.6,3.5c-1,0.8-2.3,1.5-3.7,2c-1.4,0.5-2.9,0.8-4.4,0.9c-1.5,0.1-2.7,0.2-3.7,0.2
	c-1.1,0-2.6-0.2-4.5-0.5c-1.9-0.4-3.8-0.8-5.7-1.5c-1.9-0.6-3.6-1.4-4.9-2.3c-1.4-0.9-2.1-2-2.1-3.2c0-0.4,0-0.7,0.1-1
	c0-0.2,0-0.5,0-0.7l-1.6-0.4l-4.8,11.6l1.2,0.8C262.8,124.6,263.2,124.4,263.8,124.4z M285,129.7c-2.4,0-4.9-0.2-7.3-0.7
	c-2.4-0.5-4.6-1-6.6-1.6c-2-0.6-3.6-1.2-5-1.7c-1.7-0.7-2.2-0.8-2.4-0.8c-0.4,0-0.8,0.2-1.1,0.6l-0.1,0.2l-1.9-1.3l5.1-12.4l2.4,0.6
	v0.2c0,0.3,0,0.6-0.1,0.9c0,0.3-0.1,0.6-0.1,1c0,1,0.6,1.9,1.9,2.7c1.3,0.9,3,1.6,4.8,2.2c1.9,0.6,3.8,1.1,5.7,1.4
	c1.9,0.4,3.3,0.5,4.4,0.5c1,0,2.2-0.1,3.7-0.2c1.4-0.1,2.9-0.4,4.3-0.9c1.4-0.5,2.6-1.1,3.6-1.9c0.9-0.8,1.4-1.8,1.4-3.1
	c0-1.5-0.8-2.5-2.5-3.2c-1.7-0.7-3.9-1.3-6.5-1.6c-2.6-0.4-5.5-0.8-8.6-1.2c-3.1-0.4-6-1-8.6-1.9c-2.7-0.9-4.9-2.2-6.7-3.9
	c-1.8-1.7-2.7-4.2-2.7-7.3c0-4.6,1.9-8.4,5.8-11.1c3.8-2.7,9.2-4.1,16.1-4.1c3.4,0,6.3,0.3,8.7,0.8c2.4,0.5,4.4,1.1,6.1,1.8
	c1.6,0.6,3,1.2,4,1.8c1,0.5,1.7,0.8,2.2,0.8c0.5,0,0.9-0.1,1.2-0.2c0.3-0.2,0.7-0.4,1.1-0.6l0.2-0.1l1.4,1.4l-5.5,10.4l-2.3-0.8
	l0-0.1c-0.1-0.4-0.1-0.9-0.2-1.3c-0.1-0.4-0.4-0.7-0.9-1.1c-1.4-1.2-3.6-2.2-6.6-3.1c-3-0.8-6.3-1.3-10-1.3c-1.4,0-2.8,0.1-4,0.3
	c-1.3,0.2-2.4,0.5-3.4,0.9c-1,0.4-1.7,0.9-2.3,1.6c-0.5,0.6-0.8,1.4-0.8,2.4c0,1.5,0.8,2.5,2.5,3.1c1.7,0.7,3.9,1.2,6.5,1.6
	c2.7,0.4,5.5,0.8,8.6,1.2c3.1,0.4,6,1.1,8.6,2c2.7,0.9,4.9,2.3,6.7,4.1c1.8,1.8,2.7,4.4,2.7,7.6c0,3.2-0.8,5.8-2.4,7.9
	c-1.6,2-3.5,3.6-5.8,4.8c-2.3,1.2-4.9,1.9-7.6,2.3C290,129.6,287.4,129.7,285,129.7z M263.8,124.4c0.2,0,0.7,0.1,2.6,0.8
	c1.4,0.5,3,1.1,5,1.7c1.9,0.6,4.1,1.1,6.5,1.6c2.4,0.5,4.8,0.7,7.2,0.7c2.4,0,5-0.2,7.7-0.5c2.7-0.4,5.2-1.1,7.5-2.2
	c2.2-1.1,4.1-2.7,5.6-4.6c1.5-1.9,2.3-4.5,2.3-7.6c0-3.1-0.9-5.5-2.6-7.2c-1.7-1.8-3.9-3.1-6.5-4c-2.6-0.9-5.5-1.6-8.5-2
	c-3-0.4-5.9-0.8-8.6-1.2c-2.7-0.4-4.9-0.9-6.6-1.6c-1.8-0.7-2.8-1.9-2.8-3.6c0-1.1,0.3-2,0.9-2.7c0.6-0.7,1.4-1.3,2.5-1.7
	c1-0.4,2.2-0.7,3.5-0.9c1.3-0.2,2.7-0.3,4.1-0.3c3.7,0,7.1,0.4,10.1,1.3c3,0.9,5.3,1.9,6.7,3.2c0.6,0.5,1,0.9,1,1.4
	c0.1,0.4,0.1,0.8,0.2,1.1l1.6,0.5l5.2-9.7l-0.9-0.9c-0.3,0.2-0.6,0.3-0.9,0.5c-0.3,0.2-0.8,0.3-1.4,0.3c-0.5,0-1.3-0.3-2.4-0.8
	c-1-0.5-2.4-1.1-4-1.8c-1.6-0.6-3.7-1.2-6-1.8c-2.4-0.5-5.3-0.8-8.6-0.8c-6.8,0-12.1,1.4-15.8,4c-3.7,2.7-5.6,6.3-5.6,10.7
	c0,3,0.9,5.3,2.5,6.9c1.7,1.6,3.9,2.9,6.5,3.8c2.6,0.9,5.5,1.5,8.5,1.9c3,0.4,5.9,0.8,8.6,1.2c2.7,0.4,4.9,1,6.7,1.7
	c1.8,0.8,2.8,2,2.8,3.7c0,1.4-0.5,2.6-1.6,3.5c-1,0.8-2.3,1.5-3.7,2c-1.4,0.5-2.9,0.8-4.4,0.9c-1.5,0.1-2.7,0.2-3.7,0.2
	c-1.1,0-2.6-0.2-4.5-0.5c-1.9-0.4-3.8-0.8-5.7-1.5c-1.9-0.6-3.6-1.4-4.9-2.3c-1.4-0.9-2.1-2-2.1-3.2c0-0.4,0-0.7,0.1-1
	c0-0.2,0-0.5,0-0.7l-1.6-0.4l-4.8,11.6l1.2,0.8C262.8,124.6,263.2,124.4,263.8,124.4z M8.6,123.8c0.6,0,1.1-0.2,1.5-0.5
	c0.4-0.3,0.6-0.8,0.6-1.4V73c0-0.6-0.2-1.1-0.6-1.3c-0.4-0.2-0.9-0.4-1.5-0.4v-1.9h20v1.9c-0.4,0-0.7,0.1-1.1,0.3
	c-0.4,0.2-0.6,0.5-0.6,1c0,0.4,0.1,0.8,0.4,1.4c0.3,0.6,0.6,1.2,1,1.8l15.3,27.9l15.4-27.6c0.5-0.9,0.9-1.7,1.1-2.2
	c0.2-0.5,0.4-1,0.4-1.4c0-0.8-0.5-1.2-1.4-1.2v-1.9h19.8v1.9c-0.6,0-1.1,0.1-1.5,0.4c-0.4,0.3-0.6,0.7-0.6,1.3v48.9
	c0,0.6,0.2,1.1,0.6,1.4s0.9,0.5,1.5,0.5v1.9H62.2v-1.9c1.9,0,2.9-0.6,2.9-1.9V86.3h-0.2l-21.5,39.4H43L21.9,86.1h-0.2v35.7
	c0,1.3,1,1.9,3,1.9v1.9H8.6V123.8z M139.5,88.5c0-1.4-1.1-2-3.3-2H110v10.7h16.5c1.2,0,2.1-0.1,2.7-0.3c0.6-0.2,0.9-0.7,0.9-1.4h1.9
	v11.4h-2.1c0.2-0.8-0.1-1.3-0.9-1.4c-0.8-0.2-1.9-0.3-3.3-0.3H110v12.6h27.4c0.9,0,1.6-0.2,2.1-0.6c0.6-0.4,0.9-0.9,0.9-1.6h1.9
	v11.3h-1.9c0-0.6-0.3-1-0.9-1.1c-0.6-0.1-1.3-0.1-2.1-0.1H98.1v-1.9c0.4,0,0.7-0.1,1.1-0.4c0.4-0.2,0.5-0.7,0.5-1.2V82.1
	c0-0.6-0.2-1-0.5-1.2c-0.4-0.2-0.7-0.4-1.1-0.4v-1.9h38.1c2.2,0,3.3-0.6,3.3-1.9h1.9v11.9H139.5z M158.5,123.8
	c1.3,0,1.9-0.5,1.9-1.6V82.1c0-1.1-0.6-1.6-1.9-1.6v-1.9h15.8v1.9c-0.5,0.1-0.8,0.3-0.8,0.5c0,0.4,0.8,1.3,2.4,2.9l25.7,27.2V82.1
	c0-1.1-0.7-1.6-2.1-1.6v-1.9h13.1v1.9c-1.3,0-1.9,0.5-1.9,1.6v40.1c0,1.1,0.6,1.6,1.9,1.6v1.9h-13.9v-1.9c0.5,0,0.8-0.2,0.8-0.5
	c0-0.3-0.3-0.8-1-1.5c-0.7-0.7-1.4-1.5-2.3-2.5L169.4,91v31.2c0,1.1,0.8,1.6,2.3,1.6v1.9h-13.2V123.8z M227.1,94.9
	c1.1-0.3,2.3-0.8,3.6-1.7c1.4-0.8,2.6-1.8,3.7-2.9c1.1-1.1,2-2.3,2.7-3.6c0.7-1.3,1-2.6,0.9-3.9c-0.1-0.5-0.5-0.8-1.2-0.9
	c-0.6-0.1-1.3-0.1-1.8-0.1c-1.8,0-3.3-0.6-4.7-1.8c-1.3-1.2-2-2.8-2-5c0-2.1,0.7-3.9,2.2-5.4c1.5-1.5,3.1-2.3,5-2.3
	c2.9,0,5,1,6.5,3.1c1.5,2.1,2.2,4.6,2.2,7.6c0,2.4-0.5,4.6-1.4,6.8c-1,2.2-2.2,4.2-3.8,5.9c-1.6,1.8-3.4,3.3-5.5,4.6
	c-2.1,1.3-4.2,2.2-6.4,2.7V94.9z M264.8,109.3c0,0.3,0,0.6-0.1,0.9c0,0.3-0.1,0.7-0.1,1c0,1.1,0.7,2.1,2,2.9c1.4,0.9,3,1.6,4.9,2.3
	c1.9,0.6,3.8,1.1,5.7,1.4c1.9,0.4,3.4,0.5,4.4,0.5c1,0,2.2-0.1,3.7-0.2c1.5-0.1,2.9-0.4,4.3-0.9c1.4-0.5,2.6-1.1,3.6-1.9
	c1-0.8,1.5-1.9,1.5-3.3c0-1.6-0.9-2.7-2.6-3.4c-1.8-0.7-4-1.3-6.6-1.7c-2.6-0.4-5.5-0.8-8.6-1.2c-3.1-0.4-5.9-1-8.6-1.9
	c-2.6-0.9-4.8-2.2-6.6-3.9c-1.8-1.7-2.6-4.1-2.6-7.1c0-4.6,1.9-8.2,5.7-10.9c3.8-2.7,9.1-4.1,16-4.1c3.4,0,6.2,0.3,8.6,0.8
	c2.4,0.5,4.4,1.1,6.1,1.8c1.6,0.6,3,1.2,4,1.8c1,0.5,1.8,0.8,2.3,0.8c0.6,0,1-0.1,1.3-0.3c0.3-0.2,0.6-0.4,1.1-0.6l1.2,1.2
	l-5.4,10.1l-1.9-0.6c-0.1-0.4-0.1-0.9-0.2-1.3c-0.1-0.4-0.4-0.9-1-1.3c-1.4-1.2-3.6-2.3-6.6-3.1c-3-0.9-6.4-1.3-10.1-1.3
	c-1.4,0-2.8,0.1-4.1,0.3c-1.3,0.2-2.4,0.5-3.4,0.9c-1,0.4-1.8,1-2.4,1.7c-0.6,0.7-0.9,1.5-0.9,2.5c0,1.6,0.9,2.7,2.6,3.4
	c1.8,0.7,3.9,1.2,6.6,1.6c2.6,0.4,5.5,0.8,8.6,1.2c3.1,0.4,5.9,1.1,8.6,2c2.6,0.9,4.8,2.3,6.6,4.1c1.8,1.8,2.6,4.3,2.6,7.4
	c0,3.1-0.8,5.7-2.3,7.7c-1.5,2-3.4,3.6-5.7,4.7c-2.3,1.1-4.8,1.9-7.6,2.3c-2.8,0.4-5.3,0.5-7.8,0.5c-2.4,0-4.8-0.2-7.2-0.7
	c-2.4-0.5-4.6-1-6.5-1.6c-2-0.6-3.6-1.2-5-1.7c-1.4-0.5-2.2-0.8-2.5-0.8c-0.5,0-0.9,0.2-1.3,0.6l-1.5-1.1l4.9-12L264.8,109.3z"/>
<g>
	<path class="st3" d="M170.2,67.7c46.5-5.3,90.2,6.9,95.8,7.1c5.6,0.2,10.7-1.7,2.7-5.8c-30.7-12.7-103.5-1.5-103.5-1.5
		S158.1,68.9,170.2,67.7z"/>
</g>
</svg> 
