<?xml version="1.0" encoding="UTF-8"?>
<svg id="Layer_1" data-name="Layer 1" xmlns="http://www.w3.org/2000/svg" viewBox="0 0 312.7 185.58">
  <defs>
    <style>
      .cls-1 {
        fill: #f4e3bf;
      }

      .cls-2 {
        fill: #39b54a;
      }

      .cls-2, .cls-3, .cls-4 {
        fill-rule: evenodd;
      }

      .cls-3 {
        fill: #d51e00;
      }

      .cls-4 {
        fill: #e8d7b0;
      }
    </style>
  </defs>
  <g id="italian">
    <polygon id="Rectangle-3" class="cls-3" points="183.6 185.58 162.9 185.58 162.9 183.28 183.6 183.28 183.6 185.58"/>
    <polygon id="Rectangle-3-Copy" class="cls-4" points="162.9 185.58 142.3 185.58 142.3 183.28 162.9 183.28 162.9 185.58"/>
    <polygon id="Rectangle-3-Copy-2" class="cls-2" points="142.3 185.58 121.6 185.58 121.6 183.28 142.3 183.28 142.3 185.58"/>
  </g>
  <path class="cls-1" d="M123.53,49.47l-3.24,.54-.25-1.74h0c-.2-1.3-.4-2.42-.6-3.33-.16-.72-.25-1.31-.34-1.82l-.14-.81c-.06-.35-.12-.63-.12-.9,0-.16,0-.42,0-.45l.07-.09c.03-.05,.05-.09,.06-.11,.11,0,.21-.03,.31-.06,.08-.02,.16-.04,.27-.04l2.31-.4c.97-.19,1.86-.29,2.63-.29,.83,0,1.43,.11,1.84,.36,.51,.25,.88,.6,1.26,1.18,.37,.56,.56,1.25,.74,2.16,.28,1.75,.04,3.07-.71,4.01-.83,.93-2.13,1.49-4.1,1.79Zm-61.49,10.53c-.32-.41-.64-.84-1.08-1.21-.25-.3-.42-.52-.6-.75-.18-.23-.35-.45-.55-.7-.17-.28-.34-.49-.5-.71-.13-.17-.27-.35-.39-.53-1.08,.19-1.97,.54-2.5,.98-.55,.46-.89,1.21-.97,2.16,0,.68,.11,1.2,.36,1.71,.28,.57,.66,1.04,1.06,1.54,.37,.37,.85,.74,1.31,1.02,.48,.29,.92,.45,1.22,.45,.79,0,1.52-.21,2.21-.65,.62-.39,1.15-.92,1.73-1.76-.34-.37-.68-.79-1.01-1.21-.1-.12-.18-.23-.27-.35Zm66.95-9.18c-1.06-.67-2.69-.83-4.85-.45l-3.66,.64,.44,2.75c.2,1.29,.4,2.39,.6,3.28,.07,.6,.17,1.09,.26,1.52,.05,.25,.1,.48,.14,.7,.07,.35,.2,.72,.3,1.01l.08,.24c.1,.39,.16,.47,.22,.49l.09,.07c.06,.06,.21,.11,.45,.06,.13-.03,.29-.07,.5-.07l2.64-.49c2.04-.39,3.34-1.04,4.08-2.06,.72-.99,.93-2.38,.64-4.24-.29-1.64-.96-2.83-1.94-3.46Zm27.27-10.75c-.63-1.37-1.33-2.38-2.11-3.08-.95-.95-1.99-1.41-2.89-1.73-.57-.21-1.2-.31-1.91-.31-.46,0-.96,.04-1.51,.13-1.29,.3-2.42,.8-3.24,1.43-.89,.63-1.57,1.42-2.21,2.59-.5,.92-.83,2.05-1.06,3.68-.08,1.15-.12,2.7,.29,4.26,.27,1.43,.72,2.81,1.38,4.24,.63,1.37,1.33,2.38,2.11,3.08,.76,.85,1.7,1.43,2.76,1.72,.96,.35,2.05,.41,3.45,.19,1.15-.18,2.22-.62,3.25-1.34,.88-.62,1.55-1.41,2.19-2.58,.5-.92,.83-2.05,1.06-3.68h0c.18-1.27,.12-2.71-.2-4.38-.26-1.41-.71-2.79-1.37-4.22Zm-88.57-9.9c25.6-2.3,37.3-7.8,42.5-10,4.4-1.9,16.9-10.8,12.2-16.9-4.8-6.3-24.5-2-31.2,.4-12.3,4.3-16.5,11.1-15.2,13.6,2.7,5.1,17.3,2.9,26.7-1.9,7.1-3.7,2.5-8.1-2-7.3-4.2,.8-6.2,4.1-4.9,6.2-3.7,3.8-14.3,4.4-15.1,1-1.2-5,14.5-10.5,22.5-11.9,8.1-1.4,14.5-.6,15.1,3.3,1.3,8-13.9,14.6-30.4,18.6-9.1,2.2-18.7,3.3-26.1,4.3,0,0-3.7,1.5,5.9,.6Zm198.5,38.4c-30.7-12.7-103.5-1.5-103.5-1.5,0,0-7.1,1.4,5,.2,46.5-5.3,90.2,6.9,95.8,7.1,5.6,.2,10.7-1.7,2.7-5.8ZM81.8,31.58c11.7-.4,43.5-2.2,68.5-16.6,2.1-1.2,2.7-4.2,.5-6-1.9-1.5-5.7-1.3-7.6-.2-4.7,2.8-24.8,17.3-50.7,20.5-19.9,2.5-14.3,2.5-10.7,2.3Zm195.6,12.8c15.8,9.8,24.4,28.8,24.4,28.8-122.1-42.4-181.1,20.7-265.6-2.8-8.7-2.4-22.6-5.3-36.2-2.2,0,0,19-17.6,26.5-18.4C11.3,41.18,5,18.98,5,18.98c109.4,51.8,196.2-46.8,307.7,21.5,0,0-27.2-1.9-35.3,3.9Zm-226.56-2.44c0-.51-.42-.55-.55-.55-.1,0-.3-.05-.51-.11l-.31-.08c-.21-.05-.4-.08-.59-.11-.16-.02-.33-.05-.51-.09-.2-.05-.37-.08-.53-.1-.16-.02-.3-.04-.44-.09-.35-.12-.59-.12-.69-.12-.05,0-.11-.04-.19-.07-.09-.03-.2-.07-.32-.11-.31-.1-.72-.21-1.13-.31l-1.49-.38c-.28-.07-.5-.13-.69-.13-.51,0-.55,.35-.55,.45,0,.51,.42,.55,.47,.54l.8,.2c.37,.09,.65,.19,.82,.27,0,0,.11,.1,.11,.69,0,.48-.1,1.26-.29,2.34-.2,1.08-.49,2.54-.88,4.49l-1.22,5.6c-.4,1.98-.28,1.67-.68,3.05-.12,.4-.24,.79-.35,1.15-.24,.8-.44,1.49-.65,2.03-.3,.8-.69,1.46-.95,1.81-.28,.37-.66,.75-.98,1-.16,.08-.32,.16-.44,.16h-.69c-.06,0-.17-.04-.31-.08-.12-.03-.26-.07-.42-.11l-1.17-.29c-.35-.12-.6-.12-.71-.12-.66,0-1.04,.29-1.35,.6s-.46,.73-.55,1.03l-.05,.22c0,.21,0,.38,.14,.66,.17,.34,.51,.48,.81,.58l.1,.03c.07,.04,.17,.09,.3,.1,.08,.03,.22,.09,.4,.09,.12,0,.36,0,.71-.12,.16-.05,.29-.1,.42-.16,.12-.05,.24-.1,.38-.14,.17-.06,.33-.14,.5-.22,.13-.07,.27-.14,.4-.18l.08-.04c.28-.19,.47-.28,.69-.4l.74-.47c.8-.5,1.55-.98,2.18-1.45,.93-.7,1.6-1.3,2.16-1.95,.6-.7,1.12-1.61,1.56-2.7,.47-1.17,.33-.49,.61-2.02,0-.14,.1-.43,.18-.69,.06-.17,.09-.34,.11-.51,.02-.13,.04-.26,.09-.39,.06-.17,.09-.34,.11-.5,.02-.13,.04-.26,.09-.4,.05-.15,.08-.27,.1-.38,.03-.12,.04-.2,.11-.35l.8-3.6,.19-.89c.31-1.5,.56-2.68,.82-3.62,.18-.99,.44-1.65,.64-2.13l.04-.11c.13-.34,.31-.49,.46-.58,.21,0,.52,.01,.85,.09l.66,.1c.51,0,.55-.35,.55-.45Zm26.1,19.08c0-.61,0-1.24-.11-1.77-.12-.58-.34-1.1-.65-1.52-.18-.34-.49-.82-.95-1.16l-.76-.76c.2-.23,.35-.47,.5-.69,.18-.27,.45-.54,.86-.85,.14-.14,.32-.32,.22-.57l-.13-.23h-.44c-.2,0-.63,0-1.2,.1h-1.68s-4.42-.3-4.42-.3c-.25,0-.42,.17-.55,.3-.1,.1-.31,.31-.44,.54-.09,.1-.17,.2-.25,.3-.07,.09-.13,.17-.22,.26-.08,.08-.15,.16-.21,.23-.08,.09-.14,.17-.2,.2l-.09,.07c-.16,.16-.21,.35-.14,.53,.04,.1,.16,.28,.49,.28h1.3c.21,0,.45,.02,.72,.04,.39,.03,.82,.06,1.35,.06l3.43,.29c.16,.27,.35,.78,.45,1.7,.1,.91,.2,1.76,.1,2.76,0,.59-.1,1.18-.2,1.64-.09,.52-.18,1.03-.38,1.43l-.05,.13c-.16,.4-.25,.63-.51,.9-.07,.1-.2,.24-.46,.24-.84-.11-2.05-.84-3.31-2.02-1.4-1.22-3.14-3.11-5.45-5.95-.68-.88-1.39-1.79-2.1-2.8-.59-.76-1.17-1.6-1.78-2.57-.48-.78-.88-1.56-1.17-2.34-.27-.72-.38-1.28-.38-1.95,.09-1.13,.47-1.94,1.16-2.55,.78-.59,1.73-.82,2.94-.73,.78,.1,1.42,.29,1.85,.54,.55,.37,.92,.82,1.3,1.4,.38,.56,.56,1.23,.75,1.99,.19,.76,.29,1.63,.29,2.51,0,.26,0,.75,.55,.75,.06,0,.55-.02,.55-.75,0-.6,.08-1.11,.16-1.72l.03-.23c.05-.31,.08-.62,.1-.93,.02-.29,.05-.58,.1-.87,.1-.6,.2-1.19,.3-1.69l.04-.19-.13-.13c-.17-.16-.52-.38-1.03-.49-.27-.13-.57-.22-.91-.32-.18-.05-.38-.11-.57-.17-.54-.21-1.16-.32-1.77-.42l-.44-.08c-.39-.07-.7-.13-1.02-.13-.93,0-1.77,.11-2.5,.31-.72,.21-1.46,.61-2.13,1.17-.59,.49-1.02,1.07-1.48,2-.42,.73-.65,1.68-.65,2.68,0,.84,.27,1.72,.84,2.77,.49,.9,1.06,1.83,1.82,2.94-.48,.08-.94,.25-1.44,.46-.74,.32-1.38,.75-1.89,1.25-.69,.58-1.12,1.15-1.47,1.68-.44,.66-.66,1.33-.66,2s.11,1.28,.32,1.91c.18,.55,.54,1.16,1.06,1.81,.39,.49,.91,.93,1.49,1.28,.48,.29,1.1,.52,1.78,.65,.76,0,1.48-.14,2.14-.43,.73-.31,1.35-.73,1.96-1.13,.69-.46,1.29-.98,1.65-1.44,.3-.3,.55-.59,.78-.88,1.13,1.26,2.23,2.31,3.35,3.21,1.07,.86,1.92,1.27,2.56,1.27h0c.14,.02,.28,.03,.42,.03,.7,0,1.35-.23,1.85-.45,.93-.35,1.7-.94,2.18-1.34,.79-.56,1.32-1.24,1.8-1.91,.39-.69,.75-1.37,.75-2.18Zm22.2-1.24c-.11-1.01-.35-1.74-.76-2.36-.43-.64-1.06-1.17-1.67-1.67l-.23,.27,.23-.27-.06-.04c-.7-.4-1.42-.81-2.25-1.12-.4-.15-.83-.3-1.26-.45-.42-.15-.85-.3-1.26-.45-.9-.3-1.69-.6-2.49-.9-.77-.29-1.44-.67-2.15-1.08-.56-.32-1.04-.74-1.5-1.31-.32-.4-.52-.99-.62-1.78,0-.58,0-1.13,.17-1.57,.2-.5,.48-.94,.82-1.28,.4-.4,.96-.75,1.49-.92,.66-.28,1.44-.38,2.38-.47,1.54-.1,2.63,.02,3.43,.37,1.02,.45,1.65,.94,2.06,1.58,.51,.72,.86,1.58,1.04,2.56,.18,.92,.39,2.12,.39,3.33,0,.7,.75,.79,.97,.42,.05-.09,.12-.26,.03-.51l-.05-.68c-.08-.94-.14-1.75-.14-2.54,0-.5-.03-.98-.06-1.4-.02-.33-.04-.64-.04-.9v-1.5c0-.4,0-.65-.11-.9-.03-.18-.15-.31-.19-.35l-.1-.1h-.05c-.06-.05-.16-.11-.25-.1-.38-.04-.77-.1-1.18-.16-.57-.09-1.18-.18-1.82-.24-1.12-.1-2.44-.1-4.01,0-1.6-.1-2.54,.09-3.53,.42-.94,.31-1.78,.83-2.44,1.49-.51,.51-1.1,1.17-1.58,2.13-.27,.73-.54,1.62-.42,2.76,.12,1.08,.38,1.79,.86,2.36,.47,.7,1.17,1.25,1.82,1.71,.82,.47,1.61,.85,2.36,1.13,.45,.15,.87,.3,1.3,.45,.43,.15,.85,.3,1.29,.45,.4,.15,.83,.3,1.26,.45,.42,.15,.84,.3,1.24,.45,.9,.34,1.54,.63,2.13,.96,.63,.42,1.17,.89,1.52,1.33,.32,.4,.52,.99,.62,1.81,.09,1.22-.19,2.12-.91,2.94-.74,.84-1.87,1.29-3.46,1.38-1.26,.1-2.42,0-3.27-.29-.97-.29-1.69-.77-2.25-1.51-.67-.67-1.13-1.53-1.42-2.67-.36-.98-.57-2.19-.68-3.78,0-.42-.29-.65-.55-.65-.06,0-.55,.02-.55,.75,0,.18,.02,.4,.04,.65,.03,.31,.06,.66,.06,1.09,.05,.39,.07,.79,.1,1.18,.03,.41,.05,.81,.1,1.22,.05,.39,.07,.79,.1,1.18,.03,.41,.05,.81,.1,1.22,.1,.78,.1,1.27,.1,1.66,0,.35,.17,.48,.3,.53,.09,.06,.23,.13,.39,.12,.3,.05,.57,.1,.84,.15,.28,.05,.55,.1,.84,.15,.27,.05,.57,.08,.89,.11,.27,.02,.55,.05,.88,.1,.28,0,.56,.02,.85,.05,.33,.03,.68,.05,1.05,.05,.7,0,1.42,0,2.33-.1,.94-.09,1.75-.27,2.82-.64,.87-.44,1.58-.85,2.19-1.47,.65-.65,1.16-1.38,1.48-2.13,.29-.78,.42-1.59,.42-2.66Zm35.2-6.1c-.12-.93-.58-1.78-.98-2.28h0c-.58-.7-1.23-1.2-1.9-1.49-.71-.4-1.52-.63-2.64-.74-.26-.03-.53-.05-.81-.06,.19-.09,.37-.18,.54-.28,.78-.45,1.48-.96,1.97-1.46,.59-.59,.99-1.24,1.19-1.95,.19-.68,.23-1.4,.11-2.37-.23-1.14-.57-1.95-1.08-2.56-.53-.63-1.18-1.08-2.05-1.4-.78-.29-1.68-.42-2.92-.42s-2.49,.13-3.6,.4c-.1,0-.23,.03-.56,.1l-.51,.11c-.49,.1-1.09,.2-1.69,.3-.3,.05-.57,.1-.84,.15-.28,.05-.55,.1-.87,.15-.26,.05-.46,.1-.62,.14-.11,.03-.18,.05-.21,.05-.08,0-.16,.02-.24,.04-.21,.06-.52,.06-.84,.11-.16,.02-.32,.05-.52,.05-.35,0-.77,.11-1.19,.21-.36,.09-.52,.09-.81,.09s-.55,.26-.55,.55c0,.11,.04,.45,.6,.45h.01l.63-.11c.42-.11,.6-.05,.66-.03,.15,.08,.37,.22,.53,.61,.18,.45,.37,1.2,.58,2.23l.17,.9c.18,.97,.41,2.17,.63,3.6l1,5.49c.1,.65,.21,1.25,.3,1.81,.18,1.05,.33,1.96,.4,2.7,.19,1.07,.19,1.83,.19,2.34,0,.39-.15,.64-.2,.68-.18,.09-.46,.18-.8,.27l-.54,.1c-.3,0-.55,.26-.55,.55,0,.11,.04,.45,.55,.45,.66,0,1-.12,1.29-.21,.19-.05,.35-.07,.51-.09,.19-.03,.37-.05,.61-.11,.13-.04,.29-.06,.44-.09,.2-.03,.39-.06,.56-.11,.25-.08,.4-.08,.49-.08,.14,0,.28,0,.71-.12,.14-.05,.31-.07,.48-.09,.19-.03,.39-.05,.59-.1,.19-.05,.4-.07,.6-.09,.24-.03,.48-.05,.68-.1,.22-.04,.43-.07,.62-.09,.24-.03,.47-.06,.7-.11,.17-.04,.35-.07,.51-.09,.23-.03,.43-.06,.61-.12,.25-.08,.4-.08,.55-.09,2.97-.51,5.06-1.46,6.21-2.82,1.15-1.36,1.6-3.09,1.28-4.97Zm26.6-9.92c-.31-1.64-.91-3.17-1.75-4.43h0c-.92-1.33-1.96-2.38-3.2-3.2-1.34-.89-2.69-1.46-4.13-1.75-1.45-.29-2.88-.32-4.54-.1-1.68,.34-3.06,.88-4.23,1.65-1.35,.9-2.43,1.94-3.2,3.1-.84,1.27-1.45,2.61-1.85,4.1-.4,1.48-.43,3.12-.1,4.88,.41,1.53,1.03,2.97,1.84,4.29,.71,1.16,1.73,2.21,3.1,3.21,1.31,.87,2.66,1.46,4.02,1.75,.77,.16,1.58,.25,2.46,.25,.67,0,1.36-.05,2.09-.15,1.56-.31,2.9-.83,4.22-1.65,1.24-.76,2.29-1.75,3.3-3.09,.95-1.27,1.56-2.62,1.86-4.12,.39-1.48,.43-3.03,.11-4.76Zm24.85,6.53l-2-13.5c-.37-2.33-.54-3.91-.6-4.48-.1-.95-.1-1.83,0-2.3,.04-.21,.14-.69,.31-.75,.12-.06,.32-.12,.52-.18,.1-.03,.19-.06,.28-.09h.14c.3,0,.55-.26,.55-.55,0-.11-.05-.44-.62-.45-.26,.05-.48,.1-.71,.15-.22,.05-.44,.1-.69,.15-.16,.03-.3,.06-.43,.09-.25,.06-.44,.1-.6,.1-.07,0-.15,.02-.25,.04-.31,.07-.72,.07-1.09,.11-.19,.02-.37,.05-.64,.06-.19,.05-.39,.07-.6,.09-.24,.03-.48,.05-.7,.11-.36,.09-.72,.09-.91,.09-.29,0-.55,.26-.55,.55,0,.11,.05,.47,.64,.44l.4-.1c.35-.09,.68-.09,1.11,.01,.27,0,.69,.24,1.02,.57,.41,.51,.78,1.2,1.15,2.11,.35,.89,.65,2.21,.98,4.42l1.35,8.9-14.85-13.71c-.16-.16-.32-.29-.47-.42-.14-.12-.28-.24-.43-.38-.27-.27-.46-.46-.53-.61l-.07-.09c-.3-.3-.53-.28-.69-.19-.06,0-.14,.02-.23,.04-.2,.04-.49,.09-.88,.15-.8,.11-2.08,.33-3.45,.6-.2,0-.39,.12-.46,.3-.06,.13-.04,.28,.03,.4,.04,.14,.17,.31,.53,.31l.31-.11c.4-.07,.83,.01,1.2,.1,.33,.08,.71,.36,1.04,.61,.08,.08,.16,.15,.23,.21,.09,.08,.17,.14,.2,.2,.04,.09,.09,.16,.12,.22,.02,.03,.04,.06,.04,.07l1.7,11.4c.23,1.48,.34,2.69,.43,3.66l.07,.69c0,1.08,0,1.86-.09,2.33-.09,.43-.25,.74-.45,.87-.24,.16-.48,.24-.7,.24h-.2c-.29,0-.55,.26-.55,.55,0,.1,.04,.44,.61,.44,0,0,.02,0,.03,0,.4-.1,.89-.2,1.38-.3l.38-.08c.28-.06,.54-.11,.65-.11s.42,0,.76-.1c.2,0,.39-.03,.59-.05,.19-.02,.37-.05,.56-.05,.36,0,.83-.07,1.39-.21,.36-.09,.72-.09,.91-.09s.39-.12,.46-.3c.07-.17,.03-.37-.11-.51-.14-.14-.23-.21-.54-.19l-.4,.1c-.35,.09-.68,.09-1.11-.01-.32,0-.69-.34-.92-.57-.44-.55-.79-1.25-1.05-2.11-.35-.89-.65-2.21-.98-4.42l-1.55-10.5,17.35,16.1c.2,.2,.34,.34,.59,.47,.07,.03,.12,.07,.16,.09,.11,.07,.23,.14,.39,.14,.55,0,.55-.49,.55-.81Zm26.35-23.76c0-.11-.04-.45-.55-.45-.46,0-.85,.08-1.26,.16l-.21,.04c-.47,.09-.74,.09-1.03,.09h-.8c-.41,0-.84,0-1.2,.1-.42,0-.94,0-1.3,.1-.42,0-.82,0-1.09,.11-.25,.05-.46,.28-.46,.55,0,.11,.04,.45,.55,.45h.4c.39,0,.76,0,1.11,.09,.48,.12,.84,.34,1.11,.68,.4,.5,.76,1.27,1.04,2.17,.37,1.37,.61,2.86,.69,4.44l.72,8.99-13.92-14.77c-.14-.14-.26-.28-.38-.43-.13-.16-.26-.32-.42-.47-.15-.15-.25-.28-.33-.39s-.17-.21-.27-.31c-.14-.14-.3-.3-.55-.3-.05,0-.18,.02-.37,.05-.2,.04-.5,.09-.88,.15-.66,.09-1.83,.19-3.45,.3-.23,0-.4,.16-.45,.2l-.1,.1v.15c0,.11,.06,.46,.64,.44l.31-.09c.57,0,.92,0,1.24,.16,.38,.19,.75,.37,1.11,.73,.09,.09,.24,.24,.3,.32l.04,.09c.06,.12,.06,.16,.06,.27l.8,11.49,.07,1.2c.08,1.36,.13,2.43,.13,3.28,0,1.05-.09,1.81-.27,2.27-.08,.2-.29,.73-.48,.8l-.08,.04c-.15,.1-.32,.13-.55,.18-.11,.02-.22,.04-.26,.06h-.2c-.29,0-.55,.26-.55,.55,0,.11,.04,.45,.55,.45,.36,0,.78-.07,1.27-.16l.29-.05c.57-.1,.85-.1,1.04-.1h1.9c.42,0,.94,0,1.3-.1,.25,0,.5-.04,.71-.07,.12-.02,.22-.03,.29-.03,.2,0,.39-.12,.46-.3,.06-.13,.04-.28-.03-.4-.04-.14-.17-.31-.53-.31h-.4c-.39,0-.76,0-1.11-.09-.29-.07-.63-.21-1.01-.68-.4-.5-.7-1.38-.94-2.17-.32-1.16-.52-2.82-.69-4.43l-.82-10.49,16.18,17.23c.16,.27,.42,.4,.63,.51,.07,.03,.12,.07,.16,.09,.11,.07,.23,.14,.39,.14,.55,0,.55-.49,.55-.68l-1-13.61c-.12-1.19-.17-2.18-.21-3.05-.03-.58-.05-1.1-.09-1.51,0-1.02,0-1.83,.19-2.33,.07-.36,.2-.59,.41-.75,.26-.09,.52-.17,.84-.17h.2c.3,0,.55-.26,.55-.55Zm12.9,21.9c0-.11-.04-.45-.55-.45h-.7c-.33,0-.62,0-.74-.06-.06-.03-.22-.2-.31-.65-.09-.44-.19-1.2-.19-2.33,0-.47-.02-1.02-.04-1.64-.03-.83-.06-1.81-.06-2.96v-10.2c0-1.19,.12-1.97,.19-2.33,.09-.45,.26-.62,.31-.65,.07-.03,.2-.06,.35-.08,.14-.02,.3-.05,.39-.08h.7c.51,0,.55-.35,.55-.45s-.04-.45-.55-.45h-7.2c-.51,0-.55,.35-.55,.45s.04,.45,.55,.45h.7c.33,0,.62,0,.74,.06,.06,.03,.22,.2,.31,.65,.09,.44,.19,1.2,.19,2.33,0,.47,.02,1.02,.04,1.64,.03,.83,.06,1.81,.06,2.96v10.2c0,1.19-.12,1.97-.19,2.33-.09,.45-.26,.62-.31,.65-.07,.03-.2,.06-.35,.08-.14,.02-.3,.05-.39,.08h-.7c-.51,0-.55,.35-.55,.45s.04,.45,.55,.45h7.2c.51,0,.55-.35,.55-.45Zm25.7-19.92l-.2-.1c-.3-.15-.65-.3-1.1-.49l-.54-.23c-.6-.2-1.29-.4-1.99-.6l-.12,.33,.1-.34c-.4-.11-.8-.2-1.21-.28-.32-.07-.65-.13-1.04-.23-.79-.1-1.49-.2-2.12-.3-1.86-.12-3.44,.05-4.83,.52-1.33,.44-2.88,1.05-4.2,2.15-1.21,.91-2.25,2.13-2.99,3.51-.8,1.4-1.24,2.92-1.35,4.65-.1,1.67,.11,3.31,.62,4.74,.5,1.41,1.32,2.77,2.37,3.92,1.07,1.17,2.31,2.08,3.8,2.78,1.43,.72,3.06,1.13,4.84,1.24,.74,.04,1.43,.07,2.07,.07,1.02,0,1.92-.06,2.7-.17,1.49-.21,2.66-.41,3.56-.71l.21-.07,.98-8.02h-1l-.05,.3c-.19,1.25-.58,2.34-.97,3.3-.51,1.03-1.1,1.87-1.73,2.51-.63,.63-1.48,1.12-2.45,1.41-.95,.28-2.11,.38-3.37,.29-1.29-.09-2.56-.46-3.66-1.06-1.09-.59-1.93-1.37-2.58-2.39-.63-.9-1.13-2.1-1.44-3.47-.29-1.36-.39-2.84-.3-4.38,.24-1.66,.56-3.04,.97-4.2,.56-1.21,1.23-2.29,2.03-3.3,.94-.94,1.9-1.56,2.99-1.92,1.04-.44,2.23-.58,3.84-.47,2.41,.19,4.13,.97,5.25,2.37,1.13,1.41,1.72,3.34,1.82,5.89v.34h1l.11-7.57Zm14.7,1.62c0-.51-.42-.55-.55-.55-.07,0-.15-.02-.24-.03-.27-.05-.61-.04-1.08-.11-.39-.05-.85-.06-1.19-.11-.32-.05-.63-.05-.84-.11-.08-.02-.16-.04-.3-.06-.11-.03-.27-.07-.48-.08-.16-.05-.33-.08-.51-.1-.14-.02-.29-.04-.46-.09-.21-.05-.4-.08-.58-.11-.16-.02-.33-.05-.52-.09-.18-.04-.34-.07-.48-.09-.15-.02-.28-.05-.35-.08l-.16-.04c-.51,0-.55,.35-.55,.45,0,.52,.42,.56,.5,.55l.66,.09c.37,.09,.65,.19,.81,.26,.06,.06,.14,.32,.23,.76,.1,.49-.04,1.38-.21,2.3-.06,.71-.22,1.62-.4,2.68-.09,.55-.2,1.15-.3,1.8l-.9,5.5c-.23,1.42-.45,2.62-.63,3.6l-.17,.9c-.17,.96-.36,1.69-.58,2.23-.21,.54-.34,.58-.37,.58l-.16,.04c-.09,.05-.39,.06-.69-.03l-.75-.1c-.51,0-.55,.35-.55,.45,0,.5,.39,.55,.55,.55,.07,0,.15,.02,.24,.03,.18,.03,.41,.07,.57,.06,.44,.11,.77,.11,1.1,.1,.64,.16,1.12,.08,1.44,.17,.08,.02,.16,.04,.3,.06,.11,.03,.27,.07,.48,.08,.16,.05,.33,.08,.51,.1,.14,.02,.29,.04,.46,.09,.21,.05,.4,.08,.59,.11,.16,.02,.33,.05,.49,.09,.17,.06,.33,.08,.5,.11,.13,.02,.27,.04,.4,.09l.11,.02c.51,0,.55-.35,.55-.45,0-.51-.43-.57-.5-.55l-.66-.09c-.37-.09-.65-.19-.81-.26-.09-.09-.2-.6-.23-.76-.1-.49,.04-1.38,.21-2.3,.06-.71,.22-1.62,.4-2.67,.09-.56,.2-1.16,.3-1.81l.9-5.5c.23-1.42,.45-2.62,.63-3.6l.17-.9c.17-.96,.36-1.69,.58-2.23,.21-.54,.34-.58,.37-.58l.16-.04c.09-.05,.39-.06,.69,.03l.75,.1c.51,0,.55-.35,.55-.45Z"/>
  <g>
    <path d="M20.83,134.08c.54,0,1.01-.15,1.41-.45s.6-.76,.6-1.36v-45.96c0-.61-.2-1.02-.6-1.26-.4-.23-.87-.35-1.41-.35v-1.82h18.85v1.82c-.34,0-.69,.1-1.06,.3-.37,.2-.55,.5-.55,.91,0,.34,.13,.77,.4,1.31,.27,.54,.57,1.11,.91,1.71l14.41,26.21,14.52-25.9c.47-.87,.82-1.56,1.06-2.07,.23-.5,.35-.96,.35-1.36,0-.74-.44-1.11-1.31-1.11v-1.82h18.65v1.82c-.54,0-1.01,.12-1.41,.35-.4,.24-.61,.66-.61,1.26v45.96c0,.6,.2,1.06,.61,1.36s.87,.45,1.41,.45v1.81h-15.83v-1.81c1.81,0,2.72-.61,2.72-1.81v-33.47h-.2l-20.26,37.09h-.3l-19.86-37.2h-.2v33.57c0,1.21,.94,1.81,2.82,1.81v1.81h-15.12v-1.81Z"/>
    <path d="M144.98,99.39c0-.64-.25-1.12-.74-1.44-.5-.32-1.35-.48-2.57-.48h-28.28v10.82h17.11c1.16,0,2.06-.16,2.71-.48,.64-.32,.96-1.15,.96-2.49h1.57v13.61h-1.57c0-1.34-.32-2.2-.96-2.57-.64-.38-1.54-.57-2.71-.57h-17.11v12.04h29.15c.87,0,1.58-.2,2.14-.61,.55-.41,.83-.96,.83-1.66h1.57v11.96h-1.57c0-.87-.28-1.37-.83-1.48-.55-.12-1.27-.17-2.14-.17h-40.67v-1.57c.41,0,.77-.13,1.09-.39,.32-.26,.48-.66,.48-1.18v-39.62c0-.52-.16-.92-.48-1.18-.32-.26-.68-.39-1.09-.39v-1.57h39.79c1.22,0,2.08-.19,2.57-.57,.49-.38,.74-.89,.74-1.53h1.57v11.52h-1.57Z"/>
    <path d="M36.83,150.7c0-.42-.26-.63-.77-.63v-.63h5.37v.63c-.16,0-.31,.05-.44,.16s-.19,.26-.19,.47v15.85c0,.21,.06,.37,.19,.47s.27,.16,.44,.16v.63h-5.37v-.63c.51,0,.77-.21,.77-.63v-6.56h-11.24v6.56c0,.21,.06,.37,.19,.47,.13,.1,.27,.16,.44,.16v.63h-5.27v-.63c.44,0,.66-.21,.66-.63v-15.85c0-.42-.22-.63-.66-.63v-.63h5.27v.63c-.16,0-.31,.05-.44,.16-.13,.1-.19,.26-.19,.47v5.93h11.24v-5.93Z"/>
    <path d="M45.52,167.17c.3-.05,.54-.2,.72-.45,.17-.26,.34-.55,.51-.87l6.46-13.58c.16-.3,.31-.58,.44-.84,.13-.26,.19-.48,.19-.66,0-.23-.08-.4-.24-.49-.16-.09-.34-.16-.52-.21v-.63h5.9v.63c-.16,.05-.33,.11-.49,.19-.16,.08-.24,.25-.24,.51,0,.19,.04,.37,.12,.56,.08,.19,.2,.43,.37,.73l7.26,14.21c.12,.26,.27,.44,.47,.56s.42,.23,.68,.35v.63h-6.14v-.63c.09,0,.21-.04,.35-.1,.14-.07,.21-.17,.21-.31,0-.23-.09-.53-.28-.91l-1.33-2.58h-8.52l-1.26,2.48c-.23,.49-.35,.84-.35,1.05,0,.26,.22,.38,.66,.38v.63h-4.96v-.63Zm13.16-6.49l-2.93-6.49-3.28,6.49h6.21Z"/>
    <path d="M70.96,167.17c.6,0,.91-.21,.91-.63v-15.85c0-.42-.3-.63-.91-.63v-.63h5.79v.63c-.61,0-.91,.21-.91,.63v15.85c0,.42,.3,.63,.91,.63v.63h-5.79v-.63Z"/>
    <path d="M94.42,149.44c1.12,0,2.13,.1,3.04,.3,.91,.2,1.69,.51,2.34,.94,.65,.43,1.15,.99,1.5,1.68s.52,1.53,.52,2.53c0,1.54-.45,2.71-1.36,3.53-.91,.81-2.13,1.36-3.66,1.64l4.64,6.63c.16,.23,.35,.37,.58,.42s.42,.07,.61,.07v.63h-6.53v-.63c.21,0,.39-.04,.54-.1,.15-.07,.23-.16,.23-.28s-.05-.25-.14-.4c-.09-.15-.23-.35-.42-.61l-3.84-5.45h-4.99v6.21c0,.21,.08,.37,.23,.47,.15,.1,.42,.16,.82,.16v.63h-6.04v-.63c.67,0,1.01-.21,1.01-.63v-15.85c0-.42-.34-.63-1.01-.63v-.63h11.94Zm-.91,8.17c.84,0,1.54-.06,2.09-.19s1-.31,1.33-.54c.33-.23,.56-.51,.7-.82s.21-.66,.21-1.03-.07-.71-.21-1.03-.37-.59-.7-.82c-.33-.23-.77-.41-1.33-.54s-1.26-.19-2.09-.19h-6.04v5.17h6.04Z"/>
    <path d="M119.06,149.44c1.28,0,2.47,.19,3.58,.56,1.11,.37,2.07,.94,2.88,1.69,.81,.76,1.45,1.71,1.92,2.86s.7,2.51,.7,4.07-.23,2.91-.7,4.07-1.11,2.11-1.92,2.86-1.77,1.32-2.88,1.69-2.3,.56-3.58,.56h-11.59v-.63c.54,0,.8-.21,.8-.63v-15.85c0-.42-.27-.63-.8-.63v-.63h11.59Zm-1.4,15.36c1.09,0,2.05-.09,2.86-.28,.81-.19,1.49-.52,2.02-.99,.54-.48,.94-1.11,1.2-1.9,.27-.79,.4-1.79,.4-3s-.13-2.21-.4-3c-.27-.79-.67-1.42-1.2-1.9s-1.21-.81-2.02-.99c-.81-.19-1.77-.28-2.86-.28h-5.41v12.36h5.41Z"/>
    <path d="M144.82,149.44c1.12,0,2.13,.1,3.04,.3,.91,.2,1.69,.51,2.34,.94,.65,.43,1.15,.99,1.5,1.68s.52,1.53,.52,2.53c0,1.54-.45,2.71-1.36,3.53-.91,.81-2.13,1.36-3.66,1.64l4.64,6.63c.16,.23,.35,.37,.58,.42s.42,.07,.61,.07v.63h-6.53v-.63c.21,0,.39-.04,.54-.1,.15-.07,.23-.16,.23-.28s-.05-.25-.14-.4c-.09-.15-.23-.35-.42-.61l-3.84-5.45h-4.99v6.21c0,.21,.08,.37,.23,.47,.15,.1,.42,.16,.82,.16v.63h-6.04v-.63c.67,0,1.01-.21,1.01-.63v-15.85c0-.42-.34-.63-1.01-.63v-.63h11.94Zm-.91,8.17c.84,0,1.54-.06,2.09-.19s1-.31,1.33-.54c.33-.23,.56-.51,.7-.82s.21-.66,.21-1.03-.07-.71-.21-1.03-.37-.59-.7-.82c-.33-.23-.77-.41-1.33-.54s-1.26-.19-2.09-.19h-6.04v5.17h6.04Z"/>
    <path d="M175.53,153.21c0-.26-.1-.45-.3-.58-.2-.13-.54-.19-1.03-.19h-11.31v4.33h6.84c.47,0,.83-.06,1.08-.19,.26-.13,.38-.46,.38-.99h.63v5.44h-.63c0-.53-.13-.88-.38-1.03-.26-.15-.62-.23-1.08-.23h-6.84v4.82h11.66c.35,0,.63-.08,.85-.25,.22-.16,.33-.38,.33-.66h.63v4.78h-.63c0-.35-.11-.55-.33-.59-.22-.05-.51-.07-.85-.07h-16.27v-.63c.16,0,.31-.05,.44-.16,.13-.1,.19-.26,.19-.47v-15.85c0-.21-.06-.37-.19-.47-.13-.1-.27-.16-.44-.16v-.63h15.92c.49,0,.83-.08,1.03-.23,.2-.15,.3-.35,.3-.61h.63v4.61h-.63Z"/>
    <path d="M182.93,162.04l.35,.17c0,.21,.05,.4,.14,.56,.16,.28,.48,.55,.96,.82s1.02,.51,1.64,.72c.62,.21,1.26,.38,1.94,.51s1.28,.19,1.82,.19c.4,0,.91-.03,1.54-.09,.63-.06,1.24-.18,1.85-.37,.6-.19,1.13-.44,1.57-.77,.44-.33,.66-.76,.66-1.29s-.2-.93-.61-1.19c-.41-.26-.94-.44-1.61-.56s-1.42-.19-2.27-.23c-.85-.04-1.72-.09-2.6-.16-.88-.07-1.75-.19-2.6-.35-.85-.16-1.61-.44-2.27-.82-.66-.38-1.2-.91-1.61-1.57-.41-.66-.61-1.53-.61-2.6,0-.72,.17-1.43,.51-2.13,.34-.7,.86-1.31,1.55-1.85,.7-.53,1.58-.97,2.65-1.31,1.07-.34,2.33-.51,3.77-.51,1.23,0,2.3,.09,3.21,.28s1.69,.38,2.36,.59c.66,.21,1.22,.41,1.68,.59s.83,.28,1.13,.28c.33,0,.56-.07,.7-.21l.42,.28-2.41,4.36-.35-.14c-.05-.33-.14-.59-.28-.8-.19-.28-.49-.55-.92-.82-.43-.27-.94-.51-1.52-.72-.58-.21-1.21-.38-1.88-.51-.68-.13-1.35-.19-2.02-.19-.51,0-1.04,.04-1.59,.12-.55,.08-1.04,.2-1.48,.37-.44,.16-.81,.38-1.1,.65-.29,.27-.44,.6-.44,.99,0,.56,.2,.98,.61,1.26,.41,.28,.94,.49,1.61,.63,.66,.14,1.42,.23,2.27,.28,.85,.05,1.72,.1,2.6,.17,.88,.07,1.75,.19,2.6,.37,.85,.17,1.61,.45,2.27,.84,.66,.38,1.2,.9,1.61,1.55,.41,.65,.61,1.5,.61,2.55,0,1.21-.32,2.2-.96,2.97-.64,.77-1.44,1.37-2.39,1.82-.95,.44-1.98,.74-3.09,.89-1.11,.15-2.14,.23-3.09,.23-1.33,0-2.44-.08-3.33-.23-.9-.15-1.64-.34-2.23-.56-.59-.22-1.06-.42-1.41-.59s-.65-.26-.91-.26c-.16,0-.31,.09-.45,.28l-.49-.28,1.92-4.22Z"/>
    <path d="M206.21,162.04l.35,.17c0,.21,.05,.4,.14,.56,.16,.28,.48,.55,.96,.82s1.02,.51,1.64,.72c.62,.21,1.26,.38,1.94,.51s1.28,.19,1.82,.19c.4,0,.91-.03,1.54-.09,.63-.06,1.24-.18,1.85-.37,.6-.19,1.13-.44,1.57-.77,.44-.33,.66-.76,.66-1.29s-.2-.93-.61-1.19c-.41-.26-.94-.44-1.61-.56s-1.42-.19-2.27-.23c-.85-.04-1.72-.09-2.6-.16-.88-.07-1.75-.19-2.6-.35-.85-.16-1.61-.44-2.27-.82-.66-.38-1.2-.91-1.61-1.57-.41-.66-.61-1.53-.61-2.6,0-.72,.17-1.43,.51-2.13,.34-.7,.86-1.31,1.55-1.85,.7-.53,1.58-.97,2.65-1.31,1.07-.34,2.33-.51,3.77-.51,1.23,0,2.3,.09,3.21,.28s1.69,.38,2.36,.59c.66,.21,1.22,.41,1.68,.59s.83,.28,1.13,.28c.33,0,.56-.07,.7-.21l.42,.28-2.41,4.36-.35-.14c-.05-.33-.14-.59-.28-.8-.19-.28-.49-.55-.92-.82-.43-.27-.94-.51-1.52-.72-.58-.21-1.21-.38-1.88-.51-.68-.13-1.35-.19-2.02-.19-.51,0-1.04,.04-1.59,.12-.55,.08-1.04,.2-1.48,.37-.44,.16-.81,.38-1.1,.65-.29,.27-.44,.6-.44,.99,0,.56,.2,.98,.61,1.26,.41,.28,.94,.49,1.61,.63,.66,.14,1.42,.23,2.27,.28,.85,.05,1.72,.1,2.6,.17,.88,.07,1.75,.19,2.6,.37,.85,.17,1.61,.45,2.27,.84,.66,.38,1.2,.9,1.61,1.55,.41,.65,.61,1.5,.61,2.55,0,1.21-.32,2.2-.96,2.97-.64,.77-1.44,1.37-2.39,1.82-.95,.44-1.98,.74-3.09,.89-1.11,.15-2.14,.23-3.09,.23-1.33,0-2.44-.08-3.33-.23-.9-.15-1.64-.34-2.23-.56-.59-.22-1.06-.42-1.41-.59s-.65-.26-.91-.26c-.16,0-.31,.09-.45,.28l-.49-.28,1.92-4.22Z"/>
    <path d="M228.03,167.17c.6,0,.91-.21,.91-.63v-15.85c0-.42-.3-.63-.91-.63v-.63h5.79v.63c-.61,0-.91,.21-.91,.63v15.85c0,.42,.3,.63,.91,.63v.63h-5.79v-.63Z"/>
    <path d="M239.93,167.17c.44,0,.66-.21,.66-.63v-15.85c0-.42-.22-.63-.66-.63v-.63h5.97v.63c-.19,0-.28,.12-.28,.35,0,.19,.23,.51,.7,.98l10.02,10.4v-11.1c0-.42-.3-.63-.91-.63v-.63h5.27v.63c-.44,0-.66,.21-.66,.63v15.85c0,.42,.22,.63,.66,.63v.63h-5.65v-.63c.3,0,.45-.1,.45-.31,0-.16-.19-.43-.56-.8l-10.65-11.1v11.59c0,.42,.27,.63,.8,.63v.63h-5.17v-.63Z"/>
    <path d="M283.63,155.1l-.7-.21c.05-.14,.07-.28,.07-.42,0-.35-.22-.66-.65-.94-.43-.28-.98-.52-1.64-.71s-1.38-.34-2.16-.44c-.78-.09-1.52-.14-2.22-.14-.86,0-1.72,.12-2.57,.37-.85,.25-1.61,.62-2.27,1.13-.66,.51-1.2,1.18-1.61,1.99-.41,.81-.61,1.8-.61,2.97s.2,2.12,.61,2.95c.41,.83,.94,1.5,1.61,2.01,.66,.51,1.42,.89,2.27,1.13,.85,.24,1.7,.37,2.57,.37,1.33,0,2.52-.11,3.58-.33,1.06-.22,1.96-.46,2.7-.72v-3h-4.47c-.33,0-.57,.07-.73,.21-.16,.14-.27,.44-.31,.91h-.63v-4.47h.63c.05,.4,.15,.65,.31,.75,.16,.11,.41,.16,.73,.16h8.73v.63c-.47,.07-.76,.15-.87,.24-.12,.09-.17,.29-.17,.59v3.94c0,.23,.07,.38,.21,.45,.14,.07,.3,.15,.49,.25v.56c-.77,.53-1.58,.98-2.43,1.33-.85,.35-1.71,.62-2.58,.82s-1.74,.32-2.62,.37c-.87,.05-1.73,.07-2.57,.07-1.63,0-3.11-.2-4.45-.61s-2.48-1.01-3.44-1.82c-.95-.8-1.69-1.78-2.22-2.93s-.79-2.46-.79-3.93,.26-2.78,.79-3.93,1.26-2.13,2.22-2.95c.95-.81,2.1-1.44,3.44-1.87s2.82-.65,4.45-.65c1.02,0,2,.07,2.93,.21,.93,.14,1.76,.3,2.48,.47,.72,.17,1.32,.34,1.8,.49,.48,.15,.77,.23,.89,.23,.21,0,.37-.05,.49-.14,.12-.09,.23-.17,.35-.24l.42,.24-2.06,4.61Z"/>
    <path d="M159.41,134.3c1.1,0,1.66-.52,1.66-1.57v-39.62c0-1.05-.55-1.57-1.66-1.57v-1.57h14.92v1.57c-.47,0-.7,.29-.7,.87,0,.47,.58,1.28,1.75,2.44l25.05,26.01v-27.75c0-1.05-.76-1.57-2.27-1.57v-1.57h13.18v1.57c-1.11,0-1.66,.52-1.66,1.57v39.62c0,1.05,.55,1.57,1.66,1.57v1.57h-14.14v-1.57c.76,0,1.13-.26,1.13-.79,0-.41-.47-1.08-1.4-2.01l-26.62-27.75v28.97c0,1.05,.67,1.57,2.01,1.57v1.57h-12.92v-1.57Z"/>
    <path d="M244.58,121.47l.87,.44c0,.52,.12,.99,.35,1.4,.41,.7,1.21,1.38,2.4,2.05,1.19,.67,2.56,1.26,4.1,1.79,1.54,.52,3.16,.95,4.84,1.27,1.69,.32,3.2,.48,4.54,.48,.99,0,2.27-.07,3.84-.22,1.57-.14,3.11-.45,4.63-.92,1.51-.46,2.82-1.1,3.93-1.92,1.1-.81,1.66-1.89,1.66-3.23s-.51-2.33-1.53-2.97c-1.02-.64-2.36-1.1-4.01-1.4-1.66-.29-3.55-.48-5.67-.57-2.12-.09-4.29-.22-6.5-.39-2.21-.17-4.38-.46-6.5-.87-2.12-.41-4.01-1.09-5.67-2.05s-3-2.27-4.01-3.93c-1.02-1.66-1.53-3.82-1.53-6.5,0-1.8,.42-3.58,1.27-5.32,.84-1.74,2.14-3.29,3.88-4.63,1.75-1.34,3.96-2.43,6.63-3.27,2.68-.84,5.82-1.26,9.43-1.26,3.08,0,5.76,.23,8.03,.7,2.27,.47,4.23,.96,5.89,1.48,1.66,.52,3.05,1.02,4.19,1.48,1.13,.47,2.08,.7,2.84,.7,.81,0,1.4-.17,1.74-.52l1.05,.7-6.02,10.91-.87-.35c-.12-.81-.35-1.48-.7-2.01-.47-.7-1.24-1.38-2.31-2.05-1.08-.67-2.34-1.26-3.8-1.79-1.46-.52-3.03-.94-4.71-1.27-1.69-.32-3.37-.48-5.06-.48-1.28,0-2.6,.1-3.97,.3-1.37,.2-2.6,.51-3.71,.92-1.11,.41-2.02,.95-2.75,1.61-.73,.67-1.09,1.5-1.09,2.49,0,1.4,.51,2.44,1.53,3.14,1.02,.7,2.36,1.22,4.01,1.57,1.66,.35,3.55,.58,5.67,.7,2.12,.12,4.29,.26,6.5,.44,2.21,.17,4.38,.48,6.5,.92,2.12,.44,4.01,1.13,5.67,2.09s3,2.26,4.01,3.88c1.02,1.63,1.53,3.75,1.53,6.37,0,3.03-.8,5.5-2.4,7.42-1.6,1.92-3.59,3.43-5.98,4.54-2.39,1.11-4.96,1.85-7.72,2.23-2.76,.38-5.34,.57-7.72,.57-3.32,0-6.1-.19-8.33-.57-2.24-.38-4.1-.84-5.59-1.4s-2.66-1.05-3.53-1.48c-.87-.44-1.63-.65-2.27-.65-.41,0-.79,.23-1.13,.7l-1.22-.7,4.8-10.56Z"/>
    <path d="M220.94,105.04c.87-.23,1.85-.68,2.92-1.35,1.08-.67,2.08-1.46,3.01-2.36,.93-.9,1.69-1.88,2.27-2.92,.58-1.05,.82-2.09,.7-3.14-.12-.41-.44-.64-.96-.7-.52-.06-1.02-.09-1.48-.09-1.45,0-2.72-.48-3.8-1.44-1.08-.96-1.61-2.31-1.61-4.06s.6-3.14,1.79-4.36c1.19-1.22,2.55-1.83,4.06-1.83,2.33,0,4.09,.84,5.28,2.53,1.19,1.69,1.79,3.75,1.79,6.2,0,1.92-.39,3.77-1.18,5.54-.79,1.77-1.82,3.39-3.1,4.84-1.28,1.45-2.76,2.71-4.45,3.75-1.69,1.05-3.43,1.77-5.24,2.18v-2.79Z"/>
  </g>
</svg>