<?xml version="1.0" encoding="utf-8"?>
<svg width="80" height="80" version="1.1" id="Layer_1" xmlns="http://www.w3.org/2000/svg" xmlns:xlink="http://www.w3.org/1999/xlink" x="0px" y="0px"
	 viewBox="0 0 80 80" style="enable-background:new 0 0 80 80;" xml:space="preserve">
<path id="location" d="M77,28.1L75.1,4.3c0-0.5-0.4-0.9-0.9-0.9H5.3c-0.5,0-0.9,0.4-0.9,0.9L2.4,28.1c0,0,0,0,0,0c0,0,0,0,0,0
	c0,2,1,3.7,2.6,4.7v44.2C5,77.6,5.5,78,6,78h67.5c0.5,0,0.9-0.4,0.9-0.9V32.9C76,31.9,77,30.2,77,28.1C77,28.2,77,28.2,77,28.1
	C77,28.1,77,28.1,77,28.1z M71.5,31.9c-1.7,0-3.1-1.2-3.5-2.7h7C74.6,30.7,73.2,31.9,71.5,31.9z M72.6,70.1H66V55.3h6.6V70.1z
	 M64.1,70.1h-6.7V55.3h6.7C64.1,55.3,64.1,70.1,64.1,70.1z M55.5,70.1h-6.7V55.3h6.7V70.1z M47,70.1h-6.7V55.3H47V70.1z M38.4,70.1
	h-6.7V55.3h6.7C38.4,55.3,38.4,70.1,38.4,70.1z M4.4,29.1h7c-0.4,1.6-1.8,2.7-3.5,2.7C6.3,31.9,4.9,30.7,4.4,29.1z M57,27.3h-7.2
	v-22H57V27.3z M38.8,27.3h-7.2v-22h7.2V27.3z M20.6,27.3h-7.2v-22h7.2V27.3z M20.5,29.1c-0.4,1.6-1.8,2.7-3.5,2.7s-3.1-1.2-3.5-2.7
	H20.5z M29.6,29.1c-0.4,1.6-1.8,2.7-3.5,2.7c-1.7,0-3.1-1.2-3.5-2.7H29.6z M38.7,29.1c-0.4,1.6-1.8,2.7-3.5,2.7s-3.1-1.2-3.5-2.7
	H38.7z M47.8,29.1c-0.4,1.6-1.8,2.7-3.5,2.7s-3.1-1.2-3.5-2.7H47.8z M56.9,29.1c-0.4,1.6-1.8,2.7-3.5,2.7s-3.1-1.2-3.5-2.7H56.9z
	 M65.9,29.1c-0.4,1.6-1.8,2.7-3.5,2.7c-1.7,0-3.1-1.2-3.5-2.7H65.9z M75.1,27.3H68v-22h5.4L75.1,27.3z M7.9,33.7
	c1.9,0,3.6-1,4.5-2.4c1,1.4,2.7,2.4,4.5,2.4s3.6-1,4.5-2.4c1,1.4,2.7,2.4,4.5,2.4c1.4,0,2.7-0.5,3.7-1.4v37.8h-3.3V37.5
	c0-0.5-0.4-0.9-0.9-0.9H10.7c-0.5,0-0.9,0.4-0.9,0.9v32.6H6.9V33.6C7.2,33.7,7.6,33.7,7.9,33.7z M24.7,43.1h-13v-4.6h13L24.7,43.1
	L24.7,43.1z M11.7,44.9h13v25.2h-13V44.9z M72.6,53.5H31.7v-21c1,0.8,2.2,1.3,3.5,1.3c1.9,0,3.6-1,4.5-2.4c1,1.4,2.7,2.4,4.5,2.4
	c1.9,0,3.6-1,4.5-2.4c1,1.4,2.7,2.4,4.5,2.4s3.6-1,4.5-2.4c1,1.4,2.7,2.4,4.5,2.4s3.6-1,4.5-2.4c1,1.4,2.7,2.4,4.5,2.4
	c0.4,0,0.7,0,1.1-0.1V53.5z M22.8,51.5v2.7c0,0.5-0.4,0.9-0.9,0.9c-0.5,0-0.9-0.4-0.9-0.9v-2.7c0-0.5,0.4-0.9,0.9-0.9
	C22.4,50.6,22.8,51,22.8,51.5z"/>

</svg>
