<?xml version="1.0" encoding="utf-8"?>
<svg width="80" height="80" version="1.1" id="Layer_1" xmlns="http://www.w3.org/2000/svg" xmlns:xlink="http://www.w3.org/1999/xlink" x="0px" y="0px"
	 viewBox="0 0 80 80" style="enable-background:new 0 0 80 80;" xml:space="preserve">
<path id="contact" d="M75.1,18.4l-34.3-0.1l0-12.5c0-1.7,1.4-3.1,3.1-3.1c1.7,0,3.1,1.4,3.1,3.1l0,2.6c0,2.7,2.2,4.9,4.9,4.9
	s4.9-2.2,4.9-4.9l0-6.4c0-0.5-0.4-0.9-0.9-0.9c-0.5,0-0.9,0.4-0.9,0.9l0,6.4c0,1.7-1.4,3.1-3.1,3.1c-1.7,0-3.1-1.4-3.1-3.1l0-2.6
	c0-2.7-2.2-4.9-4.9-4.9C41.2,0.9,39,3,39,5.8l0,12.5l-6.7,0l0-2.4c0-2.4-1.9-4.3-4.3-4.3l-12.2,0c-2.4,0-4.3,1.9-4.3,4.3l0,2.4
	l-5.9,0c-0.5,0-0.9,0.4-0.9,0.9L4.4,77.1c0,0.5,0.4,0.9,0.9,0.9l69.5,0.3c0.5,0,0.9-0.4,0.9-0.9L76,19.3
	C76,18.8,75.6,18.4,75.1,18.4z M74,71.5L6.3,71.2l0.2-51.3l5,0l0,9.6c0,0.5,0.4,0.9,0.9,0.9c0.8,0,1.4,0.7,1.4,1.4l0,12.9
	c0,0.8-0.7,1.4-1.4,1.4c-0.5,0-0.9,0.4-0.9,0.9l-0.1,14c0,2.4,1.9,4.3,4.3,4.3l12.2,0c2.4,0,4.3-1.9,4.3-4.3l0.1-14
	c0-0.5-0.4-0.9-0.9-0.9c-0.8,0-1.4-0.7-1.4-1.4l0-12.9c0-0.8,0.7-1.4,1.5-1.4c0.5,0,0.9-0.4,0.9-0.9l0-9.6l41.8,0.2L74,71.5L74,71.5
	z M39.1,65.7l27.8,0.1c0.5,0,0.9-0.4,0.9-0.9l0.1-26.2c0-0.5-0.4-0.9-0.9-0.9l-27.8-0.1c-0.5,0-0.9,0.4-0.9,0.9l-0.1,26.2
	C38.2,65.3,38.6,65.7,39.1,65.7z M56.5,48.3l0,6.9l-6.9,0l0-6.9L56.5,48.3z M49.6,46.4l0-6.9l6.9,0l0,6.9L49.6,46.4z M66.1,55.2
	l-7.7,0l0-6.9l7.7,0L66.1,55.2z M56.5,57l0,6.9l-6.9,0l0-6.9L56.5,57z M47.8,55.2l-7.7,0l0-6.9l7.7,0L47.8,55.2z M40,56.9l7.7,0
	l0,6.9l-7.7,0L40,56.9z M58.3,63.9l0-6.9l7.7,0l0,6.9L58.3,63.9z M66.1,46.5l-7.7,0l0-6.9l7.7,0L66.1,46.5z M47.8,39.5l0,6.9l-7.7,0
	l0-6.9L47.8,39.5z M39.2,35L67,35.1c0.5,0,0.9-0.4,0.9-0.9l0-7.5c0-0.5-0.4-0.9-0.9-0.9l-27.8-0.1c-0.5,0-0.9,0.4-0.9,0.9l0,7.5
	C38.3,34.6,38.7,35,39.2,35z M40.1,27.5l26,0.1l0,5.7l-26-0.1L40.1,27.5z"/>
</svg>
