<?xml version="1.0" encoding="utf-8"?>
<svg width="80" height="80" version="1.1" id="Layer_1" xmlns="http://www.w3.org/2000/svg" xmlns:xlink="http://www.w3.org/1999/xlink" x="0px" y="0px"
	 viewBox="0 0 80 80" style="enable-background:new 0 0 80 80;" xml:space="preserve">
<path id="times" d="M76.1,4.7c0.5,0,0.9-0.4,0.9-0.9S76.6,3,76.1,3H5C4.5,3,4.2,3.4,4.2,3.9S4.5,4.7,5,4.7h12.7v3.1h-7.6
	c-0.5,0-0.9,0.4-0.9,0.9V77c0,0.5,0.4,0.9,0.9,0.9H71c0.5,0,0.9-0.4,0.9-0.9V8.7c0-0.5-0.4-0.9-0.9-0.9h-7.6V4.7H76.1z M70.2,9.6
	v60.6H11V9.6h6.8v3.3c-1.7,0.4-3,1.9-3,3.8c0,2.1,1.7,3.9,3.9,3.9s3.9-1.7,3.9-3.9c0-1.8-1.3-3.4-3-3.8V9.6h42.2v3.3
	c-1.7,0.4-3,1.9-3,3.8c0,2.1,1.7,3.9,3.9,3.9s3.9-1.7,3.9-3.9c0-1.8-1.3-3.4-3-3.8V9.6H70.2z M18.6,17.3c0.5,0,0.9-0.4,0.9-0.9v-1.7
	c0.8,0.3,1.3,1.1,1.3,2c0,1.2-1,2.2-2.2,2.2c-1.2,0-2.2-1-2.2-2.2c0-0.9,0.5-1.6,1.3-2v1.7C17.7,16.9,18.1,17.3,18.6,17.3z
	 M62.6,17.3c0.5,0,0.9-0.4,0.9-0.9v-1.7c0.8,0.3,1.3,1.1,1.3,2c0,1.2-1,2.2-2.2,2.2c-1.2,0-2.2-1-2.2-2.2c0-0.9,0.5-1.6,1.3-2v1.7
	C61.7,16.9,62.1,17.3,62.6,17.3z M61.7,7.9H19.5V4.7h42.2V7.9z M48.4,19.7H47c-0.3-3.6-3.4-6.4-7.1-6.4s-6.7,2.8-7.1,6.4h-1.2
	c-0.5,0-0.9,0.4-0.9,0.9V25c0,0.5,0.4,0.9,0.9,0.9h0.5v28.2h-0.5c-0.5,0-0.9,0.4-0.9,0.9v4.4c0,0.5,0.4,0.9,0.9,0.9h1.5
	c0.4,3.5,3.4,6.2,7,6.2s6.6-2.7,7-6.2h1.4c0.5,0,0.9-0.4,0.9-0.9v-4.4c0-0.5-0.4-0.9-0.9-0.9h-0.5V25.8h0.5c0.5,0,0.9-0.4,0.9-0.9
	v-4.4C49.3,20.1,48.9,19.7,48.4,19.7z M32.5,21.4h15v2.7h-15V21.4z M33.9,33.5l12.3,8.2c0,0,0,0,0,0V47l-12.3-8.2L33.9,33.5z
	 M33.9,48.4l8.4,5.6h-8.4L33.9,48.4z M47.6,58.5h-15v-2.7h15V58.5z M46.2,32.1l-9.4-6.3h9.4V32.1z"/>
</svg>
