<?xml version="1.0" encoding="utf-8"?>
<svg width="80" height="80" version="1.1" id="Layer_1" xmlns="http://www.w3.org/2000/svg" xmlns:xlink="http://www.w3.org/1999/xlink" x="0px" y="0px"
	 viewBox="0 0 80 80" style="enable-background:new 0 0 80 80;" xml:space="preserve">
<path id="services" d="M74.3,7H50.4c-0.5,0-0.9,0.4-0.9,0.9l0,4.8l4,50.1l0,6.4H48c0.2-0.3,0.3-0.7,0.3-1.1V35.1
	c0-3.2-1.7-6.2-4.6-8.3v-3.1c0-1.9-1.5-3.4-3.4-3.4h-2.8v-5.1h0.5c0.5,0,0.9-0.4,0.9-0.9V7.9c0-0.5-0.4-0.9-0.9-0.9h-6.2
	c-0.5,0-0.9,0.4-0.9,0.9v0.7h-7.5c-0.5,0-0.9,0.4-0.9,0.9v3.3c0,0.5,0.4,0.9,0.9,0.9h7.5v0.7c0,0.5,0.4,0.9,0.9,0.9h0.6v5.1h-2.9
	c-1.9,0-3.4,1.5-3.4,3.4v3.1c-2.9,2.1-4.6,5.2-4.6,8.3v15.9c-2.7-1-2.9-3.2-2.9-3.4c0-0.5-0.4-0.9-0.9-0.9c-2.9,0-5.2,2.3-5.2,5.2
	c0,0.3,0,0.6,0.1,0.9c-2.7,0.2-4.9,2.5-4.9,5.3c0,0.7,0.2,1.5,0.5,2.1c-2.4,0.6-4.2,2.7-4.2,5.3c0,1.4,0.6,2.8,1.5,3.8H4.7
	c-0.5,0-0.9,0.4-0.9,0.9v6.9c0,0.5,0.4,0.9,0.9,0.9H74c0.5,0,0.9-0.4,0.9-0.9v-6.9c0-0.5-0.4-0.9-0.9-0.9h-2.8v-6.4l4-50.2V7.9
	C75.2,7.4,74.8,7,74.3,7z M69.5,62H55.1l-3.8-48.4h22L69.5,62z M29.5,69.3c1.2-1.1,1.9-2.7,1.9-4.4c0-1.8-0.8-3.5-2.1-4.6h17.1v8
	c0,0.6-0.8,1.1-1.7,1.1H29.5z M32.6,8.8H37v4.6h-4.4V8.8z M24.2,11.9v-1.5h6.6v1.5H24.2z M34.1,15.2h1.6v5.1h-1.6V15.2z M27.8,23.7
	c0-0.9,0.7-1.6,1.6-1.6h10.8c0.9,0,1.6,0.7,1.6,1.6v2.7H27.8V23.7z M27.2,28.2h15.3c2.6,1.8,4,4.3,4,7v1.7H23.2v-1.7
	C23.2,32.5,24.6,30,27.2,28.2z M5.6,65.6c0-2,1.7-3.7,3.7-3.7c0.1,0,0.1,0,0.2,0c0.4,0,0.7-0.2,0.9-0.5s0.1-0.7-0.1-1
	c-0.6-0.6-0.9-1.5-0.9-2.3c0-1.9,1.6-3.5,3.5-3.5c0.2,0,0.4,0,0.7,0.1c0.3,0.1,0.7-0.1,0.9-0.3c0.2-0.3,0.2-0.6,0.1-0.9
	c-0.2-0.5-0.3-1-0.3-1.5c0-1.6,1.1-3,2.6-3.3c0.3,1.3,1.4,3.5,4.8,4.4c1.3,0.3,3.6,1.2,3.6,3.4c0,1-0.5,2-1.3,2.7
	c-0.3,0.2-0.4,0.7-0.3,1.1c0.2,0.4,0.5,0.6,1,0.5c0.3,0,0.5-0.1,0.7-0.1c2.4,0,4.4,2,4.4,4.4c0,2.4-2,4.4-4.5,4.4H9.4
	C7.4,69.3,5.6,67.6,5.6,65.6z M59.9,69.3c0.2-1.1,1.2-2,2.4-2s2.2,0.9,2.4,2H59.9z M66.5,69.3c-0.2-2.1-2-3.8-4.2-3.8
	c-2.2,0-4,1.7-4.2,3.8h-2.9l0-5.6h14.2v5.6H66.5z M22.8,56.7c0,0.5-0.4,0.9-0.9,0.9S21,57.2,21,56.7c0-0.5-0.6-0.7-1-0.8
	c-2.6-0.7-3.6-2.2-3.8-2.5C16.1,53.2,16,53,16,52.9c0-0.5,0.4-0.9,0.9-0.9c0.3,0,0.6,0.2,0.8,0.5c0,0,0.7,1.2,2.7,1.7
	C21.9,54.5,22.8,55.5,22.8,56.7z"/>
</svg>
