<?xml version="1.0" encoding="utf-8"?>
<svg width="80" height="80" version="1.1" id="Layer_1" xmlns="http://www.w3.org/2000/svg" xmlns:xlink="http://www.w3.org/1999/xlink" x="0px" y="0px"
	 viewBox="0 0 80 80" style="enable-background:new 0 0 80 80;" xml:space="preserve">
<path id="reviews" d="M19.4,17.7l2.5,5c0,0.1,0.1,0.1,0.2,0.1l5.6,0.8c0.2,0,0.3,0.3,0.1,0.4l-4,3.9c-0.1,0.1-0.1,0.1-0.1,0.2l1,5.5
	c0,0.2-0.2,0.3-0.3,0.2l-5-2.6c-0.1,0-0.1,0-0.2,0l-5,2.6c-0.2,0.1-0.4-0.1-0.3-0.2l1-5.5c0-0.1,0-0.1-0.1-0.2l-4-3.9
	c-0.1-0.1-0.1-0.4,0.1-0.4l5.6-0.8c0.1,0,0.1-0.1,0.2-0.1l2.5-5C19.1,17.6,19.4,17.6,19.4,17.7z M39.7,17.7l-2.5,5
	c0,0.1-0.1,0.1-0.2,0.1l-5.6,0.8c-0.2,0-0.3,0.3-0.1,0.4l4,3.9c0.1,0.1,0.1,0.1,0.1,0.2l-1,5.5c0,0.2,0.2,0.3,0.3,0.2l5-2.6
	c0.1,0,0.1,0,0.2,0l5,2.6c0.2,0.1,0.4-0.1,0.3-0.2l-1-5.5c0-0.1,0-0.1,0.1-0.2l4-3.9c0.1-0.1,0.1-0.4-0.1-0.4l-5.6-0.8
	c-0.1,0-0.1-0.1-0.2-0.1l-2.5-5C40,17.6,39.7,17.6,39.7,17.7z M60.3,17.7l-2.5,5c0,0.1-0.1,0.1-0.2,0.1L52,23.7
	c-0.2,0-0.3,0.3-0.1,0.4l4,3.9c0.1,0.1,0.1,0.1,0.1,0.2l-1,5.5c0,0.2,0.2,0.3,0.3,0.2l5-2.6c0.1,0,0.1,0,0.2,0l5,2.6
	c0.2,0.1,0.4-0.1,0.3-0.2l-1-5.5c0-0.1,0-0.1,0.1-0.2l4-3.9c0.1-0.1,0.1-0.4-0.1-0.4l-5.6-0.8c-0.1,0-0.1-0.1-0.2-0.1l-2.5-5
	C60.6,17.6,60.4,17.6,60.3,17.7z M67.4,41.9c0-0.4-0.3-0.7-0.7-0.7H12.3c-0.4,0-0.7,0.3-0.7,0.7s0.3,0.7,0.7,0.7h54.4
	C67.1,42.6,67.4,42.2,67.4,41.9z M67.4,49.4c0-0.4-0.3-0.7-0.7-0.7H12.3c-0.4,0-0.7,0.3-0.7,0.7s0.3,0.7,0.7,0.7h54.4
	C67.1,50.1,67.4,49.7,67.4,49.4z M30.2,56.4c0-0.4-0.3-0.7-0.7-0.7H12.3c-0.4,0-0.7,0.3-0.7,0.7s0.3,0.7,0.7,0.7h17.2
	C29.9,57.1,30.2,56.7,30.2,56.4z M2.5,71.9c0,0.6,0.5,1.1,1,1.1H52l7.6,5.9c0.2,0.1,0.4,0.2,0.6,0.2c0.2,0,0.4,0,0.5-0.2
	c0.4-0.2,0.5-0.6,0.4-1.1l-1-4.9H76c0.6,0,1-0.5,1-1.1V66l0.1-56c0-0.6-0.4-1-1-1H3.5c-0.6,0-1,0.4-1,1L2.5,71.9z M75.1,65.4H57.7
	c-0.3,0-0.6,0.1-0.8,0.4c-0.2,0.2-0.3,0.5-0.2,0.8l1.9,9l-12.8-10c-0.2-0.1-0.4-0.2-0.6-0.2H4.5V11h70.6V65.4z"/>
</svg>
